<svg xmlns="http://www.w3.org/2000/svg" viewBox="0 0 300 260"><polygon points="150 23.1 136.1 14.3 125.7 26.9 109.8 22.9 103.7 38.1 87.4 39.2 86.3 55.5 71.1 61.6 75.1 77.5 62.5 88 71.2 101.8 62.5 115.7 75.1 126.2 71.1 142 86.3 148.1 87.4 164.5 103.7 165.5 109.8 180.7 125.7 176.7 136.1 189.3 150 180.6 163.9 189.3 174.3 176.7 190.2 180.7 196.3 165.5 212.6 164.5 213.7 148.1 228.9 142 224.9 126.2 237.5 115.7 228.7 101.8 237.5 88 224.9 77.5 228.9 61.6 213.7 55.5 212.6 39.2 196.3 38.1 190.2 22.9 174.3 26.9 163.9 14.3 "></polygon></svg>