<svg xmlns="http://www.w3.org/2000/svg" viewBox="0 0 400 300"><g><path d="M239.6 113.9c0-3.9-3.2-7.1-7.1-7.1s-7.1 3.2-7.1 7.1c0 0.6 0.1 1.2 0.2 1.8c-3.3 0.6-5.8 3.4-5.9 6.8 c-0.1 3.9 3 7.1 6.9 7.2h0.1c2.3 0 4.4-1.2 5.7-3c1.3 1.7 3.3 2.9 5.6 3h0.1c3.8 0 7-3.1 7.1-6.9c0-1.9-0.7-3.7-2-5 c-1.1-1.1-2.5-1.8-4-2C239.5 115.1 239.6 114.5 239.6 113.9z M226.9 127.3v1.2V127.3c-2.7 0-4.7-2.2-4.7-4.8c0-2.5 2-4.5 4.6-4.6 c1 1.5 2.6 2.5 4.5 2.9c0.1 0.2 0.1 0.4 0.2 0.5c-0.1 0.4-0.1 0.7-0.1 1.1c0 0.5 0 0.9 0.1 1.4C230.8 125.8 229 127.3 226.9 127.3 z M238.4 117.9L238.4 117.9c1.3 0 2.4 0.5 3.3 1.4c0.9 0.9 1.3 2.1 1.3 3.3c0 2.5-2.1 4.6-4.7 4.6v1.2l-0.1-1.2 c-2.1 0-3.9-1.5-4.4-3.5c0.1-0.4 0.1-0.7 0.1-1.1c0-0.5 0-0.9-0.1-1.4c0-0.2 0.1-0.3 0.2-0.5C235.8 120.4 237.3 119.4 238.4 117.9 C238.3 117.9 238.4 117.9 238.4 117.9z"></path><path d="M263.8 141.2l-17.2-13c-0.5-0.4-1.3-0.3-1.7 0.2c-0.4 0.5-0.3 1.3 0.2 1.7l17.2 13l-1.5 1.9l10.1 3.1 l-5.7-8.8L263.8 141.2z"></path><path d="M175.2 101.5l-17.2 13c-0.5 0.4-0.6 1.1-0.2 1.7c0.2 0.3 0.6 0.5 0.9 0.5c0.2 0 0.5-0.1 0.7-0.2l17.2-13 l1.5 1.9l5.7-8.8l-10.1 3.1L175.2 101.5z"></path><path d="M212.3 108.2l-1.5 1.9l-17.2-13c-0.5-0.4-1.3-0.3-1.7 0.2s-0.3 1.3 0.2 1.7l17.2 13l-1.5 1.9L218 117 L212.3 108.2z"></path><path d="M148.9 78.5h0.1l0 0c3.8 0 7-3.1 7.1-6.9c0-0.1 0-0.2 0-0.3h0.1c3.9 0 7.1-3.2 7.1-7.1 c0-3.9-3.2-7.1-7.1-7.1c-3.9 0-7.1 3.2-7.1 7.1v0.1H149c-3.8 0-7 3.1-7.1 6.9C141.9 75.2 145 78.5 148.9 78.5z M149.1 66.8 L149.1 66.8c0.2 0 0.3 0 0.5 0.1c0.7 1.9 2.2 3.3 4.1 4c0 0.2 0.1 0.5 0.1 0.7c0 2.5-2.1 4.6-4.7 4.6v1.2l-0.1-1.2 c-2.6 0-4.6-2.2-4.6-4.8S146.5 66.8 149.1 66.8z"></path><path d="M176.6 85.6l-17.2-13c-0.5-0.4-1.3-0.3-1.7 0.2c-0.4 0.5-0.3 1.3 0.2 1.7l17.2 13l-1.5 1.9l10.1 3.1 l-5.7-8.8L176.6 85.6z"></path><path d="M53.8 94.1c-3.8 0-7 3.1-7.1 6.9c0 1.9 0.7 3.7 2 5c1.3 1.4 3.1 2.1 5 2.2h0.1c3.8 0 7-3.1 7.1-6.9 c0-1.9-0.7-3.7-2-5C57.5 94.9 55.8 94.1 53.8 94.1z M53.8 105.8v1.2V105.8c-1.3 0-2.5-0.5-3.4-1.4s-1.3-2.1-1.3-3.3 c0-2.5 2.1-4.6 4.8-4.6l0 0c1.2 0 2.4 0.5 3.3 1.4c0.9 0.9 1.3 2.1 1.3 3.3C58.4 103.8 56.3 105.8 53.8 105.8z"></path><path d="M126.6 48.1L126.6 48.1c2 0 3.6-1.6 3.6-3.5c0-0.9-0.3-1.8-1-2.5c-0.7-0.7-1.5-1.1-2.5-1.1 c-1.9 0-3.5 1.6-3.5 3.5C123.1 46.5 124.7 48.1 126.6 48.1z M126.7 43.4c0.3 0 0.6 0.1 0.8 0.4c0.2 0.2 0.3 0.5 0.3 0.8 c0 0.6-0.5 1.1-1.2 1.1v1.2v-1.2c-0.6 0-1.1-0.5-1.1-1.2C125.5 43.9 126.1 43.4 126.7 43.4z"></path><path d="M128.3 70.4H98.5c-0.7 0-1.2 0.5-1.2 1.2c0 0.7 0.5 1.2 1.2 1.2h29.8v2.4l9.9-3.6l-9.9-3.6V70.4z"></path><circle cx="53.8" cy="41.8" r="7.1"></circle><path d="M81.4 60.2l-17.2-13c-0.5-0.4-1.3-0.3-1.7 0.2s-0.3 1.3 0.2 1.7l17.2 13L78.4 64l10.1 3.1l-5.7-8.8 L81.4 60.2z"></path><path d="M79.9 81.1l-17.2 13c-0.5 0.4-0.6 1.1-0.2 1.7c0.2 0.3 0.6 0.5 0.9 0.5c0.3 0 0.5-0.1 0.7-0.2l17.2-13 l1.5 1.9l5.7-8.8l-10.1 3.1L79.9 81.1z"></path><path d="M97 67.7c0.2 0 0.5-0.1 0.7-0.2l17.2-13l1.5 1.9l5.7-8.8L112 50.7l1.5 1.9l-17.2 13 c-0.5 0.4-0.6 1.1-0.2 1.7C96.2 67.6 96.6 67.7 97 67.7z"></path><path d="M113.4 90.6l-1.5 1.9l10.1 3.1l-5.7-8.8l-1.5 1.9l-17.2-13c-0.5-0.4-1.3-0.3-1.7 0.2s-0.3 1.3 0.2 1.7 L113.4 90.6z"></path><path d="M148.9 129.4h0.1c3.8 0 7-3.1 7.1-6.9c0-1.9-0.7-3.7-2-5c-1.3-1.4-3.1-2.1-5.1-2.2c-3.8 0-7 3.1-7.1 6.9 C141.9 126.1 145 129.3 148.9 129.4z M149.1 117.6L149.1 117.6c1.2 0 2.4 0.5 3.3 1.4s1.3 2.1 1.3 3.3c0 2.5-2.1 4.6-4.7 4.6v1.2 l-0.1-1.2c-2.6 0-4.6-2.2-4.6-4.8C144.4 119.7 146.5 117.6 149.1 117.6z"></path><path d="M353.3 146.3c-0.1-3.8-3.2-6.9-7.2-6.9l0 0c-1.9 0-3.6 0.8-5 2.2c-0.2 0.2-0.3 0.4-0.5 0.6 c-1.3-1.7-3.3-2.8-5.7-2.8l0 0c-1.9 0-3.6 0.8-5 2.2c-1.3 1.4-2 3.1-2 5c0 1.7 0.7 3.3 1.8 4.5c-1.1 1.3-1.8 2.9-1.8 4.8 c0.1 3.9 3.3 7 7.2 6.9c2.2 0 4.2-1.1 5.4-2.7c1.3 1.7 3.4 2.8 5.7 2.7c3.9-0.1 7-3.3 6.9-7.2c0-1.7-0.7-3.3-1.8-4.5 C352.7 149.7 353.3 148.1 353.3 146.3z M340.4 151c0.1-0.1 0.2-0.2 0.3-0.3c0.1 0.1 0.2 0.2 0.3 0.3c-0.1 0.1-0.2 0.2-0.3 0.3 C340.6 151.2 340.5 151.1 340.4 151z M342.9 143.2c0.9-0.9 2-1.4 3.4-1.4c2.5 0 4.6 2.1 4.7 4.6c0 1.2-0.4 2.3-1.2 3.2 c-1.1-0.6-2.3-1-3.6-0.9c-1.2 0-2.3 0.4-3.3 0.9c-0.3-0.4-0.6-0.8-0.9-1.3c0.2-0.6 0.3-1.3 0.3-1.9s-0.1-1.2-0.3-1.7 C342.2 144.1 342.5 143.6 342.9 143.2z M331.8 143.2c0.9-0.9 2-1.4 3.4-1.4c1.9 0 3.6 1.2 4.3 2.9c-0.2 0.6-0.3 1.3-0.3 1.9 s0.1 1.2 0.3 1.7c-0.2 0.5-0.5 0.9-0.8 1.3c-1.1-0.6-2.3-1-3.6-0.9c-1.2 0-2.3 0.4-3.3 0.9c-0.7-0.8-1.2-1.9-1.2-3.1 C330.4 145.2 330.9 144 331.8 143.2z"></path><path d="M313.8 148.5H284c-0.7 0-1.2 0.5-1.2 1.2c0 0.7 0.5 1.2 1.2 1.2h29.8v2.4l9.9-3.6l-9.9-3.6V148.5z"></path><path d="M293.5 185.5L293 175l-2.2 0.9l-8.4-19.8c-0.3-0.6-1-0.9-1.6-0.6c-0.6 0.3-0.9 1-0.6 1.6l8.4 19.8 l-2.2 0.9L293.5 185.5z"></path><path d="M298.2 187.3L298.2 187.3c-1.9 0-3.6 0.8-5 2.2c-1.3 1.4-2 3.1-2 5c0.1 3.8 3.2 6.9 7.1 6.9h0.1 c1.9 0 3.6-0.8 5-2.2c1.3-1.4 2-3.1 2-5C305.3 190.4 302.1 187.3 298.2 187.3z M301.7 197.6c-0.9 0.9-2 1.4-3.3 1.4l-0.1 1.2V199 c-2.5 0-4.6-2.1-4.7-4.6c0-1.2 0.4-2.4 1.3-3.3c0.9-0.9 2-1.4 3.4-1.4c2.5 0 4.6 2.1 4.7 4.6C303 195.5 302.6 196.7 301.7 197.6z"></path><path d="M298.2 112.1L298.2 112.1c3.9 0 7.1-3.1 7.2-6.9c0-1.9-0.7-3.7-2-5c-1.3-1.4-3.1-2.1-5.1-2.2 c-3.8 0-7 3.1-7.1 6.9C291.2 108.8 294.3 112 298.2 112.1z M298.4 100.3L298.4 100.3c1.3 0 2.4 0.5 3.3 1.4 c0.9 0.9 1.3 2.1 1.3 3.3c0 2.5-2.2 4.6-4.7 4.6v1.2l-0.1-1.2c-2.6 0-4.7-2.2-4.6-4.8C293.7 102.4 295.8 100.3 298.4 100.3z"></path><path d="M280.8 144.6c0.1 0.1 0.3 0.1 0.5 0.1c0.5 0 0.9-0.3 1.1-0.7l8.4-19.8l2.2 0.9l0.5-10.5l-7.2 7.7l2.2 0.9 l-8.4 19.8C279.9 143.6 280.2 144.3 280.8 144.6z"></path><path d="M238.2 170.3L238.2 170.3c-2.3 0-4.3 1.2-5.6 3c-1.3-1.8-3.4-3-5.8-3l0 0c-3.9 0.1-7 3.3-6.9 7.2 c0.1 3.4 2.6 6.3 5.9 6.8c-0.1 0.6-0.2 1.1-0.2 1.8c0 3.9 3.2 7.1 7.1 7.1c3.9 0 7.1-3.2 7.1-7.1c0-0.6-0.1-1.2-0.2-1.7 c1.5-0.2 2.9-0.9 4-2c1.3-1.4 2-3.1 2-5C245.3 173.4 242.1 170.3 238.2 170.3z M222.2 177.5c0-2.6 2-4.7 4.7-4.8 c2.1 0 3.9 1.5 4.5 3.4c-0.1 0.5-0.1 0.9-0.1 1.4c0 0.4 0.1 0.7 0.1 1.1c-0.1 0.2-0.1 0.4-0.2 0.5c-1.8 0.4-3.4 1.4-4.5 2.9 C224.3 182 222.2 180 222.2 177.5z M241.7 180.6c-0.9 0.9-2 1.4-3.3 1.4v0.1c-1-1.5-2.6-2.6-4.4-3c-0.1-0.2-0.1-0.3-0.2-0.5 c0.1-0.5 0.1-0.9 0.1-1.4c0-0.4-0.1-0.7-0.1-1.1c0.5-2 2.3-3.4 4.5-3.5c2.5 0 4.6 2.1 4.7 4.6C243 178.6 242.5 179.7 241.7 180.6z"></path><path d="M262.4 156.9l-17.2 13c-0.5 0.4-0.6 1.1-0.2 1.7c0.2 0.3 0.6 0.5 0.9 0.5c0.2 0 0.5-0.1 0.7-0.2l17.2-13 l1.5 1.9l5.7-8.8l-10.1 3.1L262.4 156.9z"></path><path d="M176.6 196.6l-17.2-13c-0.5-0.4-1.3-0.3-1.7 0.2c-0.4 0.5-0.3 1.3 0.2 1.7l17.2 13l-1.5 1.9l10.1 3.1 l-5.7-8.8L176.6 196.6z"></path><path d="M192 202.6c0.2 0.3 0.6 0.5 0.9 0.5c0.2 0 0.5-0.1 0.7-0.2l17.2-13l1.5 1.9l5.7-8.8l-10.1 3.1l1.5 1.9 l-17.2 13C191.7 201.4 191.6 202.1 192 202.6z"></path><path d="M156.2 228.7C156.1 228.7 156.1 228.7 156.2 228.7c-0.1-0.1-0.1-0.2-0.1-0.3c-0.1-3.8-3.2-6.9-7.2-6.9l0 0 c-3.9 0.1-7 3.3-6.9 7.2c0.1 3.8 3.2 6.9 7.1 6.9h0.1v0.1c0 3.9 3.2 7.1 7.1 7.1c3.9 0 7.1-3.2 7.1-7.1 C163.2 231.8 160.1 228.7 156.2 228.7z M149.1 233.2l-0.1 1.2L149.1 233.2c-2.6 0-4.7-2.1-4.8-4.6c0-2.6 2-4.7 4.7-4.8 c2.5 0 4.6 2.1 4.7 4.6c0 0.2 0 0.5-0.1 0.7c-1.9 0.7-3.3 2.2-4.1 4C149.4 233.2 149.3 233.2 149.1 233.2z"></path><path d="M175.2 212.5l-17.2 13c-0.5 0.4-0.6 1.1-0.2 1.7c0.2 0.3 0.6 0.5 0.9 0.5c0.2 0 0.5-0.1 0.7-0.2l17.2-13 l1.5 1.9l5.7-8.8l-10.1 3.1L175.2 212.5z"></path><path d="M53.6 191.8L53.6 191.8c-1.9 0-3.6 0.8-5 2.2c-1.3 1.4-2 3.1-2 5c0.1 3.8 3.2 6.9 7.1 6.9h0.1 c1.9 0 3.6-0.8 5-2.2c1.3-1.4 2-3.1 2-5C60.8 194.9 57.6 191.8 53.6 191.8z M57.1 202.1c-0.9 0.9-2 1.4-3.3 1.4l-0.1 1.2v-1.2 c-2.5 0-4.6-2.1-4.7-4.6c0-1.2 0.4-2.4 1.3-3.3c0.9-0.9 2-1.4 3.4-1.4c2.5 0 4.6 2.1 4.7 4.6C58.5 200 58 201.2 57.1 202.1z"></path><path d="M126.6 251.9L126.6 251.9c-0.9 0-1.8 0.4-2.5 1.1c-0.7 0.7-1 1.6-1 2.5c0 1.9 1.6 3.5 3.5 3.5h0.1 c0.9 0 1.8-0.4 2.5-1.1c0.7-0.7 1-1.6 1-2.5C130.2 253.5 128.6 251.9 126.6 251.9z M127.5 256.2c-0.2 0.2-0.5 0.4-0.8 0.4v1.2 v-1.2c-0.6 0-1.1-0.5-1.2-1.1c0-0.3 0.1-0.6 0.3-0.8c0.2-0.2 0.5-0.3 0.8-0.4c0.6 0 1.1 0.5 1.2 1.1 C127.9 255.7 127.7 256 127.5 256.2z"></path><path d="M128.3 227.2H98.5c-0.7 0-1.2 0.5-1.2 1.2c0 0.7 0.5 1.2 1.2 1.2h29.8v2.4l9.9-3.6l-9.9-3.6V227.2z"></path><path d="M53.8 251.2c-3.9 0-7.1 3.2-7.1 7.1c0 3.9 3.2 7.1 7.1 7.1c3.9 0 7.1-3.2 7.1-7.1 C60.8 254.3 57.7 251.2 53.8 251.2z"></path><path d="M79.9 237.9l-17.2 13c-0.5 0.4-0.6 1.1-0.2 1.7c0.2 0.3 0.6 0.5 0.9 0.5c0.3 0 0.5-0.1 0.7-0.2l17.2-13 l1.5 1.9l5.7-8.8l-10.1 3.1L79.9 237.9z"></path><path d="M81.4 217l-17.2-13c-0.5-0.4-1.3-0.3-1.7 0.2s-0.3 1.3 0.2 1.7l17.2 13l-1.5 1.9l10.1 3.1l-5.7-8.8 L81.4 217z"></path><path d="M114.8 245.5l-17.2-13c-0.5-0.4-1.3-0.3-1.7 0.2s-0.3 1.3 0.2 1.7l17.2 13l-1.5 1.9l10.1 3.1l-5.7-8.8 L114.8 245.5z"></path><path d="M97 224.5c0.2 0 0.5-0.1 0.7-0.2l17.2-13l1.5 1.9l5.7-8.8l-10.1 3.1l1.5 1.9l-17.2 13 c-0.5 0.4-0.6 1.1-0.2 1.7C96.2 224.3 96.6 224.5 97 224.5z"></path><path d="M149 184.7h0.1c1.9 0 3.6-0.8 5-2.2c1.3-1.4 2-3.1 2-5c-0.1-3.8-3.2-6.9-7.2-6.9l0 0 c-3.9 0.1-7 3.3-6.9 7.2C142 181.6 145.2 184.7 149 184.7z M149 173c2.5 0 4.6 2.1 4.7 4.6c0 1.2-0.4 2.4-1.3 3.3 c-0.9 0.9-2 1.4-3.3 1.4l-0.1 1.2v-1.2c-2.5 0-4.6-2.1-4.7-4.6C144.3 175.2 146.3 173 149 173z"></path><path d="M191.4 92.4c0.2 0 0.4-0.1 0.6-0.2c1.1-0.7 1.6-1.9 2-3c0.3-0.7 0.5-1.5 0.9-1.7s1.2-0.1 1.9 0.1 c1.1 0.2 2.4 0.5 3.6-0.2c1.1-0.7 1.6-1.9 2-3c0.2-0.7 0.5-1.5 0.9-1.7c0.4-0.2 1.2-0.1 1.9 0.1c1.1 0.2 2.4 0.4 3.6-0.2 c1.1-0.7 1.6-1.9 2-3c0.3-0.7 0.5-1.5 0.9-1.7c0.4-0.2 1.2-0.1 1.9 0.1c1.1 0.2 2.4 0.4 3.5-0.2c1.1-0.6 1.6-1.9 2-3 c0.2-0.7 0.5-1.5 0.9-1.7c0.4-0.2 1.1-0.1 1.9 0.1c1.1 0.2 2.4 0.4 3.5-0.2c1.1-0.7 1.6-1.9 2-3c0.2-0.7 0.5-1.5 0.9-1.7 c0.4-0.2 1.2-0.1 1.9 0.1c1.1 0.2 2.4 0.4 3.5-0.2c1.1-0.7 1.6-1.9 2-3c0.3-0.7 0.5-1.5 0.9-1.7c0.4-0.2 1.2-0.1 1.9 0.1 c0.6 0.1 1.3-0.3 1.4-1c0.1-0.6-0.3-1.3-0.9-1.4c-1.1-0.2-2.4-0.4-3.6 0.2c-1.1 0.7-1.6 1.9-2 3c-0.3 0.7-0.5 1.5-0.9 1.7 c-0.4 0.2-1.2 0.1-1.9-0.1c-1.1-0.2-2.4-0.4-3.5 0.2c-1.1 0.7-1.6 1.9-2 3c-0.2 0.7-0.5 1.5-0.9 1.7c-0.4 0.2-1.1 0.1-2-0.1 c-1.1-0.2-2.4-0.4-3.5 0.2c-1.1 0.7-1.6 1.9-2 3c-0.3 0.7-0.5 1.5-0.9 1.7c-0.4 0.2-1.2 0.1-1.9-0.1c-1.1-0.2-2.4-0.4-3.5 0.2 c-1.1 0.7-1.6 1.9-2 3c-0.3 0.7-0.5 1.5-0.9 1.7s-1.2 0.1-2-0.1c-1.1-0.2-2.4-0.4-3.5 0.2c-1.1 0.7-1.6 1.9-2 3 c-0.3 0.7-0.5 1.5-0.9 1.7c-0.4 0.2-1.2 0.1-2-0.1c-1.1-0.2-2.4-0.4-3.5 0.2c-1.1 0.7-1.6 1.9-2 3c-0.3 0.7-0.5 1.5-0.9 1.7 c-0.6 0.3-0.8 1.1-0.4 1.6C190.6 92.2 191 92.4 191.4 92.4z"></path><path d="M236.6 236.5c-0.4-0.2-0.7-1-0.9-1.7c-0.4-1.1-0.8-2.3-1.9-2.9c-1.1-0.7-2.4-0.4-3.6-0.2 c-0.7 0.1-1.5 0.3-1.9 0.1c-0.4-0.2-0.7-1-0.9-1.7c-0.4-1.1-0.8-2.3-2-3c-1.1-0.7-2.4-0.4-3.6-0.2c-0.7 0.1-1.5 0.3-1.9 0.1 c-0.4-0.2-0.7-1-0.9-1.7c-0.4-1.1-0.8-2.3-1.9-2.9c-1.1-0.7-2.4-0.4-3.6-0.2c-0.7 0.1-1.5 0.3-1.9 0.1c-0.4-0.2-0.6-1-0.9-1.7 c-0.4-1.1-0.8-2.3-2-3c-1.1-0.7-2.5-0.4-3.6-0.2c-0.8 0.1-1.5 0.3-1.9 0.1c-0.4-0.2-0.7-1-0.9-1.7c-0.4-1.1-0.8-2.3-2-3 c-1.1-0.7-2.5-0.4-3.6-0.2c-0.8 0.1-1.5 0.3-1.9 0.1c-0.4-0.2-0.6-1-0.9-1.7c-0.4-1.1-0.8-2.3-1.9-3c-0.6-0.3-1.3-0.1-1.6 0.4 c-0.3 0.6-0.1 1.3 0.4 1.6c0.4 0.2 0.6 1 0.9 1.7c0.4 1.1 0.8 2.3 2 3c1.1 0.6 2.4 0.4 3.6 0.2c0.7-0.1 1.5-0.3 1.9-0.1 c0.4 0.2 0.6 1 0.9 1.7c0.4 1 0.8 2.3 2 3c1.1 0.6 2.4 0.4 3.5 0.2c0.7-0.1 1.6-0.3 1.9-0.1c0.4 0.2 0.6 1 0.9 1.7 c0.4 1.1 0.8 2.3 2 3c1.2 0.7 2.5 0.4 3.5 0.2c0.7-0.1 1.6-0.3 1.9-0.1c0.4 0.2 0.6 1 0.9 1.7c0.4 1.1 0.8 2.3 2 3 c1.1 0.7 2.4 0.4 3.6 0.2c0.8-0.1 1.5-0.3 1.9-0.1c0.4 0.2 0.7 1 0.9 1.7c0.4 1.1 0.8 2.3 2 3c1.1 0.6 2.4 0.4 3.5 0.2 c0.7-0.1 1.6-0.3 1.9-0.1c0.4 0.2 0.6 1 0.9 1.7c0.4 1.1 0.8 2.3 2 3c0.6 0.3 1.1 0.4 1.7 0.4c0.6 0 1.2-0.1 1.8-0.2l-0.4-2.3 C237.8 236.6 237 236.8 236.6 236.5z"></path></g></svg>