<svg xmlns="http://www.w3.org/2000/svg" viewBox="0 0 600 78"><path d="M71.1,24.1c0-9.5,7.8-17.3,17.3-17.3c9.6,0,17.3,7.7,17.3,17.3c0,9.5-7.8,17.3-17.3,17.3 C78.8,41.4,71.1,33.7,71.1,24.1z M174.3,42.2c-1.5-2.6-19.7-24.6-48.4-36.9c2.9,5.7,4.5,12,4.5,18.8c0,23.1-18.8,41.8-42,41.8 c-23.2,0-42-18.7-42-41.8c0-7.3,1.9-14.1,5.1-20C21.1,16.1,1.7,39.5,0.1,42.2l0,0C0,42.4,0,42.4,0,42.4s36.5,35.1,88.6,35.1 s85.8-35.1,85.8-35.1S174.4,42.4,174.3,42.2c0.1,0.1,0.1,0.1,0.1,0.1L174.3,42.2z M600,42.3L600,42.3c-1.7-2.7-19.8-24.7-48.5-37 c2.9,5.7,4.5,12,4.5,18.8c0,23.1-18.8,41.8-42,41.8s-42-18.7-42-41.8c0-7.3,1.9-14.1,5.1-20c-30.4,12-49.8,35.4-51.4,38.1l0,0 c-0.1,0.1-0.1,0.2-0.1,0.2s36.5,35.1,88.6,35.1c52.1,0,85.8-35.1,85.8-35.1S600,42.3,600,42.3S600,42.3,600,42.3z M513.7,47.6 c13.1,0,23.7-10.6,23.7-23.6S526.8,0.4,513.7,0.4C500.6,0.4,490,11,490,24C490,37.1,500.6,47.6,513.7,47.6z"></path></svg>