<svg xmlns="http://www.w3.org/2000/svg" viewBox="0 0 600 560"><path d="M300 48l-44.4 135.7H112.1l116.1 83.9l-44.3 135.8L300 319.5l116.1 83.9l-44.3-135.8l116.1-83.9H344.4 L300 48z M50 484.1l14.2-43.4l22.9 70.1L50 484.1z M188.9 512L166 495.5L143.1 512l8.7-26.8l-22.9-16.5h28.3l8.8-26.8l8.7 26.8h28.4 l-23 16.5L188.9 512z M245.9 512l8.8-26.8l-22.9-16.5h74.1L245.9 512z M365.9 512l-60-43.3h74.2l-22.9 16.5L365.9 512z M437.4 495.5 L414.5 512l22.9-70.1l23 70.1L437.4 495.5z M535.8 512l-22.9-16.5l-14.1-10.3l5.4-16.5l8.7-26.8l8.8 26.8H550l-22.9 16.5L535.8 512z"></path></svg>