<svg xmlns="http://www.w3.org/2000/svg" viewBox="0 0 600 160"><path d="M486.7 83.4c0 0-72.4 75.8-184.4 75.8S111.8 83.4 111.8 83.4s0.1-0.1 0.2-0.4l0 0 c3.4-5.8 45.1-56.4 110.5-82.3c-7 12.8-11 27.6-11 43.2c0 49.9 40.4 90.3 90.3 90.3c49.9 0 90.3-40.4 90.3-90.3 c0-14.6-3.6-28.4-9.7-40.6c61.7 26.5 100.7 74 104.1 79.7l0.2 0.2c0 0-0.1 0-0.2-0.1C486.6 83.3 486.7 83.4 486.7 83.4 M301.8 81.2c20.6 0 37.2-16.7 37.2-37.2c0-20.6-16.7-37.2-37.2-37.2c-20.6 0-37.2 16.7-37.2 37.2S281.2 81.2 301.8 81.2"></path></svg>