  0
SECTION
  2
HEADER
  9
$ACADVER
  1
AC1014
  9
$HANDSEED
  5
FFFF
  9
$MEASUREMENT
 70
     1
  0
ENDSEC
  0
SECTION
  2
TABLES
  0
TABLE
  2
VPORT
  5
8
330
0
100
AcDbSymbolTable
 70
     4
  0
VPORT
  5
2E
330
8
100
AcDbSymbolTableRecord
100
AcDbViewportTableRecord
  2
*ACTIVE
 70
     0
 10
0.0
 20
0.0
 11
1.0
 21
1.0
 12
210.0
 22
148.5
 13
0.0
 23
0.0
 14
10.0
 24
10.0
 15
10.0
 25
10.0
 16
0.0
 26
0.0
 36
1.0
 17
0.0
 27
0.0
 37
0.0
 40
341.0
 41
1.24
 42
50.0
 43
0.0
 44
0.0
 50
0.0
 51
0.0
 71
     0
 72
   100
 73
     1
 74
     3
 75
     0
 76
     0
 77
     0
 78
     0
  0
ENDTAB
  0
TABLE
  2
LTYPE
  5
5
330
0
100
AcDbSymbolTable
 70
     1
  0
LTYPE
  5
14
330
5
100
AcDbSymbolTableRecord
100
AcDbLinetypeTableRecord
  2
BYBLOCK
 70
     0
  3

 72
    65
 73
     0
 40
0.0
  0
LTYPE
  5
15
330
5
100
AcDbSymbolTableRecord
100
AcDbLinetypeTableRecord
  2
BYLAYER
 70
     0
  3

 72
    65
 73
     0
 40
0.0
  0
LTYPE
  5
16
330
5
100
AcDbSymbolTableRecord
100
AcDbLinetypeTableRecord
  2
CONTINUOUS
 70
     0
  3
Solid line
 72
    65
 73
     0
 40
0.0
  0
ENDTAB
  0
TABLE
  2
LAYER
  5
2
100
AcDbSymbolTable
 70
1
  0
LAYER
  5
50
100
AcDbSymbolTableRecord
100
AcDbLayerTableRecord
  2
0
 70
0
  6
CONTINUOUS
  0
ENDTAB
  0
TABLE
  2
STYLE
  5
3
330
0
100
AcDbSymbolTable
 70
     1
  0
STYLE
  5
11
330
3
100
AcDbSymbolTableRecord
100
AcDbTextStyleTableRecord
  2
STANDARD
 70
     0
 40
0.0
 41
1.0
 50
0.0
 71
     0
 42
2.5
  3
txt
  4

  0
ENDTAB
  0
TABLE
  2
VIEW
  5
6
330
0
100
AcDbSymbolTable
 70
     0
  0
ENDTAB
  0
TABLE
  2
UCS
  5
7
330
0
100
AcDbSymbolTable
 70
     0
  0
ENDTAB
  0
TABLE
  2
APPID
  5
9
330
0
100
AcDbSymbolTable
 70
     2
  0
APPID
  5
12
330
9
100
AcDbSymbolTableRecord
100
AcDbRegAppTableRecord
  2
ACAD
 70
     0
  0
ENDTAB
  0
TABLE
  2
DIMSTYLE
  5
A
330
0
100
AcDbSymbolTable
 70
     1
  0
DIMSTYLE
105
27
330
A
100
AcDbSymbolTableRecord
100
AcDbDimStyleTableRecord
  2
ISO-25
 70
     0
  3

  4

  5

  6

  7

 40
1.0
 41
2.5
 42
0.625
 43
3.75
 44
1.25
 45
0.0
 46
0.0
 47
0.0
 48
0.0
140
2.5
141
2.5
142
0.0
143
0.03937007874016
144
1.0
145
0.0
146
1.0
147
0.625
 71
     0
 72
     0
 73
     0
 74
     0
 75
     0
 76
     0
 77
     1
 78
     8
170
     0
171
     3
172
     1
173
     0
174
     0
175
     0
176
     0
177
     0
178
     0
270
     2
271
     2
272
     2
273
     2
274
     3
340
11
275
     0
280
     0
281
     0
282
     0
283
     0
284
     8
285
     0
286
     0
287
     3
288
     0
  0
ENDTAB
  0
TABLE
  2
BLOCK_RECORD
  5
1
330
0
100
AcDbSymbolTable
 70
     1
  0
BLOCK_RECORD
  5
1F
330
1
100
AcDbSymbolTableRecord
100
AcDbBlockTableRecord
  2
*MODEL_SPACE
  0
BLOCK_RECORD
  5
1B
330
1
100
AcDbSymbolTableRecord
100
AcDbBlockTableRecord
  2
*PAPER_SPACE
  0
ENDTAB
  0
ENDSEC
  0
SECTION
  2
BLOCKS
  0
BLOCK
  5
20
330
1F
100
AcDbEntity
  8
0
100
AcDbBlockBegin
  2
*MODEL_SPACE
 70
     0
 10
0.0
 20
0.0
 30
0.0
  3
*MODEL_SPACE
  1

  0
ENDBLK
  5
21
330
1F
100
AcDbEntity
  8
0
100
AcDbBlockEnd
  0
BLOCK
  5
1C
330
1B
100
AcDbEntity
 67
     1
  8
0
100
AcDbBlockBegin
  2
*PAPER_SPACE
  1

  0
ENDBLK
  5
1D
330
1B
100
AcDbEntity
 67
     1
  8
0
100
AcDbBlockEnd
  0
ENDSEC
  0
SECTION
  2
ENTITIES
  0
SPLINE
  5
100
100
AcDbEntity
  8
0
 62
7
100
AcDbSpline
 70
8
 71
3
 72
8
 73
4
 74
0
 40
0
 40
0
 40
0
 40
0
 40
1
 40
1
 40
1
 40
1
 10
191.680000
 20
-11.120000
 30
0.0
 10
191.680000
 20
-8.000000
 30
0.0
 10
189.120000
 20
-5.440000
 30
0.0
 10
186.000000
 20
-5.440000
 30
0.0
  0
SPLINE
  5
101
100
AcDbEntity
  8
0
 62
7
100
AcDbSpline
 70
8
 71
3
 72
8
 73
4
 74
0
 40
0
 40
0
 40
0
 40
0
 40
1
 40
1
 40
1
 40
1
 10
186.000000
 20
-5.440000
 30
0.0
 10
182.880000
 20
-5.440000
 30
0.0
 10
180.320000
 20
-8.000000
 30
0.0
 10
180.320000
 20
-11.120000
 30
0.0
  0
SPLINE
  5
102
100
AcDbEntity
  8
0
 62
7
100
AcDbSpline
 70
8
 71
3
 72
8
 73
4
 74
0
 40
0
 40
0
 40
0
 40
0
 40
1
 40
1
 40
1
 40
1
 10
180.320000
 20
-11.120000
 30
0.0
 10
180.320000
 20
-11.600000
 30
0.0
 10
180.400000
 20
-12.080000
 30
0.0
 10
180.480000
 20
-12.560000
 30
0.0
  0
SPLINE
  5
103
100
AcDbEntity
  8
0
 62
7
100
AcDbSpline
 70
8
 71
3
 72
8
 73
4
 74
0
 40
0
 40
0
 40
0
 40
0
 40
1
 40
1
 40
1
 40
1
 10
180.480000
 20
-12.560000
 30
0.0
 10
177.840000
 20
-13.040000
 30
0.0
 10
175.840000
 20
-15.280000
 30
0.0
 10
175.760000
 20
-18.000000
 30
0.0
  0
SPLINE
  5
104
100
AcDbEntity
  8
0
 62
7
100
AcDbSpline
 70
8
 71
3
 72
8
 73
4
 74
0
 40
0
 40
0
 40
0
 40
0
 40
1
 40
1
 40
1
 40
1
 10
175.760000
 20
-18.000000
 30
0.0
 10
175.680000
 20
-21.120000
 30
0.0
 10
178.160000
 20
-23.680000
 30
0.0
 10
181.280000
 20
-23.760000
 30
0.0
  0
SPLINE
  5
105
100
AcDbEntity
  8
0
 62
7
100
AcDbSpline
 70
8
 71
3
 72
8
 73
4
 74
0
 40
0
 40
0
 40
0
 40
0
 40
1
 40
1
 40
1
 40
1
 10
181.360000
 20
-23.760000
 30
0.0
 10
183.200000
 20
-23.760000
 30
0.0
 10
184.880000
 20
-22.800000
 30
0.0
 10
185.920000
 20
-21.360000
 30
0.0
  0
SPLINE
  5
106
100
AcDbEntity
  8
0
 62
7
100
AcDbSpline
 70
8
 71
3
 72
8
 73
4
 74
0
 40
0
 40
0
 40
0
 40
0
 40
1
 40
1
 40
1
 40
1
 10
185.920000
 20
-21.360000
 30
0.0
 10
186.960000
 20
-22.720000
 30
0.0
 10
188.560000
 20
-23.680000
 30
0.0
 10
190.400000
 20
-23.760000
 30
0.0
  0
LWPOLYLINE
  5
107
100
AcDbEntity
  8
0
 62
7
100
AcDbPolyline
 90
2
 70
0
 10
181.280000
 20
-23.760000
 30
0.0
 10
181.360000
 20
-23.760000
 30
0.0
  0
SPLINE
  5
108
100
AcDbEntity
  8
0
 62
7
100
AcDbSpline
 70
8
 71
3
 72
8
 73
4
 74
0
 40
0
 40
0
 40
0
 40
0
 40
1
 40
1
 40
1
 40
1
 10
190.480000
 20
-23.760000
 30
0.0
 10
193.520000
 20
-23.760000
 30
0.0
 10
196.080000
 20
-21.280000
 30
0.0
 10
196.160000
 20
-18.240000
 30
0.0
  0
SPLINE
  5
109
100
AcDbEntity
  8
0
 62
7
100
AcDbSpline
 70
8
 71
3
 72
8
 73
4
 74
0
 40
0
 40
0
 40
0
 40
0
 40
1
 40
1
 40
1
 40
1
 10
196.160000
 20
-18.240000
 30
0.0
 10
196.160000
 20
-16.720000
 30
0.0
 10
195.600000
 20
-15.280000
 30
0.0
 10
194.560000
 20
-14.240000
 30
0.0
  0
SPLINE
  5
10a
100
AcDbEntity
  8
0
 62
7
100
AcDbSpline
 70
8
 71
3
 72
8
 73
4
 74
0
 40
0
 40
0
 40
0
 40
0
 40
1
 40
1
 40
1
 40
1
 10
194.560000
 20
-14.240000
 30
0.0
 10
193.680000
 20
-13.360000
 30
0.0
 10
192.560000
 20
-12.800000
 30
0.0
 10
191.360000
 20
-12.640000
 30
0.0
  0
SPLINE
  5
10b
100
AcDbEntity
  8
0
 62
7
100
AcDbSpline
 70
8
 71
3
 72
8
 73
4
 74
0
 40
0
 40
0
 40
0
 40
0
 40
1
 40
1
 40
1
 40
1
 10
191.360000
 20
-12.640000
 30
0.0
 10
191.600000
 20
-12.080000
 30
0.0
 10
191.680000
 20
-11.600000
 30
0.0
 10
191.680000
 20
-11.120000
 30
0.0
  0
LWPOLYLINE
  5
10c
100
AcDbEntity
  8
0
 62
7
100
AcDbPolyline
 90
2
 70
0
 10
190.400000
 20
-23.760000
 30
0.0
 10
190.480000
 20
-23.760000
 30
0.0
  0
LWPOLYLINE
  5
10d
100
AcDbEntity
  8
0
 62
7
100
AcDbPolyline
 90
2
 70
0
 10
191.680000
 20
-11.120000
 30
0.0
 10
191.680000
 20
-11.120000
 30
0.0
  0
SPLINE
  5
10e
100
AcDbEntity
  8
0
 62
7
100
AcDbSpline
 70
8
 71
3
 72
8
 73
4
 74
0
 40
0
 40
0
 40
0
 40
0
 40
1
 40
1
 40
1
 40
1
 10
181.520000
 20
-21.840000
 30
0.0
 10
179.360000
 20
-21.840000
 30
0.0
 10
177.760000
 20
-20.080000
 30
0.0
 10
177.760000
 20
-18.000000
 30
0.0
  0
SPLINE
  5
10f
100
AcDbEntity
  8
0
 62
7
100
AcDbSpline
 70
8
 71
3
 72
8
 73
4
 74
0
 40
0
 40
0
 40
0
 40
0
 40
1
 40
1
 40
1
 40
1
 10
177.760000
 20
-18.000000
 30
0.0
 10
177.760000
 20
-16.000000
 30
0.0
 10
179.360000
 20
-14.400000
 30
0.0
 10
181.440000
 20
-14.320000
 30
0.0
  0
SPLINE
  5
110
100
AcDbEntity
  8
0
 62
7
100
AcDbSpline
 70
8
 71
3
 72
8
 73
4
 74
0
 40
0
 40
0
 40
0
 40
0
 40
1
 40
1
 40
1
 40
1
 10
181.440000
 20
-14.320000
 30
0.0
 10
182.240000
 20
-15.520000
 30
0.0
 10
183.520000
 20
-16.320000
 30
0.0
 10
185.040000
 20
-16.640000
 30
0.0
  0
SPLINE
  5
111
100
AcDbEntity
  8
0
 62
7
100
AcDbSpline
 70
8
 71
3
 72
8
 73
4
 74
0
 40
0
 40
0
 40
0
 40
0
 40
1
 40
1
 40
1
 40
1
 10
185.040000
 20
-16.640000
 30
0.0
 10
185.120000
 20
-16.800000
 30
0.0
 10
185.120000
 20
-16.960000
 30
0.0
 10
185.200000
 20
-17.040000
 30
0.0
  0
SPLINE
  5
112
100
AcDbEntity
  8
0
 62
7
100
AcDbSpline
 70
8
 71
3
 72
8
 73
4
 74
0
 40
0
 40
0
 40
0
 40
0
 40
1
 40
1
 40
1
 40
1
 10
185.200000
 20
-17.040000
 30
0.0
 10
185.120000
 20
-17.360000
 30
0.0
 10
185.120000
 20
-17.600000
 30
0.0
 10
185.120000
 20
-17.920000
 30
0.0
  0
SPLINE
  5
113
100
AcDbEntity
  8
0
 62
7
100
AcDbSpline
 70
8
 71
3
 72
8
 73
4
 74
0
 40
0
 40
0
 40
0
 40
0
 40
1
 40
1
 40
1
 40
1
 10
185.120000
 20
-17.920000
 30
0.0
 10
185.120000
 20
-18.320000
 30
0.0
 10
185.120000
 20
-18.640000
 30
0.0
 10
185.200000
 20
-19.040000
 30
0.0
  0
SPLINE
  5
114
100
AcDbEntity
  8
0
 62
7
100
AcDbSpline
 70
8
 71
3
 72
8
 73
4
 74
0
 40
0
 40
0
 40
0
 40
0
 40
1
 40
1
 40
1
 40
1
 10
185.200000
 20
-19.040000
 30
0.0
 10
184.640000
 20
-20.640000
 30
0.0
 10
183.200000
 20
-21.840000
 30
0.0
 10
181.520000
 20
-21.840000
 30
0.0
  0
LWPOLYLINE
  5
115
100
AcDbEntity
  8
0
 62
7
100
AcDbPolyline
 90
4
 70
0
 10
181.520000
 20
-21.840000
 30
0.0
 10
181.520000
 20
-22.800000
 30
0.0
 10
181.520000
 20
-21.840000
 30
0.0
 10
181.520000
 20
-21.840000
 30
0.0
  0
SPLINE
  5
116
100
AcDbEntity
  8
0
 62
7
100
AcDbSpline
 70
8
 71
3
 72
8
 73
4
 74
0
 40
0
 40
0
 40
0
 40
0
 40
1
 40
1
 40
1
 40
1
 10
190.720000
 20
-14.320000
 30
0.0
 10
191.760000
 20
-14.320000
 30
0.0
 10
192.640000
 20
-14.720000
 30
0.0
 10
193.360000
 20
-15.440000
 30
0.0
  0
SPLINE
  5
117
100
AcDbEntity
  8
0
 62
7
100
AcDbSpline
 70
8
 71
3
 72
8
 73
4
 74
0
 40
0
 40
0
 40
0
 40
0
 40
1
 40
1
 40
1
 40
1
 10
193.360000
 20
-15.440000
 30
0.0
 10
194.080000
 20
-16.160000
 30
0.0
 10
194.400000
 20
-17.120000
 30
0.0
 10
194.400000
 20
-18.080000
 30
0.0
  0
SPLINE
  5
118
100
AcDbEntity
  8
0
 62
7
100
AcDbSpline
 70
8
 71
3
 72
8
 73
4
 74
0
 40
0
 40
0
 40
0
 40
0
 40
1
 40
1
 40
1
 40
1
 10
194.400000
 20
-18.080000
 30
0.0
 10
194.400000
 20
-20.080000
 30
0.0
 10
192.720000
 20
-21.760000
 30
0.0
 10
190.640000
 20
-21.760000
 30
0.0
  0
LWPOLYLINE
  5
119
100
AcDbEntity
  8
0
 62
7
100
AcDbPolyline
 90
2
 70
0
 10
190.720000
 20
-14.320000
 30
0.0
 10
190.720000
 20
-14.320000
 30
0.0
  0
SPLINE
  5
11a
100
AcDbEntity
  8
0
 62
7
100
AcDbSpline
 70
8
 71
3
 72
8
 73
4
 74
0
 40
0
 40
0
 40
0
 40
0
 40
1
 40
1
 40
1
 40
1
 10
190.560000
 20
-21.760000
 30
0.0
 10
188.880000
 20
-21.760000
 30
0.0
 10
187.440000
 20
-20.560000
 30
0.0
 10
187.040000
 20
-18.960000
 30
0.0
  0
SPLINE
  5
11b
100
AcDbEntity
  8
0
 62
7
100
AcDbSpline
 70
8
 71
3
 72
8
 73
4
 74
0
 40
0
 40
0
 40
0
 40
0
 40
1
 40
1
 40
1
 40
1
 10
187.040000
 20
-18.960000
 30
0.0
 10
187.120000
 20
-18.640000
 30
0.0
 10
187.120000
 20
-18.400000
 30
0.0
 10
187.120000
 20
-18.080000
 30
0.0
  0
SPLINE
  5
11c
100
AcDbEntity
  8
0
 62
7
100
AcDbSpline
 70
8
 71
3
 72
8
 73
4
 74
0
 40
0
 40
0
 40
0
 40
0
 40
1
 40
1
 40
1
 40
1
 10
187.120000
 20
-18.080000
 30
0.0
 10
187.120000
 20
-17.680000
 30
0.0
 10
187.120000
 20
-17.360000
 30
0.0
 10
187.040000
 20
-16.960000
 30
0.0
  0
SPLINE
  5
11d
100
AcDbEntity
  8
0
 62
7
100
AcDbSpline
 70
8
 71
3
 72
8
 73
4
 74
0
 40
0
 40
0
 40
0
 40
0
 40
1
 40
1
 40
1
 40
1
 10
187.040000
 20
-16.960000
 30
0.0
 10
187.040000
 20
-16.800000
 30
0.0
 10
187.120000
 20
-16.720000
 30
0.0
 10
187.200000
 20
-16.560000
 30
0.0
  0
SPLINE
  5
11e
100
AcDbEntity
  8
0
 62
7
100
AcDbSpline
 70
8
 71
3
 72
8
 73
4
 74
0
 40
0
 40
0
 40
0
 40
0
 40
1
 40
1
 40
1
 40
1
 10
187.200000
 20
-16.560000
 30
0.0
 10
188.640000
 20
-16.320000
 30
0.0
 10
189.840000
 20
-15.520000
 30
0.0
 10
190.720000
 20
-14.320000
 30
0.0
  0
SPLINE
  5
11f
100
AcDbEntity
  8
0
 62
7
100
AcDbSpline
 70
8
 71
3
 72
8
 73
4
 74
0
 40
0
 40
0
 40
0
 40
0
 40
1
 40
1
 40
1
 40
1
 10
190.720000
 20
-14.320000
 30
0.0
 10
190.640000
 20
-14.320000
 30
0.0
 10
190.720000
 20
-14.320000
 30
0.0
 10
190.720000
 20
-14.320000
 30
0.0
  0
LWPOLYLINE
  5
120
100
AcDbEntity
  8
0
 62
7
100
AcDbPolyline
 90
3
 70
0
 10
190.640000
 20
-21.760000
 30
0.0
 10
190.640000
 20
-22.720000
 30
0.0
 10
190.560000
 20
-21.760000
 30
0.0
  0
LWPOLYLINE
  5
121
100
AcDbEntity
  8
0
 62
7
100
AcDbPolyline
 90
2
 70
0
 10
190.720000
 20
-14.320000
 30
0.0
 10
190.720000
 20
-14.320000
 30
0.0
  0
SPLINE
  5
122
100
AcDbEntity
  8
0
 62
7
100
AcDbSpline
 70
8
 71
3
 72
8
 73
4
 74
0
 40
0
 40
0
 40
0
 40
0
 40
1
 40
1
 40
1
 40
1
 10
197.280000
 20
-22.560000
 30
0.0
 10
196.880000
 20
-22.240000
 30
0.0
 10
196.240000
 20
-22.320000
 30
0.0
 10
195.920000
 20
-22.720000
 30
0.0
  0
SPLINE
  5
123
100
AcDbEntity
  8
0
 62
7
100
AcDbSpline
 70
8
 71
3
 72
8
 73
4
 74
0
 40
0
 40
0
 40
0
 40
0
 40
1
 40
1
 40
1
 40
1
 10
195.920000
 20
-22.720000
 30
0.0
 10
195.600000
 20
-23.120000
 30
0.0
 10
195.680000
 20
-23.760000
 30
0.0
 10
196.080000
 20
-24.080000
 30
0.0
  0
LWPOLYLINE
  5
124
100
AcDbEntity
  8
0
 62
7
100
AcDbPolyline
 90
2
 70
0
 10
211.040000
 20
-32.960000
 30
0.0
 10
197.280000
 20
-22.560000
 30
0.0
  0
LWPOLYLINE
  5
125
100
AcDbEntity
  8
0
 62
7
100
AcDbPolyline
 90
7
 70
0
 10
196.080000
 20
-24.080000
 30
0.0
 10
209.840000
 20
-34.480000
 30
0.0
 10
208.640000
 20
-36.000000
 30
0.0
 10
216.720000
 20
-38.480000
 30
0.0
 10
212.160000
 20
-31.440000
 30
0.0
 10
211.040000
 20
-32.960000
 30
0.0
 10
211.040000
 20
-32.960000
 30
0.0
  0
SPLINE
  5
126
100
AcDbEntity
  8
0
 62
7
100
AcDbSpline
 70
8
 71
3
 72
8
 73
4
 74
0
 40
0
 40
0
 40
0
 40
0
 40
1
 40
1
 40
1
 40
1
 10
126.400000
 20
-11.600000
 30
0.0
 10
126.000000
 20
-11.920000
 30
0.0
 10
125.920000
 20
-12.480000
 30
0.0
 10
126.240000
 20
-12.960000
 30
0.0
  0
SPLINE
  5
127
100
AcDbEntity
  8
0
 62
7
100
AcDbSpline
 70
8
 71
3
 72
8
 73
4
 74
0
 40
0
 40
0
 40
0
 40
0
 40
1
 40
1
 40
1
 40
1
 10
126.240000
 20
-12.960000
 30
0.0
 10
126.400000
 20
-13.200000
 30
0.0
 10
126.720000
 20
-13.360000
 30
0.0
 10
126.960000
 20
-13.360000
 30
0.0
  0
SPLINE
  5
128
100
AcDbEntity
  8
0
 62
7
100
AcDbSpline
 70
8
 71
3
 72
8
 73
4
 74
0
 40
0
 40
0
 40
0
 40
0
 40
1
 40
1
 40
1
 40
1
 10
126.960000
 20
-13.360000
 30
0.0
 10
127.120000
 20
-13.360000
 30
0.0
 10
127.360000
 20
-13.280000
 30
0.0
 10
127.520000
 20
-13.200000
 30
0.0
  0
LWPOLYLINE
  5
129
100
AcDbEntity
  8
0
 62
7
100
AcDbPolyline
 90
2
 70
0
 10
140.160000
 20
-1.200000
 30
0.0
 10
126.400000
 20
-11.600000
 30
0.0
  0
LWPOLYLINE
  5
12a
100
AcDbEntity
  8
0
 62
7
100
AcDbPolyline
 90
7
 70
0
 10
127.520000
 20
-13.200000
 30
0.0
 10
141.280000
 20
-2.800000
 30
0.0
 10
142.480000
 20
-4.320000
 30
0.0
 10
147.040000
 20
2.720000
 30
0.0
 10
138.960000
 20
0.240000
 30
0.0
 10
140.160000
 20
-1.200000
 30
0.0
 10
140.160000
 20
-1.200000
 30
0.0
  0
SPLINE
  5
12b
100
AcDbEntity
  8
0
 62
7
100
AcDbSpline
 70
8
 71
3
 72
8
 73
4
 74
0
 40
0
 40
0
 40
0
 40
0
 40
1
 40
1
 40
1
 40
1
 10
154.880000
 20
2.320000
 30
0.0
 10
154.480000
 20
2.640000
 30
0.0
 10
153.840000
 20
2.560000
 30
0.0
 10
153.520000
 20
2.160000
 30
0.0
  0
SPLINE
  5
12c
100
AcDbEntity
  8
0
 62
7
100
AcDbSpline
 70
8
 71
3
 72
8
 73
4
 74
0
 40
0
 40
0
 40
0
 40
0
 40
1
 40
1
 40
1
 40
1
 10
153.520000
 20
2.160000
 30
0.0
 10
153.200000
 20
1.760000
 30
0.0
 10
153.280000
 20
1.120000
 30
0.0
 10
153.680000
 20
0.800000
 30
0.0
  0
LWPOLYLINE
  5
12d
100
AcDbEntity
  8
0
 62
7
100
AcDbPolyline
 90
3
 70
0
 10
169.840000
 20
-6.560000
 30
0.0
 10
168.640000
 20
-8.080000
 30
0.0
 10
154.880000
 20
2.320000
 30
0.0
  0
LWPOLYLINE
  5
12e
100
AcDbEntity
  8
0
 62
7
100
AcDbPolyline
 90
6
 70
0
 10
153.680000
 20
0.800000
 30
0.0
 10
167.440000
 20
-9.600000
 30
0.0
 10
166.240000
 20
-11.120000
 30
0.0
 10
174.400000
 20
-13.600000
 30
0.0
 10
169.840000
 20
-6.560000
 30
0.0
 10
169.840000
 20
-6.560000
 30
0.0
  0
SPLINE
  5
12f
100
AcDbEntity
  8
0
 62
7
100
AcDbSpline
 70
8
 71
3
 72
8
 73
4
 74
0
 40
0
 40
0
 40
0
 40
0
 40
1
 40
1
 40
1
 40
1
 10
119.200000
 20
17.200000
 30
0.0
 10
122.240000
 20
17.200000
 30
0.0
 10
124.800000
 20
19.680000
 30
0.0
 10
124.880000
 20
22.720000
 30
0.0
  0
SPLINE
  5
130
100
AcDbEntity
  8
0
 62
7
100
AcDbSpline
 70
8
 71
3
 72
8
 73
4
 74
0
 40
0
 40
0
 40
0
 40
0
 40
1
 40
1
 40
1
 40
1
 10
124.880000
 20
22.720000
 30
0.0
 10
124.880000
 20
22.800000
 30
0.0
 10
124.880000
 20
22.880000
 30
0.0
 10
124.880000
 20
22.960000
 30
0.0
  0
LWPOLYLINE
  5
131
100
AcDbEntity
  8
0
 62
7
100
AcDbPolyline
 90
3
 70
0
 10
119.120000
 20
17.200000
 30
0.0
 10
119.200000
 20
17.200000
 30
0.0
 10
119.200000
 20
17.200000
 30
0.0
  0
SPLINE
  5
132
100
AcDbEntity
  8
0
 62
7
100
AcDbSpline
 70
8
 71
3
 72
8
 73
4
 74
0
 40
0
 40
0
 40
0
 40
0
 40
1
 40
1
 40
1
 40
1
 10
124.960000
 20
22.960000
 30
0.0
 10
128.080000
 20
22.960000
 30
0.0
 10
130.640000
 20
25.520000
 30
0.0
 10
130.640000
 20
28.640000
 30
0.0
  0
SPLINE
  5
133
100
AcDbEntity
  8
0
 62
7
100
AcDbSpline
 70
8
 71
3
 72
8
 73
4
 74
0
 40
0
 40
0
 40
0
 40
0
 40
1
 40
1
 40
1
 40
1
 10
130.640000
 20
28.640000
 30
0.0
 10
130.640000
 20
31.760000
 30
0.0
 10
128.080000
 20
34.320000
 30
0.0
 10
124.960000
 20
34.320000
 30
0.0
  0
SPLINE
  5
134
100
AcDbEntity
  8
0
 62
7
100
AcDbSpline
 70
8
 71
3
 72
8
 73
4
 74
0
 40
0
 40
0
 40
0
 40
0
 40
1
 40
1
 40
1
 40
1
 10
124.960000
 20
34.320000
 30
0.0
 10
121.840000
 20
34.320000
 30
0.0
 10
119.280000
 20
31.760000
 30
0.0
 10
119.280000
 20
28.640000
 30
0.0
  0
LWPOLYLINE
  5
135
100
AcDbEntity
  8
0
 62
7
100
AcDbPolyline
 90
2
 70
0
 10
124.880000
 20
22.960000
 30
0.0
 10
124.960000
 20
22.960000
 30
0.0
  0
SPLINE
  5
136
100
AcDbEntity
  8
0
 62
7
100
AcDbSpline
 70
8
 71
3
 72
8
 73
4
 74
0
 40
0
 40
0
 40
0
 40
0
 40
1
 40
1
 40
1
 40
1
 10
119.200000
 20
28.560000
 30
0.0
 10
116.160000
 20
28.560000
 30
0.0
 10
113.600000
 20
26.080000
 30
0.0
 10
113.520000
 20
23.040000
 30
0.0
  0
SPLINE
  5
137
100
AcDbEntity
  8
0
 62
7
100
AcDbSpline
 70
8
 71
3
 72
8
 73
4
 74
0
 40
0
 40
0
 40
0
 40
0
 40
1
 40
1
 40
1
 40
1
 10
113.520000
 20
23.040000
 30
0.0
 10
113.520000
 20
19.840000
 30
0.0
 10
116.000000
 20
17.200000
 30
0.0
 10
119.120000
 20
17.200000
 30
0.0
  0
LWPOLYLINE
  5
138
100
AcDbEntity
  8
0
 62
7
100
AcDbPolyline
 90
3
 70
0
 10
119.280000
 20
28.640000
 30
0.0
 10
119.280000
 20
28.560000
 30
0.0
 10
119.200000
 20
28.560000
 30
0.0
  0
LWPOLYLINE
  5
139
100
AcDbEntity
  8
0
 62
7
100
AcDbPolyline
 90
2
 70
0
 10
119.120000
 20
17.200000
 30
0.0
 10
119.120000
 20
17.200000
 30
0.0
  0
SPLINE
  5
13a
100
AcDbEntity
  8
0
 62
7
100
AcDbSpline
 70
8
 71
3
 72
8
 73
4
 74
0
 40
0
 40
0
 40
0
 40
0
 40
1
 40
1
 40
1
 40
1
 10
119.280000
 20
26.560000
 30
0.0
 10
119.440000
 20
26.560000
 30
0.0
 10
119.520000
 20
26.560000
 30
0.0
 10
119.680000
 20
26.480000
 30
0.0
  0
SPLINE
  5
13b
100
AcDbEntity
  8
0
 62
7
100
AcDbSpline
 70
8
 71
3
 72
8
 73
4
 74
0
 40
0
 40
0
 40
0
 40
0
 40
1
 40
1
 40
1
 40
1
 10
119.680000
 20
26.480000
 30
0.0
 10
120.240000
 20
24.960000
 30
0.0
 10
121.440000
 20
23.840000
 30
0.0
 10
122.960000
 20
23.280000
 30
0.0
  0
SPLINE
  5
13c
100
AcDbEntity
  8
0
 62
7
100
AcDbSpline
 70
8
 71
3
 72
8
 73
4
 74
0
 40
0
 40
0
 40
0
 40
0
 40
1
 40
1
 40
1
 40
1
 10
122.960000
 20
23.280000
 30
0.0
 10
122.960000
 20
23.120000
 30
0.0
 10
123.040000
 20
22.880000
 30
0.0
 10
123.040000
 20
22.720000
 30
0.0
  0
SPLINE
  5
13d
100
AcDbEntity
  8
0
 62
7
100
AcDbSpline
 70
8
 71
3
 72
8
 73
4
 74
0
 40
0
 40
0
 40
0
 40
0
 40
1
 40
1
 40
1
 40
1
 10
123.040000
 20
22.720000
 30
0.0
 10
123.040000
 20
20.720000
 30
0.0
 10
121.360000
 20
19.040000
 30
0.0
 10
119.280000
 20
19.040000
 30
0.0
  0
LWPOLYLINE
  5
13e
100
AcDbEntity
  8
0
 62
7
100
AcDbPolyline
 90
2
 70
0
 10
119.280000
 20
26.560000
 30
0.0
 10
119.280000
 20
26.560000
 30
0.0
  0
SPLINE
  5
13f
100
AcDbEntity
  8
0
 62
7
100
AcDbSpline
 70
8
 71
3
 72
8
 73
4
 74
0
 40
0
 40
0
 40
0
 40
0
 40
1
 40
1
 40
1
 40
1
 10
119.200000
 20
19.040000
 30
0.0
 10
117.120000
 20
19.040000
 30
0.0
 10
115.520000
 20
20.800000
 30
0.0
 10
115.520000
 20
22.880000
 30
0.0
  0
SPLINE
  5
140
100
AcDbEntity
  8
0
 62
7
100
AcDbSpline
 70
8
 71
3
 72
8
 73
4
 74
0
 40
0
 40
0
 40
0
 40
0
 40
1
 40
1
 40
1
 40
1
 10
115.520000
 20
22.880000
 30
0.0
 10
115.520000
 20
24.960000
 30
0.0
 10
117.200000
 20
26.560000
 30
0.0
 10
119.280000
 20
26.560000
 30
0.0
  0
LWPOLYLINE
  5
141
100
AcDbEntity
  8
0
 62
7
100
AcDbPolyline
 90
3
 70
0
 10
119.280000
 20
19.040000
 30
0.0
 10
119.280000
 20
18.080000
 30
0.0
 10
119.200000
 20
19.040000
 30
0.0
  0
LWPOLYLINE
  5
142
100
AcDbEntity
  8
0
 62
7
100
AcDbPolyline
 90
2
 70
0
 10
119.280000
 20
26.560000
 30
0.0
 10
119.280000
 20
26.560000
 30
0.0
  0
SPLINE
  5
143
100
AcDbEntity
  8
0
 62
7
100
AcDbSpline
 70
8
 71
3
 72
8
 73
4
 74
0
 40
0
 40
0
 40
0
 40
0
 40
1
 40
1
 40
1
 40
1
 10
127.520000
 20
21.920000
 30
0.0
 10
127.120000
 20
22.240000
 30
0.0
 10
126.480000
 20
22.160000
 30
0.0
 10
126.160000
 20
21.760000
 30
0.0
  0
SPLINE
  5
144
100
AcDbEntity
  8
0
 62
7
100
AcDbSpline
 70
8
 71
3
 72
8
 73
4
 74
0
 40
0
 40
0
 40
0
 40
0
 40
1
 40
1
 40
1
 40
1
 10
126.160000
 20
21.760000
 30
0.0
 10
125.840000
 20
21.360000
 30
0.0
 10
125.920000
 20
20.720000
 30
0.0
 10
126.320000
 20
20.400000
 30
0.0
  0
LWPOLYLINE
  5
145
100
AcDbEntity
  8
0
 62
7
100
AcDbPolyline
 90
2
 70
0
 10
141.280000
 20
11.520000
 30
0.0
 10
127.520000
 20
21.920000
 30
0.0
  0
SPLINE
  5
146
100
AcDbEntity
  8
0
 62
7
100
AcDbSpline
 70
8
 71
3
 72
8
 73
4
 74
0
 40
0
 40
0
 40
0
 40
0
 40
1
 40
1
 40
1
 40
1
 10
43.040000
 20
4.720000
 30
0.0
 10
40.000000
 20
4.720000
 30
0.0
 10
37.440000
 20
2.240000
 30
0.0
 10
37.360000
 20
-0.800000
 30
0.0
  0
SPLINE
  5
147
100
AcDbEntity
  8
0
 62
7
100
AcDbSpline
 70
8
 71
3
 72
8
 73
4
 74
0
 40
0
 40
0
 40
0
 40
0
 40
1
 40
1
 40
1
 40
1
 10
37.360000
 20
-0.800000
 30
0.0
 10
37.360000
 20
-2.320000
 30
0.0
 10
37.920000
 20
-3.760000
 30
0.0
 10
38.960000
 20
-4.800000
 30
0.0
  0
SPLINE
  5
148
100
AcDbEntity
  8
0
 62
7
100
AcDbSpline
 70
8
 71
3
 72
8
 73
4
 74
0
 40
0
 40
0
 40
0
 40
0
 40
1
 40
1
 40
1
 40
1
 10
38.960000
 20
-4.800000
 30
0.0
 10
40.000000
 20
-5.920000
 30
0.0
 10
41.440000
 20
-6.480000
 30
0.0
 10
42.960000
 20
-6.560000
 30
0.0
  0
LWPOLYLINE
  5
149
100
AcDbEntity
  8
0
 62
7
100
AcDbPolyline
 90
7
 70
0
 10
126.320000
 20
20.400000
 30
0.0
 10
140.080000
 20
10.000000
 30
0.0
 10
138.880000
 20
8.480000
 30
0.0
 10
146.960000
 20
6.000000
 30
0.0
 10
142.400000
 20
13.040000
 30
0.0
 10
141.280000
 20
11.520000
 30
0.0
 10
141.280000
 20
11.520000
 30
0.0
  0
SPLINE
  5
14a
100
AcDbEntity
  8
0
 62
7
100
AcDbSpline
 70
8
 71
3
 72
8
 73
4
 74
0
 40
0
 40
0
 40
0
 40
0
 40
1
 40
1
 40
1
 40
1
 10
43.040000
 20
-6.560000
 30
0.0
 10
46.080000
 20
-6.560000
 30
0.0
 10
48.640000
 20
-4.080000
 30
0.0
 10
48.720000
 20
-1.040000
 30
0.0
  0
SPLINE
  5
14b
100
AcDbEntity
  8
0
 62
7
100
AcDbSpline
 70
8
 71
3
 72
8
 73
4
 74
0
 40
0
 40
0
 40
0
 40
0
 40
1
 40
1
 40
1
 40
1
 10
48.720000
 20
-1.040000
 30
0.0
 10
48.720000
 20
0.480000
 30
0.0
 10
48.160000
 20
1.920000
 30
0.0
 10
47.120000
 20
2.960000
 30
0.0
  0
SPLINE
  5
14c
100
AcDbEntity
  8
0
 62
7
100
AcDbSpline
 70
8
 71
3
 72
8
 73
4
 74
0
 40
0
 40
0
 40
0
 40
0
 40
1
 40
1
 40
1
 40
1
 10
47.120000
 20
2.960000
 30
0.0
 10
46.000000
 20
4.080000
 30
0.0
 10
44.640000
 20
4.720000
 30
0.0
 10
43.040000
 20
4.720000
 30
0.0
  0
LWPOLYLINE
  5
14d
100
AcDbEntity
  8
0
 62
7
100
AcDbPolyline
 90
2
 70
0
 10
42.960000
 20
-6.560000
 30
0.0
 10
43.040000
 20
-6.560000
 30
0.0
  0
LWPOLYLINE
  5
14e
100
AcDbEntity
  8
0
 62
7
100
AcDbPolyline
 90
2
 70
0
 10
43.040000
 20
4.720000
 30
0.0
 10
43.040000
 20
4.720000
 30
0.0
  0
SPLINE
  5
14f
100
AcDbEntity
  8
0
 62
7
100
AcDbSpline
 70
8
 71
3
 72
8
 73
4
 74
0
 40
0
 40
0
 40
0
 40
0
 40
1
 40
1
 40
1
 40
1
 10
43.040000
 20
-4.640000
 30
0.0
 10
42.000000
 20
-4.640000
 30
0.0
 10
41.040000
 20
-4.240000
 30
0.0
 10
40.320000
 20
-3.520000
 30
0.0
  0
SPLINE
  5
150
100
AcDbEntity
  8
0
 62
7
100
AcDbSpline
 70
8
 71
3
 72
8
 73
4
 74
0
 40
0
 40
0
 40
0
 40
0
 40
1
 40
1
 40
1
 40
1
 10
40.320000
 20
-3.520000
 30
0.0
 10
39.600000
 20
-2.800000
 30
0.0
 10
39.280000
 20
-1.840000
 30
0.0
 10
39.280000
 20
-0.880000
 30
0.0
  0
SPLINE
  5
151
100
AcDbEntity
  8
0
 62
7
100
AcDbSpline
 70
8
 71
3
 72
8
 73
4
 74
0
 40
0
 40
0
 40
0
 40
0
 40
1
 40
1
 40
1
 40
1
 10
39.280000
 20
-0.880000
 30
0.0
 10
39.280000
 20
1.120000
 30
0.0
 10
40.960000
 20
2.800000
 30
0.0
 10
43.120000
 20
2.800000
 30
0.0
  0
LWPOLYLINE
  5
152
100
AcDbEntity
  8
0
 62
7
100
AcDbPolyline
 90
3
 70
0
 10
43.040000
 20
-4.640000
 30
0.0
 10
43.040000
 20
-5.600000
 30
0.0
 10
43.040000
 20
-4.640000
 30
0.0
  0
SPLINE
  5
153
100
AcDbEntity
  8
0
 62
7
100
AcDbSpline
 70
8
 71
3
 72
8
 73
4
 74
0
 40
0
 40
0
 40
0
 40
0
 40
1
 40
1
 40
1
 40
1
 10
43.120000
 20
2.800000
 30
0.0
 10
44.080000
 20
2.800000
 30
0.0
 10
45.040000
 20
2.400000
 30
0.0
 10
45.760000
 20
1.680000
 30
0.0
  0
SPLINE
  5
154
100
AcDbEntity
  8
0
 62
7
100
AcDbSpline
 70
8
 71
3
 72
8
 73
4
 74
0
 40
0
 40
0
 40
0
 40
0
 40
1
 40
1
 40
1
 40
1
 10
45.760000
 20
1.680000
 30
0.0
 10
46.480000
 20
0.960000
 30
0.0
 10
46.800000
 20
0.000000
 30
0.0
 10
46.800000
 20
-0.960000
 30
0.0
  0
SPLINE
  5
155
100
AcDbEntity
  8
0
 62
7
100
AcDbSpline
 70
8
 71
3
 72
8
 73
4
 74
0
 40
0
 40
0
 40
0
 40
0
 40
1
 40
1
 40
1
 40
1
 10
46.800000
 20
-0.960000
 30
0.0
 10
46.720000
 20
-3.040000
 30
0.0
 10
45.040000
 20
-4.640000
 30
0.0
 10
43.040000
 20
-4.640000
 30
0.0
  0
LWPOLYLINE
  5
156
100
AcDbEntity
  8
0
 62
7
100
AcDbPolyline
 90
2
 70
0
 10
43.120000
 20
2.800000
 30
0.0
 10
43.120000
 20
2.800000
 30
0.0
  0
LWPOLYLINE
  5
157
100
AcDbEntity
  8
0
 62
7
100
AcDbPolyline
 90
2
 70
0
 10
43.040000
 20
-4.640000
 30
0.0
 10
43.040000
 20
-4.640000
 30
0.0
  0
SPLINE
  5
158
100
AcDbEntity
  8
0
 62
7
100
AcDbSpline
 70
8
 71
3
 72
8
 73
4
 74
0
 40
0
 40
0
 40
0
 40
0
 40
1
 40
1
 40
1
 40
1
 10
101.280000
 20
41.520000
 30
0.0
 10
102.880000
 20
41.520000
 30
0.0
 10
104.160000
 20
42.800000
 30
0.0
 10
104.160000
 20
44.320000
 30
0.0
  0
SPLINE
  5
159
100
AcDbEntity
  8
0
 62
7
100
AcDbSpline
 70
8
 71
3
 72
8
 73
4
 74
0
 40
0
 40
0
 40
0
 40
0
 40
1
 40
1
 40
1
 40
1
 10
104.160000
 20
44.320000
 30
0.0
 10
104.160000
 20
45.040000
 30
0.0
 10
103.920000
 20
45.760000
 30
0.0
 10
103.360000
 20
46.320000
 30
0.0
  0
SPLINE
  5
15a
100
AcDbEntity
  8
0
 62
7
100
AcDbSpline
 70
8
 71
3
 72
8
 73
4
 74
0
 40
0
 40
0
 40
0
 40
0
 40
1
 40
1
 40
1
 40
1
 10
103.360000
 20
46.320000
 30
0.0
 10
102.800000
 20
46.880000
 30
0.0
 10
102.160000
 20
47.200000
 30
0.0
 10
101.360000
 20
47.200000
 30
0.0
  0
SPLINE
  5
15b
100
AcDbEntity
  8
0
 62
7
100
AcDbSpline
 70
8
 71
3
 72
8
 73
4
 74
0
 40
0
 40
0
 40
0
 40
0
 40
1
 40
1
 40
1
 40
1
 10
101.360000
 20
47.200000
 30
0.0
 10
99.840000
 20
47.200000
 30
0.0
 10
98.560000
 20
45.920000
 30
0.0
 10
98.560000
 20
44.400000
 30
0.0
  0
SPLINE
  5
15c
100
AcDbEntity
  8
0
 62
7
100
AcDbSpline
 70
8
 71
3
 72
8
 73
4
 74
0
 40
0
 40
0
 40
0
 40
0
 40
1
 40
1
 40
1
 40
1
 10
98.560000
 20
44.400000
 30
0.0
 10
98.480000
 20
42.800000
 30
0.0
 10
99.760000
 20
41.520000
 30
0.0
 10
101.280000
 20
41.520000
 30
0.0
  0
SPLINE
  5
15d
100
AcDbEntity
  8
0
 62
7
100
AcDbSpline
 70
8
 71
3
 72
8
 73
4
 74
0
 40
0
 40
0
 40
0
 40
0
 40
1
 40
1
 40
1
 40
1
 10
101.360000
 20
45.280000
 30
0.0
 10
101.600000
 20
45.280000
 30
0.0
 10
101.840000
 20
45.200000
 30
0.0
 10
102.000000
 20
44.960000
 30
0.0
  0
SPLINE
  5
15e
100
AcDbEntity
  8
0
 62
7
100
AcDbSpline
 70
8
 71
3
 72
8
 73
4
 74
0
 40
0
 40
0
 40
0
 40
0
 40
1
 40
1
 40
1
 40
1
 10
102.000000
 20
44.960000
 30
0.0
 10
102.160000
 20
44.800000
 30
0.0
 10
102.240000
 20
44.560000
 30
0.0
 10
102.240000
 20
44.320000
 30
0.0
  0
SPLINE
  5
15f
100
AcDbEntity
  8
0
 62
7
100
AcDbSpline
 70
8
 71
3
 72
8
 73
4
 74
0
 40
0
 40
0
 40
0
 40
0
 40
1
 40
1
 40
1
 40
1
 10
102.240000
 20
44.320000
 30
0.0
 10
102.240000
 20
43.840000
 30
0.0
 10
101.840000
 20
43.440000
 30
0.0
 10
101.280000
 20
43.440000
 30
0.0
  0
LWPOLYLINE
  5
160
100
AcDbEntity
  8
0
 62
7
100
AcDbPolyline
 90
3
 70
0
 10
101.280000
 20
41.520000
 30
0.0
 10
101.280000
 20
41.520000
 30
0.0
 10
101.280000
 20
41.520000
 30
0.0
  0
SPLINE
  5
161
100
AcDbEntity
  8
0
 62
7
100
AcDbSpline
 70
8
 71
3
 72
8
 73
4
 74
0
 40
0
 40
0
 40
0
 40
0
 40
1
 40
1
 40
1
 40
1
 10
101.280000
 20
43.440000
 30
0.0
 10
100.800000
 20
43.440000
 30
0.0
 10
100.400000
 20
43.840000
 30
0.0
 10
100.400000
 20
44.400000
 30
0.0
  0
SPLINE
  5
162
100
AcDbEntity
  8
0
 62
7
100
AcDbSpline
 70
8
 71
3
 72
8
 73
4
 74
0
 40
0
 40
0
 40
0
 40
0
 40
1
 40
1
 40
1
 40
1
 10
100.400000
 20
44.400000
 30
0.0
 10
100.400000
 20
44.880000
 30
0.0
 10
100.880000
 20
45.280000
 30
0.0
 10
101.360000
 20
45.280000
 30
0.0
  0
LWPOLYLINE
  5
163
100
AcDbEntity
  8
0
 62
7
100
AcDbPolyline
 90
3
 70
0
 10
101.280000
 20
43.440000
 30
0.0
 10
101.280000
 20
42.480000
 30
0.0
 10
101.280000
 20
43.440000
 30
0.0
  0
LWPOLYLINE
  5
164
100
AcDbEntity
  8
0
 62
7
100
AcDbPolyline
 90
2
 70
0
 10
101.360000
 20
45.280000
 30
0.0
 10
101.360000
 20
45.280000
 30
0.0
  0
SPLINE
  5
165
100
AcDbEntity
  8
0
 62
7
100
AcDbSpline
 70
8
 71
3
 72
8
 73
4
 74
0
 40
0
 40
0
 40
0
 40
0
 40
1
 40
1
 40
1
 40
1
 10
78.800000
 20
23.680000
 30
0.0
 10
78.240000
 20
23.680000
 30
0.0
 10
77.840000
 20
23.280000
 30
0.0
 10
77.840000
 20
22.720000
 30
0.0
  0
SPLINE
  5
166
100
AcDbEntity
  8
0
 62
7
100
AcDbSpline
 70
8
 71
3
 72
8
 73
4
 74
0
 40
0
 40
0
 40
0
 40
0
 40
1
 40
1
 40
1
 40
1
 10
77.840000
 20
22.720000
 30
0.0
 10
77.840000
 20
22.160000
 30
0.0
 10
78.240000
 20
21.760000
 30
0.0
 10
78.800000
 20
21.760000
 30
0.0
  0
LWPOLYLINE
  5
167
100
AcDbEntity
  8
0
 62
7
100
AcDbPolyline
 90
2
 70
0
 10
102.640000
 20
23.680000
 30
0.0
 10
78.800000
 20
23.680000
 30
0.0
  0
LWPOLYLINE
  5
168
100
AcDbEntity
  8
0
 62
7
100
AcDbPolyline
 90
7
 70
0
 10
78.800000
 20
21.760000
 30
0.0
 10
102.640000
 20
21.760000
 30
0.0
 10
102.640000
 20
19.840000
 30
0.0
 10
110.560000
 20
22.720000
 30
0.0
 10
102.640000
 20
25.600000
 30
0.0
 10
102.640000
 20
23.680000
 30
0.0
 10
102.640000
 20
23.680000
 30
0.0
  0
SPLINE
  5
169
100
AcDbEntity
  8
0
 62
7
100
AcDbSpline
 70
8
 71
3
 72
8
 73
4
 74
0
 40
0
 40
0
 40
0
 40
0
 40
1
 40
1
 40
1
 40
1
 10
51.360000
 20
42.240000
 30
0.0
 10
50.960000
 20
42.560000
 30
0.0
 10
50.320000
 20
42.480000
 30
0.0
 10
50.000000
 20
42.080000
 30
0.0
  0
SPLINE
  5
16a
100
AcDbEntity
  8
0
 62
7
100
AcDbSpline
 70
8
 71
3
 72
8
 73
4
 74
0
 40
0
 40
0
 40
0
 40
0
 40
1
 40
1
 40
1
 40
1
 10
50.000000
 20
42.080000
 30
0.0
 10
49.680000
 20
41.680000
 30
0.0
 10
49.760000
 20
41.040000
 30
0.0
 10
50.160000
 20
40.720000
 30
0.0
  0
LWPOLYLINE
  5
16b
100
AcDbEntity
  8
0
 62
7
100
AcDbPolyline
 90
2
 70
0
 10
65.120000
 20
31.840000
 30
0.0
 10
51.360000
 20
42.240000
 30
0.0
  0
LWPOLYLINE
  5
16c
100
AcDbEntity
  8
0
 62
7
100
AcDbPolyline
 90
7
 70
0
 10
50.160000
 20
40.720000
 30
0.0
 10
63.920000
 20
30.320000
 30
0.0
 10
62.720000
 20
28.800000
 30
0.0
 10
70.800000
 20
26.320000
 30
0.0
 10
66.240000
 20
33.360000
 30
0.0
 10
65.120000
 20
31.840000
 30
0.0
 10
65.120000
 20
31.840000
 30
0.0
  0
SPLINE
  5
16d
100
AcDbEntity
  8
0
 62
7
100
AcDbSpline
 70
8
 71
3
 72
8
 73
4
 74
0
 40
0
 40
0
 40
0
 40
0
 40
1
 40
1
 40
1
 40
1
 10
50.160000
 20
4.720000
 30
0.0
 10
49.760000
 20
4.400000
 30
0.0
 10
49.680000
 20
3.840000
 30
0.0
 10
50.000000
 20
3.360000
 30
0.0
  0
SPLINE
  5
16e
100
AcDbEntity
  8
0
 62
7
100
AcDbSpline
 70
8
 71
3
 72
8
 73
4
 74
0
 40
0
 40
0
 40
0
 40
0
 40
1
 40
1
 40
1
 40
1
 10
50.000000
 20
3.360000
 30
0.0
 10
50.160000
 20
3.120000
 30
0.0
 10
50.480000
 20
2.960000
 30
0.0
 10
50.720000
 20
2.960000
 30
0.0
  0
SPLINE
  5
16f
100
AcDbEntity
  8
0
 62
7
100
AcDbSpline
 70
8
 71
3
 72
8
 73
4
 74
0
 40
0
 40
0
 40
0
 40
0
 40
1
 40
1
 40
1
 40
1
 10
50.720000
 20
2.960000
 30
0.0
 10
50.960000
 20
2.960000
 30
0.0
 10
51.120000
 20
3.040000
 30
0.0
 10
51.280000
 20
3.120000
 30
0.0
  0
LWPOLYLINE
  5
170
100
AcDbEntity
  8
0
 62
7
100
AcDbPolyline
 90
2
 70
0
 10
63.920000
 20
15.120000
 30
0.0
 10
50.160000
 20
4.720000
 30
0.0
  0
SPLINE
  5
171
100
AcDbEntity
  8
0
 62
7
100
AcDbSpline
 70
8
 71
3
 72
8
 73
4
 74
0
 40
0
 40
0
 40
0
 40
0
 40
1
 40
1
 40
1
 40
1
 10
77.600000
 20
25.840000
 30
0.0
 10
77.760000
 20
25.840000
 30
0.0
 10
78.000000
 20
25.920000
 30
0.0
 10
78.160000
 20
26.000000
 30
0.0
  0
LWPOLYLINE
  5
172
100
AcDbEntity
  8
0
 62
7
100
AcDbPolyline
 90
7
 70
0
 10
51.280000
 20
3.120000
 30
0.0
 10
65.040000
 20
13.520000
 30
0.0
 10
66.240000
 20
12.000000
 30
0.0
 10
70.800000
 20
19.040000
 30
0.0
 10
62.720000
 20
16.560000
 30
0.0
 10
63.920000
 20
15.120000
 30
0.0
 10
63.920000
 20
15.120000
 30
0.0
  0
SPLINE
  5
173
100
AcDbEntity
  8
0
 62
7
100
AcDbSpline
 70
8
 71
3
 72
8
 73
4
 74
0
 40
0
 40
0
 40
0
 40
0
 40
1
 40
1
 40
1
 40
1
 10
77.040000
 20
27.520000
 30
0.0
 10
76.640000
 20
27.200000
 30
0.0
 10
76.560000
 20
26.640000
 30
0.0
 10
76.880000
 20
26.160000
 30
0.0
  0
SPLINE
  5
174
100
AcDbEntity
  8
0
 62
7
100
AcDbSpline
 70
8
 71
3
 72
8
 73
4
 74
0
 40
0
 40
0
 40
0
 40
0
 40
1
 40
1
 40
1
 40
1
 10
76.880000
 20
26.160000
 30
0.0
 10
76.960000
 20
25.920000
 30
0.0
 10
77.280000
 20
25.840000
 30
0.0
 10
77.600000
 20
25.840000
 30
0.0
  0
LWPOLYLINE
  5
175
100
AcDbEntity
  8
0
 62
7
100
AcDbPolyline
 90
7
 70
0
 10
78.160000
 20
26.000000
 30
0.0
 10
91.920000
 20
36.400000
 30
0.0
 10
93.120000
 20
34.880000
 30
0.0
 10
97.680000
 20
41.920000
 30
0.0
 10
89.600000
 20
39.440000
 30
0.0
 10
90.800000
 20
37.920000
 30
0.0
 10
77.040000
 20
27.520000
 30
0.0
  0
LWPOLYLINE
  5
176
100
AcDbEntity
  8
0
 62
7
100
AcDbPolyline
 90
2
 70
0
 10
77.600000
 20
25.840000
 30
0.0
 10
77.600000
 20
25.840000
 30
0.0
  0
SPLINE
  5
177
100
AcDbEntity
  8
0
 62
7
100
AcDbSpline
 70
8
 71
3
 72
8
 73
4
 74
0
 40
0
 40
0
 40
0
 40
0
 40
1
 40
1
 40
1
 40
1
 10
78.080000
 20
19.440000
 30
0.0
 10
77.680000
 20
19.760000
 30
0.0
 10
77.040000
 20
19.680000
 30
0.0
 10
76.720000
 20
19.280000
 30
0.0
  0
SPLINE
  5
178
100
AcDbEntity
  8
0
 62
7
100
AcDbSpline
 70
8
 71
3
 72
8
 73
4
 74
0
 40
0
 40
0
 40
0
 40
0
 40
1
 40
1
 40
1
 40
1
 10
76.720000
 20
19.280000
 30
0.0
 10
76.400000
 20
18.880000
 30
0.0
 10
76.480000
 20
18.240000
 30
0.0
 10
76.880000
 20
17.920000
 30
0.0
  0
LWPOLYLINE
  5
179
100
AcDbEntity
  8
0
 62
7
100
AcDbPolyline
 90
6
 70
0
 10
90.720000
 20
7.520000
 30
0.0
 10
89.520000
 20
6.000000
 30
0.0
 10
97.600000
 20
3.520000
 30
0.0
 10
93.040000
 20
10.560000
 30
0.0
 10
91.840000
 20
9.040000
 30
0.0
 10
78.080000
 20
19.440000
 30
0.0
  0
LWPOLYLINE
  5
17a
100
AcDbEntity
  8
0
 62
7
100
AcDbPolyline
 90
3
 70
0
 10
76.880000
 20
17.920000
 30
0.0
 10
90.720000
 20
7.520000
 30
0.0
 10
90.720000
 20
7.520000
 30
0.0
  0
SPLINE
  5
17b
100
AcDbEntity
  8
0
 62
7
100
AcDbSpline
 70
8
 71
3
 72
8
 73
4
 74
0
 40
0
 40
0
 40
0
 40
0
 40
1
 40
1
 40
1
 40
1
 10
119.200000
 20
-23.520000
 30
0.0
 10
122.240000
 20
-23.520000
 30
0.0
 10
124.800000
 20
-21.040000
 30
0.0
 10
124.880000
 20
-18.000000
 30
0.0
  0
SPLINE
  5
17c
100
AcDbEntity
  8
0
 62
7
100
AcDbSpline
 70
8
 71
3
 72
8
 73
4
 74
0
 40
0
 40
0
 40
0
 40
0
 40
1
 40
1
 40
1
 40
1
 10
124.880000
 20
-18.000000
 30
0.0
 10
124.880000
 20
-16.480000
 30
0.0
 10
124.320000
 20
-15.040000
 30
0.0
 10
123.280000
 20
-14.000000
 30
0.0
  0
SPLINE
  5
17d
100
AcDbEntity
  8
0
 62
7
100
AcDbSpline
 70
8
 71
3
 72
8
 73
4
 74
0
 40
0
 40
0
 40
0
 40
0
 40
1
 40
1
 40
1
 40
1
 10
123.280000
 20
-14.000000
 30
0.0
 10
122.240000
 20
-12.880000
 30
0.0
 10
120.800000
 20
-12.320000
 30
0.0
 10
119.200000
 20
-12.240000
 30
0.0
  0
SPLINE
  5
17e
100
AcDbEntity
  8
0
 62
7
100
AcDbSpline
 70
8
 71
3
 72
8
 73
4
 74
0
 40
0
 40
0
 40
0
 40
0
 40
1
 40
1
 40
1
 40
1
 10
119.200000
 20
-12.240000
 30
0.0
 10
116.160000
 20
-12.240000
 30
0.0
 10
113.600000
 20
-14.720000
 30
0.0
 10
113.520000
 20
-17.760000
 30
0.0
  0
SPLINE
  5
17f
100
AcDbEntity
  8
0
 62
7
100
AcDbSpline
 70
8
 71
3
 72
8
 73
4
 74
0
 40
0
 40
0
 40
0
 40
0
 40
1
 40
1
 40
1
 40
1
 10
113.520000
 20
-17.760000
 30
0.0
 10
113.520000
 20
-20.880000
 30
0.0
 10
116.000000
 20
-23.440000
 30
0.0
 10
119.120000
 20
-23.520000
 30
0.0
  0
LWPOLYLINE
  5
180
100
AcDbEntity
  8
0
 62
7
100
AcDbPolyline
 90
2
 70
0
 10
119.120000
 20
-23.520000
 30
0.0
 10
119.200000
 20
-23.520000
 30
0.0
  0
LWPOLYLINE
  5
181
100
AcDbEntity
  8
0
 62
7
100
AcDbPolyline
 90
2
 70
0
 10
119.120000
 20
-23.520000
 30
0.0
 10
119.120000
 20
-23.520000
 30
0.0
  0
SPLINE
  5
182
100
AcDbEntity
  8
0
 62
7
100
AcDbSpline
 70
8
 71
3
 72
8
 73
4
 74
0
 40
0
 40
0
 40
0
 40
0
 40
1
 40
1
 40
1
 40
1
 10
119.280000
 20
-14.080000
 30
0.0
 10
120.240000
 20
-14.080000
 30
0.0
 10
121.200000
 20
-14.480000
 30
0.0
 10
121.920000
 20
-15.200000
 30
0.0
  0
SPLINE
  5
183
100
AcDbEntity
  8
0
 62
7
100
AcDbSpline
 70
8
 71
3
 72
8
 73
4
 74
0
 40
0
 40
0
 40
0
 40
0
 40
1
 40
1
 40
1
 40
1
 10
121.920000
 20
-15.200000
 30
0.0
 10
122.640000
 20
-15.920000
 30
0.0
 10
122.960000
 20
-16.880000
 30
0.0
 10
122.960000
 20
-17.840000
 30
0.0
  0
SPLINE
  5
184
100
AcDbEntity
  8
0
 62
7
100
AcDbSpline
 70
8
 71
3
 72
8
 73
4
 74
0
 40
0
 40
0
 40
0
 40
0
 40
1
 40
1
 40
1
 40
1
 10
122.960000
 20
-17.840000
 30
0.0
 10
122.960000
 20
-19.840000
 30
0.0
 10
121.280000
 20
-21.520000
 30
0.0
 10
119.200000
 20
-21.520000
 30
0.0
  0
LWPOLYLINE
  5
185
100
AcDbEntity
  8
0
 62
7
100
AcDbPolyline
 90
2
 70
0
 10
119.280000
 20
-14.080000
 30
0.0
 10
119.280000
 20
-14.080000
 30
0.0
  0
SPLINE
  5
186
100
AcDbEntity
  8
0
 62
7
100
AcDbSpline
 70
8
 71
3
 72
8
 73
4
 74
0
 40
0
 40
0
 40
0
 40
0
 40
1
 40
1
 40
1
 40
1
 10
119.120000
 20
-21.520000
 30
0.0
 10
117.040000
 20
-21.520000
 30
0.0
 10
115.440000
 20
-19.760000
 30
0.0
 10
115.440000
 20
-17.680000
 30
0.0
  0
SPLINE
  5
187
100
AcDbEntity
  8
0
 62
7
100
AcDbSpline
 70
8
 71
3
 72
8
 73
4
 74
0
 40
0
 40
0
 40
0
 40
0
 40
1
 40
1
 40
1
 40
1
 10
115.440000
 20
-17.680000
 30
0.0
 10
115.520000
 20
-15.760000
 30
0.0
 10
117.200000
 20
-14.080000
 30
0.0
 10
119.280000
 20
-14.080000
 30
0.0
  0
LWPOLYLINE
  5
188
100
AcDbEntity
  8
0
 62
7
100
AcDbPolyline
 90
3
 70
0
 10
119.200000
 20
-21.520000
 30
0.0
 10
119.200000
 20
-22.480000
 30
0.0
 10
119.120000
 20
-21.520000
 30
0.0
  0
SPLINE
  5
189
100
AcDbEntity
  8
0
 62
7
100
AcDbSpline
 70
8
 71
3
 72
8
 73
4
 74
0
 40
0
 40
0
 40
0
 40
0
 40
1
 40
1
 40
1
 40
1
 10
282.640000
 20
-37.040000
 30
0.0
 10
282.560000
 20
-34.000000
 30
0.0
 10
280.080000
 20
-31.520000
 30
0.0
 10
276.880000
 20
-31.520000
 30
0.0
  0
LWPOLYLINE
  5
18a
100
AcDbEntity
  8
0
 62
7
100
AcDbPolyline
 90
2
 70
0
 10
119.280000
 20
-14.080000
 30
0.0
 10
119.280000
 20
-14.080000
 30
0.0
  0
SPLINE
  5
18b
100
AcDbEntity
  8
0
 62
7
100
AcDbSpline
 70
8
 71
3
 72
8
 73
4
 74
0
 40
0
 40
0
 40
0
 40
0
 40
1
 40
1
 40
1
 40
1
 10
276.880000
 20
-31.520000
 30
0.0
 10
275.360000
 20
-31.520000
 30
0.0
 10
274.000000
 20
-32.160000
 30
0.0
 10
272.880000
 20
-33.280000
 30
0.0
  0
SPLINE
  5
18c
100
AcDbEntity
  8
0
 62
7
100
AcDbSpline
 70
8
 71
3
 72
8
 73
4
 74
0
 40
0
 40
0
 40
0
 40
0
 40
1
 40
1
 40
1
 40
1
 10
272.880000
 20
-33.280000
 30
0.0
 10
272.720000
 20
-33.440000
 30
0.0
 10
272.640000
 20
-33.600000
 30
0.0
 10
272.480000
 20
-33.760000
 30
0.0
  0
SPLINE
  5
18d
100
AcDbEntity
  8
0
 62
7
100
AcDbSpline
 70
8
 71
3
 72
8
 73
4
 74
0
 40
0
 40
0
 40
0
 40
0
 40
1
 40
1
 40
1
 40
1
 10
272.480000
 20
-33.760000
 30
0.0
 10
271.440000
 20
-32.400000
 30
0.0
 10
269.840000
 20
-31.520000
 30
0.0
 10
267.920000
 20
-31.520000
 30
0.0
  0
LWPOLYLINE
  5
18e
100
AcDbEntity
  8
0
 62
7
100
AcDbPolyline
 90
2
 70
0
 10
276.880000
 20
-31.520000
 30
0.0
 10
276.880000
 20
-31.520000
 30
0.0
  0
SPLINE
  5
18f
100
AcDbEntity
  8
0
 62
7
100
AcDbSpline
 70
8
 71
3
 72
8
 73
4
 74
0
 40
0
 40
0
 40
0
 40
0
 40
1
 40
1
 40
1
 40
1
 10
267.920000
 20
-31.520000
 30
0.0
 10
266.400000
 20
-31.520000
 30
0.0
 10
265.040000
 20
-32.160000
 30
0.0
 10
263.920000
 20
-33.280000
 30
0.0
  0
SPLINE
  5
190
100
AcDbEntity
  8
0
 62
7
100
AcDbSpline
 70
8
 71
3
 72
8
 73
4
 74
0
 40
0
 40
0
 40
0
 40
0
 40
1
 40
1
 40
1
 40
1
 10
263.920000
 20
-33.280000
 30
0.0
 10
262.880000
 20
-34.400000
 30
0.0
 10
262.320000
 20
-35.760000
 30
0.0
 10
262.320000
 20
-37.280000
 30
0.0
  0
SPLINE
  5
191
100
AcDbEntity
  8
0
 62
7
100
AcDbSpline
 70
8
 71
3
 72
8
 73
4
 74
0
 40
0
 40
0
 40
0
 40
0
 40
1
 40
1
 40
1
 40
1
 10
262.320000
 20
-37.280000
 30
0.0
 10
262.320000
 20
-38.640000
 30
0.0
 10
262.880000
 20
-39.920000
 30
0.0
 10
263.760000
 20
-40.880000
 30
0.0
  0
SPLINE
  5
192
100
AcDbEntity
  8
0
 62
7
100
AcDbSpline
 70
8
 71
3
 72
8
 73
4
 74
0
 40
0
 40
0
 40
0
 40
0
 40
1
 40
1
 40
1
 40
1
 10
263.760000
 20
-40.880000
 30
0.0
 10
262.880000
 20
-41.920000
 30
0.0
 10
262.320000
 20
-43.200000
 30
0.0
 10
262.320000
 20
-44.720000
 30
0.0
  0
SPLINE
  5
193
100
AcDbEntity
  8
0
 62
7
100
AcDbSpline
 70
8
 71
3
 72
8
 73
4
 74
0
 40
0
 40
0
 40
0
 40
0
 40
1
 40
1
 40
1
 40
1
 10
262.320000
 20
-44.720000
 30
0.0
 10
262.400000
 20
-47.840000
 30
0.0
 10
264.960000
 20
-50.320000
 30
0.0
 10
268.080000
 20
-50.240000
 30
0.0
  0
SPLINE
  5
194
100
AcDbEntity
  8
0
 62
7
100
AcDbSpline
 70
8
 71
3
 72
8
 73
4
 74
0
 40
0
 40
0
 40
0
 40
0
 40
1
 40
1
 40
1
 40
1
 10
268.080000
 20
-50.240000
 30
0.0
 10
269.840000
 20
-50.240000
 30
0.0
 10
271.440000
 20
-49.360000
 30
0.0
 10
272.400000
 20
-48.080000
 30
0.0
  0
SPLINE
  5
195
100
AcDbEntity
  8
0
 62
7
100
AcDbSpline
 70
8
 71
3
 72
8
 73
4
 74
0
 40
0
 40
0
 40
0
 40
0
 40
1
 40
1
 40
1
 40
1
 10
272.400000
 20
-48.080000
 30
0.0
 10
273.440000
 20
-49.440000
 30
0.0
 10
275.120000
 20
-50.320000
 30
0.0
 10
276.960000
 20
-50.240000
 30
0.0
  0
SPLINE
  5
196
100
AcDbEntity
  8
0
 62
7
100
AcDbSpline
 70
8
 71
3
 72
8
 73
4
 74
0
 40
0
 40
0
 40
0
 40
0
 40
1
 40
1
 40
1
 40
1
 10
276.960000
 20
-50.240000
 30
0.0
 10
280.080000
 20
-50.160000
 30
0.0
 10
282.560000
 20
-47.600000
 30
0.0
 10
282.480000
 20
-44.480000
 30
0.0
  0
SPLINE
  5
197
100
AcDbEntity
  8
0
 62
7
100
AcDbSpline
 70
8
 71
3
 72
8
 73
4
 74
0
 40
0
 40
0
 40
0
 40
0
 40
1
 40
1
 40
1
 40
1
 10
282.480000
 20
-44.480000
 30
0.0
 10
282.480000
 20
-43.120000
 30
0.0
 10
281.920000
 20
-41.840000
 30
0.0
 10
281.040000
 20
-40.880000
 30
0.0
  0
SPLINE
  5
198
100
AcDbEntity
  8
0
 62
7
100
AcDbSpline
 70
8
 71
3
 72
8
 73
4
 74
0
 40
0
 40
0
 40
0
 40
0
 40
1
 40
1
 40
1
 40
1
 10
281.040000
 20
-40.880000
 30
0.0
 10
282.160000
 20
-39.760000
 30
0.0
 10
282.640000
 20
-38.480000
 30
0.0
 10
282.640000
 20
-37.040000
 30
0.0
  0
LWPOLYLINE
  5
199
100
AcDbEntity
  8
0
 62
7
100
AcDbPolyline
 90
2
 70
0
 10
267.920000
 20
-31.520000
 30
0.0
 10
267.920000
 20
-31.520000
 30
0.0
  0
SPLINE
  5
19a
100
AcDbEntity
  8
0
 62
7
100
AcDbSpline
 70
8
 71
3
 72
8
 73
4
 74
0
 40
0
 40
0
 40
0
 40
0
 40
1
 40
1
 40
1
 40
1
 10
272.320000
 20
-40.800000
 30
0.0
 10
272.400000
 20
-40.720000
 30
0.0
 10
272.480000
 20
-40.640000
 30
0.0
 10
272.560000
 20
-40.560000
 30
0.0
  0
SPLINE
  5
19b
100
AcDbEntity
  8
0
 62
7
100
AcDbSpline
 70
8
 71
3
 72
8
 73
4
 74
0
 40
0
 40
0
 40
0
 40
0
 40
1
 40
1
 40
1
 40
1
 10
272.560000
 20
-40.560000
 30
0.0
 10
272.640000
 20
-40.640000
 30
0.0
 10
272.720000
 20
-40.720000
 30
0.0
 10
272.800000
 20
-40.800000
 30
0.0
  0
SPLINE
  5
19c
100
AcDbEntity
  8
0
 62
7
100
AcDbSpline
 70
8
 71
3
 72
8
 73
4
 74
0
 40
0
 40
0
 40
0
 40
0
 40
1
 40
1
 40
1
 40
1
 10
272.800000
 20
-40.800000
 30
0.0
 10
272.720000
 20
-40.880000
 30
0.0
 10
272.640000
 20
-40.960000
 30
0.0
 10
272.560000
 20
-41.040000
 30
0.0
  0
SPLINE
  5
19d
100
AcDbEntity
  8
0
 62
7
100
AcDbSpline
 70
8
 71
3
 72
8
 73
4
 74
0
 40
0
 40
0
 40
0
 40
0
 40
1
 40
1
 40
1
 40
1
 10
272.560000
 20
-41.040000
 30
0.0
 10
272.480000
 20
-40.960000
 30
0.0
 10
272.400000
 20
-40.880000
 30
0.0
 10
272.320000
 20
-40.800000
 30
0.0
  0
LWPOLYLINE
  5
19e
100
AcDbEntity
  8
0
 62
7
100
AcDbPolyline
 90
2
 70
0
 10
282.640000
 20
-37.040000
 30
0.0
 10
282.640000
 20
-37.040000
 30
0.0
  0
SPLINE
  5
19f
100
AcDbEntity
  8
0
 62
7
100
AcDbSpline
 70
8
 71
3
 72
8
 73
4
 74
0
 40
0
 40
0
 40
0
 40
0
 40
1
 40
1
 40
1
 40
1
 10
274.320000
 20
-34.560000
 30
0.0
 10
275.040000
 20
-33.840000
 30
0.0
 10
275.920000
 20
-33.440000
 30
0.0
 10
277.040000
 20
-33.440000
 30
0.0
  0
SPLINE
  5
1a0
100
AcDbEntity
  8
0
 62
7
100
AcDbSpline
 70
8
 71
3
 72
8
 73
4
 74
0
 40
0
 40
0
 40
0
 40
0
 40
1
 40
1
 40
1
 40
1
 10
277.040000
 20
-33.440000
 30
0.0
 10
279.040000
 20
-33.440000
 30
0.0
 10
280.720000
 20
-35.120000
 30
0.0
 10
280.800000
 20
-37.120000
 30
0.0
  0
SPLINE
  5
1a1
100
AcDbEntity
  8
0
 62
7
100
AcDbSpline
 70
8
 71
3
 72
8
 73
4
 74
0
 40
0
 40
0
 40
0
 40
0
 40
1
 40
1
 40
1
 40
1
 10
280.800000
 20
-37.120000
 30
0.0
 10
280.800000
 20
-38.080000
 30
0.0
 10
280.480000
 20
-38.960000
 30
0.0
 10
279.840000
 20
-39.680000
 30
0.0
  0
SPLINE
  5
1a2
100
AcDbEntity
  8
0
 62
7
100
AcDbSpline
 70
8
 71
3
 72
8
 73
4
 74
0
 40
0
 40
0
 40
0
 40
0
 40
1
 40
1
 40
1
 40
1
 10
279.840000
 20
-39.680000
 30
0.0
 10
278.960000
 20
-39.200000
 30
0.0
 10
278.000000
 20
-38.880000
 30
0.0
 10
276.960000
 20
-38.960000
 30
0.0
  0
SPLINE
  5
1a3
100
AcDbEntity
  8
0
 62
7
100
AcDbSpline
 70
8
 71
3
 72
8
 73
4
 74
0
 40
0
 40
0
 40
0
 40
0
 40
1
 40
1
 40
1
 40
1
 10
276.960000
 20
-38.960000
 30
0.0
 10
276.000000
 20
-38.960000
 30
0.0
 10
275.120000
 20
-39.280000
 30
0.0
 10
274.320000
 20
-39.680000
 30
0.0
  0
SPLINE
  5
1a4
100
AcDbEntity
  8
0
 62
7
100
AcDbSpline
 70
8
 71
3
 72
8
 73
4
 74
0
 40
0
 40
0
 40
0
 40
0
 40
1
 40
1
 40
1
 40
1
 10
274.320000
 20
-39.680000
 30
0.0
 10
274.080000
 20
-39.360000
 30
0.0
 10
273.840000
 20
-39.040000
 30
0.0
 10
273.600000
 20
-38.640000
 30
0.0
  0
SPLINE
  5
1a5
100
AcDbEntity
  8
0
 62
7
100
AcDbSpline
 70
8
 71
3
 72
8
 73
4
 74
0
 40
0
 40
0
 40
0
 40
0
 40
1
 40
1
 40
1
 40
1
 10
273.600000
 20
-38.640000
 30
0.0
 10
273.760000
 20
-38.160000
 30
0.0
 10
273.840000
 20
-37.600000
 30
0.0
 10
273.840000
 20
-37.120000
 30
0.0
  0
SPLINE
  5
1a6
100
AcDbEntity
  8
0
 62
7
100
AcDbSpline
 70
8
 71
3
 72
8
 73
4
 74
0
 40
0
 40
0
 40
0
 40
0
 40
1
 40
1
 40
1
 40
1
 10
273.840000
 20
-37.120000
 30
0.0
 10
273.840000
 20
-36.640000
 30
0.0
 10
273.760000
 20
-36.160000
 30
0.0
 10
273.600000
 20
-35.760000
 30
0.0
  0
SPLINE
  5
1a7
100
AcDbEntity
  8
0
 62
7
100
AcDbSpline
 70
8
 71
3
 72
8
 73
4
 74
0
 40
0
 40
0
 40
0
 40
0
 40
1
 40
1
 40
1
 40
1
 10
273.600000
 20
-35.760000
 30
0.0
 10
273.760000
 20
-35.280000
 30
0.0
 10
274.000000
 20
-34.880000
 30
0.0
 10
274.320000
 20
-34.560000
 30
0.0
  0
LWPOLYLINE
  5
1a8
100
AcDbEntity
  8
0
 62
7
100
AcDbPolyline
 90
2
 70
0
 10
272.320000
 20
-40.800000
 30
0.0
 10
272.320000
 20
-40.800000
 30
0.0
  0
SPLINE
  5
1a9
100
AcDbEntity
  8
0
 62
7
100
AcDbSpline
 70
8
 71
3
 72
8
 73
4
 74
0
 40
0
 40
0
 40
0
 40
0
 40
1
 40
1
 40
1
 40
1
 10
265.440000
 20
-34.560000
 30
0.0
 10
266.160000
 20
-33.840000
 30
0.0
 10
267.040000
 20
-33.440000
 30
0.0
 10
268.160000
 20
-33.440000
 30
0.0
  0
SPLINE
  5
1aa
100
AcDbEntity
  8
0
 62
7
100
AcDbSpline
 70
8
 71
3
 72
8
 73
4
 74
0
 40
0
 40
0
 40
0
 40
0
 40
1
 40
1
 40
1
 40
1
 10
268.160000
 20
-33.440000
 30
0.0
 10
269.680000
 20
-33.440000
 30
0.0
 10
271.040000
 20
-34.400000
 30
0.0
 10
271.600000
 20
-35.760000
 30
0.0
  0
SPLINE
  5
1ab
100
AcDbEntity
  8
0
 62
7
100
AcDbSpline
 70
8
 71
3
 72
8
 73
4
 74
0
 40
0
 40
0
 40
0
 40
0
 40
1
 40
1
 40
1
 40
1
 10
271.600000
 20
-35.760000
 30
0.0
 10
271.440000
 20
-36.240000
 30
0.0
 10
271.360000
 20
-36.800000
 30
0.0
 10
271.360000
 20
-37.280000
 30
0.0
  0
SPLINE
  5
1ac
100
AcDbEntity
  8
0
 62
7
100
AcDbSpline
 70
8
 71
3
 72
8
 73
4
 74
0
 40
0
 40
0
 40
0
 40
0
 40
1
 40
1
 40
1
 40
1
 10
271.360000
 20
-37.280000
 30
0.0
 10
271.360000
 20
-37.760000
 30
0.0
 10
271.440000
 20
-38.240000
 30
0.0
 10
271.600000
 20
-38.640000
 30
0.0
  0
SPLINE
  5
1ad
100
AcDbEntity
  8
0
 62
7
100
AcDbSpline
 70
8
 71
3
 72
8
 73
4
 74
0
 40
0
 40
0
 40
0
 40
0
 40
1
 40
1
 40
1
 40
1
 10
271.600000
 20
-38.640000
 30
0.0
 10
271.440000
 20
-39.040000
 30
0.0
 10
271.200000
 20
-39.360000
 30
0.0
 10
270.960000
 20
-39.680000
 30
0.0
  0
SPLINE
  5
1ae
100
AcDbEntity
  8
0
 62
7
100
AcDbSpline
 70
8
 71
3
 72
8
 73
4
 74
0
 40
0
 40
0
 40
0
 40
0
 40
1
 40
1
 40
1
 40
1
 10
270.960000
 20
-39.680000
 30
0.0
 10
270.080000
 20
-39.200000
 30
0.0
 10
269.120000
 20
-38.880000
 30
0.0
 10
268.080000
 20
-38.960000
 30
0.0
  0
SPLINE
  5
1af
100
AcDbEntity
  8
0
 62
7
100
AcDbSpline
 70
8
 71
3
 72
8
 73
4
 74
0
 40
0
 40
0
 40
0
 40
0
 40
1
 40
1
 40
1
 40
1
 10
268.080000
 20
-38.960000
 30
0.0
 10
267.120000
 20
-38.960000
 30
0.0
 10
266.240000
 20
-39.280000
 30
0.0
 10
265.440000
 20
-39.680000
 30
0.0
  0
SPLINE
  5
1b0
100
AcDbEntity
  8
0
 62
7
100
AcDbSpline
 70
8
 71
3
 72
8
 73
4
 74
0
 40
0
 40
0
 40
0
 40
0
 40
1
 40
1
 40
1
 40
1
 10
265.440000
 20
-39.680000
 30
0.0
 10
264.880000
 20
-39.040000
 30
0.0
 10
264.480000
 20
-38.160000
 30
0.0
 10
264.480000
 20
-37.200000
 30
0.0
  0
SPLINE
  5
1b1
100
AcDbEntity
  8
0
 62
7
100
AcDbSpline
 70
8
 71
3
 72
8
 73
4
 74
0
 40
0
 40
0
 40
0
 40
0
 40
1
 40
1
 40
1
 40
1
 10
264.480000
 20
-37.200000
 30
0.0
 10
264.320000
 20
-36.160000
 30
0.0
 10
264.720000
 20
-35.200000
 30
0.0
 10
265.440000
 20
-34.560000
 30
0.0
  0
LWPOLYLINE
  5
1b2
100
AcDbEntity
  8
0
 62
7
100
AcDbPolyline
 90
2
 70
0
 10
274.320000
 20
-34.560000
 30
0.0
 10
274.320000
 20
-34.560000
 30
0.0
  0
LWPOLYLINE
  5
1b3
100
AcDbEntity
  8
0
 62
7
100
AcDbPolyline
 90
2
 70
0
 10
265.440000
 20
-34.560000
 30
0.0
 10
265.440000
 20
-34.560000
 30
0.0
  0
SPLINE
  5
1b4
100
AcDbEntity
  8
0
 62
7
100
AcDbSpline
 70
8
 71
3
 72
8
 73
4
 74
0
 40
0
 40
0
 40
0
 40
0
 40
1
 40
1
 40
1
 40
1
 10
227.200000
 20
-38.800000
 30
0.0
 10
226.640000
 20
-38.800000
 30
0.0
 10
226.240000
 20
-39.200000
 30
0.0
 10
226.240000
 20
-39.760000
 30
0.0
  0
SPLINE
  5
1b5
100
AcDbEntity
  8
0
 62
7
100
AcDbSpline
 70
8
 71
3
 72
8
 73
4
 74
0
 40
0
 40
0
 40
0
 40
0
 40
1
 40
1
 40
1
 40
1
 10
226.240000
 20
-39.760000
 30
0.0
 10
226.240000
 20
-40.320000
 30
0.0
 10
226.640000
 20
-40.720000
 30
0.0
 10
227.200000
 20
-40.720000
 30
0.0
  0
LWPOLYLINE
  5
1b6
100
AcDbEntity
  8
0
 62
7
100
AcDbPolyline
 90
2
 70
0
 10
251.040000
 20
-38.800000
 30
0.0
 10
227.200000
 20
-38.800000
 30
0.0
  0
LWPOLYLINE
  5
1b7
100
AcDbEntity
  8
0
 62
7
100
AcDbPolyline
 90
7
 70
0
 10
227.200000
 20
-40.720000
 30
0.0
 10
251.040000
 20
-40.720000
 30
0.0
 10
251.040000
 20
-42.640000
 30
0.0
 10
258.960000
 20
-39.760000
 30
0.0
 10
251.040000
 20
-36.880000
 30
0.0
 10
251.040000
 20
-38.800000
 30
0.0
 10
251.040000
 20
-38.800000
 30
0.0
  0
SPLINE
  5
1b8
100
AcDbEntity
  8
0
 62
7
100
AcDbSpline
 70
8
 71
3
 72
8
 73
4
 74
0
 40
0
 40
0
 40
0
 40
0
 40
1
 40
1
 40
1
 40
1
 10
225.920000
 20
-44.880000
 30
0.0
 10
225.680000
 20
-44.400000
 30
0.0
 10
225.120000
 20
-44.160000
 30
0.0
 10
224.640000
 20
-44.400000
 30
0.0
  0
SPLINE
  5
1b9
100
AcDbEntity
  8
0
 62
7
100
AcDbSpline
 70
8
 71
3
 72
8
 73
4
 74
0
 40
0
 40
0
 40
0
 40
0
 40
1
 40
1
 40
1
 40
1
 10
224.640000
 20
-44.400000
 30
0.0
 10
224.160000
 20
-44.640000
 30
0.0
 10
223.920000
 20
-45.200000
 30
0.0
 10
224.160000
 20
-45.680000
 30
0.0
  0
LWPOLYLINE
  5
1ba
100
AcDbEntity
  8
0
 62
7
100
AcDbPolyline
 90
4
 70
0
 10
234.800000
 20
-68.400000
 30
0.0
 10
234.400000
 20
-60.000000
 30
0.0
 10
232.640000
 20
-60.720000
 30
0.0
 10
225.920000
 20
-44.880000
 30
0.0
  0
LWPOLYLINE
  5
1bb
100
AcDbEntity
  8
0
 62
7
100
AcDbPolyline
 90
5
 70
0
 10
224.160000
 20
-45.680000
 30
0.0
 10
230.880000
 20
-61.520000
 30
0.0
 10
229.120000
 20
-62.240000
 30
0.0
 10
234.800000
 20
-68.400000
 30
0.0
 10
234.800000
 20
-68.400000
 30
0.0
  0
SPLINE
  5
1bc
100
AcDbEntity
  8
0
 62
7
100
AcDbSpline
 70
8
 71
3
 72
8
 73
4
 74
0
 40
0
 40
0
 40
0
 40
0
 40
1
 40
1
 40
1
 40
1
 10
238.560000
 20
-69.840000
 30
0.0
 10
237.040000
 20
-69.840000
 30
0.0
 10
235.680000
 20
-70.480000
 30
0.0
 10
234.560000
 20
-71.600000
 30
0.0
  0
SPLINE
  5
1bd
100
AcDbEntity
  8
0
 62
7
100
AcDbSpline
 70
8
 71
3
 72
8
 73
4
 74
0
 40
0
 40
0
 40
0
 40
0
 40
1
 40
1
 40
1
 40
1
 10
234.560000
 20
-71.600000
 30
0.0
 10
233.520000
 20
-72.720000
 30
0.0
 10
232.960000
 20
-74.080000
 30
0.0
 10
232.960000
 20
-75.600000
 30
0.0
  0
SPLINE
  5
1be
100
AcDbEntity
  8
0
 62
7
100
AcDbSpline
 70
8
 71
3
 72
8
 73
4
 74
0
 40
0
 40
0
 40
0
 40
0
 40
1
 40
1
 40
1
 40
1
 10
232.960000
 20
-75.600000
 30
0.0
 10
233.040000
 20
-78.640000
 30
0.0
 10
235.520000
 20
-81.120000
 30
0.0
 10
238.640000
 20
-81.120000
 30
0.0
  0
LWPOLYLINE
  5
1bf
100
AcDbEntity
  8
0
 62
7
100
AcDbPolyline
 90
2
 70
0
 10
238.560000
 20
-69.840000
 30
0.0
 10
238.560000
 20
-69.840000
 30
0.0
  0
SPLINE
  5
1c0
100
AcDbEntity
  8
0
 62
7
100
AcDbSpline
 70
8
 71
3
 72
8
 73
4
 74
0
 40
0
 40
0
 40
0
 40
0
 40
1
 40
1
 40
1
 40
1
 10
238.720000
 20
-81.120000
 30
0.0
 10
240.240000
 20
-81.120000
 30
0.0
 10
241.600000
 20
-80.480000
 30
0.0
 10
242.720000
 20
-79.360000
 30
0.0
  0
SPLINE
  5
1c1
100
AcDbEntity
  8
0
 62
7
100
AcDbSpline
 70
8
 71
3
 72
8
 73
4
 74
0
 40
0
 40
0
 40
0
 40
0
 40
1
 40
1
 40
1
 40
1
 10
242.720000
 20
-79.360000
 30
0.0
 10
243.760000
 20
-78.240000
 30
0.0
 10
244.320000
 20
-76.880000
 30
0.0
 10
244.320000
 20
-75.360000
 30
0.0
  0
SPLINE
  5
1c2
100
AcDbEntity
  8
0
 62
7
100
AcDbSpline
 70
8
 71
3
 72
8
 73
4
 74
0
 40
0
 40
0
 40
0
 40
0
 40
1
 40
1
 40
1
 40
1
 10
244.320000
 20
-75.360000
 30
0.0
 10
244.240000
 20
-72.320000
 30
0.0
 10
241.680000
 20
-69.840000
 30
0.0
 10
238.560000
 20
-69.840000
 30
0.0
  0
LWPOLYLINE
  5
1c3
100
AcDbEntity
  8
0
 62
7
100
AcDbPolyline
 90
2
 70
0
 10
238.640000
 20
-81.120000
 30
0.0
 10
238.720000
 20
-81.120000
 30
0.0
  0
SPLINE
  5
1c4
100
AcDbEntity
  8
0
 62
7
100
AcDbSpline
 70
8
 71
3
 72
8
 73
4
 74
0
 40
0
 40
0
 40
0
 40
0
 40
1
 40
1
 40
1
 40
1
 10
241.360000
 20
-78.080000
 30
0.0
 10
240.640000
 20
-78.800000
 30
0.0
 10
239.760000
 20
-79.200000
 30
0.0
 10
238.720000
 20
-79.200000
 30
0.0
  0
LWPOLYLINE
  5
1c5
100
AcDbEntity
  8
0
 62
7
100
AcDbPolyline
 90
2
 70
0
 10
238.560000
 20
-69.840000
 30
0.0
 10
238.560000
 20
-69.840000
 30
0.0
  0
SPLINE
  5
1c6
100
AcDbEntity
  8
0
 62
7
100
AcDbSpline
 70
8
 71
3
 72
8
 73
4
 74
0
 40
0
 40
0
 40
0
 40
0
 40
1
 40
1
 40
1
 40
1
 10
238.640000
 20
-79.200000
 30
0.0
 10
236.640000
 20
-79.200000
 30
0.0
 10
234.960000
 20
-77.520000
 30
0.0
 10
234.880000
 20
-75.520000
 30
0.0
  0
SPLINE
  5
1c7
100
AcDbEntity
  8
0
 62
7
100
AcDbSpline
 70
8
 71
3
 72
8
 73
4
 74
0
 40
0
 40
0
 40
0
 40
0
 40
1
 40
1
 40
1
 40
1
 10
234.880000
 20
-75.520000
 30
0.0
 10
234.880000
 20
-74.560000
 30
0.0
 10
235.200000
 20
-73.600000
 30
0.0
 10
235.920000
 20
-72.880000
 30
0.0
  0
SPLINE
  5
1c8
100
AcDbEntity
  8
0
 62
7
100
AcDbSpline
 70
8
 71
3
 72
8
 73
4
 74
0
 40
0
 40
0
 40
0
 40
0
 40
1
 40
1
 40
1
 40
1
 10
235.920000
 20
-72.880000
 30
0.0
 10
236.640000
 20
-72.160000
 30
0.0
 10
237.520000
 20
-71.760000
 30
0.0
 10
238.640000
 20
-71.760000
 30
0.0
  0
SPLINE
  5
1c9
100
AcDbEntity
  8
0
 62
7
100
AcDbSpline
 70
8
 71
3
 72
8
 73
4
 74
0
 40
0
 40
0
 40
0
 40
0
 40
1
 40
1
 40
1
 40
1
 10
238.640000
 20
-71.760000
 30
0.0
 10
240.640000
 20
-71.760000
 30
0.0
 10
242.320000
 20
-73.440000
 30
0.0
 10
242.400000
 20
-75.440000
 30
0.0
  0
SPLINE
  5
1ca
100
AcDbEntity
  8
0
 62
7
100
AcDbSpline
 70
8
 71
3
 72
8
 73
4
 74
0
 40
0
 40
0
 40
0
 40
0
 40
1
 40
1
 40
1
 40
1
 10
242.400000
 20
-75.440000
 30
0.0
 10
242.400000
 20
-76.400000
 30
0.0
 10
242.080000
 20
-77.360000
 30
0.0
 10
241.360000
 20
-78.080000
 30
0.0
  0
LWPOLYLINE
  5
1cb
100
AcDbEntity
  8
0
 62
7
100
AcDbPolyline
 90
3
 70
0
 10
238.720000
 20
-79.200000
 30
0.0
 10
238.640000
 20
-80.160000
 30
0.0
 10
238.640000
 20
-79.200000
 30
0.0
  0
LWPOLYLINE
  5
1cc
100
AcDbEntity
  8
0
 62
7
100
AcDbPolyline
 90
2
 70
0
 10
241.360000
 20
-78.080000
 30
0.0
 10
241.360000
 20
-78.080000
 30
0.0
  0
SPLINE
  5
1cd
100
AcDbEntity
  8
0
 62
7
100
AcDbSpline
 70
8
 71
3
 72
8
 73
4
 74
0
 40
0
 40
0
 40
0
 40
0
 40
1
 40
1
 40
1
 40
1
 10
238.560000
 20
-9.680000
 30
0.0
 10
241.680000
 20
-9.680000
 30
0.0
 10
244.240000
 20
-7.200000
 30
0.0
 10
244.320000
 20
-4.160000
 30
0.0
  0
SPLINE
  5
1ce
100
AcDbEntity
  8
0
 62
7
100
AcDbSpline
 70
8
 71
3
 72
8
 73
4
 74
0
 40
0
 40
0
 40
0
 40
0
 40
1
 40
1
 40
1
 40
1
 10
244.320000
 20
-4.160000
 30
0.0
 10
244.320000
 20
-2.640000
 30
0.0
 10
243.760000
 20
-1.200000
 30
0.0
 10
242.720000
 20
-0.160000
 30
0.0
  0
SPLINE
  5
1cf
100
AcDbEntity
  8
0
 62
7
100
AcDbSpline
 70
8
 71
3
 72
8
 73
4
 74
0
 40
0
 40
0
 40
0
 40
0
 40
1
 40
1
 40
1
 40
1
 10
242.720000
 20
-0.160000
 30
0.0
 10
241.680000
 20
0.960000
 30
0.0
 10
240.240000
 20
1.520000
 30
0.0
 10
238.640000
 20
1.600000
 30
0.0
  0
SPLINE
  5
1d0
100
AcDbEntity
  8
0
 62
7
100
AcDbSpline
 70
8
 71
3
 72
8
 73
4
 74
0
 40
0
 40
0
 40
0
 40
0
 40
1
 40
1
 40
1
 40
1
 10
238.640000
 20
1.600000
 30
0.0
 10
235.600000
 20
1.600000
 30
0.0
 10
233.040000
 20
-0.880000
 30
0.0
 10
232.960000
 20
-3.920000
 30
0.0
  0
SPLINE
  5
1d1
100
AcDbEntity
  8
0
 62
7
100
AcDbSpline
 70
8
 71
3
 72
8
 73
4
 74
0
 40
0
 40
0
 40
0
 40
0
 40
1
 40
1
 40
1
 40
1
 10
232.960000
 20
-3.920000
 30
0.0
 10
232.960000
 20
-7.040000
 30
0.0
 10
235.440000
 20
-9.600000
 30
0.0
 10
238.560000
 20
-9.680000
 30
0.0
  0
LWPOLYLINE
  5
1d2
100
AcDbEntity
  8
0
 62
7
100
AcDbPolyline
 90
3
 70
0
 10
238.560000
 20
-9.680000
 30
0.0
 10
238.560000
 20
-9.680000
 30
0.0
 10
238.560000
 20
-9.680000
 30
0.0
  0
SPLINE
  5
1d3
100
AcDbEntity
  8
0
 62
7
100
AcDbSpline
 70
8
 71
3
 72
8
 73
4
 74
0
 40
0
 40
0
 40
0
 40
0
 40
1
 40
1
 40
1
 40
1
 10
238.720000
 20
-0.240000
 30
0.0
 10
239.760000
 20
-0.240000
 30
0.0
 10
240.640000
 20
-0.640000
 30
0.0
 10
241.360000
 20
-1.360000
 30
0.0
  0
SPLINE
  5
1d4
100
AcDbEntity
  8
0
 62
7
100
AcDbSpline
 70
8
 71
3
 72
8
 73
4
 74
0
 40
0
 40
0
 40
0
 40
0
 40
1
 40
1
 40
1
 40
1
 10
241.360000
 20
-1.360000
 30
0.0
 10
242.080000
 20
-2.080000
 30
0.0
 10
242.400000
 20
-3.040000
 30
0.0
 10
242.400000
 20
-4.000000
 30
0.0
  0
SPLINE
  5
1d5
100
AcDbEntity
  8
0
 62
7
100
AcDbSpline
 70
8
 71
3
 72
8
 73
4
 74
0
 40
0
 40
0
 40
0
 40
0
 40
1
 40
1
 40
1
 40
1
 10
242.400000
 20
-4.000000
 30
0.0
 10
242.400000
 20
-6.000000
 30
0.0
 10
240.640000
 20
-7.680000
 30
0.0
 10
238.640000
 20
-7.680000
 30
0.0
  0
LWPOLYLINE
  5
1d6
100
AcDbEntity
  8
0
 62
7
100
AcDbPolyline
 90
2
 70
0
 10
238.720000
 20
-0.240000
 30
0.0
 10
238.720000
 20
-0.240000
 30
0.0
  0
SPLINE
  5
1d7
100
AcDbEntity
  8
0
 62
7
100
AcDbSpline
 70
8
 71
3
 72
8
 73
4
 74
0
 40
0
 40
0
 40
0
 40
0
 40
1
 40
1
 40
1
 40
1
 10
238.560000
 20
-7.680000
 30
0.0
 10
236.480000
 20
-7.680000
 30
0.0
 10
234.800000
 20
-5.920000
 30
0.0
 10
234.880000
 20
-3.840000
 30
0.0
  0
SPLINE
  5
1d8
100
AcDbEntity
  8
0
 62
7
100
AcDbSpline
 70
8
 71
3
 72
8
 73
4
 74
0
 40
0
 40
0
 40
0
 40
0
 40
1
 40
1
 40
1
 40
1
 10
234.880000
 20
-3.840000
 30
0.0
 10
234.960000
 20
-1.920000
 30
0.0
 10
236.640000
 20
-0.240000
 30
0.0
 10
238.720000
 20
-0.240000
 30
0.0
  0
LWPOLYLINE
  5
1d9
100
AcDbEntity
  8
0
 62
7
100
AcDbPolyline
 90
3
 70
0
 10
238.640000
 20
-7.680000
 30
0.0
 10
238.640000
 20
-8.640000
 30
0.0
 10
238.560000
 20
-7.680000
 30
0.0
  0
SPLINE
  5
1da
100
AcDbEntity
  8
0
 62
7
100
AcDbSpline
 70
8
 71
3
 72
8
 73
4
 74
0
 40
0
 40
0
 40
0
 40
0
 40
1
 40
1
 40
1
 40
1
 10
224.640000
 20
-35.680000
 30
0.0
 10
224.720000
 20
-35.760000
 30
0.0
 10
224.880000
 20
-35.760000
 30
0.0
 10
225.040000
 20
-35.760000
 30
0.0
  0
SPLINE
  5
1db
100
AcDbEntity
  8
0
 62
7
100
AcDbSpline
 70
8
 71
3
 72
8
 73
4
 74
0
 40
0
 40
0
 40
0
 40
0
 40
1
 40
1
 40
1
 40
1
 10
225.040000
 20
-35.760000
 30
0.0
 10
225.440000
 20
-35.760000
 30
0.0
 10
225.760000
 20
-35.520000
 30
0.0
 10
225.920000
 20
-35.200000
 30
0.0
  0
LWPOLYLINE
  5
1dc
100
AcDbEntity
  8
0
 62
7
100
AcDbPolyline
 90
2
 70
0
 10
238.720000
 20
-0.240000
 30
0.0
 10
238.720000
 20
-0.240000
 30
0.0
  0
SPLINE
  5
1dd
100
AcDbEntity
  8
0
 62
7
100
AcDbSpline
 70
8
 71
3
 72
8
 73
4
 74
0
 40
0
 40
0
 40
0
 40
0
 40
1
 40
1
 40
1
 40
1
 10
224.080000
 20
-34.400000
 30
0.0
 10
223.920000
 20
-34.880000
 30
0.0
 10
224.160000
 20
-35.440000
 30
0.0
 10
224.640000
 20
-35.680000
 30
0.0
  0
LWPOLYLINE
  5
1de
100
AcDbEntity
  8
0
 62
7
100
AcDbPolyline
 90
7
 70
0
 10
225.920000
 20
-35.200000
 30
0.0
 10
232.640000
 20
-19.360000
 30
0.0
 10
234.400000
 20
-20.080000
 30
0.0
 10
234.800000
 20
-11.680000
 30
0.0
 10
229.040000
 20
-17.840000
 30
0.0
 10
230.800000
 20
-18.560000
 30
0.0
 10
224.080000
 20
-34.400000
 30
0.0
  0
LWPOLYLINE
  5
1df
100
AcDbEntity
  8
0
 62
7
100
AcDbPolyline
 90
2
 70
0
 10
224.640000
 20
-35.680000
 30
0.0
 10
224.640000
 20
-35.680000
 30
0.0
  0
SPLINE
  5
1e0
100
AcDbEntity
  8
0
 62
7
100
AcDbSpline
 70
8
 71
3
 72
8
 73
4
 74
0
 40
0
 40
0
 40
0
 40
0
 40
1
 40
1
 40
1
 40
1
 10
190.560000
 20
-56.240000
 30
0.0
 10
188.720000
 20
-56.240000
 30
0.0
 10
187.120000
 20
-57.200000
 30
0.0
 10
186.080000
 20
-58.640000
 30
0.0
  0
SPLINE
  5
1e1
100
AcDbEntity
  8
0
 62
7
100
AcDbSpline
 70
8
 71
3
 72
8
 73
4
 74
0
 40
0
 40
0
 40
0
 40
0
 40
1
 40
1
 40
1
 40
1
 10
186.080000
 20
-58.640000
 30
0.0
 10
185.040000
 20
-57.200000
 30
0.0
 10
183.360000
 20
-56.240000
 30
0.0
 10
181.440000
 20
-56.240000
 30
0.0
  0
LWPOLYLINE
  5
1e2
100
AcDbEntity
  8
0
 62
7
100
AcDbPolyline
 90
2
 70
0
 10
190.560000
 20
-56.240000
 30
0.0
 10
190.560000
 20
-56.240000
 30
0.0
  0
SPLINE
  5
1e3
100
AcDbEntity
  8
0
 62
7
100
AcDbSpline
 70
8
 71
3
 72
8
 73
4
 74
0
 40
0
 40
0
 40
0
 40
0
 40
1
 40
1
 40
1
 40
1
 10
181.440000
 20
-56.240000
 30
0.0
 10
178.320000
 20
-56.320000
 30
0.0
 10
175.840000
 20
-58.880000
 30
0.0
 10
175.920000
 20
-62.000000
 30
0.0
  0
SPLINE
  5
1e4
100
AcDbEntity
  8
0
 62
7
100
AcDbSpline
 70
8
 71
3
 72
8
 73
4
 74
0
 40
0
 40
0
 40
0
 40
0
 40
1
 40
1
 40
1
 40
1
 10
175.920000
 20
-62.000000
 30
0.0
 10
176.000000
 20
-64.720000
 30
0.0
 10
178.000000
 20
-67.040000
 30
0.0
 10
180.640000
 20
-67.440000
 30
0.0
  0
SPLINE
  5
1e5
100
AcDbEntity
  8
0
 62
7
100
AcDbSpline
 70
8
 71
3
 72
8
 73
4
 74
0
 40
0
 40
0
 40
0
 40
0
 40
1
 40
1
 40
1
 40
1
 10
180.640000
 20
-67.440000
 30
0.0
 10
180.560000
 20
-67.920000
 30
0.0
 10
180.480000
 20
-68.320000
 30
0.0
 10
180.480000
 20
-68.880000
 30
0.0
  0
SPLINE
  5
1e6
100
AcDbEntity
  8
0
 62
7
100
AcDbSpline
 70
8
 71
3
 72
8
 73
4
 74
0
 40
0
 40
0
 40
0
 40
0
 40
1
 40
1
 40
1
 40
1
 10
180.480000
 20
-68.880000
 30
0.0
 10
180.480000
 20
-72.000000
 30
0.0
 10
183.040000
 20
-74.560000
 30
0.0
 10
186.160000
 20
-74.560000
 30
0.0
  0
SPLINE
  5
1e7
100
AcDbEntity
  8
0
 62
7
100
AcDbSpline
 70
8
 71
3
 72
8
 73
4
 74
0
 40
0
 40
0
 40
0
 40
0
 40
1
 40
1
 40
1
 40
1
 10
186.160000
 20
-74.560000
 30
0.0
 10
189.280000
 20
-74.560000
 30
0.0
 10
191.840000
 20
-72.000000
 30
0.0
 10
191.840000
 20
-68.880000
 30
0.0
  0
SPLINE
  5
1e8
100
AcDbEntity
  8
0
 62
7
100
AcDbSpline
 70
8
 71
3
 72
8
 73
4
 74
0
 40
0
 40
0
 40
0
 40
0
 40
1
 40
1
 40
1
 40
1
 10
191.840000
 20
-68.880000
 30
0.0
 10
191.840000
 20
-68.400000
 30
0.0
 10
191.760000
 20
-67.920000
 30
0.0
 10
191.680000
 20
-67.520000
 30
0.0
  0
SPLINE
  5
1e9
100
AcDbEntity
  8
0
 62
7
100
AcDbSpline
 70
8
 71
3
 72
8
 73
4
 74
0
 40
0
 40
0
 40
0
 40
0
 40
1
 40
1
 40
1
 40
1
 10
191.680000
 20
-67.520000
 30
0.0
 10
192.880000
 20
-67.360000
 30
0.0
 10
194.000000
 20
-66.800000
 30
0.0
 10
194.880000
 20
-65.920000
 30
0.0
  0
SPLINE
  5
1ea
100
AcDbEntity
  8
0
 62
7
100
AcDbSpline
 70
8
 71
3
 72
8
 73
4
 74
0
 40
0
 40
0
 40
0
 40
0
 40
1
 40
1
 40
1
 40
1
 10
194.880000
 20
-65.920000
 30
0.0
 10
195.920000
 20
-64.800000
 30
0.0
 10
196.480000
 20
-63.440000
 30
0.0
 10
196.480000
 20
-61.920000
 30
0.0
  0
SPLINE
  5
1eb
100
AcDbEntity
  8
0
 62
7
100
AcDbSpline
 70
8
 71
3
 72
8
 73
4
 74
0
 40
0
 40
0
 40
0
 40
0
 40
1
 40
1
 40
1
 40
1
 10
196.480000
 20
-61.920000
 30
0.0
 10
196.240000
 20
-58.720000
 30
0.0
 10
193.680000
 20
-56.240000
 30
0.0
 10
190.560000
 20
-56.240000
 30
0.0
  0
LWPOLYLINE
  5
1ec
100
AcDbEntity
  8
0
 62
7
100
AcDbPolyline
 90
2
 70
0
 10
181.440000
 20
-56.240000
 30
0.0
 10
181.440000
 20
-56.240000
 30
0.0
  0
SPLINE
  5
1ed
100
AcDbEntity
  8
0
 62
7
100
AcDbSpline
 70
8
 71
3
 72
8
 73
4
 74
0
 40
0
 40
0
 40
0
 40
0
 40
1
 40
1
 40
1
 40
1
 10
177.760000
 20
-62.000000
 30
0.0
 10
177.760000
 20
-59.920000
 30
0.0
 10
179.360000
 20
-58.240000
 30
0.0
 10
181.520000
 20
-58.160000
 30
0.0
  0
SPLINE
  5
1ee
100
AcDbEntity
  8
0
 62
7
100
AcDbSpline
 70
8
 71
3
 72
8
 73
4
 74
0
 40
0
 40
0
 40
0
 40
0
 40
1
 40
1
 40
1
 40
1
 10
181.520000
 20
-58.160000
 30
0.0
 10
183.200000
 20
-58.160000
 30
0.0
 10
184.640000
 20
-59.360000
 30
0.0
 10
185.120000
 20
-60.880000
 30
0.0
  0
SPLINE
  5
1ef
100
AcDbEntity
  8
0
 62
7
100
AcDbSpline
 70
8
 71
3
 72
8
 73
4
 74
0
 40
0
 40
0
 40
0
 40
0
 40
1
 40
1
 40
1
 40
1
 10
185.120000
 20
-60.880000
 30
0.0
 10
185.040000
 20
-61.280000
 30
0.0
 10
185.040000
 20
-61.600000
 30
0.0
 10
185.040000
 20
-62.000000
 30
0.0
  0
SPLINE
  5
1f0
100
AcDbEntity
  8
0
 62
7
100
AcDbSpline
 70
8
 71
3
 72
8
 73
4
 74
0
 40
0
 40
0
 40
0
 40
0
 40
1
 40
1
 40
1
 40
1
 10
185.040000
 20
-62.000000
 30
0.0
 10
185.040000
 20
-62.320000
 30
0.0
 10
185.120000
 20
-62.560000
 30
0.0
 10
185.120000
 20
-62.880000
 30
0.0
  0
SPLINE
  5
1f1
100
AcDbEntity
  8
0
 62
7
100
AcDbSpline
 70
8
 71
3
 72
8
 73
4
 74
0
 40
0
 40
0
 40
0
 40
0
 40
1
 40
1
 40
1
 40
1
 10
185.120000
 20
-62.880000
 30
0.0
 10
185.040000
 20
-63.040000
 30
0.0
 10
185.040000
 20
-63.200000
 30
0.0
 10
184.960000
 20
-63.280000
 30
0.0
  0
SPLINE
  5
1f2
100
AcDbEntity
  8
0
 62
7
100
AcDbSpline
 70
8
 71
3
 72
8
 73
4
 74
0
 40
0
 40
0
 40
0
 40
0
 40
1
 40
1
 40
1
 40
1
 10
184.960000
 20
-63.280000
 30
0.0
 10
183.520000
 20
-63.600000
 30
0.0
 10
182.240000
 20
-64.400000
 30
0.0
 10
181.360000
 20
-65.600000
 30
0.0
  0
SPLINE
  5
1f3
100
AcDbEntity
  8
0
 62
7
100
AcDbSpline
 70
8
 71
3
 72
8
 73
4
 74
0
 40
0
 40
0
 40
0
 40
0
 40
1
 40
1
 40
1
 40
1
 10
181.360000
 20
-65.600000
 30
0.0
 10
179.440000
 20
-65.600000
 30
0.0
 10
177.760000
 20
-64.000000
 30
0.0
 10
177.760000
 20
-62.000000
 30
0.0
  0
LWPOLYLINE
  5
1f4
100
AcDbEntity
  8
0
 62
7
100
AcDbPolyline
 90
2
 70
0
 10
190.560000
 20
-56.240000
 30
0.0
 10
190.560000
 20
-56.240000
 30
0.0
  0
SPLINE
  5
1f5
100
AcDbEntity
  8
0
 62
7
100
AcDbSpline
 70
8
 71
3
 72
8
 73
4
 74
0
 40
0
 40
0
 40
0
 40
0
 40
1
 40
1
 40
1
 40
1
 10
193.360000
 20
-64.480000
 30
0.0
 10
192.640000
 20
-65.200000
 30
0.0
 10
191.760000
 20
-65.600000
 30
0.0
 10
190.720000
 20
-65.600000
 30
0.0
  0
LWPOLYLINE
  5
1f6
100
AcDbEntity
  8
0
 62
7
100
AcDbPolyline
 90
2
 70
0
 10
177.760000
 20
-62.000000
 30
0.0
 10
177.760000
 20
-62.000000
 30
0.0
  0
SPLINE
  5
1f7
100
AcDbEntity
  8
0
 62
7
100
AcDbSpline
 70
8
 71
3
 72
8
 73
4
 74
0
 40
0
 40
0
 40
0
 40
0
 40
1
 40
1
 40
1
 40
1
 10
190.720000
 20
-65.680000
 30
0.0
 10
189.920000
 20
-64.480000
 30
0.0
 10
188.640000
 20
-63.600000
 30
0.0
 10
187.200000
 20
-63.280000
 30
0.0
  0
SPLINE
  5
1f8
100
AcDbEntity
  8
0
 62
7
100
AcDbSpline
 70
8
 71
3
 72
8
 73
4
 74
0
 40
0
 40
0
 40
0
 40
0
 40
1
 40
1
 40
1
 40
1
 10
187.200000
 20
-63.280000
 30
0.0
 10
187.120000
 20
-63.120000
 30
0.0
 10
187.120000
 20
-63.040000
 30
0.0
 10
187.040000
 20
-62.880000
 30
0.0
  0
SPLINE
  5
1f9
100
AcDbEntity
  8
0
 62
7
100
AcDbSpline
 70
8
 71
3
 72
8
 73
4
 74
0
 40
0
 40
0
 40
0
 40
0
 40
1
 40
1
 40
1
 40
1
 10
187.040000
 20
-62.880000
 30
0.0
 10
187.120000
 20
-62.480000
 30
0.0
 10
187.120000
 20
-62.160000
 30
0.0
 10
187.120000
 20
-61.760000
 30
0.0
  0
SPLINE
  5
1fa
100
AcDbEntity
  8
0
 62
7
100
AcDbSpline
 70
8
 71
3
 72
8
 73
4
 74
0
 40
0
 40
0
 40
0
 40
0
 40
1
 40
1
 40
1
 40
1
 10
187.120000
 20
-61.760000
 30
0.0
 10
187.120000
 20
-61.440000
 30
0.0
 10
187.040000
 20
-61.200000
 30
0.0
 10
187.040000
 20
-60.880000
 30
0.0
  0
SPLINE
  5
1fb
100
AcDbEntity
  8
0
 62
7
100
AcDbSpline
 70
8
 71
3
 72
8
 73
4
 74
0
 40
0
 40
0
 40
0
 40
0
 40
1
 40
1
 40
1
 40
1
 10
187.040000
 20
-60.880000
 30
0.0
 10
187.440000
 20
-59.280000
 30
0.0
 10
188.880000
 20
-58.160000
 30
0.0
 10
190.640000
 20
-58.080000
 30
0.0
  0
SPLINE
  5
1fc
100
AcDbEntity
  8
0
 62
7
100
AcDbSpline
 70
8
 71
3
 72
8
 73
4
 74
0
 40
0
 40
0
 40
0
 40
0
 40
1
 40
1
 40
1
 40
1
 10
190.640000
 20
-58.080000
 30
0.0
 10
192.640000
 20
-58.080000
 30
0.0
 10
194.320000
 20
-59.760000
 30
0.0
 10
194.400000
 20
-61.760000
 30
0.0
  0
SPLINE
  5
1fd
100
AcDbEntity
  8
0
 62
7
100
AcDbSpline
 70
8
 71
3
 72
8
 73
4
 74
0
 40
0
 40
0
 40
0
 40
0
 40
1
 40
1
 40
1
 40
1
 10
194.400000
 20
-61.760000
 30
0.0
 10
194.400000
 20
-62.880000
 30
0.0
 10
194.000000
 20
-63.760000
 30
0.0
 10
193.360000
 20
-64.480000
 30
0.0
  0
LWPOLYLINE
  5
1fe
100
AcDbEntity
  8
0
 62
7
100
AcDbPolyline
 90
2
 70
0
 10
190.720000
 20
-65.600000
 30
0.0
 10
190.720000
 20
-65.680000
 30
0.0
  0
LWPOLYLINE
  5
1ff
100
AcDbEntity
  8
0
 62
7
100
AcDbPolyline
 90
2
 70
0
 10
193.360000
 20
-64.480000
 30
0.0
 10
193.360000
 20
-64.480000
 30
0.0
  0
SPLINE
  5
200
100
AcDbEntity
  8
0
 62
7
100
AcDbSpline
 70
8
 71
3
 72
8
 73
4
 74
0
 40
0
 40
0
 40
0
 40
0
 40
1
 40
1
 40
1
 40
1
 10
196.160000
 20
-55.920000
 30
0.0
 10
195.760000
 20
-56.240000
 30
0.0
 10
195.680000
 20
-56.800000
 30
0.0
 10
196.000000
 20
-57.280000
 30
0.0
  0
SPLINE
  5
201
100
AcDbEntity
  8
0
 62
7
100
AcDbSpline
 70
8
 71
3
 72
8
 73
4
 74
0
 40
0
 40
0
 40
0
 40
0
 40
1
 40
1
 40
1
 40
1
 10
196.000000
 20
-57.280000
 30
0.0
 10
196.160000
 20
-57.520000
 30
0.0
 10
196.480000
 20
-57.680000
 30
0.0
 10
196.720000
 20
-57.680000
 30
0.0
  0
SPLINE
  5
202
100
AcDbEntity
  8
0
 62
7
100
AcDbSpline
 70
8
 71
3
 72
8
 73
4
 74
0
 40
0
 40
0
 40
0
 40
0
 40
1
 40
1
 40
1
 40
1
 10
196.720000
 20
-57.680000
 30
0.0
 10
196.880000
 20
-57.680000
 30
0.0
 10
197.120000
 20
-57.600000
 30
0.0
 10
197.280000
 20
-57.520000
 30
0.0
  0
LWPOLYLINE
  5
203
100
AcDbEntity
  8
0
 62
7
100
AcDbPolyline
 90
2
 70
0
 10
209.920000
 20
-45.520000
 30
0.0
 10
196.160000
 20
-55.920000
 30
0.0
  0
LWPOLYLINE
  5
204
100
AcDbEntity
  8
0
 62
7
100
AcDbPolyline
 90
7
 70
0
 10
197.280000
 20
-57.520000
 30
0.0
 10
211.040000
 20
-47.120000
 30
0.0
 10
212.240000
 20
-48.640000
 30
0.0
 10
216.800000
 20
-41.600000
 30
0.0
 10
208.720000
 20
-44.080000
 30
0.0
 10
209.920000
 20
-45.520000
 30
0.0
 10
209.920000
 20
-45.520000
 30
0.0
  0
SPLINE
  5
205
100
AcDbEntity
  8
0
 62
7
100
AcDbSpline
 70
8
 71
3
 72
8
 73
4
 74
0
 40
0
 40
0
 40
0
 40
0
 40
1
 40
1
 40
1
 40
1
 10
127.520000
 20
-66.880000
 30
0.0
 10
127.120000
 20
-66.560000
 30
0.0
 10
126.480000
 20
-66.640000
 30
0.0
 10
126.160000
 20
-67.040000
 30
0.0
  0
SPLINE
  5
206
100
AcDbEntity
  8
0
 62
7
100
AcDbSpline
 70
8
 71
3
 72
8
 73
4
 74
0
 40
0
 40
0
 40
0
 40
0
 40
1
 40
1
 40
1
 40
1
 10
126.160000
 20
-67.040000
 30
0.0
 10
125.840000
 20
-67.440000
 30
0.0
 10
125.920000
 20
-68.080000
 30
0.0
 10
126.320000
 20
-68.400000
 30
0.0
  0
LWPOLYLINE
  5
207
100
AcDbEntity
  8
0
 62
7
100
AcDbPolyline
 90
2
 70
0
 10
141.280000
 20
-77.280000
 30
0.0
 10
127.520000
 20
-66.880000
 30
0.0
  0
SPLINE
  5
208
100
AcDbEntity
  8
0
 62
7
100
AcDbSpline
 70
8
 71
3
 72
8
 73
4
 74
0
 40
0
 40
0
 40
0
 40
0
 40
1
 40
1
 40
1
 40
1
 10
153.600000
 20
-82.080000
 30
0.0
 10
153.760000
 20
-82.320000
 30
0.0
 10
154.080000
 20
-82.480000
 30
0.0
 10
154.320000
 20
-82.480000
 30
0.0
  0
SPLINE
  5
209
100
AcDbEntity
  8
0
 62
7
100
AcDbSpline
 70
8
 71
3
 72
8
 73
4
 74
0
 40
0
 40
0
 40
0
 40
0
 40
1
 40
1
 40
1
 40
1
 10
154.320000
 20
-82.480000
 30
0.0
 10
154.480000
 20
-82.480000
 30
0.0
 10
154.720000
 20
-82.400000
 30
0.0
 10
154.880000
 20
-82.320000
 30
0.0
  0
LWPOLYLINE
  5
20a
100
AcDbEntity
  8
0
 62
7
100
AcDbPolyline
 90
7
 70
0
 10
126.320000
 20
-68.400000
 30
0.0
 10
140.080000
 20
-78.800000
 30
0.0
 10
138.880000
 20
-80.320000
 30
0.0
 10
146.960000
 20
-82.800000
 30
0.0
 10
142.400000
 20
-75.760000
 30
0.0
 10
141.280000
 20
-77.280000
 30
0.0
 10
141.280000
 20
-77.280000
 30
0.0
  0
SPLINE
  5
20b
100
AcDbEntity
  8
0
 62
7
100
AcDbSpline
 70
8
 71
3
 72
8
 73
4
 74
0
 40
0
 40
0
 40
0
 40
0
 40
1
 40
1
 40
1
 40
1
 10
153.760000
 20
-80.800000
 30
0.0
 10
153.360000
 20
-81.120000
 30
0.0
 10
153.280000
 20
-81.680000
 30
0.0
 10
153.600000
 20
-82.080000
 30
0.0
  0
LWPOLYLINE
  5
20c
100
AcDbEntity
  8
0
 62
7
100
AcDbPolyline
 90
7
 70
0
 10
154.880000
 20
-82.320000
 30
0.0
 10
168.640000
 20
-71.920000
 30
0.0
 10
169.840000
 20
-73.440000
 30
0.0
 10
174.400000
 20
-66.400000
 30
0.0
 10
166.320000
 20
-68.880000
 30
0.0
 10
167.520000
 20
-70.400000
 30
0.0
 10
153.760000
 20
-80.800000
 30
0.0
  0
SPLINE
  5
20d
100
AcDbEntity
  8
0
 62
7
100
AcDbSpline
 70
8
 71
3
 72
8
 73
4
 74
0
 40
0
 40
0
 40
0
 40
0
 40
1
 40
1
 40
1
 40
1
 10
124.960000
 20
-102.960000
 30
0.0
 10
124.880000
 20
-102.960000
 30
0.0
 10
124.880000
 20
-102.960000
 30
0.0
 10
124.960000
 20
-102.960000
 30
0.0
  0
SPLINE
  5
20e
100
AcDbEntity
  8
0
 62
7
100
AcDbSpline
 70
8
 71
3
 72
8
 73
4
 74
0
 40
0
 40
0
 40
0
 40
0
 40
1
 40
1
 40
1
 40
1
 10
124.960000
 20
-102.960000
 30
0.0
 10
124.880000
 20
-102.880000
 30
0.0
 10
124.880000
 20
-102.800000
 30
0.0
 10
124.880000
 20
-102.720000
 30
0.0
  0
SPLINE
  5
20f
100
AcDbEntity
  8
0
 62
7
100
AcDbSpline
 70
8
 71
3
 72
8
 73
4
 74
0
 40
0
 40
0
 40
0
 40
0
 40
1
 40
1
 40
1
 40
1
 10
124.880000
 20
-102.720000
 30
0.0
 10
124.800000
 20
-99.680000
 30
0.0
 10
122.320000
 20
-97.200000
 30
0.0
 10
119.120000
 20
-97.200000
 30
0.0
  0
LWPOLYLINE
  5
210
100
AcDbEntity
  8
0
 62
7
100
AcDbPolyline
 90
2
 70
0
 10
153.600000
 20
-82.080000
 30
0.0
 10
153.600000
 20
-82.080000
 30
0.0
  0
SPLINE
  5
211
100
AcDbEntity
  8
0
 62
7
100
AcDbSpline
 70
8
 71
3
 72
8
 73
4
 74
0
 40
0
 40
0
 40
0
 40
0
 40
1
 40
1
 40
1
 40
1
 10
119.120000
 20
-97.200000
 30
0.0
 10
116.000000
 20
-97.280000
 30
0.0
 10
113.520000
 20
-99.840000
 30
0.0
 10
113.600000
 20
-102.960000
 30
0.0
  0
SPLINE
  5
212
100
AcDbEntity
  8
0
 62
7
100
AcDbSpline
 70
8
 71
3
 72
8
 73
4
 74
0
 40
0
 40
0
 40
0
 40
0
 40
1
 40
1
 40
1
 40
1
 10
113.600000
 20
-102.960000
 30
0.0
 10
113.680000
 20
-106.000000
 30
0.0
 10
116.160000
 20
-108.480000
 30
0.0
 10
119.280000
 20
-108.480000
 30
0.0
  0
LWPOLYLINE
  5
213
100
AcDbEntity
  8
0
 62
7
100
AcDbPolyline
 90
2
 70
0
 10
119.120000
 20
-97.200000
 30
0.0
 10
119.120000
 20
-97.200000
 30
0.0
  0
SPLINE
  5
214
100
AcDbEntity
  8
0
 62
7
100
AcDbSpline
 70
8
 71
3
 72
8
 73
4
 74
0
 40
0
 40
0
 40
0
 40
0
 40
1
 40
1
 40
1
 40
1
 10
119.360000
 20
-108.560000
 30
0.0
 10
119.360000
 20
-111.680000
 30
0.0
 10
121.920000
 20
-114.240000
 30
0.0
 10
125.040000
 20
-114.240000
 30
0.0
  0
SPLINE
  5
215
100
AcDbEntity
  8
0
 62
7
100
AcDbSpline
 70
8
 71
3
 72
8
 73
4
 74
0
 40
0
 40
0
 40
0
 40
0
 40
1
 40
1
 40
1
 40
1
 10
125.040000
 20
-114.240000
 30
0.0
 10
128.160000
 20
-114.240000
 30
0.0
 10
130.720000
 20
-111.680000
 30
0.0
 10
130.720000
 20
-108.560000
 30
0.0
  0
SPLINE
  5
216
100
AcDbEntity
  8
0
 62
7
100
AcDbSpline
 70
8
 71
3
 72
8
 73
4
 74
0
 40
0
 40
0
 40
0
 40
0
 40
1
 40
1
 40
1
 40
1
 10
130.720000
 20
-108.560000
 30
0.0
 10
130.560000
 20
-105.440000
 30
0.0
 10
128.080000
 20
-102.960000
 30
0.0
 10
124.960000
 20
-102.960000
 30
0.0
  0
LWPOLYLINE
  5
217
100
AcDbEntity
  8
0
 62
7
100
AcDbPolyline
 90
3
 70
0
 10
119.280000
 20
-108.480000
 30
0.0
 10
119.360000
 20
-108.480000
 30
0.0
 10
119.360000
 20
-108.560000
 30
0.0
  0
LWPOLYLINE
  5
218
100
AcDbEntity
  8
0
 62
7
100
AcDbPolyline
 90
2
 70
0
 10
124.960000
 20
-102.960000
 30
0.0
 10
124.960000
 20
-102.960000
 30
0.0
  0
SPLINE
  5
219
100
AcDbEntity
  8
0
 62
7
100
AcDbSpline
 70
8
 71
3
 72
8
 73
4
 74
0
 40
0
 40
0
 40
0
 40
0
 40
1
 40
1
 40
1
 40
1
 10
119.280000
 20
-106.560000
 30
0.0
 10
117.200000
 20
-106.560000
 30
0.0
 10
115.520000
 20
-104.880000
 30
0.0
 10
115.440000
 20
-102.880000
 30
0.0
  0
SPLINE
  5
21a
100
AcDbEntity
  8
0
 62
7
100
AcDbSpline
 70
8
 71
3
 72
8
 73
4
 74
0
 40
0
 40
0
 40
0
 40
0
 40
1
 40
1
 40
1
 40
1
 10
115.440000
 20
-102.880000
 30
0.0
 10
115.440000
 20
-100.800000
 30
0.0
 10
117.040000
 20
-99.120000
 30
0.0
 10
119.200000
 20
-99.040000
 30
0.0
  0
SPLINE
  5
21b
100
AcDbEntity
  8
0
 62
7
100
AcDbSpline
 70
8
 71
3
 72
8
 73
4
 74
0
 40
0
 40
0
 40
0
 40
0
 40
1
 40
1
 40
1
 40
1
 10
119.200000
 20
-99.040000
 30
0.0
 10
121.200000
 20
-99.040000
 30
0.0
 10
122.880000
 20
-100.720000
 30
0.0
 10
122.960000
 20
-102.720000
 30
0.0
  0
SPLINE
  5
21c
100
AcDbEntity
  8
0
 62
7
100
AcDbSpline
 70
8
 71
3
 72
8
 73
4
 74
0
 40
0
 40
0
 40
0
 40
0
 40
1
 40
1
 40
1
 40
1
 10
122.960000
 20
-102.720000
 30
0.0
 10
122.960000
 20
-102.880000
 30
0.0
 10
122.960000
 20
-103.120000
 30
0.0
 10
122.880000
 20
-103.280000
 30
0.0
  0
SPLINE
  5
21d
100
AcDbEntity
  8
0
 62
7
100
AcDbSpline
 70
8
 71
3
 72
8
 73
4
 74
0
 40
0
 40
0
 40
0
 40
0
 40
1
 40
1
 40
1
 40
1
 10
122.880000
 20
-103.280000
 30
0.0
 10
121.360000
 20
-103.840000
 30
0.0
 10
120.240000
 20
-105.040000
 30
0.0
 10
119.600000
 20
-106.480000
 30
0.0
  0
SPLINE
  5
21e
100
AcDbEntity
  8
0
 62
7
100
AcDbSpline
 70
8
 71
3
 72
8
 73
4
 74
0
 40
0
 40
0
 40
0
 40
0
 40
1
 40
1
 40
1
 40
1
 10
119.600000
 20
-106.480000
 30
0.0
 10
119.520000
 20
-106.560000
 30
0.0
 10
119.440000
 20
-106.560000
 30
0.0
 10
119.280000
 20
-106.560000
 30
0.0
  0
LWPOLYLINE
  5
21f
100
AcDbEntity
  8
0
 62
7
100
AcDbPolyline
 90
4
 70
0
 10
119.280000
 20
-106.560000
 30
0.0
 10
119.200000
 20
-107.520000
 30
0.0
 10
119.280000
 20
-106.560000
 30
0.0
 10
119.280000
 20
-106.560000
 30
0.0
  0
SPLINE
  5
220
100
AcDbEntity
  8
0
 62
7
100
AcDbSpline
 70
8
 71
3
 72
8
 73
4
 74
0
 40
0
 40
0
 40
0
 40
0
 40
1
 40
1
 40
1
 40
1
 10
126.400000
 20
-100.400000
 30
0.0
 10
126.000000
 20
-100.720000
 30
0.0
 10
125.920000
 20
-101.280000
 30
0.0
 10
126.240000
 20
-101.760000
 30
0.0
  0
SPLINE
  5
221
100
AcDbEntity
  8
0
 62
7
100
AcDbSpline
 70
8
 71
3
 72
8
 73
4
 74
0
 40
0
 40
0
 40
0
 40
0
 40
1
 40
1
 40
1
 40
1
 10
126.240000
 20
-101.760000
 30
0.0
 10
126.400000
 20
-102.000000
 30
0.0
 10
126.720000
 20
-102.160000
 30
0.0
 10
126.960000
 20
-102.160000
 30
0.0
  0
SPLINE
  5
222
100
AcDbEntity
  8
0
 62
7
100
AcDbSpline
 70
8
 71
3
 72
8
 73
4
 74
0
 40
0
 40
0
 40
0
 40
0
 40
1
 40
1
 40
1
 40
1
 10
126.960000
 20
-102.160000
 30
0.0
 10
127.120000
 20
-102.160000
 30
0.0
 10
127.360000
 20
-102.080000
 30
0.0
 10
127.520000
 20
-102.000000
 30
0.0
  0
LWPOLYLINE
  5
223
100
AcDbEntity
  8
0
 62
7
100
AcDbPolyline
 90
2
 70
0
 10
140.160000
 20
-90.000000
 30
0.0
 10
126.400000
 20
-100.400000
 30
0.0
  0
LWPOLYLINE
  5
224
100
AcDbEntity
  8
0
 62
7
100
AcDbPolyline
 90
7
 70
0
 10
127.520000
 20
-102.000000
 30
0.0
 10
141.280000
 20
-91.600000
 30
0.0
 10
142.480000
 20
-93.120000
 30
0.0
 10
147.040000
 20
-86.080000
 30
0.0
 10
138.960000
 20
-88.560000
 30
0.0
 10
140.160000
 20
-90.000000
 30
0.0
 10
140.160000
 20
-90.000000
 30
0.0
  0
SPLINE
  5
225
100
AcDbEntity
  8
0
 62
7
100
AcDbSpline
 70
8
 71
3
 72
8
 73
4
 74
0
 40
0
 40
0
 40
0
 40
0
 40
1
 40
1
 40
1
 40
1
 10
42.880000
 20
-73.440000
 30
0.0
 10
41.360000
 20
-73.440000
 30
0.0
 10
40.000000
 20
-74.080000
 30
0.0
 10
38.880000
 20
-75.200000
 30
0.0
  0
SPLINE
  5
226
100
AcDbEntity
  8
0
 62
7
100
AcDbSpline
 70
8
 71
3
 72
8
 73
4
 74
0
 40
0
 40
0
 40
0
 40
0
 40
1
 40
1
 40
1
 40
1
 10
38.880000
 20
-75.200000
 30
0.0
 10
37.840000
 20
-76.320000
 30
0.0
 10
37.280000
 20
-77.680000
 30
0.0
 10
37.280000
 20
-79.200000
 30
0.0
  0
SPLINE
  5
227
100
AcDbEntity
  8
0
 62
7
100
AcDbSpline
 70
8
 71
3
 72
8
 73
4
 74
0
 40
0
 40
0
 40
0
 40
0
 40
1
 40
1
 40
1
 40
1
 10
37.280000
 20
-79.200000
 30
0.0
 10
37.360000
 20
-82.240000
 30
0.0
 10
39.840000
 20
-84.720000
 30
0.0
 10
42.960000
 20
-84.720000
 30
0.0
  0
LWPOLYLINE
  5
228
100
AcDbEntity
  8
0
 62
7
100
AcDbPolyline
 90
2
 70
0
 10
42.880000
 20
-73.440000
 30
0.0
 10
42.880000
 20
-73.440000
 30
0.0
  0
SPLINE
  5
229
100
AcDbEntity
  8
0
 62
7
100
AcDbSpline
 70
8
 71
3
 72
8
 73
4
 74
0
 40
0
 40
0
 40
0
 40
0
 40
1
 40
1
 40
1
 40
1
 10
43.040000
 20
-84.720000
 30
0.0
 10
44.560000
 20
-84.720000
 30
0.0
 10
45.920000
 20
-84.080000
 30
0.0
 10
47.040000
 20
-82.960000
 30
0.0
  0
SPLINE
  5
22a
100
AcDbEntity
  8
0
 62
7
100
AcDbSpline
 70
8
 71
3
 72
8
 73
4
 74
0
 40
0
 40
0
 40
0
 40
0
 40
1
 40
1
 40
1
 40
1
 10
47.040000
 20
-82.960000
 30
0.0
 10
48.080000
 20
-81.840000
 30
0.0
 10
48.640000
 20
-80.480000
 30
0.0
 10
48.640000
 20
-78.960000
 30
0.0
  0
SPLINE
  5
22b
100
AcDbEntity
  8
0
 62
7
100
AcDbSpline
 70
8
 71
3
 72
8
 73
4
 74
0
 40
0
 40
0
 40
0
 40
0
 40
1
 40
1
 40
1
 40
1
 10
48.640000
 20
-78.960000
 30
0.0
 10
48.640000
 20
-75.920000
 30
0.0
 10
46.080000
 20
-73.440000
 30
0.0
 10
42.880000
 20
-73.440000
 30
0.0
  0
LWPOLYLINE
  5
22c
100
AcDbEntity
  8
0
 62
7
100
AcDbPolyline
 90
2
 70
0
 10
42.960000
 20
-84.720000
 30
0.0
 10
43.040000
 20
-84.720000
 30
0.0
  0
SPLINE
  5
22d
100
AcDbEntity
  8
0
 62
7
100
AcDbSpline
 70
8
 71
3
 72
8
 73
4
 74
0
 40
0
 40
0
 40
0
 40
0
 40
1
 40
1
 40
1
 40
1
 10
45.680000
 20
-81.680000
 30
0.0
 10
44.960000
 20
-82.400000
 30
0.0
 10
44.080000
 20
-82.800000
 30
0.0
 10
43.040000
 20
-82.800000
 30
0.0
  0
LWPOLYLINE
  5
22e
100
AcDbEntity
  8
0
 62
7
100
AcDbPolyline
 90
2
 70
0
 10
42.880000
 20
-73.440000
 30
0.0
 10
42.880000
 20
-73.440000
 30
0.0
  0
SPLINE
  5
22f
100
AcDbEntity
  8
0
 62
7
100
AcDbSpline
 70
8
 71
3
 72
8
 73
4
 74
0
 40
0
 40
0
 40
0
 40
0
 40
1
 40
1
 40
1
 40
1
 10
42.960000
 20
-82.800000
 30
0.0
 10
40.960000
 20
-82.800000
 30
0.0
 10
39.280000
 20
-81.120000
 30
0.0
 10
39.200000
 20
-79.120000
 30
0.0
  0
SPLINE
  5
230
100
AcDbEntity
  8
0
 62
7
100
AcDbSpline
 70
8
 71
3
 72
8
 73
4
 74
0
 40
0
 40
0
 40
0
 40
0
 40
1
 40
1
 40
1
 40
1
 10
39.200000
 20
-79.120000
 30
0.0
 10
39.200000
 20
-78.160000
 30
0.0
 10
39.520000
 20
-77.200000
 30
0.0
 10
40.240000
 20
-76.480000
 30
0.0
  0
SPLINE
  5
231
100
AcDbEntity
  8
0
 62
7
100
AcDbSpline
 70
8
 71
3
 72
8
 73
4
 74
0
 40
0
 40
0
 40
0
 40
0
 40
1
 40
1
 40
1
 40
1
 10
40.240000
 20
-76.480000
 30
0.0
 10
40.960000
 20
-75.760000
 30
0.0
 10
41.840000
 20
-75.360000
 30
0.0
 10
42.960000
 20
-75.360000
 30
0.0
  0
SPLINE
  5
232
100
AcDbEntity
  8
0
 62
7
100
AcDbSpline
 70
8
 71
3
 72
8
 73
4
 74
0
 40
0
 40
0
 40
0
 40
0
 40
1
 40
1
 40
1
 40
1
 10
42.960000
 20
-75.360000
 30
0.0
 10
44.960000
 20
-75.360000
 30
0.0
 10
46.640000
 20
-77.040000
 30
0.0
 10
46.720000
 20
-79.040000
 30
0.0
  0
SPLINE
  5
233
100
AcDbEntity
  8
0
 62
7
100
AcDbSpline
 70
8
 71
3
 72
8
 73
4
 74
0
 40
0
 40
0
 40
0
 40
0
 40
1
 40
1
 40
1
 40
1
 10
46.720000
 20
-79.040000
 30
0.0
 10
46.800000
 20
-80.000000
 30
0.0
 10
46.400000
 20
-80.960000
 30
0.0
 10
45.680000
 20
-81.680000
 30
0.0
  0
LWPOLYLINE
  5
234
100
AcDbEntity
  8
0
 62
7
100
AcDbPolyline
 90
3
 70
0
 10
43.040000
 20
-82.800000
 30
0.0
 10
42.960000
 20
-83.760000
 30
0.0
 10
42.960000
 20
-82.800000
 30
0.0
  0
LWPOLYLINE
  5
235
100
AcDbEntity
  8
0
 62
7
100
AcDbPolyline
 90
2
 70
0
 10
45.680000
 20
-81.680000
 30
0.0
 10
45.680000
 20
-81.680000
 30
0.0
  0
SPLINE
  5
236
100
AcDbEntity
  8
0
 62
7
100
AcDbSpline
 70
8
 71
3
 72
8
 73
4
 74
0
 40
0
 40
0
 40
0
 40
0
 40
1
 40
1
 40
1
 40
1
 10
101.280000
 20
-121.520000
 30
0.0
 10
100.560000
 20
-121.520000
 30
0.0
 10
99.840000
 20
-121.840000
 30
0.0
 10
99.280000
 20
-122.400000
 30
0.0
  0
SPLINE
  5
237
100
AcDbEntity
  8
0
 62
7
100
AcDbSpline
 70
8
 71
3
 72
8
 73
4
 74
0
 40
0
 40
0
 40
0
 40
0
 40
1
 40
1
 40
1
 40
1
 10
99.280000
 20
-122.400000
 30
0.0
 10
98.720000
 20
-122.960000
 30
0.0
 10
98.480000
 20
-123.680000
 30
0.0
 10
98.480000
 20
-124.400000
 30
0.0
  0
SPLINE
  5
238
100
AcDbEntity
  8
0
 62
7
100
AcDbSpline
 70
8
 71
3
 72
8
 73
4
 74
0
 40
0
 40
0
 40
0
 40
0
 40
1
 40
1
 40
1
 40
1
 10
98.480000
 20
-124.400000
 30
0.0
 10
98.480000
 20
-125.920000
 30
0.0
 10
99.760000
 20
-127.200000
 30
0.0
 10
101.280000
 20
-127.200000
 30
0.0
  0
LWPOLYLINE
  5
239
100
AcDbEntity
  8
0
 62
7
100
AcDbPolyline
 90
2
 70
0
 10
101.280000
 20
-121.520000
 30
0.0
 10
101.280000
 20
-121.520000
 30
0.0
  0
SPLINE
  5
23a
100
AcDbEntity
  8
0
 62
7
100
AcDbSpline
 70
8
 71
3
 72
8
 73
4
 74
0
 40
0
 40
0
 40
0
 40
0
 40
1
 40
1
 40
1
 40
1
 10
101.360000
 20
-127.200000
 30
0.0
 10
102.080000
 20
-127.200000
 30
0.0
 10
102.800000
 20
-126.880000
 30
0.0
 10
103.360000
 20
-126.320000
 30
0.0
  0
SPLINE
  5
23b
100
AcDbEntity
  8
0
 62
7
100
AcDbSpline
 70
8
 71
3
 72
8
 73
4
 74
0
 40
0
 40
0
 40
0
 40
0
 40
1
 40
1
 40
1
 40
1
 10
103.360000
 20
-126.320000
 30
0.0
 10
103.920000
 20
-125.760000
 30
0.0
 10
104.160000
 20
-125.040000
 30
0.0
 10
104.160000
 20
-124.320000
 30
0.0
  0
SPLINE
  5
23c
100
AcDbEntity
  8
0
 62
7
100
AcDbSpline
 70
8
 71
3
 72
8
 73
4
 74
0
 40
0
 40
0
 40
0
 40
0
 40
1
 40
1
 40
1
 40
1
 10
104.160000
 20
-124.320000
 30
0.0
 10
104.160000
 20
-122.800000
 30
0.0
 10
102.880000
 20
-121.520000
 30
0.0
 10
101.280000
 20
-121.520000
 30
0.0
  0
LWPOLYLINE
  5
23d
100
AcDbEntity
  8
0
 62
7
100
AcDbPolyline
 90
2
 70
0
 10
101.280000
 20
-127.200000
 30
0.0
 10
101.360000
 20
-127.200000
 30
0.0
  0
SPLINE
  5
23e
100
AcDbEntity
  8
0
 62
7
100
AcDbSpline
 70
8
 71
3
 72
8
 73
4
 74
0
 40
0
 40
0
 40
0
 40
0
 40
1
 40
1
 40
1
 40
1
 10
102.000000
 20
-124.960000
 30
0.0
 10
101.840000
 20
-125.120000
 30
0.0
 10
101.600000
 20
-125.280000
 30
0.0
 10
101.360000
 20
-125.280000
 30
0.0
  0
LWPOLYLINE
  5
23f
100
AcDbEntity
  8
0
 62
7
100
AcDbPolyline
 90
2
 70
0
 10
101.280000
 20
-121.520000
 30
0.0
 10
101.280000
 20
-121.520000
 30
0.0
  0
SPLINE
  5
240
100
AcDbEntity
  8
0
 62
7
100
AcDbSpline
 70
8
 71
3
 72
8
 73
4
 74
0
 40
0
 40
0
 40
0
 40
0
 40
1
 40
1
 40
1
 40
1
 10
101.360000
 20
-125.280000
 30
0.0
 10
100.880000
 20
-125.280000
 30
0.0
 10
100.480000
 20
-124.880000
 30
0.0
 10
100.400000
 20
-124.400000
 30
0.0
  0
SPLINE
  5
241
100
AcDbEntity
  8
0
 62
7
100
AcDbSpline
 70
8
 71
3
 72
8
 73
4
 74
0
 40
0
 40
0
 40
0
 40
0
 40
1
 40
1
 40
1
 40
1
 10
100.400000
 20
-124.400000
 30
0.0
 10
100.400000
 20
-124.160000
 30
0.0
 10
100.480000
 20
-123.920000
 30
0.0
 10
100.640000
 20
-123.760000
 30
0.0
  0
SPLINE
  5
242
100
AcDbEntity
  8
0
 62
7
100
AcDbSpline
 70
8
 71
3
 72
8
 73
4
 74
0
 40
0
 40
0
 40
0
 40
0
 40
1
 40
1
 40
1
 40
1
 10
100.640000
 20
-123.760000
 30
0.0
 10
100.800000
 20
-123.600000
 30
0.0
 10
101.040000
 20
-123.520000
 30
0.0
 10
101.280000
 20
-123.440000
 30
0.0
  0
SPLINE
  5
243
100
AcDbEntity
  8
0
 62
7
100
AcDbSpline
 70
8
 71
3
 72
8
 73
4
 74
0
 40
0
 40
0
 40
0
 40
0
 40
1
 40
1
 40
1
 40
1
 10
101.280000
 20
-123.440000
 30
0.0
 10
101.760000
 20
-123.440000
 30
0.0
 10
102.160000
 20
-123.840000
 30
0.0
 10
102.240000
 20
-124.320000
 30
0.0
  0
SPLINE
  5
244
100
AcDbEntity
  8
0
 62
7
100
AcDbSpline
 70
8
 71
3
 72
8
 73
4
 74
0
 40
0
 40
0
 40
0
 40
0
 40
1
 40
1
 40
1
 40
1
 10
102.240000
 20
-124.320000
 30
0.0
 10
102.320000
 20
-124.560000
 30
0.0
 10
102.160000
 20
-124.800000
 30
0.0
 10
102.000000
 20
-124.960000
 30
0.0
  0
LWPOLYLINE
  5
245
100
AcDbEntity
  8
0
 62
7
100
AcDbPolyline
 90
3
 70
0
 10
101.360000
 20
-125.280000
 30
0.0
 10
101.360000
 20
-126.240000
 30
0.0
 10
101.360000
 20
-125.280000
 30
0.0
  0
LWPOLYLINE
  5
246
100
AcDbEntity
  8
0
 62
7
100
AcDbPolyline
 90
2
 70
0
 10
102.000000
 20
-124.960000
 30
0.0
 10
102.000000
 20
-124.960000
 30
0.0
  0
SPLINE
  5
247
100
AcDbEntity
  8
0
 62
7
100
AcDbSpline
 70
8
 71
3
 72
8
 73
4
 74
0
 40
0
 40
0
 40
0
 40
0
 40
1
 40
1
 40
1
 40
1
 10
78.800000
 20
-101.760000
 30
0.0
 10
78.240000
 20
-101.760000
 30
0.0
 10
77.840000
 20
-102.160000
 30
0.0
 10
77.840000
 20
-102.720000
 30
0.0
  0
SPLINE
  5
248
100
AcDbEntity
  8
0
 62
7
100
AcDbSpline
 70
8
 71
3
 72
8
 73
4
 74
0
 40
0
 40
0
 40
0
 40
0
 40
1
 40
1
 40
1
 40
1
 10
77.840000
 20
-102.720000
 30
0.0
 10
77.840000
 20
-103.280000
 30
0.0
 10
78.240000
 20
-103.680000
 30
0.0
 10
78.800000
 20
-103.680000
 30
0.0
  0
LWPOLYLINE
  5
249
100
AcDbEntity
  8
0
 62
7
100
AcDbPolyline
 90
2
 70
0
 10
102.640000
 20
-101.760000
 30
0.0
 10
78.800000
 20
-101.760000
 30
0.0
  0
SPLINE
  5
24a
100
AcDbEntity
  8
0
 62
7
100
AcDbSpline
 70
8
 71
3
 72
8
 73
4
 74
0
 40
0
 40
0
 40
0
 40
0
 40
1
 40
1
 40
1
 40
1
 10
43.040000
 20
-120.960000
 30
0.0
 10
39.920000
 20
-120.960000
 30
0.0
 10
37.360000
 20
-123.520000
 30
0.0
 10
37.360000
 20
-126.640000
 30
0.0
  0
SPLINE
  5
24b
100
AcDbEntity
  8
0
 62
7
100
AcDbSpline
 70
8
 71
3
 72
8
 73
4
 74
0
 40
0
 40
0
 40
0
 40
0
 40
1
 40
1
 40
1
 40
1
 10
37.360000
 20
-126.640000
 30
0.0
 10
37.360000
 20
-129.760000
 30
0.0
 10
39.920000
 20
-132.320000
 30
0.0
 10
43.040000
 20
-132.320000
 30
0.0
  0
SPLINE
  5
24c
100
AcDbEntity
  8
0
 62
7
100
AcDbSpline
 70
8
 71
3
 72
8
 73
4
 74
0
 40
0
 40
0
 40
0
 40
0
 40
1
 40
1
 40
1
 40
1
 10
43.040000
 20
-132.320000
 30
0.0
 10
46.160000
 20
-132.320000
 30
0.0
 10
48.720000
 20
-129.760000
 30
0.0
 10
48.720000
 20
-126.640000
 30
0.0
  0
SPLINE
  5
24d
100
AcDbEntity
  8
0
 62
7
100
AcDbSpline
 70
8
 71
3
 72
8
 73
4
 74
0
 40
0
 40
0
 40
0
 40
0
 40
1
 40
1
 40
1
 40
1
 10
48.720000
 20
-126.640000
 30
0.0
 10
48.640000
 20
-123.440000
 30
0.0
 10
46.160000
 20
-120.960000
 30
0.0
 10
43.040000
 20
-120.960000
 30
0.0
  0
LWPOLYLINE
  5
24e
100
AcDbEntity
  8
0
 62
7
100
AcDbPolyline
 90
7
 70
0
 10
78.800000
 20
-103.680000
 30
0.0
 10
102.640000
 20
-103.680000
 30
0.0
 10
102.640000
 20
-105.600000
 30
0.0
 10
110.560000
 20
-102.720000
 30
0.0
 10
102.640000
 20
-99.840000
 30
0.0
 10
102.640000
 20
-101.760000
 30
0.0
 10
102.640000
 20
-101.760000
 30
0.0
  0
LWPOLYLINE
  5
24f
100
AcDbEntity
  8
0
 62
7
100
AcDbPolyline
 90
2
 70
0
 10
43.040000
 20
-120.960000
 30
0.0
 10
43.040000
 20
-120.960000
 30
0.0
  0
SPLINE
  5
250
100
AcDbEntity
  8
0
 62
7
100
AcDbSpline
 70
8
 71
3
 72
8
 73
4
 74
0
 40
0
 40
0
 40
0
 40
0
 40
1
 40
1
 40
1
 40
1
 10
50.160000
 20
-120.720000
 30
0.0
 10
49.760000
 20
-121.040000
 30
0.0
 10
49.680000
 20
-121.600000
 30
0.0
 10
50.000000
 20
-122.080000
 30
0.0
  0
SPLINE
  5
251
100
AcDbEntity
  8
0
 62
7
100
AcDbSpline
 70
8
 71
3
 72
8
 73
4
 74
0
 40
0
 40
0
 40
0
 40
0
 40
1
 40
1
 40
1
 40
1
 10
50.000000
 20
-122.080000
 30
0.0
 10
50.160000
 20
-122.320000
 30
0.0
 10
50.480000
 20
-122.480000
 30
0.0
 10
50.720000
 20
-122.480000
 30
0.0
  0
SPLINE
  5
252
100
AcDbEntity
  8
0
 62
7
100
AcDbSpline
 70
8
 71
3
 72
8
 73
4
 74
0
 40
0
 40
0
 40
0
 40
0
 40
1
 40
1
 40
1
 40
1
 10
50.720000
 20
-122.480000
 30
0.0
 10
50.960000
 20
-122.480000
 30
0.0
 10
51.120000
 20
-122.400000
 30
0.0
 10
51.280000
 20
-122.320000
 30
0.0
  0
LWPOLYLINE
  5
253
100
AcDbEntity
  8
0
 62
7
100
AcDbPolyline
 90
2
 70
0
 10
63.920000
 20
-110.320000
 30
0.0
 10
50.160000
 20
-120.720000
 30
0.0
  0
LWPOLYLINE
  5
254
100
AcDbEntity
  8
0
 62
7
100
AcDbPolyline
 90
7
 70
0
 10
51.280000
 20
-122.320000
 30
0.0
 10
65.040000
 20
-111.920000
 30
0.0
 10
66.240000
 20
-113.440000
 30
0.0
 10
70.800000
 20
-106.400000
 30
0.0
 10
62.720000
 20
-108.880000
 30
0.0
 10
63.920000
 20
-110.320000
 30
0.0
 10
63.920000
 20
-110.320000
 30
0.0
  0
SPLINE
  5
255
100
AcDbEntity
  8
0
 62
7
100
AcDbSpline
 70
8
 71
3
 72
8
 73
4
 74
0
 40
0
 40
0
 40
0
 40
0
 40
1
 40
1
 40
1
 40
1
 10
51.360000
 20
-83.200000
 30
0.0
 10
50.960000
 20
-82.880000
 30
0.0
 10
50.320000
 20
-82.960000
 30
0.0
 10
50.000000
 20
-83.360000
 30
0.0
  0
SPLINE
  5
256
100
AcDbEntity
  8
0
 62
7
100
AcDbSpline
 70
8
 71
3
 72
8
 73
4
 74
0
 40
0
 40
0
 40
0
 40
0
 40
1
 40
1
 40
1
 40
1
 10
50.000000
 20
-83.360000
 30
0.0
 10
49.680000
 20
-83.760000
 30
0.0
 10
49.760000
 20
-84.400000
 30
0.0
 10
50.160000
 20
-84.720000
 30
0.0
  0
LWPOLYLINE
  5
257
100
AcDbEntity
  8
0
 62
7
100
AcDbPolyline
 90
2
 70
0
 10
65.120000
 20
-93.600000
 30
0.0
 10
51.360000
 20
-83.200000
 30
0.0
  0
LWPOLYLINE
  5
258
100
AcDbEntity
  8
0
 62
7
100
AcDbPolyline
 90
7
 70
0
 10
50.160000
 20
-84.720000
 30
0.0
 10
63.920000
 20
-95.120000
 30
0.0
 10
62.720000
 20
-96.640000
 30
0.0
 10
70.800000
 20
-99.120000
 30
0.0
 10
66.240000
 20
-92.080000
 30
0.0
 10
65.120000
 20
-93.600000
 30
0.0
 10
65.120000
 20
-93.600000
 30
0.0
  0
SPLINE
  5
259
100
AcDbEntity
  8
0
 62
7
100
AcDbSpline
 70
8
 71
3
 72
8
 73
4
 74
0
 40
0
 40
0
 40
0
 40
0
 40
1
 40
1
 40
1
 40
1
 10
78.080000
 20
-106.000000
 30
0.0
 10
77.680000
 20
-105.680000
 30
0.0
 10
77.040000
 20
-105.760000
 30
0.0
 10
76.720000
 20
-106.160000
 30
0.0
  0
SPLINE
  5
25a
100
AcDbEntity
  8
0
 62
7
100
AcDbSpline
 70
8
 71
3
 72
8
 73
4
 74
0
 40
0
 40
0
 40
0
 40
0
 40
1
 40
1
 40
1
 40
1
 10
76.720000
 20
-106.160000
 30
0.0
 10
76.400000
 20
-106.560000
 30
0.0
 10
76.480000
 20
-107.200000
 30
0.0
 10
76.880000
 20
-107.520000
 30
0.0
  0
LWPOLYLINE
  5
25b
100
AcDbEntity
  8
0
 62
7
100
AcDbPolyline
 90
2
 70
0
 10
91.840000
 20
-116.400000
 30
0.0
 10
78.080000
 20
-106.000000
 30
0.0
  0
SPLINE
  5
25c
100
AcDbEntity
  8
0
 62
7
100
AcDbSpline
 70
8
 71
3
 72
8
 73
4
 74
0
 40
0
 40
0
 40
0
 40
0
 40
1
 40
1
 40
1
 40
1
 10
77.600000
 20
-99.600000
 30
0.0
 10
77.760000
 20
-99.600000
 30
0.0
 10
78.000000
 20
-99.520000
 30
0.0
 10
78.160000
 20
-99.440000
 30
0.0
  0
LWPOLYLINE
  5
25d
100
AcDbEntity
  8
0
 62
7
100
AcDbPolyline
 90
7
 70
0
 10
76.880000
 20
-107.520000
 30
0.0
 10
90.640000
 20
-117.920000
 30
0.0
 10
89.440000
 20
-119.440000
 30
0.0
 10
97.520000
 20
-121.920000
 30
0.0
 10
92.960000
 20
-114.880000
 30
0.0
 10
91.840000
 20
-116.400000
 30
0.0
 10
91.840000
 20
-116.400000
 30
0.0
  0
SPLINE
  5
25e
100
AcDbEntity
  8
0
 62
7
100
AcDbSpline
 70
8
 71
3
 72
8
 73
4
 74
0
 40
0
 40
0
 40
0
 40
0
 40
1
 40
1
 40
1
 40
1
 10
77.040000
 20
-97.920000
 30
0.0
 10
76.640000
 20
-98.240000
 30
0.0
 10
76.560000
 20
-98.800000
 30
0.0
 10
76.880000
 20
-99.280000
 30
0.0
  0
SPLINE
  5
25f
100
AcDbEntity
  8
0
 62
7
100
AcDbSpline
 70
8
 71
3
 72
8
 73
4
 74
0
 40
0
 40
0
 40
0
 40
0
 40
1
 40
1
 40
1
 40
1
 10
76.880000
 20
-99.280000
 30
0.0
 10
76.960000
 20
-99.440000
 30
0.0
 10
77.280000
 20
-99.600000
 30
0.0
 10
77.600000
 20
-99.600000
 30
0.0
  0
LWPOLYLINE
  5
260
100
AcDbEntity
  8
0
 62
7
100
AcDbPolyline
 90
7
 70
0
 10
78.160000
 20
-99.440000
 30
0.0
 10
91.920000
 20
-89.040000
 30
0.0
 10
93.120000
 20
-90.560000
 30
0.0
 10
97.680000
 20
-83.520000
 30
0.0
 10
89.600000
 20
-86.000000
 30
0.0
 10
90.800000
 20
-87.520000
 30
0.0
 10
77.040000
 20
-97.920000
 30
0.0
  0
LWPOLYLINE
  5
261
100
AcDbEntity
  8
0
 62
7
100
AcDbPolyline
 90
2
 70
0
 10
77.600000
 20
-99.600000
 30
0.0
 10
77.600000
 20
-99.600000
 30
0.0
  0
SPLINE
  5
262
100
AcDbEntity
  8
0
 62
7
100
AcDbSpline
 70
8
 71
3
 72
8
 73
4
 74
0
 40
0
 40
0
 40
0
 40
0
 40
1
 40
1
 40
1
 40
1
 10
119.280000
 20
-67.760000
 30
0.0
 10
120.800000
 20
-67.760000
 30
0.0
 10
122.160000
 20
-67.120000
 30
0.0
 10
123.280000
 20
-66.000000
 30
0.0
  0
SPLINE
  5
263
100
AcDbEntity
  8
0
 62
7
100
AcDbSpline
 70
8
 71
3
 72
8
 73
4
 74
0
 40
0
 40
0
 40
0
 40
0
 40
1
 40
1
 40
1
 40
1
 10
123.280000
 20
-66.000000
 30
0.0
 10
124.320000
 20
-64.880000
 30
0.0
 10
124.880000
 20
-63.520000
 30
0.0
 10
124.880000
 20
-62.000000
 30
0.0
  0
SPLINE
  5
264
100
AcDbEntity
  8
0
 62
7
100
AcDbSpline
 70
8
 71
3
 72
8
 73
4
 74
0
 40
0
 40
0
 40
0
 40
0
 40
1
 40
1
 40
1
 40
1
 10
124.880000
 20
-62.000000
 30
0.0
 10
124.800000
 20
-58.960000
 30
0.0
 10
122.320000
 20
-56.480000
 30
0.0
 10
119.120000
 20
-56.480000
 30
0.0
  0
LWPOLYLINE
  5
265
100
AcDbEntity
  8
0
 62
7
100
AcDbPolyline
 90
2
 70
0
 10
119.200000
 20
-67.760000
 30
0.0
 10
119.280000
 20
-67.760000
 30
0.0
  0
SPLINE
  5
266
100
AcDbEntity
  8
0
 62
7
100
AcDbSpline
 70
8
 71
3
 72
8
 73
4
 74
0
 40
0
 40
0
 40
0
 40
0
 40
1
 40
1
 40
1
 40
1
 10
119.120000
 20
-56.480000
 30
0.0
 10
116.000000
 20
-56.560000
 30
0.0
 10
113.520000
 20
-59.120000
 30
0.0
 10
113.600000
 20
-62.240000
 30
0.0
  0
SPLINE
  5
267
100
AcDbEntity
  8
0
 62
7
100
AcDbSpline
 70
8
 71
3
 72
8
 73
4
 74
0
 40
0
 40
0
 40
0
 40
0
 40
1
 40
1
 40
1
 40
1
 10
113.600000
 20
-62.240000
 30
0.0
 10
113.600000
 20
-65.280000
 30
0.0
 10
116.160000
 20
-67.760000
 30
0.0
 10
119.200000
 20
-67.760000
 30
0.0
  0
LWPOLYLINE
  5
268
100
AcDbEntity
  8
0
 62
7
100
AcDbPolyline
 90
2
 70
0
 10
119.120000
 20
-56.480000
 30
0.0
 10
119.120000
 20
-56.480000
 30
0.0
  0
SPLINE
  5
269
100
AcDbEntity
  8
0
 62
7
100
AcDbSpline
 70
8
 71
3
 72
8
 73
4
 74
0
 40
0
 40
0
 40
0
 40
0
 40
1
 40
1
 40
1
 40
1
 10
119.200000
 20
-58.400000
 30
0.0
 10
121.200000
 20
-58.400000
 30
0.0
 10
122.880000
 20
-60.080000
 30
0.0
 10
122.960000
 20
-62.080000
 30
0.0
  0
SPLINE
  5
26a
100
AcDbEntity
  8
0
 62
7
100
AcDbSpline
 70
8
 71
3
 72
8
 73
4
 74
0
 40
0
 40
0
 40
0
 40
0
 40
1
 40
1
 40
1
 40
1
 10
122.960000
 20
-62.080000
 30
0.0
 10
122.960000
 20
-63.040000
 30
0.0
 10
122.640000
 20
-64.000000
 30
0.0
 10
121.920000
 20
-64.720000
 30
0.0
  0
SPLINE
  5
26b
100
AcDbEntity
  8
0
 62
7
100
AcDbSpline
 70
8
 71
3
 72
8
 73
4
 74
0
 40
0
 40
0
 40
0
 40
0
 40
1
 40
1
 40
1
 40
1
 10
121.920000
 20
-64.720000
 30
0.0
 10
121.200000
 20
-65.440000
 30
0.0
 10
120.320000
 20
-65.840000
 30
0.0
 10
119.280000
 20
-65.840000
 30
0.0
  0
LWPOLYLINE
  5
26c
100
AcDbEntity
  8
0
 62
7
100
AcDbPolyline
 90
2
 70
0
 10
119.200000
 20
-67.760000
 30
0.0
 10
119.200000
 20
-67.760000
 30
0.0
  0
SPLINE
  5
26d
100
AcDbEntity
  8
0
 62
7
100
AcDbSpline
 70
8
 71
3
 72
8
 73
4
 74
0
 40
0
 40
0
 40
0
 40
0
 40
1
 40
1
 40
1
 40
1
 10
119.200000
 20
-65.840000
 30
0.0
 10
117.200000
 20
-65.840000
 30
0.0
 10
115.520000
 20
-64.160000
 30
0.0
 10
115.440000
 20
-62.160000
 30
0.0
  0
SPLINE
  5
26e
100
AcDbEntity
  8
0
 62
7
100
AcDbSpline
 70
8
 71
3
 72
8
 73
4
 74
0
 40
0
 40
0
 40
0
 40
0
 40
1
 40
1
 40
1
 40
1
 10
115.440000
 20
-62.160000
 30
0.0
 10
115.440000
 20
-60.160000
 30
0.0
 10
117.040000
 20
-58.400000
 30
0.0
 10
119.200000
 20
-58.400000
 30
0.0
  0
LWPOLYLINE
  5
26f
100
AcDbEntity
  8
0
 62
7
100
AcDbPolyline
 90
3
 70
0
 10
119.280000
 20
-65.840000
 30
0.0
 10
119.200000
 20
-66.800000
 30
0.0
 10
119.200000
 20
-65.840000
 30
0.0
  0
SPLINE
  5
270
100
AcDbEntity
  8
0
 62
7
100
AcDbSpline
 70
8
 71
3
 72
8
 73
4
 74
0
 40
0
 40
0
 40
0
 40
0
 40
1
 40
1
 40
1
 40
1
 10
153.120000
 20
6.080000
 30
0.0
 10
153.280000
 20
6.080000
 30
0.0
 10
153.440000
 20
6.160000
 30
0.0
 10
153.600000
 20
6.240000
 30
0.0
  0
SPLINE
  5
271
100
AcDbEntity
  8
0
 62
7
100
AcDbSpline
 70
8
 71
3
 72
8
 73
4
 74
0
 40
0
 40
0
 40
0
 40
0
 40
1
 40
1
 40
1
 40
1
 10
153.600000
 20
6.240000
 30
0.0
 10
154.480000
 20
6.800000
 30
0.0
 10
154.880000
 20
7.760000
 30
0.0
 10
155.200000
 20
8.640000
 30
0.0
  0
SPLINE
  5
272
100
AcDbEntity
  8
0
 62
7
100
AcDbSpline
 70
8
 71
3
 72
8
 73
4
 74
0
 40
0
 40
0
 40
0
 40
0
 40
1
 40
1
 40
1
 40
1
 10
155.200000
 20
8.640000
 30
0.0
 10
155.440000
 20
9.200000
 30
0.0
 10
155.600000
 20
9.840000
 30
0.0
 10
155.920000
 20
10.000000
 30
0.0
  0
SPLINE
  5
273
100
AcDbEntity
  8
0
 62
7
100
AcDbSpline
 70
8
 71
3
 72
8
 73
4
 74
0
 40
0
 40
0
 40
0
 40
0
 40
1
 40
1
 40
1
 40
1
 10
155.920000
 20
10.000000
 30
0.0
 10
156.240000
 20
10.160000
 30
0.0
 10
156.880000
 20
10.080000
 30
0.0
 10
157.440000
 20
9.920000
 30
0.0
  0
SPLINE
  5
274
100
AcDbEntity
  8
0
 62
7
100
AcDbSpline
 70
8
 71
3
 72
8
 73
4
 74
0
 40
0
 40
0
 40
0
 40
0
 40
1
 40
1
 40
1
 40
1
 10
157.440000
 20
9.920000
 30
0.0
 10
158.320000
 20
9.760000
 30
0.0
 10
159.360000
 20
9.520000
 30
0.0
 10
160.320000
 20
10.080000
 30
0.0
  0
SPLINE
  5
275
100
AcDbEntity
  8
0
 62
7
100
AcDbSpline
 70
8
 71
3
 72
8
 73
4
 74
0
 40
0
 40
0
 40
0
 40
0
 40
1
 40
1
 40
1
 40
1
 10
160.320000
 20
10.080000
 30
0.0
 10
161.200000
 20
10.640000
 30
0.0
 10
161.600000
 20
11.600000
 30
0.0
 10
161.920000
 20
12.480000
 30
0.0
  0
SPLINE
  5
276
100
AcDbEntity
  8
0
 62
7
100
AcDbSpline
 70
8
 71
3
 72
8
 73
4
 74
0
 40
0
 40
0
 40
0
 40
0
 40
1
 40
1
 40
1
 40
1
 10
161.920000
 20
12.480000
 30
0.0
 10
162.080000
 20
13.040000
 30
0.0
 10
162.320000
 20
13.680000
 30
0.0
 10
162.640000
 20
13.840000
 30
0.0
  0
SPLINE
  5
277
100
AcDbEntity
  8
0
 62
7
100
AcDbSpline
 70
8
 71
3
 72
8
 73
4
 74
0
 40
0
 40
0
 40
0
 40
0
 40
1
 40
1
 40
1
 40
1
 10
162.640000
 20
13.840000
 30
0.0
 10
162.960000
 20
14.000000
 30
0.0
 10
163.600000
 20
13.920000
 30
0.0
 10
164.160000
 20
13.760000
 30
0.0
  0
SPLINE
  5
278
100
AcDbEntity
  8
0
 62
7
100
AcDbSpline
 70
8
 71
3
 72
8
 73
4
 74
0
 40
0
 40
0
 40
0
 40
0
 40
1
 40
1
 40
1
 40
1
 10
164.160000
 20
13.760000
 30
0.0
 10
165.040000
 20
13.600000
 30
0.0
 10
166.080000
 20
13.440000
 30
0.0
 10
167.040000
 20
13.920000
 30
0.0
  0
SPLINE
  5
279
100
AcDbEntity
  8
0
 62
7
100
AcDbSpline
 70
8
 71
3
 72
8
 73
4
 74
0
 40
0
 40
0
 40
0
 40
0
 40
1
 40
1
 40
1
 40
1
 10
167.040000
 20
13.920000
 30
0.0
 10
167.920000
 20
14.480000
 30
0.0
 10
168.320000
 20
15.440000
 30
0.0
 10
168.640000
 20
16.320000
 30
0.0
  0
SPLINE
  5
27a
100
AcDbEntity
  8
0
 62
7
100
AcDbSpline
 70
8
 71
3
 72
8
 73
4
 74
0
 40
0
 40
0
 40
0
 40
0
 40
1
 40
1
 40
1
 40
1
 10
168.640000
 20
16.320000
 30
0.0
 10
168.880000
 20
16.880000
 30
0.0
 10
169.040000
 20
17.520000
 30
0.0
 10
169.360000
 20
17.680000
 30
0.0
  0
SPLINE
  5
27b
100
AcDbEntity
  8
0
 62
7
100
AcDbSpline
 70
8
 71
3
 72
8
 73
4
 74
0
 40
0
 40
0
 40
0
 40
0
 40
1
 40
1
 40
1
 40
1
 10
169.360000
 20
17.680000
 30
0.0
 10
169.680000
 20
17.840000
 30
0.0
 10
170.320000
 20
17.760000
 30
0.0
 10
170.880000
 20
17.600000
 30
0.0
  0
SPLINE
  5
27c
100
AcDbEntity
  8
0
 62
7
100
AcDbSpline
 70
8
 71
3
 72
8
 73
4
 74
0
 40
0
 40
0
 40
0
 40
0
 40
1
 40
1
 40
1
 40
1
 10
170.880000
 20
17.600000
 30
0.0
 10
171.760000
 20
17.440000
 30
0.0
 10
172.800000
 20
17.280000
 30
0.0
 10
173.680000
 20
17.760000
 30
0.0
  0
SPLINE
  5
27d
100
AcDbEntity
  8
0
 62
7
100
AcDbSpline
 70
8
 71
3
 72
8
 73
4
 74
0
 40
0
 40
0
 40
0
 40
0
 40
1
 40
1
 40
1
 40
1
 10
173.680000
 20
17.760000
 30
0.0
 10
174.560000
 20
18.240000
 30
0.0
 10
174.960000
 20
19.280000
 30
0.0
 10
175.280000
 20
20.160000
 30
0.0
  0
SPLINE
  5
27e
100
AcDbEntity
  8
0
 62
7
100
AcDbSpline
 70
8
 71
3
 72
8
 73
4
 74
0
 40
0
 40
0
 40
0
 40
0
 40
1
 40
1
 40
1
 40
1
 10
175.280000
 20
20.160000
 30
0.0
 10
175.440000
 20
20.720000
 30
0.0
 10
175.680000
 20
21.360000
 30
0.0
 10
176.000000
 20
21.520000
 30
0.0
  0
SPLINE
  5
27f
100
AcDbEntity
  8
0
 62
7
100
AcDbSpline
 70
8
 71
3
 72
8
 73
4
 74
0
 40
0
 40
0
 40
0
 40
0
 40
1
 40
1
 40
1
 40
1
 10
176.000000
 20
21.520000
 30
0.0
 10
176.320000
 20
21.680000
 30
0.0
 10
176.880000
 20
21.600000
 30
0.0
 10
177.520000
 20
21.440000
 30
0.0
  0
SPLINE
  5
280
100
AcDbEntity
  8
0
 62
7
100
AcDbSpline
 70
8
 71
3
 72
8
 73
4
 74
0
 40
0
 40
0
 40
0
 40
0
 40
1
 40
1
 40
1
 40
1
 10
177.520000
 20
21.440000
 30
0.0
 10
178.400000
 20
21.280000
 30
0.0
 10
179.440000
 20
21.120000
 30
0.0
 10
180.320000
 20
21.600000
 30
0.0
  0
SPLINE
  5
281
100
AcDbEntity
  8
0
 62
7
100
AcDbSpline
 70
8
 71
3
 72
8
 73
4
 74
0
 40
0
 40
0
 40
0
 40
0
 40
1
 40
1
 40
1
 40
1
 10
180.320000
 20
21.600000
 30
0.0
 10
181.200000
 20
22.160000
 30
0.0
 10
181.600000
 20
23.120000
 30
0.0
 10
181.920000
 20
24.000000
 30
0.0
  0
SPLINE
  5
282
100
AcDbEntity
  8
0
 62
7
100
AcDbSpline
 70
8
 71
3
 72
8
 73
4
 74
0
 40
0
 40
0
 40
0
 40
0
 40
1
 40
1
 40
1
 40
1
 10
181.920000
 20
24.000000
 30
0.0
 10
182.080000
 20
24.560000
 30
0.0
 10
182.320000
 20
25.200000
 30
0.0
 10
182.640000
 20
25.360000
 30
0.0
  0
SPLINE
  5
283
100
AcDbEntity
  8
0
 62
7
100
AcDbSpline
 70
8
 71
3
 72
8
 73
4
 74
0
 40
0
 40
0
 40
0
 40
0
 40
1
 40
1
 40
1
 40
1
 10
182.640000
 20
25.360000
 30
0.0
 10
182.960000
 20
25.520000
 30
0.0
 10
183.600000
 20
25.440000
 30
0.0
 10
184.160000
 20
25.280000
 30
0.0
  0
SPLINE
  5
284
100
AcDbEntity
  8
0
 62
7
100
AcDbSpline
 70
8
 71
3
 72
8
 73
4
 74
0
 40
0
 40
0
 40
0
 40
0
 40
1
 40
1
 40
1
 40
1
 10
184.160000
 20
25.280000
 30
0.0
 10
185.040000
 20
25.120000
 30
0.0
 10
186.080000
 20
24.960000
 30
0.0
 10
186.960000
 20
25.440000
 30
0.0
  0
SPLINE
  5
285
100
AcDbEntity
  8
0
 62
7
100
AcDbSpline
 70
8
 71
3
 72
8
 73
4
 74
0
 40
0
 40
0
 40
0
 40
0
 40
1
 40
1
 40
1
 40
1
 10
186.960000
 20
25.440000
 30
0.0
 10
187.840000
 20
26.000000
 30
0.0
 10
188.240000
 20
26.960000
 30
0.0
 10
188.560000
 20
27.840000
 30
0.0
  0
SPLINE
  5
286
100
AcDbEntity
  8
0
 62
7
100
AcDbSpline
 70
8
 71
3
 72
8
 73
4
 74
0
 40
0
 40
0
 40
0
 40
0
 40
1
 40
1
 40
1
 40
1
 10
188.560000
 20
27.840000
 30
0.0
 10
188.800000
 20
28.400000
 30
0.0
 10
188.960000
 20
29.040000
 30
0.0
 10
189.280000
 20
29.200000
 30
0.0
  0
SPLINE
  5
287
100
AcDbEntity
  8
0
 62
7
100
AcDbSpline
 70
8
 71
3
 72
8
 73
4
 74
0
 40
0
 40
0
 40
0
 40
0
 40
1
 40
1
 40
1
 40
1
 10
189.280000
 20
29.200000
 30
0.0
 10
189.600000
 20
29.360000
 30
0.0
 10
190.240000
 20
29.280000
 30
0.0
 10
190.800000
 20
29.120000
 30
0.0
  0
SPLINE
  5
288
100
AcDbEntity
  8
0
 62
7
100
AcDbSpline
 70
8
 71
3
 72
8
 73
4
 74
0
 40
0
 40
0
 40
0
 40
0
 40
1
 40
1
 40
1
 40
1
 10
190.800000
 20
29.120000
 30
0.0
 10
191.280000
 20
29.040000
 30
0.0
 10
191.840000
 20
29.360000
 30
0.0
 10
191.920000
 20
29.920000
 30
0.0
  0
SPLINE
  5
289
100
AcDbEntity
  8
0
 62
7
100
AcDbSpline
 70
8
 71
3
 72
8
 73
4
 74
0
 40
0
 40
0
 40
0
 40
0
 40
1
 40
1
 40
1
 40
1
 10
191.920000
 20
29.920000
 30
0.0
 10
192.000000
 20
30.400000
 30
0.0
 10
191.680000
 20
30.960000
 30
0.0
 10
191.200000
 20
31.040000
 30
0.0
  0
SPLINE
  5
28a
100
AcDbEntity
  8
0
 62
7
100
AcDbSpline
 70
8
 71
3
 72
8
 73
4
 74
0
 40
0
 40
0
 40
0
 40
0
 40
1
 40
1
 40
1
 40
1
 10
191.200000
 20
31.040000
 30
0.0
 10
190.320000
 20
31.200000
 30
0.0
 10
189.280000
 20
31.360000
 30
0.0
 10
188.320000
 20
30.880000
 30
0.0
  0
SPLINE
  5
28b
100
AcDbEntity
  8
0
 62
7
100
AcDbSpline
 70
8
 71
3
 72
8
 73
4
 74
0
 40
0
 40
0
 40
0
 40
0
 40
1
 40
1
 40
1
 40
1
 10
188.320000
 20
30.880000
 30
0.0
 10
187.440000
 20
30.320000
 30
0.0
 10
187.040000
 20
29.360000
 30
0.0
 10
186.720000
 20
28.480000
 30
0.0
  0
SPLINE
  5
28c
100
AcDbEntity
  8
0
 62
7
100
AcDbSpline
 70
8
 71
3
 72
8
 73
4
 74
0
 40
0
 40
0
 40
0
 40
0
 40
1
 40
1
 40
1
 40
1
 10
186.720000
 20
28.480000
 30
0.0
 10
186.480000
 20
27.920000
 30
0.0
 10
186.320000
 20
27.280000
 30
0.0
 10
186.000000
 20
27.120000
 30
0.0
  0
SPLINE
  5
28d
100
AcDbEntity
  8
0
 62
7
100
AcDbSpline
 70
8
 71
3
 72
8
 73
4
 74
0
 40
0
 40
0
 40
0
 40
0
 40
1
 40
1
 40
1
 40
1
 10
186.000000
 20
27.120000
 30
0.0
 10
185.680000
 20
26.960000
 30
0.0
 10
185.040000
 20
27.040000
 30
0.0
 10
184.480000
 20
27.200000
 30
0.0
  0
SPLINE
  5
28e
100
AcDbEntity
  8
0
 62
7
100
AcDbSpline
 70
8
 71
3
 72
8
 73
4
 74
0
 40
0
 40
0
 40
0
 40
0
 40
1
 40
1
 40
1
 40
1
 10
184.480000
 20
27.200000
 30
0.0
 10
183.600000
 20
27.360000
 30
0.0
 10
182.560000
 20
27.520000
 30
0.0
 10
181.680000
 20
27.040000
 30
0.0
  0
SPLINE
  5
28f
100
AcDbEntity
  8
0
 62
7
100
AcDbSpline
 70
8
 71
3
 72
8
 73
4
 74
0
 40
0
 40
0
 40
0
 40
0
 40
1
 40
1
 40
1
 40
1
 10
181.680000
 20
27.040000
 30
0.0
 10
180.800000
 20
26.480000
 30
0.0
 10
180.400000
 20
25.520000
 30
0.0
 10
180.080000
 20
24.640000
 30
0.0
  0
SPLINE
  5
290
100
AcDbEntity
  8
0
 62
7
100
AcDbSpline
 70
8
 71
3
 72
8
 73
4
 74
0
 40
0
 40
0
 40
0
 40
0
 40
1
 40
1
 40
1
 40
1
 10
180.080000
 20
24.640000
 30
0.0
 10
179.920000
 20
24.080000
 30
0.0
 10
179.680000
 20
23.440000
 30
0.0
 10
179.360000
 20
23.280000
 30
0.0
  0
SPLINE
  5
291
100
AcDbEntity
  8
0
 62
7
100
AcDbSpline
 70
8
 71
3
 72
8
 73
4
 74
0
 40
0
 40
0
 40
0
 40
0
 40
1
 40
1
 40
1
 40
1
 10
179.360000
 20
23.280000
 30
0.0
 10
179.040000
 20
23.120000
 30
0.0
 10
178.480000
 20
23.200000
 30
0.0
 10
177.760000
 20
23.360000
 30
0.0
  0
SPLINE
  5
292
100
AcDbEntity
  8
0
 62
7
100
AcDbSpline
 70
8
 71
3
 72
8
 73
4
 74
0
 40
0
 40
0
 40
0
 40
0
 40
1
 40
1
 40
1
 40
1
 10
177.760000
 20
23.360000
 30
0.0
 10
176.880000
 20
23.520000
 30
0.0
 10
175.840000
 20
23.680000
 30
0.0
 10
174.960000
 20
23.200000
 30
0.0
  0
SPLINE
  5
293
100
AcDbEntity
  8
0
 62
7
100
AcDbSpline
 70
8
 71
3
 72
8
 73
4
 74
0
 40
0
 40
0
 40
0
 40
0
 40
1
 40
1
 40
1
 40
1
 10
174.960000
 20
23.200000
 30
0.0
 10
174.080000
 20
22.640000
 30
0.0
 10
173.680000
 20
21.680000
 30
0.0
 10
173.360000
 20
20.800000
 30
0.0
  0
SPLINE
  5
294
100
AcDbEntity
  8
0
 62
7
100
AcDbSpline
 70
8
 71
3
 72
8
 73
4
 74
0
 40
0
 40
0
 40
0
 40
0
 40
1
 40
1
 40
1
 40
1
 10
173.360000
 20
20.800000
 30
0.0
 10
173.120000
 20
20.240000
 30
0.0
 10
172.960000
 20
19.600000
 30
0.0
 10
172.640000
 20
19.440000
 30
0.0
  0
SPLINE
  5
295
100
AcDbEntity
  8
0
 62
7
100
AcDbSpline
 70
8
 71
3
 72
8
 73
4
 74
0
 40
0
 40
0
 40
0
 40
0
 40
1
 40
1
 40
1
 40
1
 10
172.640000
 20
19.440000
 30
0.0
 10
172.320000
 20
19.280000
 30
0.0
 10
171.680000
 20
19.360000
 30
0.0
 10
171.120000
 20
19.520000
 30
0.0
  0
SPLINE
  5
296
100
AcDbEntity
  8
0
 62
7
100
AcDbSpline
 70
8
 71
3
 72
8
 73
4
 74
0
 40
0
 40
0
 40
0
 40
0
 40
1
 40
1
 40
1
 40
1
 10
171.120000
 20
19.520000
 30
0.0
 10
170.240000
 20
19.680000
 30
0.0
 10
169.200000
 20
19.840000
 30
0.0
 10
168.320000
 20
19.360000
 30
0.0
  0
SPLINE
  5
297
100
AcDbEntity
  8
0
 62
7
100
AcDbSpline
 70
8
 71
3
 72
8
 73
4
 74
0
 40
0
 40
0
 40
0
 40
0
 40
1
 40
1
 40
1
 40
1
 10
168.320000
 20
19.360000
 30
0.0
 10
167.440000
 20
18.800000
 30
0.0
 10
167.040000
 20
17.840000
 30
0.0
 10
166.720000
 20
16.960000
 30
0.0
  0
SPLINE
  5
298
100
AcDbEntity
  8
0
 62
7
100
AcDbSpline
 70
8
 71
3
 72
8
 73
4
 74
0
 40
0
 40
0
 40
0
 40
0
 40
1
 40
1
 40
1
 40
1
 10
166.720000
 20
16.960000
 30
0.0
 10
166.480000
 20
16.400000
 30
0.0
 10
166.320000
 20
15.760000
 30
0.0
 10
166.000000
 20
15.600000
 30
0.0
  0
SPLINE
  5
299
100
AcDbEntity
  8
0
 62
7
100
AcDbSpline
 70
8
 71
3
 72
8
 73
4
 74
0
 40
0
 40
0
 40
0
 40
0
 40
1
 40
1
 40
1
 40
1
 10
166.000000
 20
15.600000
 30
0.0
 10
165.680000
 20
15.440000
 30
0.0
 10
165.040000
 20
15.520000
 30
0.0
 10
164.400000
 20
15.680000
 30
0.0
  0
SPLINE
  5
29a
100
AcDbEntity
  8
0
 62
7
100
AcDbSpline
 70
8
 71
3
 72
8
 73
4
 74
0
 40
0
 40
0
 40
0
 40
0
 40
1
 40
1
 40
1
 40
1
 10
164.400000
 20
15.680000
 30
0.0
 10
163.520000
 20
15.840000
 30
0.0
 10
162.480000
 20
16.000000
 30
0.0
 10
161.600000
 20
15.520000
 30
0.0
  0
SPLINE
  5
29b
100
AcDbEntity
  8
0
 62
7
100
AcDbSpline
 70
8
 71
3
 72
8
 73
4
 74
0
 40
0
 40
0
 40
0
 40
0
 40
1
 40
1
 40
1
 40
1
 10
161.600000
 20
15.520000
 30
0.0
 10
160.720000
 20
14.960000
 30
0.0
 10
160.320000
 20
14.000000
 30
0.0
 10
160.000000
 20
13.120000
 30
0.0
  0
SPLINE
  5
29c
100
AcDbEntity
  8
0
 62
7
100
AcDbSpline
 70
8
 71
3
 72
8
 73
4
 74
0
 40
0
 40
0
 40
0
 40
0
 40
1
 40
1
 40
1
 40
1
 10
160.000000
 20
13.120000
 30
0.0
 10
159.760000
 20
12.560000
 30
0.0
 10
159.600000
 20
11.920000
 30
0.0
 10
159.280000
 20
11.760000
 30
0.0
  0
SPLINE
  5
29d
100
AcDbEntity
  8
0
 62
7
100
AcDbSpline
 70
8
 71
3
 72
8
 73
4
 74
0
 40
0
 40
0
 40
0
 40
0
 40
1
 40
1
 40
1
 40
1
 10
159.280000
 20
11.760000
 30
0.0
 10
158.960000
 20
11.600000
 30
0.0
 10
158.320000
 20
11.680000
 30
0.0
 10
157.680000
 20
11.840000
 30
0.0
  0
SPLINE
  5
29e
100
AcDbEntity
  8
0
 62
7
100
AcDbSpline
 70
8
 71
3
 72
8
 73
4
 74
0
 40
0
 40
0
 40
0
 40
0
 40
1
 40
1
 40
1
 40
1
 10
157.680000
 20
11.840000
 30
0.0
 10
156.800000
 20
12.000000
 30
0.0
 10
155.760000
 20
12.160000
 30
0.0
 10
154.880000
 20
11.680000
 30
0.0
  0
SPLINE
  5
29f
100
AcDbEntity
  8
0
 62
7
100
AcDbSpline
 70
8
 71
3
 72
8
 73
4
 74
0
 40
0
 40
0
 40
0
 40
0
 40
1
 40
1
 40
1
 40
1
 10
154.880000
 20
11.680000
 30
0.0
 10
154.000000
 20
11.120000
 30
0.0
 10
153.600000
 20
10.160000
 30
0.0
 10
153.280000
 20
9.280000
 30
0.0
  0
SPLINE
  5
2a0
100
AcDbEntity
  8
0
 62
7
100
AcDbSpline
 70
8
 71
3
 72
8
 73
4
 74
0
 40
0
 40
0
 40
0
 40
0
 40
1
 40
1
 40
1
 40
1
 10
153.280000
 20
9.280000
 30
0.0
 10
153.040000
 20
8.720000
 30
0.0
 10
152.880000
 20
8.080000
 30
0.0
 10
152.560000
 20
7.920000
 30
0.0
  0
SPLINE
  5
2a1
100
AcDbEntity
  8
0
 62
7
100
AcDbSpline
 70
8
 71
3
 72
8
 73
4
 74
0
 40
0
 40
0
 40
0
 40
0
 40
1
 40
1
 40
1
 40
1
 10
152.560000
 20
7.920000
 30
0.0
 10
152.080000
 20
7.680000
 30
0.0
 10
151.920000
 20
7.040000
 30
0.0
 10
152.240000
 20
6.640000
 30
0.0
  0
SPLINE
  5
2a2
100
AcDbEntity
  8
0
 62
7
100
AcDbSpline
 70
8
 71
3
 72
8
 73
4
 74
0
 40
0
 40
0
 40
0
 40
0
 40
1
 40
1
 40
1
 40
1
 10
152.240000
 20
6.640000
 30
0.0
 10
152.480000
 20
6.240000
 30
0.0
 10
152.800000
 20
6.080000
 30
0.0
 10
153.120000
 20
6.080000
 30
0.0
  0
LWPOLYLINE
  5
2a3
100
AcDbEntity
  8
0
 62
7
100
AcDbPolyline
 90
2
 70
0
 10
119.200000
 20
-58.400000
 30
0.0
 10
119.200000
 20
-58.400000
 30
0.0
  0
SPLINE
  5
2a4
100
AcDbEntity
  8
0
 62
7
100
AcDbSpline
 70
8
 71
3
 72
8
 73
4
 74
0
 40
0
 40
0
 40
0
 40
0
 40
1
 40
1
 40
1
 40
1
 10
189.280000
 20
-109.200000
 30
0.0
 10
188.960000
 20
-109.040000
 30
0.0
 10
188.720000
 20
-108.400000
 30
0.0
 10
188.560000
 20
-107.840000
 30
0.0
  0
SPLINE
  5
2a5
100
AcDbEntity
  8
0
 62
7
100
AcDbSpline
 70
8
 71
3
 72
8
 73
4
 74
0
 40
0
 40
0
 40
0
 40
0
 40
1
 40
1
 40
1
 40
1
 10
188.560000
 20
-107.840000
 30
0.0
 10
188.240000
 20
-106.960000
 30
0.0
 10
187.920000
 20
-106.000000
 30
0.0
 10
187.040000
 20
-105.520000
 30
0.0
  0
SPLINE
  5
2a6
100
AcDbEntity
  8
0
 62
7
100
AcDbSpline
 70
8
 71
3
 72
8
 73
4
 74
0
 40
0
 40
0
 40
0
 40
0
 40
1
 40
1
 40
1
 40
1
 10
187.040000
 20
-105.520000
 30
0.0
 10
186.160000
 20
-104.960000
 30
0.0
 10
185.120000
 20
-105.200000
 30
0.0
 10
184.160000
 20
-105.360000
 30
0.0
  0
SPLINE
  5
2a7
100
AcDbEntity
  8
0
 62
7
100
AcDbSpline
 70
8
 71
3
 72
8
 73
4
 74
0
 40
0
 40
0
 40
0
 40
0
 40
1
 40
1
 40
1
 40
1
 10
184.160000
 20
-105.360000
 30
0.0
 10
183.600000
 20
-105.440000
 30
0.0
 10
182.960000
 20
-105.600000
 30
0.0
 10
182.640000
 20
-105.440000
 30
0.0
  0
SPLINE
  5
2a8
100
AcDbEntity
  8
0
 62
7
100
AcDbSpline
 70
8
 71
3
 72
8
 73
4
 74
0
 40
0
 40
0
 40
0
 40
0
 40
1
 40
1
 40
1
 40
1
 10
182.640000
 20
-105.440000
 30
0.0
 10
182.320000
 20
-105.280000
 30
0.0
 10
182.080000
 20
-104.640000
 30
0.0
 10
181.920000
 20
-104.080000
 30
0.0
  0
SPLINE
  5
2a9
100
AcDbEntity
  8
0
 62
7
100
AcDbSpline
 70
8
 71
3
 72
8
 73
4
 74
0
 40
0
 40
0
 40
0
 40
0
 40
1
 40
1
 40
1
 40
1
 10
181.920000
 20
-104.080000
 30
0.0
 10
181.600000
 20
-103.200000
 30
0.0
 10
181.280000
 20
-102.240000
 30
0.0
 10
180.320000
 20
-101.680000
 30
0.0
  0
SPLINE
  5
2aa
100
AcDbEntity
  8
0
 62
7
100
AcDbSpline
 70
8
 71
3
 72
8
 73
4
 74
0
 40
0
 40
0
 40
0
 40
0
 40
1
 40
1
 40
1
 40
1
 10
180.320000
 20
-101.680000
 30
0.0
 10
179.440000
 20
-101.120000
 30
0.0
 10
178.400000
 20
-101.360000
 30
0.0
 10
177.440000
 20
-101.520000
 30
0.0
  0
SPLINE
  5
2ab
100
AcDbEntity
  8
0
 62
7
100
AcDbSpline
 70
8
 71
3
 72
8
 73
4
 74
0
 40
0
 40
0
 40
0
 40
0
 40
1
 40
1
 40
1
 40
1
 10
177.440000
 20
-101.520000
 30
0.0
 10
176.880000
 20
-101.600000
 30
0.0
 10
176.240000
 20
-101.760000
 30
0.0
 10
175.920000
 20
-101.600000
 30
0.0
  0
SPLINE
  5
2ac
100
AcDbEntity
  8
0
 62
7
100
AcDbSpline
 70
8
 71
3
 72
8
 73
4
 74
0
 40
0
 40
0
 40
0
 40
0
 40
1
 40
1
 40
1
 40
1
 10
175.920000
 20
-101.600000
 30
0.0
 10
175.600000
 20
-101.440000
 30
0.0
 10
175.360000
 20
-100.800000
 30
0.0
 10
175.200000
 20
-100.240000
 30
0.0
  0
SPLINE
  5
2ad
100
AcDbEntity
  8
0
 62
7
100
AcDbSpline
 70
8
 71
3
 72
8
 73
4
 74
0
 40
0
 40
0
 40
0
 40
0
 40
1
 40
1
 40
1
 40
1
 10
175.200000
 20
-100.240000
 30
0.0
 10
174.880000
 20
-99.360000
 30
0.0
 10
174.560000
 20
-98.400000
 30
0.0
 10
173.680000
 20
-97.920000
 30
0.0
  0
SPLINE
  5
2ae
100
AcDbEntity
  8
0
 62
7
100
AcDbSpline
 70
8
 71
3
 72
8
 73
4
 74
0
 40
0
 40
0
 40
0
 40
0
 40
1
 40
1
 40
1
 40
1
 10
173.680000
 20
-97.920000
 30
0.0
 10
172.800000
 20
-97.360000
 30
0.0
 10
171.760000
 20
-97.600000
 30
0.0
 10
170.800000
 20
-97.760000
 30
0.0
  0
SPLINE
  5
2af
100
AcDbEntity
  8
0
 62
7
100
AcDbSpline
 70
8
 71
3
 72
8
 73
4
 74
0
 40
0
 40
0
 40
0
 40
0
 40
1
 40
1
 40
1
 40
1
 10
170.800000
 20
-97.760000
 30
0.0
 10
170.240000
 20
-97.840000
 30
0.0
 10
169.600000
 20
-98.000000
 30
0.0
 10
169.280000
 20
-97.840000
 30
0.0
  0
SPLINE
  5
2b0
100
AcDbEntity
  8
0
 62
7
100
AcDbSpline
 70
8
 71
3
 72
8
 73
4
 74
0
 40
0
 40
0
 40
0
 40
0
 40
1
 40
1
 40
1
 40
1
 10
169.280000
 20
-97.840000
 30
0.0
 10
168.960000
 20
-97.680000
 30
0.0
 10
168.800000
 20
-97.040000
 30
0.0
 10
168.560000
 20
-96.480000
 30
0.0
  0
SPLINE
  5
2b1
100
AcDbEntity
  8
0
 62
7
100
AcDbSpline
 70
8
 71
3
 72
8
 73
4
 74
0
 40
0
 40
0
 40
0
 40
0
 40
1
 40
1
 40
1
 40
1
 10
168.560000
 20
-96.480000
 30
0.0
 10
168.240000
 20
-95.600000
 30
0.0
 10
167.920000
 20
-94.640000
 30
0.0
 10
166.960000
 20
-94.080000
 30
0.0
  0
SPLINE
  5
2b2
100
AcDbEntity
  8
0
 62
7
100
AcDbSpline
 70
8
 71
3
 72
8
 73
4
 74
0
 40
0
 40
0
 40
0
 40
0
 40
1
 40
1
 40
1
 40
1
 10
166.960000
 20
-94.080000
 30
0.0
 10
166.080000
 20
-93.520000
 30
0.0
 10
164.960000
 20
-93.760000
 30
0.0
 10
164.080000
 20
-93.920000
 30
0.0
  0
SPLINE
  5
2b3
100
AcDbEntity
  8
0
 62
7
100
AcDbSpline
 70
8
 71
3
 72
8
 73
4
 74
0
 40
0
 40
0
 40
0
 40
0
 40
1
 40
1
 40
1
 40
1
 10
164.080000
 20
-93.920000
 30
0.0
 10
163.440000
 20
-94.000000
 30
0.0
 10
162.880000
 20
-94.160000
 30
0.0
 10
162.560000
 20
-94.000000
 30
0.0
  0
SPLINE
  5
2b4
100
AcDbEntity
  8
0
 62
7
100
AcDbSpline
 70
8
 71
3
 72
8
 73
4
 74
0
 40
0
 40
0
 40
0
 40
0
 40
1
 40
1
 40
1
 40
1
 10
162.560000
 20
-94.000000
 30
0.0
 10
162.240000
 20
-93.840000
 30
0.0
 10
162.000000
 20
-93.200000
 30
0.0
 10
161.840000
 20
-92.640000
 30
0.0
  0
SPLINE
  5
2b5
100
AcDbEntity
  8
0
 62
7
100
AcDbSpline
 70
8
 71
3
 72
8
 73
4
 74
0
 40
0
 40
0
 40
0
 40
0
 40
1
 40
1
 40
1
 40
1
 10
161.840000
 20
-92.640000
 30
0.0
 10
161.520000
 20
-91.760000
 30
0.0
 10
161.200000
 20
-90.800000
 30
0.0
 10
160.240000
 20
-90.240000
 30
0.0
  0
SPLINE
  5
2b6
100
AcDbEntity
  8
0
 62
7
100
AcDbSpline
 70
8
 71
3
 72
8
 73
4
 74
0
 40
0
 40
0
 40
0
 40
0
 40
1
 40
1
 40
1
 40
1
 10
160.240000
 20
-90.240000
 30
0.0
 10
159.360000
 20
-89.680000
 30
0.0
 10
158.240000
 20
-89.920000
 30
0.0
 10
157.360000
 20
-90.080000
 30
0.0
  0
SPLINE
  5
2b7
100
AcDbEntity
  8
0
 62
7
100
AcDbSpline
 70
8
 71
3
 72
8
 73
4
 74
0
 40
0
 40
0
 40
0
 40
0
 40
1
 40
1
 40
1
 40
1
 10
157.360000
 20
-90.080000
 30
0.0
 10
156.720000
 20
-90.160000
 30
0.0
 10
156.160000
 20
-90.320000
 30
0.0
 10
155.840000
 20
-90.160000
 30
0.0
  0
SPLINE
  5
2b8
100
AcDbEntity
  8
0
 62
7
100
AcDbSpline
 70
8
 71
3
 72
8
 73
4
 74
0
 40
0
 40
0
 40
0
 40
0
 40
1
 40
1
 40
1
 40
1
 10
155.840000
 20
-90.160000
 30
0.0
 10
155.520000
 20
-90.000000
 30
0.0
 10
155.360000
 20
-89.360000
 30
0.0
 10
155.120000
 20
-88.800000
 30
0.0
  0
SPLINE
  5
2b9
100
AcDbEntity
  8
0
 62
7
100
AcDbSpline
 70
8
 71
3
 72
8
 73
4
 74
0
 40
0
 40
0
 40
0
 40
0
 40
1
 40
1
 40
1
 40
1
 10
155.120000
 20
-88.800000
 30
0.0
 10
154.800000
 20
-87.920000
 30
0.0
 10
154.480000
 20
-86.960000
 30
0.0
 10
153.600000
 20
-86.400000
 30
0.0
  0
SPLINE
  5
2ba
100
AcDbEntity
  8
0
 62
7
100
AcDbSpline
 70
8
 71
3
 72
8
 73
4
 74
0
 40
0
 40
0
 40
0
 40
0
 40
1
 40
1
 40
1
 40
1
 10
153.600000
 20
-86.400000
 30
0.0
 10
153.120000
 20
-86.160000
 30
0.0
 10
152.560000
 20
-86.320000
 30
0.0
 10
152.320000
 20
-86.720000
 30
0.0
  0
SPLINE
  5
2bb
100
AcDbEntity
  8
0
 62
7
100
AcDbSpline
 70
8
 71
3
 72
8
 73
4
 74
0
 40
0
 40
0
 40
0
 40
0
 40
1
 40
1
 40
1
 40
1
 10
152.320000
 20
-86.720000
 30
0.0
 10
152.080000
 20
-87.200000
 30
0.0
 10
152.240000
 20
-87.760000
 30
0.0
 10
152.640000
 20
-88.000000
 30
0.0
  0
SPLINE
  5
2bc
100
AcDbEntity
  8
0
 62
7
100
AcDbSpline
 70
8
 71
3
 72
8
 73
4
 74
0
 40
0
 40
0
 40
0
 40
0
 40
1
 40
1
 40
1
 40
1
 10
152.640000
 20
-88.000000
 30
0.0
 10
152.960000
 20
-88.160000
 30
0.0
 10
153.120000
 20
-88.800000
 30
0.0
 10
153.360000
 20
-89.360000
 30
0.0
  0
SPLINE
  5
2bd
100
AcDbEntity
  8
0
 62
7
100
AcDbSpline
 70
8
 71
3
 72
8
 73
4
 74
0
 40
0
 40
0
 40
0
 40
0
 40
1
 40
1
 40
1
 40
1
 10
153.360000
 20
-89.360000
 30
0.0
 10
153.680000
 20
-90.240000
 30
0.0
 10
154.000000
 20
-91.200000
 30
0.0
 10
154.960000
 20
-91.760000
 30
0.0
  0
SPLINE
  5
2be
100
AcDbEntity
  8
0
 62
7
100
AcDbSpline
 70
8
 71
3
 72
8
 73
4
 74
0
 40
0
 40
0
 40
0
 40
0
 40
1
 40
1
 40
1
 40
1
 10
154.960000
 20
-91.760000
 30
0.0
 10
155.840000
 20
-92.240000
 30
0.0
 10
156.880000
 20
-92.080000
 30
0.0
 10
157.840000
 20
-91.920000
 30
0.0
  0
SPLINE
  5
2bf
100
AcDbEntity
  8
0
 62
7
100
AcDbSpline
 70
8
 71
3
 72
8
 73
4
 74
0
 40
0
 40
0
 40
0
 40
0
 40
1
 40
1
 40
1
 40
1
 10
157.840000
 20
-91.920000
 30
0.0
 10
158.400000
 20
-91.840000
 30
0.0
 10
159.040000
 20
-91.680000
 30
0.0
 10
159.360000
 20
-91.840000
 30
0.0
  0
SPLINE
  5
2c0
100
AcDbEntity
  8
0
 62
7
100
AcDbSpline
 70
8
 71
3
 72
8
 73
4
 74
0
 40
0
 40
0
 40
0
 40
0
 40
1
 40
1
 40
1
 40
1
 10
159.360000
 20
-91.840000
 30
0.0
 10
159.680000
 20
-92.000000
 30
0.0
 10
159.840000
 20
-92.640000
 30
0.0
 10
160.080000
 20
-93.200000
 30
0.0
  0
SPLINE
  5
2c1
100
AcDbEntity
  8
0
 62
7
100
AcDbSpline
 70
8
 71
3
 72
8
 73
4
 74
0
 40
0
 40
0
 40
0
 40
0
 40
1
 40
1
 40
1
 40
1
 10
160.080000
 20
-93.200000
 30
0.0
 10
160.400000
 20
-94.000000
 30
0.0
 10
160.720000
 20
-95.040000
 30
0.0
 10
161.680000
 20
-95.600000
 30
0.0
  0
SPLINE
  5
2c2
100
AcDbEntity
  8
0
 62
7
100
AcDbSpline
 70
8
 71
3
 72
8
 73
4
 74
0
 40
0
 40
0
 40
0
 40
0
 40
1
 40
1
 40
1
 40
1
 10
161.680000
 20
-95.600000
 30
0.0
 10
162.560000
 20
-96.080000
 30
0.0
 10
163.600000
 20
-95.920000
 30
0.0
 10
164.480000
 20
-95.760000
 30
0.0
  0
SPLINE
  5
2c3
100
AcDbEntity
  8
0
 62
7
100
AcDbSpline
 70
8
 71
3
 72
8
 73
4
 74
0
 40
0
 40
0
 40
0
 40
0
 40
1
 40
1
 40
1
 40
1
 10
164.480000
 20
-95.760000
 30
0.0
 10
165.040000
 20
-95.680000
 30
0.0
 10
165.760000
 20
-95.520000
 30
0.0
 10
166.000000
 20
-95.680000
 30
0.0
  0
SPLINE
  5
2c4
100
AcDbEntity
  8
0
 62
7
100
AcDbSpline
 70
8
 71
3
 72
8
 73
4
 74
0
 40
0
 40
0
 40
0
 40
0
 40
1
 40
1
 40
1
 40
1
 10
166.000000
 20
-95.680000
 30
0.0
 10
166.320000
 20
-95.840000
 30
0.0
 10
166.480000
 20
-96.480000
 30
0.0
 10
166.720000
 20
-97.040000
 30
0.0
  0
SPLINE
  5
2c5
100
AcDbEntity
  8
0
 62
7
100
AcDbSpline
 70
8
 71
3
 72
8
 73
4
 74
0
 40
0
 40
0
 40
0
 40
0
 40
1
 40
1
 40
1
 40
1
 10
166.720000
 20
-97.040000
 30
0.0
 10
167.040000
 20
-97.920000
 30
0.0
 10
167.360000
 20
-98.880000
 30
0.0
 10
168.320000
 20
-99.440000
 30
0.0
  0
SPLINE
  5
2c6
100
AcDbEntity
  8
0
 62
7
100
AcDbSpline
 70
8
 71
3
 72
8
 73
4
 74
0
 40
0
 40
0
 40
0
 40
0
 40
1
 40
1
 40
1
 40
1
 10
168.320000
 20
-99.440000
 30
0.0
 10
169.280000
 20
-100.000000
 30
0.0
 10
170.320000
 20
-99.760000
 30
0.0
 10
171.120000
 20
-99.600000
 30
0.0
  0
SPLINE
  5
2c7
100
AcDbEntity
  8
0
 62
7
100
AcDbSpline
 70
8
 71
3
 72
8
 73
4
 74
0
 40
0
 40
0
 40
0
 40
0
 40
1
 40
1
 40
1
 40
1
 10
171.120000
 20
-99.600000
 30
0.0
 10
171.680000
 20
-99.520000
 30
0.0
 10
172.400000
 20
-99.360000
 30
0.0
 10
172.640000
 20
-99.520000
 30
0.0
  0
SPLINE
  5
2c8
100
AcDbEntity
  8
0
 62
7
100
AcDbSpline
 70
8
 71
3
 72
8
 73
4
 74
0
 40
0
 40
0
 40
0
 40
0
 40
1
 40
1
 40
1
 40
1
 10
172.640000
 20
-99.520000
 30
0.0
 10
172.960000
 20
-99.680000
 30
0.0
 10
173.120000
 20
-100.320000
 30
0.0
 10
173.360000
 20
-100.880000
 30
0.0
  0
SPLINE
  5
2c9
100
AcDbEntity
  8
0
 62
7
100
AcDbSpline
 70
8
 71
3
 72
8
 73
4
 74
0
 40
0
 40
0
 40
0
 40
0
 40
1
 40
1
 40
1
 40
1
 10
173.360000
 20
-100.880000
 30
0.0
 10
173.680000
 20
-101.760000
 30
0.0
 10
174.000000
 20
-102.720000
 30
0.0
 10
174.960000
 20
-103.280000
 30
0.0
  0
SPLINE
  5
2ca
100
AcDbEntity
  8
0
 62
7
100
AcDbSpline
 70
8
 71
3
 72
8
 73
4
 74
0
 40
0
 40
0
 40
0
 40
0
 40
1
 40
1
 40
1
 40
1
 10
174.960000
 20
-103.280000
 30
0.0
 10
175.840000
 20
-103.840000
 30
0.0
 10
176.880000
 20
-103.600000
 30
0.0
 10
177.840000
 20
-103.440000
 30
0.0
  0
SPLINE
  5
2cb
100
AcDbEntity
  8
0
 62
7
100
AcDbSpline
 70
8
 71
3
 72
8
 73
4
 74
0
 40
0
 40
0
 40
0
 40
0
 40
1
 40
1
 40
1
 40
1
 10
177.840000
 20
-103.440000
 30
0.0
 10
178.480000
 20
-103.360000
 30
0.0
 10
179.040000
 20
-103.200000
 30
0.0
 10
179.360000
 20
-103.360000
 30
0.0
  0
SPLINE
  5
2cc
100
AcDbEntity
  8
0
 62
7
100
AcDbSpline
 70
8
 71
3
 72
8
 73
4
 74
0
 40
0
 40
0
 40
0
 40
0
 40
1
 40
1
 40
1
 40
1
 10
179.360000
 20
-103.360000
 30
0.0
 10
179.680000
 20
-103.520000
 30
0.0
 10
179.920000
 20
-104.160000
 30
0.0
 10
180.080000
 20
-104.720000
 30
0.0
  0
SPLINE
  5
2cd
100
AcDbEntity
  8
0
 62
7
100
AcDbSpline
 70
8
 71
3
 72
8
 73
4
 74
0
 40
0
 40
0
 40
0
 40
0
 40
1
 40
1
 40
1
 40
1
 10
180.080000
 20
-104.720000
 30
0.0
 10
180.400000
 20
-105.600000
 30
0.0
 10
180.720000
 20
-106.560000
 30
0.0
 10
181.680000
 20
-107.120000
 30
0.0
  0
SPLINE
  5
2ce
100
AcDbEntity
  8
0
 62
7
100
AcDbSpline
 70
8
 71
3
 72
8
 73
4
 74
0
 40
0
 40
0
 40
0
 40
0
 40
1
 40
1
 40
1
 40
1
 10
181.680000
 20
-107.120000
 30
0.0
 10
182.560000
 20
-107.600000
 30
0.0
 10
183.600000
 20
-107.440000
 30
0.0
 10
184.480000
 20
-107.280000
 30
0.0
  0
SPLINE
  5
2cf
100
AcDbEntity
  8
0
 62
7
100
AcDbSpline
 70
8
 71
3
 72
8
 73
4
 74
0
 40
0
 40
0
 40
0
 40
0
 40
1
 40
1
 40
1
 40
1
 10
184.480000
 20
-107.280000
 30
0.0
 10
185.040000
 20
-107.200000
 30
0.0
 10
185.760000
 20
-107.040000
 30
0.0
 10
186.000000
 20
-107.200000
 30
0.0
  0
SPLINE
  5
2d0
100
AcDbEntity
  8
0
 62
7
100
AcDbSpline
 70
8
 71
3
 72
8
 73
4
 74
0
 40
0
 40
0
 40
0
 40
0
 40
1
 40
1
 40
1
 40
1
 10
186.000000
 20
-107.200000
 30
0.0
 10
186.320000
 20
-107.360000
 30
0.0
 10
186.480000
 20
-108.000000
 30
0.0
 10
186.720000
 20
-108.560000
 30
0.0
  0
SPLINE
  5
2d1
100
AcDbEntity
  8
0
 62
7
100
AcDbSpline
 70
8
 71
3
 72
8
 73
4
 74
0
 40
0
 40
0
 40
0
 40
0
 40
1
 40
1
 40
1
 40
1
 10
186.720000
 20
-108.560000
 30
0.0
 10
187.040000
 20
-109.440000
 30
0.0
 10
187.360000
 20
-110.400000
 30
0.0
 10
188.320000
 20
-110.960000
 30
0.0
  0
SPLINE
  5
2d2
100
AcDbEntity
  8
0
 62
7
100
AcDbSpline
 70
8
 71
3
 72
8
 73
4
 74
0
 40
0
 40
0
 40
0
 40
0
 40
1
 40
1
 40
1
 40
1
 10
188.320000
 20
-110.960000
 30
0.0
 10
188.800000
 20
-111.200000
 30
0.0
 10
189.200000
 20
-111.280000
 30
0.0
 10
189.680000
 20
-111.280000
 30
0.0
  0
SPLINE
  5
2d3
100
AcDbEntity
  8
0
 62
7
100
AcDbSpline
 70
8
 71
3
 72
8
 73
4
 74
0
 40
0
 40
0
 40
0
 40
0
 40
1
 40
1
 40
1
 40
1
 10
189.680000
 20
-111.280000
 30
0.0
 10
190.160000
 20
-111.280000
 30
0.0
 10
190.640000
 20
-111.200000
 30
0.0
 10
191.120000
 20
-111.120000
 30
0.0
  0
LWPOLYLINE
  5
2d4
100
AcDbEntity
  8
0
 62
7
100
AcDbPolyline
 90
2
 70
0
 10
153.120000
 20
6.080000
 30
0.0
 10
153.120000
 20
6.080000
 30
0.0
  0
SPLINE
  5
2d5
100
AcDbEntity
  8
0
 62
7
100
AcDbSpline
 70
8
 71
3
 72
8
 73
4
 74
0
 40
0
 40
0
 40
0
 40
0
 40
1
 40
1
 40
1
 40
1
 10
190.800000
 20
-109.280000
 30
0.0
 10
190.240000
 20
-109.280000
 30
0.0
 10
189.600000
 20
-109.440000
 30
0.0
 10
189.280000
 20
-109.200000
 30
0.0
  0
LWPOLYLINE
  5
2d6
100
AcDbEntity
  8
0
 62
7
100
AcDbPolyline
 90
2
 70
0
 10
191.120000
 20
-111.120000
 30
0.0
 10
190.800000
 20
-109.280000
 30
0.0
  0
LWPOLYLINE
  5
2d7
100
AcDbEntity
  8
0
 62
7
100
AcDbPolyline
 90
2
 70
0
 10
189.280000
 20
-109.200000
 30
0.0
 10
189.280000
 20
-109.200000
 30
0.0
  0
ENDSEC
  0
SECTION
  2
OBJECTS
  0
DICTIONARY
  5
C
330
0
100
AcDbDictionary
  3
ACAD_GROUP
350
D
  3
ACAD_MLINESTYLE
350
17
  0
DICTIONARY
  5
D
330
C
100
AcDbDictionary
  0
DICTIONARY
  5
1A
330
C
100
AcDbDictionary
  0
DICTIONARY
  5
17
330
C
100
AcDbDictionary
  3
STANDARD
350
18
  0
DICTIONARY
  5
19
330
C
100
AcDbDictionary
  0
ENDSEC
  0
EOF
