  0
SECTION
  2
HEADER
  9
$ACADVER
  1
AC1014
  9
$HANDSEED
  5
FFFF
  9
$MEASUREMENT
 70
     1
  0
ENDSEC
  0
SECTION
  2
TABLES
  0
TABLE
  2
VPORT
  5
8
330
0
100
AcDbSymbolTable
 70
     4
  0
VPORT
  5
2E
330
8
100
AcDbSymbolTableRecord
100
AcDbViewportTableRecord
  2
*ACTIVE
 70
     0
 10
0.0
 20
0.0
 11
1.0
 21
1.0
 12
210.0
 22
148.5
 13
0.0
 23
0.0
 14
10.0
 24
10.0
 15
10.0
 25
10.0
 16
0.0
 26
0.0
 36
1.0
 17
0.0
 27
0.0
 37
0.0
 40
341.0
 41
1.24
 42
50.0
 43
0.0
 44
0.0
 50
0.0
 51
0.0
 71
     0
 72
   100
 73
     1
 74
     3
 75
     0
 76
     0
 77
     0
 78
     0
  0
ENDTAB
  0
TABLE
  2
LTYPE
  5
5
330
0
100
AcDbSymbolTable
 70
     1
  0
LTYPE
  5
14
330
5
100
AcDbSymbolTableRecord
100
AcDbLinetypeTableRecord
  2
BYBLOCK
 70
     0
  3

 72
    65
 73
     0
 40
0.0
  0
LTYPE
  5
15
330
5
100
AcDbSymbolTableRecord
100
AcDbLinetypeTableRecord
  2
BYLAYER
 70
     0
  3

 72
    65
 73
     0
 40
0.0
  0
LTYPE
  5
16
330
5
100
AcDbSymbolTableRecord
100
AcDbLinetypeTableRecord
  2
CONTINUOUS
 70
     0
  3
Solid line
 72
    65
 73
     0
 40
0.0
  0
ENDTAB
  0
TABLE
  2
LAYER
  5
2
100
AcDbSymbolTable
 70
1
  0
LAYER
  5
50
100
AcDbSymbolTableRecord
100
AcDbLayerTableRecord
  2
0
 70
0
  6
CONTINUOUS
  0
ENDTAB
  0
TABLE
  2
STYLE
  5
3
330
0
100
AcDbSymbolTable
 70
     1
  0
STYLE
  5
11
330
3
100
AcDbSymbolTableRecord
100
AcDbTextStyleTableRecord
  2
STANDARD
 70
     0
 40
0.0
 41
1.0
 50
0.0
 71
     0
 42
2.5
  3
txt
  4

  0
ENDTAB
  0
TABLE
  2
VIEW
  5
6
330
0
100
AcDbSymbolTable
 70
     0
  0
ENDTAB
  0
TABLE
  2
UCS
  5
7
330
0
100
AcDbSymbolTable
 70
     0
  0
ENDTAB
  0
TABLE
  2
APPID
  5
9
330
0
100
AcDbSymbolTable
 70
     2
  0
APPID
  5
12
330
9
100
AcDbSymbolTableRecord
100
AcDbRegAppTableRecord
  2
ACAD
 70
     0
  0
ENDTAB
  0
TABLE
  2
DIMSTYLE
  5
A
330
0
100
AcDbSymbolTable
 70
     1
  0
DIMSTYLE
105
27
330
A
100
AcDbSymbolTableRecord
100
AcDbDimStyleTableRecord
  2
ISO-25
 70
     0
  3

  4

  5

  6

  7

 40
1.0
 41
2.5
 42
0.625
 43
3.75
 44
1.25
 45
0.0
 46
0.0
 47
0.0
 48
0.0
140
2.5
141
2.5
142
0.0
143
0.03937007874016
144
1.0
145
0.0
146
1.0
147
0.625
 71
     0
 72
     0
 73
     0
 74
     0
 75
     0
 76
     0
 77
     1
 78
     8
170
     0
171
     3
172
     1
173
     0
174
     0
175
     0
176
     0
177
     0
178
     0
270
     2
271
     2
272
     2
273
     2
274
     3
340
11
275
     0
280
     0
281
     0
282
     0
283
     0
284
     8
285
     0
286
     0
287
     3
288
     0
  0
ENDTAB
  0
TABLE
  2
BLOCK_RECORD
  5
1
330
0
100
AcDbSymbolTable
 70
     1
  0
BLOCK_RECORD
  5
1F
330
1
100
AcDbSymbolTableRecord
100
AcDbBlockTableRecord
  2
*MODEL_SPACE
  0
BLOCK_RECORD
  5
1B
330
1
100
AcDbSymbolTableRecord
100
AcDbBlockTableRecord
  2
*PAPER_SPACE
  0
ENDTAB
  0
ENDSEC
  0
SECTION
  2
BLOCKS
  0
BLOCK
  5
20
330
1F
100
AcDbEntity
  8
0
100
AcDbBlockBegin
  2
*MODEL_SPACE
 70
     0
 10
0.0
 20
0.0
 30
0.0
  3
*MODEL_SPACE
  1

  0
ENDBLK
  5
21
330
1F
100
AcDbEntity
  8
0
100
AcDbBlockEnd
  0
BLOCK
  5
1C
330
1B
100
AcDbEntity
 67
     1
  8
0
100
AcDbBlockBegin
  2
*PAPER_SPACE
  1

  0
ENDBLK
  5
1D
330
1B
100
AcDbEntity
 67
     1
  8
0
100
AcDbBlockEnd
  0
ENDSEC
  0
SECTION
  2
ENTITIES
  0
SPLINE
  5
100
100
AcDbEntity
  8
0
 62
7
100
AcDbSpline
 70
8
 71
3
 72
8
 73
4
 74
0
 40
0
 40
0
 40
0
 40
0
 40
1
 40
1
 40
1
 40
1
 10
151.600000
 20
-13.680000
 30
0.0
 10
153.120000
 20
-13.760000
 30
0.0
 10
154.960000
 20
-12.320000
 30
0.0
 10
156.480000
 20
-12.400000
 30
0.0
  0
SPLINE
  5
101
100
AcDbEntity
  8
0
 62
7
100
AcDbSpline
 70
8
 71
3
 72
8
 73
4
 74
0
 40
0
 40
0
 40
0
 40
0
 40
1
 40
1
 40
1
 40
1
 10
156.480000
 20
-12.400000
 30
0.0
 10
157.840000
 20
-12.480000
 30
0.0
 10
158.640000
 20
-14.160000
 30
0.0
 10
160.000000
 20
-14.240000
 30
0.0
  0
SPLINE
  5
102
100
AcDbEntity
  8
0
 62
7
100
AcDbSpline
 70
8
 71
3
 72
8
 73
4
 74
0
 40
0
 40
0
 40
0
 40
0
 40
1
 40
1
 40
1
 40
1
 10
160.000000
 20
-14.240000
 30
0.0
 10
161.440000
 20
-14.320000
 30
0.0
 10
163.520000
 20
-13.040000
 30
0.0
 10
164.880000
 20
-13.120000
 30
0.0
  0
SPLINE
  5
103
100
AcDbEntity
  8
0
 62
7
100
AcDbSpline
 70
8
 71
3
 72
8
 73
4
 74
0
 40
0
 40
0
 40
0
 40
0
 40
1
 40
1
 40
1
 40
1
 10
164.880000
 20
-13.120000
 30
0.0
 10
165.920000
 20
-13.120000
 30
0.0
 10
166.800000
 20
-14.480000
 30
0.0
 10
167.760000
 20
-14.560000
 30
0.0
  0
SPLINE
  5
104
100
AcDbEntity
  8
0
 62
7
100
AcDbSpline
 70
8
 71
3
 72
8
 73
4
 74
0
 40
0
 40
0
 40
0
 40
0
 40
1
 40
1
 40
1
 40
1
 10
167.760000
 20
-14.560000
 30
0.0
 10
169.040000
 20
-14.640000
 30
0.0
 10
170.800000
 20
-13.680000
 30
0.0
 10
172.080000
 20
-13.680000
 30
0.0
  0
SPLINE
  5
105
100
AcDbEntity
  8
0
 62
7
100
AcDbSpline
 70
8
 71
3
 72
8
 73
4
 74
0
 40
0
 40
0
 40
0
 40
0
 40
1
 40
1
 40
1
 40
1
 10
172.080000
 20
-13.680000
 30
0.0
 10
173.200000
 20
-13.760000
 30
0.0
 10
174.800000
 20
-15.520000
 30
0.0
 10
175.840000
 20
-15.520000
 30
0.0
  0
SPLINE
  5
106
100
AcDbEntity
  8
0
 62
7
100
AcDbSpline
 70
8
 71
3
 72
8
 73
4
 74
0
 40
0
 40
0
 40
0
 40
0
 40
1
 40
1
 40
1
 40
1
 10
175.840000
 20
-15.520000
 30
0.0
 10
177.440000
 20
-15.600000
 30
0.0
 10
179.600000
 20
-14.000000
 30
0.0
 10
180.560000
 20
-14.080000
 30
0.0
  0
SPLINE
  5
107
100
AcDbEntity
  8
0
 62
7
100
AcDbSpline
 70
8
 71
3
 72
8
 73
4
 74
0
 40
0
 40
0
 40
0
 40
0
 40
1
 40
1
 40
1
 40
1
 10
180.560000
 20
-14.080000
 30
0.0
 10
182.080000
 20
-14.320000
 30
0.0
 10
183.120000
 20
-15.520000
 30
0.0
 10
184.640000
 20
-15.600000
 30
0.0
  0
SPLINE
  5
108
100
AcDbEntity
  8
0
 62
7
100
AcDbSpline
 70
8
 71
3
 72
8
 73
4
 74
0
 40
0
 40
0
 40
0
 40
0
 40
1
 40
1
 40
1
 40
1
 10
184.640000
 20
-15.600000
 30
0.0
 10
186.000000
 20
-15.680000
 30
0.0
 10
187.760000
 20
-13.920000
 30
0.0
 10
189.200000
 20
-14.000000
 30
0.0
  0
SPLINE
  5
109
100
AcDbEntity
  8
0
 62
7
100
AcDbSpline
 70
8
 71
3
 72
8
 73
4
 74
0
 40
0
 40
0
 40
0
 40
0
 40
1
 40
1
 40
1
 40
1
 10
189.200000
 20
-14.000000
 30
0.0
 10
190.960000
 20
-14.080000
 30
0.0
 10
191.280000
 20
-15.440000
 30
0.0
 10
193.040000
 20
-15.520000
 30
0.0
  0
SPLINE
  5
10a
100
AcDbEntity
  8
0
 62
7
100
AcDbSpline
 70
8
 71
3
 72
8
 73
4
 74
0
 40
0
 40
0
 40
0
 40
0
 40
1
 40
1
 40
1
 40
1
 10
193.040000
 20
-15.520000
 30
0.0
 10
196.080000
 20
-15.600000
 30
0.0
 10
197.120000
 20
-13.680000
 30
0.0
 10
200.160000
 20
-13.680000
 30
0.0
  0
SPLINE
  5
10b
100
AcDbEntity
  8
0
 62
7
100
AcDbSpline
 70
8
 71
3
 72
8
 73
4
 74
0
 40
0
 40
0
 40
0
 40
0
 40
1
 40
1
 40
1
 40
1
 10
200.160000
 20
-13.680000
 30
0.0
 10
197.280000
 20
-12.880000
 30
0.0
 10
196.400000
 20
-14.000000
 30
0.0
 10
193.440000
 20
-13.280000
 30
0.0
  0
SPLINE
  5
10c
100
AcDbEntity
  8
0
 62
7
100
AcDbSpline
 70
8
 71
3
 72
8
 73
4
 74
0
 40
0
 40
0
 40
0
 40
0
 40
1
 40
1
 40
1
 40
1
 10
193.440000
 20
-13.280000
 30
0.0
 10
191.680000
 20
-12.800000
 30
0.0
 10
191.360000
 20
-11.120000
 30
0.0
 10
189.600000
 20
-10.720000
 30
0.0
  0
SPLINE
  5
10d
100
AcDbEntity
  8
0
 62
7
100
AcDbSpline
 70
8
 71
3
 72
8
 73
4
 74
0
 40
0
 40
0
 40
0
 40
0
 40
1
 40
1
 40
1
 40
1
 10
189.600000
 20
-10.720000
 30
0.0
 10
188.240000
 20
-10.320000
 30
0.0
 10
186.560000
 20
-11.840000
 30
0.0
 10
185.280000
 20
-11.440000
 30
0.0
  0
SPLINE
  5
10e
100
AcDbEntity
  8
0
 62
7
100
AcDbSpline
 70
8
 71
3
 72
8
 73
4
 74
0
 40
0
 40
0
 40
0
 40
0
 40
1
 40
1
 40
1
 40
1
 10
185.280000
 20
-11.440000
 30
0.0
 10
183.840000
 20
-11.120000
 30
0.0
 10
182.800000
 20
-9.440000
 30
0.0
 10
181.360000
 20
-9.040000
 30
0.0
  0
SPLINE
  5
10f
100
AcDbEntity
  8
0
 62
7
100
AcDbSpline
 70
8
 71
3
 72
8
 73
4
 74
0
 40
0
 40
0
 40
0
 40
0
 40
1
 40
1
 40
1
 40
1
 10
181.360000
 20
-9.040000
 30
0.0
 10
180.080000
 20
-8.640000
 30
0.0
 10
178.080000
 20
-9.760000
 30
0.0
 10
176.720000
 20
-9.440000
 30
0.0
  0
SPLINE
  5
110
100
AcDbEntity
  8
0
 62
7
100
AcDbSpline
 70
8
 71
3
 72
8
 73
4
 74
0
 40
0
 40
0
 40
0
 40
0
 40
1
 40
1
 40
1
 40
1
 10
176.720000
 20
-9.440000
 30
0.0
 10
175.680000
 20
-9.120000
 30
0.0
 10
174.080000
 20
-7.280000
 30
0.0
 10
173.120000
 20
-6.960000
 30
0.0
  0
SPLINE
  5
111
100
AcDbEntity
  8
0
 62
7
100
AcDbSpline
 70
8
 71
3
 72
8
 73
4
 74
0
 40
0
 40
0
 40
0
 40
0
 40
1
 40
1
 40
1
 40
1
 10
173.120000
 20
-6.960000
 30
0.0
 10
171.920000
 20
-6.640000
 30
0.0
 10
169.920000
 20
-7.440000
 30
0.0
 10
168.800000
 20
-7.200000
 30
0.0
  0
SPLINE
  5
112
100
AcDbEntity
  8
0
 62
7
100
AcDbSpline
 70
8
 71
3
 72
8
 73
4
 74
0
 40
0
 40
0
 40
0
 40
0
 40
1
 40
1
 40
1
 40
1
 10
168.800000
 20
-7.200000
 30
0.0
 10
167.680000
 20
-6.880000
 30
0.0
 10
167.120000
 20
-5.280000
 30
0.0
 10
166.080000
 20
-4.960000
 30
0.0
  0
SPLINE
  5
113
100
AcDbEntity
  8
0
 62
7
100
AcDbSpline
 70
8
 71
3
 72
8
 73
4
 74
0
 40
0
 40
0
 40
0
 40
0
 40
1
 40
1
 40
1
 40
1
 10
166.080000
 20
-4.960000
 30
0.0
 10
164.720000
 20
-4.640000
 30
0.0
 10
162.720000
 20
-5.680000
 30
0.0
 10
161.440000
 20
-5.360000
 30
0.0
  0
SPLINE
  5
114
100
AcDbEntity
  8
0
 62
7
100
AcDbSpline
 70
8
 71
3
 72
8
 73
4
 74
0
 40
0
 40
0
 40
0
 40
0
 40
1
 40
1
 40
1
 40
1
 10
161.440000
 20
-5.360000
 30
0.0
 10
160.240000
 20
-5.040000
 30
0.0
 10
159.440000
 20
-3.360000
 30
0.0
 10
158.240000
 20
-3.040000
 30
0.0
  0
SPLINE
  5
115
100
AcDbEntity
  8
0
 62
7
100
AcDbSpline
 70
8
 71
3
 72
8
 73
4
 74
0
 40
0
 40
0
 40
0
 40
0
 40
1
 40
1
 40
1
 40
1
 10
158.240000
 20
-3.040000
 30
0.0
 10
156.640000
 20
-2.640000
 30
0.0
 10
155.040000
 20
-4.160000
 30
0.0
 10
153.440000
 20
-3.680000
 30
0.0
  0
SPLINE
  5
116
100
AcDbEntity
  8
0
 62
7
100
AcDbSpline
 70
8
 71
3
 72
8
 73
4
 74
0
 40
0
 40
0
 40
0
 40
0
 40
1
 40
1
 40
1
 40
1
 10
153.440000
 20
-3.680000
 30
0.0
 10
152.880000
 20
-3.520000
 30
0.0
 10
152.320000
 20
-3.200000
 30
0.0
 10
151.840000
 20
-2.720000
 30
0.0
  0
SPLINE
  5
117
100
AcDbEntity
  8
0
 62
7
100
AcDbSpline
 70
8
 71
3
 72
8
 73
4
 74
0
 40
0
 40
0
 40
0
 40
0
 40
1
 40
1
 40
1
 40
1
 10
151.840000
 20
-2.720000
 30
0.0
 10
151.840000
 20
-2.240000
 30
0.0
 10
151.840000
 20
-1.760000
 30
0.0
 10
151.840000
 20
-1.280000
 30
0.0
  0
SPLINE
  5
118
100
AcDbEntity
  8
0
 62
7
100
AcDbSpline
 70
8
 71
3
 72
8
 73
4
 74
0
 40
0
 40
0
 40
0
 40
0
 40
1
 40
1
 40
1
 40
1
 10
151.840000
 20
-1.280000
 30
0.0
 10
151.840000
 20
-1.200000
 30
0.0
 10
151.840000
 20
-1.120000
 30
0.0
 10
151.840000
 20
-1.040000
 30
0.0
  0
SPLINE
  5
119
100
AcDbEntity
  8
0
 62
7
100
AcDbSpline
 70
8
 71
3
 72
8
 73
4
 74
0
 40
0
 40
0
 40
0
 40
0
 40
1
 40
1
 40
1
 40
1
 10
151.840000
 20
-1.040000
 30
0.0
 10
152.560000
 20
-1.120000
 30
0.0
 10
153.280000
 20
-1.120000
 30
0.0
 10
153.920000
 20
-0.880000
 30
0.0
  0
SPLINE
  5
11a
100
AcDbEntity
  8
0
 62
7
100
AcDbSpline
 70
8
 71
3
 72
8
 73
4
 74
0
 40
0
 40
0
 40
0
 40
0
 40
1
 40
1
 40
1
 40
1
 10
153.920000
 20
-0.880000
 30
0.0
 10
155.360000
 20
-0.400000
 30
0.0
 10
156.480000
 20
1.680000
 30
0.0
 10
157.920000
 20
2.160000
 30
0.0
  0
SPLINE
  5
11b
100
AcDbEntity
  8
0
 62
7
100
AcDbSpline
 70
8
 71
3
 72
8
 73
4
 74
0
 40
0
 40
0
 40
0
 40
0
 40
1
 40
1
 40
1
 40
1
 10
157.920000
 20
2.160000
 30
0.0
 10
159.200000
 20
2.640000
 30
0.0
 10
160.640000
 20
1.360000
 30
0.0
 10
161.920000
 20
1.840000
 30
0.0
  0
SPLINE
  5
11c
100
AcDbEntity
  8
0
 62
7
100
AcDbSpline
 70
8
 71
3
 72
8
 73
4
 74
0
 40
0
 40
0
 40
0
 40
0
 40
1
 40
1
 40
1
 40
1
 10
161.920000
 20
1.840000
 30
0.0
 10
163.280000
 20
2.320000
 30
0.0
 10
164.560000
 20
4.320000
 30
0.0
 10
166.000000
 20
4.720000
 30
0.0
  0
SPLINE
  5
11d
100
AcDbEntity
  8
0
 62
7
100
AcDbSpline
 70
8
 71
3
 72
8
 73
4
 74
0
 40
0
 40
0
 40
0
 40
0
 40
1
 40
1
 40
1
 40
1
 10
166.000000
 20
4.720000
 30
0.0
 10
166.960000
 20
5.120000
 30
0.0
 10
168.320000
 20
4.160000
 30
0.0
 10
169.200000
 20
4.480000
 30
0.0
  0
SPLINE
  5
11e
100
AcDbEntity
  8
0
 62
7
100
AcDbSpline
 70
8
 71
3
 72
8
 73
4
 74
0
 40
0
 40
0
 40
0
 40
0
 40
1
 40
1
 40
1
 40
1
 10
169.200000
 20
4.480000
 30
0.0
 10
170.480000
 20
4.880000
 30
0.0
 10
171.760000
 20
6.400000
 30
0.0
 10
172.960000
 20
6.960000
 30
0.0
  0
SPLINE
  5
11f
100
AcDbEntity
  8
0
 62
7
100
AcDbSpline
 70
8
 71
3
 72
8
 73
4
 74
0
 40
0
 40
0
 40
0
 40
0
 40
1
 40
1
 40
1
 40
1
 10
172.960000
 20
6.960000
 30
0.0
 10
173.920000
 20
7.280000
 30
0.0
 10
176.080000
 20
6.320000
 30
0.0
 10
177.120000
 20
6.640000
 30
0.0
  0
SPLINE
  5
120
100
AcDbEntity
  8
0
 62
7
100
AcDbSpline
 70
8
 71
3
 72
8
 73
4
 74
0
 40
0
 40
0
 40
0
 40
0
 40
1
 40
1
 40
1
 40
1
 10
177.120000
 20
6.640000
 30
0.0
 10
178.640000
 20
7.120000
 30
0.0
 10
180.000000
 20
9.440000
 30
0.0
 10
180.960000
 20
9.760000
 30
0.0
  0
SPLINE
  5
121
100
AcDbEntity
  8
0
 62
7
100
AcDbSpline
 70
8
 71
3
 72
8
 73
4
 74
0
 40
0
 40
0
 40
0
 40
0
 40
1
 40
1
 40
1
 40
1
 10
180.960000
 20
9.760000
 30
0.0
 10
182.400000
 20
10.080000
 30
0.0
 10
183.840000
 20
9.360000
 30
0.0
 10
185.280000
 20
9.920000
 30
0.0
  0
SPLINE
  5
122
100
AcDbEntity
  8
0
 62
7
100
AcDbSpline
 70
8
 71
3
 72
8
 73
4
 74
0
 40
0
 40
0
 40
0
 40
0
 40
1
 40
1
 40
1
 40
1
 10
185.280000
 20
9.920000
 30
0.0
 10
186.640000
 20
10.320000
 30
0.0
 10
187.600000
 20
12.560000
 30
0.0
 10
188.880000
 20
13.120000
 30
0.0
  0
SPLINE
  5
123
100
AcDbEntity
  8
0
 62
7
100
AcDbSpline
 70
8
 71
3
 72
8
 73
4
 74
0
 40
0
 40
0
 40
0
 40
0
 40
1
 40
1
 40
1
 40
1
 10
188.880000
 20
13.120000
 30
0.0
 10
190.560000
 20
13.680000
 30
0.0
 10
191.440000
 20
12.640000
 30
0.0
 10
193.120000
 20
13.200000
 30
0.0
  0
SPLINE
  5
124
100
AcDbEntity
  8
0
 62
7
100
AcDbSpline
 70
8
 71
3
 72
8
 73
4
 74
0
 40
0
 40
0
 40
0
 40
0
 40
1
 40
1
 40
1
 40
1
 10
193.120000
 20
13.200000
 30
0.0
 10
195.920000
 20
14.320000
 30
0.0
 10
196.080000
 20
16.480000
 30
0.0
 10
198.960000
 20
17.680000
 30
0.0
  0
SPLINE
  5
125
100
AcDbEntity
  8
0
 62
7
100
AcDbSpline
 70
8
 71
3
 72
8
 73
4
 74
0
 40
0
 40
0
 40
0
 40
0
 40
1
 40
1
 40
1
 40
1
 10
198.960000
 20
17.680000
 30
0.0
 10
196.000000
 20
17.280000
 30
0.0
 10
195.520000
 20
15.840000
 30
0.0
 10
192.560000
 20
15.440000
 30
0.0
  0
SPLINE
  5
126
100
AcDbEntity
  8
0
 62
7
100
AcDbSpline
 70
8
 71
3
 72
8
 73
4
 74
0
 40
0
 40
0
 40
0
 40
0
 40
1
 40
1
 40
1
 40
1
 10
192.560000
 20
15.440000
 30
0.0
 10
190.720000
 20
15.120000
 30
0.0
 10
189.840000
 20
16.560000
 30
0.0
 10
188.000000
 20
16.400000
 30
0.0
  0
SPLINE
  5
127
100
AcDbEntity
  8
0
 62
7
100
AcDbSpline
 70
8
 71
3
 72
8
 73
4
 74
0
 40
0
 40
0
 40
0
 40
0
 40
1
 40
1
 40
1
 40
1
 10
188.000000
 20
16.400000
 30
0.0
 10
186.640000
 20
16.160000
 30
0.0
 10
185.600000
 20
14.240000
 30
0.0
 10
184.240000
 20
14.080000
 30
0.0
  0
SPLINE
  5
128
100
AcDbEntity
  8
0
 62
7
100
AcDbSpline
 70
8
 71
3
 72
8
 73
4
 74
0
 40
0
 40
0
 40
0
 40
0
 40
1
 40
1
 40
1
 40
1
 10
184.240000
 20
14.080000
 30
0.0
 10
182.800000
 20
13.840000
 30
0.0
 10
181.280000
 20
14.960000
 30
0.0
 10
179.760000
 20
14.800000
 30
0.0
  0
SPLINE
  5
129
100
AcDbEntity
  8
0
 62
7
100
AcDbSpline
 70
8
 71
3
 72
8
 73
4
 74
0
 40
0
 40
0
 40
0
 40
0
 40
1
 40
1
 40
1
 40
1
 10
179.760000
 20
14.800000
 30
0.0
 10
178.400000
 20
14.640000
 30
0.0
 10
177.040000
 20
12.880000
 30
0.0
 10
175.600000
 20
12.640000
 30
0.0
  0
SPLINE
  5
12a
100
AcDbEntity
  8
0
 62
7
100
AcDbSpline
 70
8
 71
3
 72
8
 73
4
 74
0
 40
0
 40
0
 40
0
 40
0
 40
1
 40
1
 40
1
 40
1
 10
175.600000
 20
12.640000
 30
0.0
 10
174.560000
 20
12.560000
 30
0.0
 10
172.320000
 20
13.760000
 30
0.0
 10
171.280000
 20
13.600000
 30
0.0
  0
SPLINE
  5
12b
100
AcDbEntity
  8
0
 62
7
100
AcDbSpline
 70
8
 71
3
 72
8
 73
4
 74
0
 40
0
 40
0
 40
0
 40
0
 40
1
 40
1
 40
1
 40
1
 10
171.280000
 20
13.600000
 30
0.0
 10
170.080000
 20
13.360000
 30
0.0
 10
168.560000
 20
11.920000
 30
0.0
 10
167.280000
 20
11.680000
 30
0.0
  0
SPLINE
  5
12c
100
AcDbEntity
  8
0
 62
7
100
AcDbSpline
 70
8
 71
3
 72
8
 73
4
 74
0
 40
0
 40
0
 40
0
 40
0
 40
1
 40
1
 40
1
 40
1
 10
167.280000
 20
11.680000
 30
0.0
 10
166.160000
 20
11.520000
 30
0.0
 10
165.040000
 20
12.880000
 30
0.0
 10
163.920000
 20
12.720000
 30
0.0
  0
SPLINE
  5
12d
100
AcDbEntity
  8
0
 62
7
100
AcDbSpline
 70
8
 71
3
 72
8
 73
4
 74
0
 40
0
 40
0
 40
0
 40
0
 40
1
 40
1
 40
1
 40
1
 10
163.920000
 20
12.720000
 30
0.0
 10
162.560000
 20
12.480000
 30
0.0
 10
161.200000
 20
10.880000
 30
0.0
 10
159.760000
 20
10.640000
 30
0.0
  0
SPLINE
  5
12e
100
AcDbEntity
  8
0
 62
7
100
AcDbSpline
 70
8
 71
3
 72
8
 73
4
 74
0
 40
0
 40
0
 40
0
 40
0
 40
1
 40
1
 40
1
 40
1
 10
159.760000
 20
10.640000
 30
0.0
 10
158.560000
 20
10.480000
 30
0.0
 10
157.120000
 20
11.680000
 30
0.0
 10
155.920000
 20
11.600000
 30
0.0
  0
SPLINE
  5
12f
100
AcDbEntity
  8
0
 62
7
100
AcDbSpline
 70
8
 71
3
 72
8
 73
4
 74
0
 40
0
 40
0
 40
0
 40
0
 40
1
 40
1
 40
1
 40
1
 10
155.920000
 20
11.600000
 30
0.0
 10
154.320000
 20
11.360000
 30
0.0
 10
153.360000
 20
9.440000
 30
0.0
 10
151.760000
 20
9.200000
 30
0.0
  0
SPLINE
  5
130
100
AcDbEntity
  8
0
 62
7
100
AcDbSpline
 70
8
 71
3
 72
8
 73
4
 74
0
 40
0
 40
0
 40
0
 40
0
 40
1
 40
1
 40
1
 40
1
 10
151.760000
 20
9.200000
 30
0.0
 10
151.200000
 20
9.120000
 30
0.0
 10
150.560000
 20
9.280000
 30
0.0
 10
150.000000
 20
9.440000
 30
0.0
  0
SPLINE
  5
131
100
AcDbEntity
  8
0
 62
7
100
AcDbSpline
 70
8
 71
3
 72
8
 73
4
 74
0
 40
0
 40
0
 40
0
 40
0
 40
1
 40
1
 40
1
 40
1
 10
150.000000
 20
9.440000
 30
0.0
 10
149.840000
 20
10.000000
 30
0.0
 10
149.600000
 20
10.480000
 30
0.0
 10
149.360000
 20
11.040000
 30
0.0
  0
SPLINE
  5
132
100
AcDbEntity
  8
0
 62
7
100
AcDbSpline
 70
8
 71
3
 72
8
 73
4
 74
0
 40
0
 40
0
 40
0
 40
0
 40
1
 40
1
 40
1
 40
1
 10
149.360000
 20
11.040000
 30
0.0
 10
150.000000
 20
11.280000
 30
0.0
 10
150.640000
 20
11.520000
 30
0.0
 10
151.120000
 20
11.920000
 30
0.0
  0
SPLINE
  5
133
100
AcDbEntity
  8
0
 62
7
100
AcDbSpline
 70
8
 71
3
 72
8
 73
4
 74
0
 40
0
 40
0
 40
0
 40
0
 40
1
 40
1
 40
1
 40
1
 10
151.120000
 20
11.920000
 30
0.0
 10
152.320000
 20
12.960000
 30
0.0
 10
152.480000
 20
15.360000
 30
0.0
 10
153.680000
 20
16.320000
 30
0.0
  0
SPLINE
  5
134
100
AcDbEntity
  8
0
 62
7
100
AcDbSpline
 70
8
 71
3
 72
8
 73
4
 74
0
 40
0
 40
0
 40
0
 40
0
 40
1
 40
1
 40
1
 40
1
 10
153.680000
 20
16.320000
 30
0.0
 10
154.720000
 20
17.280000
 30
0.0
 10
156.400000
 20
16.640000
 30
0.0
 10
157.440000
 20
17.520000
 30
0.0
  0
SPLINE
  5
135
100
AcDbEntity
  8
0
 62
7
100
AcDbSpline
 70
8
 71
3
 72
8
 73
4
 74
0
 40
0
 40
0
 40
0
 40
0
 40
1
 40
1
 40
1
 40
1
 10
157.440000
 20
17.520000
 30
0.0
 10
158.560000
 20
18.480000
 30
0.0
 10
159.040000
 20
20.800000
 30
0.0
 10
160.160000
 20
21.680000
 30
0.0
  0
SPLINE
  5
136
100
AcDbEntity
  8
0
 62
7
100
AcDbSpline
 70
8
 71
3
 72
8
 73
4
 74
0
 40
0
 40
0
 40
0
 40
0
 40
1
 40
1
 40
1
 40
1
 10
160.160000
 20
21.680000
 30
0.0
 10
160.880000
 20
22.400000
 30
0.0
 10
162.480000
 20
22.000000
 30
0.0
 10
163.200000
 20
22.720000
 30
0.0
  0
SPLINE
  5
137
100
AcDbEntity
  8
0
 62
7
100
AcDbSpline
 70
8
 71
3
 72
8
 73
4
 74
0
 40
0
 40
0
 40
0
 40
0
 40
1
 40
1
 40
1
 40
1
 10
163.200000
 20
22.720000
 30
0.0
 10
164.240000
 20
23.600000
 30
0.0
 10
164.720000
 20
25.520000
 30
0.0
 10
165.760000
 20
26.400000
 30
0.0
  0
SPLINE
  5
138
100
AcDbEntity
  8
0
 62
7
100
AcDbSpline
 70
8
 71
3
 72
8
 73
4
 74
0
 40
0
 40
0
 40
0
 40
0
 40
1
 40
1
 40
1
 40
1
 10
165.760000
 20
26.400000
 30
0.0
 10
166.560000
 20
27.120000
 30
0.0
 10
168.880000
 20
27.040000
 30
0.0
 10
169.680000
 20
27.680000
 30
0.0
  0
SPLINE
  5
139
100
AcDbEntity
  8
0
 62
7
100
AcDbSpline
 70
8
 71
3
 72
8
 73
4
 74
0
 40
0
 40
0
 40
0
 40
0
 40
1
 40
1
 40
1
 40
1
 10
169.680000
 20
27.680000
 30
0.0
 10
170.880000
 20
28.800000
 30
0.0
 10
171.280000
 20
31.440000
 30
0.0
 10
172.080000
 20
32.000000
 30
0.0
  0
SPLINE
  5
13a
100
AcDbEntity
  8
0
 62
7
100
AcDbSpline
 70
8
 71
3
 72
8
 73
4
 74
0
 40
0
 40
0
 40
0
 40
0
 40
1
 40
1
 40
1
 40
1
 10
172.080000
 20
32.000000
 30
0.0
 10
173.280000
 20
32.960000
 30
0.0
 10
174.800000
 20
32.800000
 30
0.0
 10
176.000000
 20
33.840000
 30
0.0
  0
SPLINE
  5
13b
100
AcDbEntity
  8
0
 62
7
100
AcDbSpline
 70
8
 71
3
 72
8
 73
4
 74
0
 40
0
 40
0
 40
0
 40
0
 40
1
 40
1
 40
1
 40
1
 10
176.000000
 20
33.840000
 30
0.0
 10
177.040000
 20
34.800000
 30
0.0
 10
177.040000
 20
37.200000
 30
0.0
 10
178.080000
 20
38.160000
 30
0.0
  0
SPLINE
  5
13c
100
AcDbEntity
  8
0
 62
7
100
AcDbSpline
 70
8
 71
3
 72
8
 73
4
 74
0
 40
0
 40
0
 40
0
 40
0
 40
1
 40
1
 40
1
 40
1
 10
178.080000
 20
38.160000
 30
0.0
 10
179.360000
 20
39.280000
 30
0.0
 10
180.640000
 20
38.560000
 30
0.0
 10
181.920000
 20
39.840000
 30
0.0
  0
SPLINE
  5
13d
100
AcDbEntity
  8
0
 62
7
100
AcDbSpline
 70
8
 71
3
 72
8
 73
4
 74
0
 40
0
 40
0
 40
0
 40
0
 40
1
 40
1
 40
1
 40
1
 10
181.920000
 20
39.840000
 30
0.0
 10
184.080000
 20
41.920000
 30
0.0
 10
183.440000
 20
44.000000
 30
0.0
 10
185.600000
 20
46.160000
 30
0.0
  0
SPLINE
  5
13e
100
AcDbEntity
  8
0
 62
7
100
AcDbSpline
 70
8
 71
3
 72
8
 73
4
 74
0
 40
0
 40
0
 40
0
 40
0
 40
1
 40
1
 40
1
 40
1
 10
185.600000
 20
46.160000
 30
0.0
 10
182.960000
 20
44.640000
 30
0.0
 10
183.120000
 20
43.200000
 30
0.0
 10
180.480000
 20
41.680000
 30
0.0
  0
SPLINE
  5
13f
100
AcDbEntity
  8
0
 62
7
100
AcDbSpline
 70
8
 71
3
 72
8
 73
4
 74
0
 40
0
 40
0
 40
0
 40
0
 40
1
 40
1
 40
1
 40
1
 10
180.480000
 20
41.680000
 30
0.0
 10
178.880000
 20
40.720000
 30
0.0
 10
177.440000
 20
41.760000
 30
0.0
 10
175.840000
 20
40.800000
 30
0.0
  0
SPLINE
  5
140
100
AcDbEntity
  8
0
 62
7
100
AcDbSpline
 70
8
 71
3
 72
8
 73
4
 74
0
 40
0
 40
0
 40
0
 40
0
 40
1
 40
1
 40
1
 40
1
 10
175.840000
 20
40.800000
 30
0.0
 10
174.640000
 20
40.080000
 30
0.0
 10
174.560000
 20
37.920000
 30
0.0
 10
173.280000
 20
37.200000
 30
0.0
  0
SPLINE
  5
141
100
AcDbEntity
  8
0
 62
7
100
AcDbSpline
 70
8
 71
3
 72
8
 73
4
 74
0
 40
0
 40
0
 40
0
 40
0
 40
1
 40
1
 40
1
 40
1
 10
173.280000
 20
37.200000
 30
0.0
 10
172.000000
 20
36.480000
 30
0.0
 10
170.160000
 20
36.880000
 30
0.0
 10
168.880000
 20
36.160000
 30
0.0
  0
SPLINE
  5
142
100
AcDbEntity
  8
0
 62
7
100
AcDbSpline
 70
8
 71
3
 72
8
 73
4
 74
0
 40
0
 40
0
 40
0
 40
0
 40
1
 40
1
 40
1
 40
1
 10
168.880000
 20
36.160000
 30
0.0
 10
167.680000
 20
35.520000
 30
0.0
 10
167.040000
 20
33.280000
 30
0.0
 10
165.840000
 20
32.640000
 30
0.0
  0
SPLINE
  5
143
100
AcDbEntity
  8
0
 62
7
100
AcDbSpline
 70
8
 71
3
 72
8
 73
4
 74
0
 40
0
 40
0
 40
0
 40
0
 40
1
 40
1
 40
1
 40
1
 10
165.840000
 20
32.640000
 30
0.0
 10
164.960000
 20
32.160000
 30
0.0
 10
162.400000
 20
32.320000
 30
0.0
 10
161.520000
 20
31.840000
 30
0.0
  0
SPLINE
  5
144
100
AcDbEntity
  8
0
 62
7
100
AcDbSpline
 70
8
 71
3
 72
8
 73
4
 74
0
 40
0
 40
0
 40
0
 40
0
 40
1
 40
1
 40
1
 40
1
 10
161.520000
 20
31.840000
 30
0.0
 10
160.400000
 20
31.200000
 30
0.0
 10
159.600000
 20
29.200000
 30
0.0
 10
158.560000
 20
28.560000
 30
0.0
  0
SPLINE
  5
145
100
AcDbEntity
  8
0
 62
7
100
AcDbSpline
 70
8
 71
3
 72
8
 73
4
 74
0
 40
0
 40
0
 40
0
 40
0
 40
1
 40
1
 40
1
 40
1
 10
158.560000
 20
28.560000
 30
0.0
 10
157.600000
 20
28.080000
 30
0.0
 10
156.000000
 20
28.800000
 30
0.0
 10
155.040000
 20
28.240000
 30
0.0
  0
SPLINE
  5
146
100
AcDbEntity
  8
0
 62
7
100
AcDbSpline
 70
8
 71
3
 72
8
 73
4
 74
0
 40
0
 40
0
 40
0
 40
0
 40
1
 40
1
 40
1
 40
1
 10
155.040000
 20
28.240000
 30
0.0
 10
153.840000
 20
27.520000
 30
0.0
 10
153.200000
 20
25.440000
 30
0.0
 10
152.000000
 20
24.720000
 30
0.0
  0
SPLINE
  5
147
100
AcDbEntity
  8
0
 62
7
100
AcDbSpline
 70
8
 71
3
 72
8
 73
4
 74
0
 40
0
 40
0
 40
0
 40
0
 40
1
 40
1
 40
1
 40
1
 10
152.000000
 20
24.720000
 30
0.0
 10
150.960000
 20
24.160000
 30
0.0
 10
149.200000
 20
24.720000
 30
0.0
 10
148.160000
 20
24.160000
 30
0.0
  0
SPLINE
  5
148
100
AcDbEntity
  8
0
 62
7
100
AcDbSpline
 70
8
 71
3
 72
8
 73
4
 74
0
 40
0
 40
0
 40
0
 40
0
 40
1
 40
1
 40
1
 40
1
 10
148.160000
 20
24.160000
 30
0.0
 10
146.720000
 20
23.280000
 30
0.0
 10
146.640000
 20
21.200000
 30
0.0
 10
145.200000
 20
20.320000
 30
0.0
  0
SPLINE
  5
149
100
AcDbEntity
  8
0
 62
7
100
AcDbSpline
 70
8
 71
3
 72
8
 73
4
 74
0
 40
0
 40
0
 40
0
 40
0
 40
1
 40
1
 40
1
 40
1
 10
145.200000
 20
20.320000
 30
0.0
 10
144.720000
 20
20.080000
 30
0.0
 10
144.240000
 20
20.000000
 30
0.0
 10
143.600000
 20
19.920000
 30
0.0
  0
SPLINE
  5
14a
100
AcDbEntity
  8
0
 62
7
100
AcDbSpline
 70
8
 71
3
 72
8
 73
4
 74
0
 40
0
 40
0
 40
0
 40
0
 40
1
 40
1
 40
1
 40
1
 10
143.600000
 20
19.920000
 30
0.0
 10
143.200000
 20
20.400000
 30
0.0
 10
142.800000
 20
20.800000
 30
0.0
 10
142.320000
 20
21.200000
 30
0.0
  0
SPLINE
  5
14b
100
AcDbEntity
  8
0
 62
7
100
AcDbSpline
 70
8
 71
3
 72
8
 73
4
 74
0
 40
0
 40
0
 40
0
 40
0
 40
1
 40
1
 40
1
 40
1
 10
142.320000
 20
21.200000
 30
0.0
 10
142.800000
 20
21.600000
 30
0.0
 10
143.280000
 20
22.080000
 30
0.0
 10
143.600000
 20
22.640000
 30
0.0
  0
SPLINE
  5
14c
100
AcDbEntity
  8
0
 62
7
100
AcDbSpline
 70
8
 71
3
 72
8
 73
4
 74
0
 40
0
 40
0
 40
0
 40
0
 40
1
 40
1
 40
1
 40
1
 10
143.600000
 20
22.640000
 30
0.0
 10
144.240000
 20
24.080000
 30
0.0
 10
143.600000
 20
26.320000
 30
0.0
 10
144.240000
 20
27.680000
 30
0.0
  0
SPLINE
  5
14d
100
AcDbEntity
  8
0
 62
7
100
AcDbSpline
 70
8
 71
3
 72
8
 73
4
 74
0
 40
0
 40
0
 40
0
 40
0
 40
1
 40
1
 40
1
 40
1
 10
144.240000
 20
27.680000
 30
0.0
 10
144.800000
 20
28.880000
 30
0.0
 10
146.720000
 20
28.960000
 30
0.0
 10
147.280000
 20
30.240000
 30
0.0
  0
SPLINE
  5
14e
100
AcDbEntity
  8
0
 62
7
100
AcDbSpline
 70
8
 71
3
 72
8
 73
4
 74
0
 40
0
 40
0
 40
0
 40
0
 40
1
 40
1
 40
1
 40
1
 10
147.280000
 20
30.240000
 30
0.0
 10
147.840000
 20
31.520000
 30
0.0
 10
147.440000
 20
33.920000
 30
0.0
 10
148.080000
 20
35.200000
 30
0.0
  0
SPLINE
  5
14f
100
AcDbEntity
  8
0
 62
7
100
AcDbSpline
 70
8
 71
3
 72
8
 73
4
 74
0
 40
0
 40
0
 40
0
 40
0
 40
1
 40
1
 40
1
 40
1
 10
148.080000
 20
35.200000
 30
0.0
 10
148.480000
 20
36.080000
 30
0.0
 10
150.080000
 20
36.400000
 30
0.0
 10
150.560000
 20
37.200000
 30
0.0
  0
SPLINE
  5
150
100
AcDbEntity
  8
0
 62
7
100
AcDbSpline
 70
8
 71
3
 72
8
 73
4
 74
0
 40
0
 40
0
 40
0
 40
0
 40
1
 40
1
 40
1
 40
1
 10
150.560000
 20
37.200000
 30
0.0
 10
151.120000
 20
38.400000
 30
0.0
 10
150.960000
 20
40.400000
 30
0.0
 10
151.520000
 20
41.520000
 30
0.0
  0
SPLINE
  5
151
100
AcDbEntity
  8
0
 62
7
100
AcDbSpline
 70
8
 71
3
 72
8
 73
4
 74
0
 40
0
 40
0
 40
0
 40
0
 40
1
 40
1
 40
1
 40
1
 10
151.520000
 20
41.520000
 30
0.0
 10
151.920000
 20
42.560000
 30
0.0
 10
154.240000
 20
43.360000
 30
0.0
 10
154.640000
 20
44.240000
 30
0.0
  0
SPLINE
  5
152
100
AcDbEntity
  8
0
 62
7
100
AcDbSpline
 70
8
 71
3
 72
8
 73
4
 74
0
 40
0
 40
0
 40
0
 40
0
 40
1
 40
1
 40
1
 40
1
 10
154.640000
 20
44.240000
 30
0.0
 10
155.360000
 20
45.680000
 30
0.0
 10
154.720000
 20
48.320000
 30
0.0
 10
155.120000
 20
49.120000
 30
0.0
  0
SPLINE
  5
153
100
AcDbEntity
  8
0
 62
7
100
AcDbSpline
 70
8
 71
3
 72
8
 73
4
 74
0
 40
0
 40
0
 40
0
 40
0
 40
1
 40
1
 40
1
 40
1
 10
155.120000
 20
49.120000
 30
0.0
 10
155.840000
 20
50.400000
 30
0.0
 10
157.440000
 20
50.880000
 30
0.0
 10
158.080000
 20
52.240000
 30
0.0
  0
SPLINE
  5
154
100
AcDbEntity
  8
0
 62
7
100
AcDbSpline
 70
8
 71
3
 72
8
 73
4
 74
0
 40
0
 40
0
 40
0
 40
0
 40
1
 40
1
 40
1
 40
1
 10
158.080000
 20
52.240000
 30
0.0
 10
158.640000
 20
53.520000
 30
0.0
 10
157.680000
 20
55.760000
 30
0.0
 10
158.400000
 20
57.120000
 30
0.0
  0
SPLINE
  5
155
100
AcDbEntity
  8
0
 62
7
100
AcDbSpline
 70
8
 71
3
 72
8
 73
4
 74
0
 40
0
 40
0
 40
0
 40
0
 40
1
 40
1
 40
1
 40
1
 10
158.400000
 20
57.120000
 30
0.0
 10
159.120000
 20
58.720000
 30
0.0
 10
160.560000
 20
58.480000
 30
0.0
 10
161.280000
 20
60.080000
 30
0.0
  0
SPLINE
  5
156
100
AcDbEntity
  8
0
 62
7
100
AcDbSpline
 70
8
 71
3
 72
8
 73
4
 74
0
 40
0
 40
0
 40
0
 40
0
 40
1
 40
1
 40
1
 40
1
 10
161.280000
 20
60.080000
 30
0.0
 10
162.480000
 20
62.880000
 30
0.0
 10
161.040000
 20
64.560000
 30
0.0
 10
162.240000
 20
67.360000
 30
0.0
  0
SPLINE
  5
157
100
AcDbEntity
  8
0
 62
7
100
AcDbSpline
 70
8
 71
3
 72
8
 73
4
 74
0
 40
0
 40
0
 40
0
 40
0
 40
1
 40
1
 40
1
 40
1
 10
162.240000
 20
67.360000
 30
0.0
 10
160.400000
 20
64.960000
 30
0.0
 10
161.120000
 20
63.680000
 30
0.0
 10
159.360000
 20
61.280000
 30
0.0
  0
SPLINE
  5
158
100
AcDbEntity
  8
0
 62
7
100
AcDbSpline
 70
8
 71
3
 72
8
 73
4
 74
0
 40
0
 40
0
 40
0
 40
0
 40
1
 40
1
 40
1
 40
1
 10
159.360000
 20
61.280000
 30
0.0
 10
158.160000
 20
59.840000
 30
0.0
 10
156.560000
 20
60.160000
 30
0.0
 10
155.440000
 20
58.720000
 30
0.0
  0
SPLINE
  5
159
100
AcDbEntity
  8
0
 62
7
100
AcDbSpline
 70
8
 71
3
 72
8
 73
4
 74
0
 40
0
 40
0
 40
0
 40
0
 40
1
 40
1
 40
1
 40
1
 10
155.440000
 20
58.720000
 30
0.0
 10
154.560000
 20
57.600000
 30
0.0
 10
155.280000
 20
55.520000
 30
0.0
 10
154.400000
 20
54.480000
 30
0.0
  0
SPLINE
  5
15a
100
AcDbEntity
  8
0
 62
7
100
AcDbSpline
 70
8
 71
3
 72
8
 73
4
 74
0
 40
0
 40
0
 40
0
 40
0
 40
1
 40
1
 40
1
 40
1
 10
154.400000
 20
54.480000
 30
0.0
 10
153.440000
 20
53.360000
 30
0.0
 10
151.600000
 20
53.040000
 30
0.0
 10
150.720000
 20
51.840000
 30
0.0
  0
SPLINE
  5
15b
100
AcDbEntity
  8
0
 62
7
100
AcDbSpline
 70
8
 71
3
 72
8
 73
4
 74
0
 40
0
 40
0
 40
0
 40
0
 40
1
 40
1
 40
1
 40
1
 10
150.720000
 20
51.840000
 30
0.0
 10
149.840000
 20
50.720000
 30
0.0
 10
150.160000
 20
48.480000
 30
0.0
 10
149.280000
 20
47.440000
 30
0.0
  0
SPLINE
  5
15c
100
AcDbEntity
  8
0
 62
7
100
AcDbSpline
 70
8
 71
3
 72
8
 73
4
 74
0
 40
0
 40
0
 40
0
 40
0
 40
1
 40
1
 40
1
 40
1
 10
149.280000
 20
47.440000
 30
0.0
 10
148.640000
 20
46.640000
 30
0.0
 10
146.240000
 20
45.920000
 30
0.0
 10
145.600000
 20
45.040000
 30
0.0
  0
SPLINE
  5
15d
100
AcDbEntity
  8
0
 62
7
100
AcDbSpline
 70
8
 71
3
 72
8
 73
4
 74
0
 40
0
 40
0
 40
0
 40
0
 40
1
 40
1
 40
1
 40
1
 10
145.600000
 20
45.040000
 30
0.0
 10
144.880000
 20
44.000000
 30
0.0
 10
144.880000
 20
41.920000
 30
0.0
 10
144.160000
 20
40.960000
 30
0.0
  0
SPLINE
  5
15e
100
AcDbEntity
  8
0
 62
7
100
AcDbSpline
 70
8
 71
3
 72
8
 73
4
 74
0
 40
0
 40
0
 40
0
 40
0
 40
1
 40
1
 40
1
 40
1
 10
144.160000
 20
40.960000
 30
0.0
 10
143.520000
 20
40.080000
 30
0.0
 10
141.680000
 20
40.240000
 30
0.0
 10
141.040000
 20
39.360000
 30
0.0
  0
SPLINE
  5
15f
100
AcDbEntity
  8
0
 62
7
100
AcDbSpline
 70
8
 71
3
 72
8
 73
4
 74
0
 40
0
 40
0
 40
0
 40
0
 40
1
 40
1
 40
1
 40
1
 10
141.040000
 20
39.360000
 30
0.0
 10
140.240000
 20
38.320000
 30
0.0
 10
140.480000
 20
36.000000
 30
0.0
 10
139.600000
 20
34.960000
 30
0.0
  0
SPLINE
  5
160
100
AcDbEntity
  8
0
 62
7
100
AcDbSpline
 70
8
 71
3
 72
8
 73
4
 74
0
 40
0
 40
0
 40
0
 40
0
 40
1
 40
1
 40
1
 40
1
 10
139.600000
 20
34.960000
 30
0.0
 10
138.880000
 20
34.000000
 30
0.0
 10
136.960000
 20
33.840000
 30
0.0
 10
136.240000
 20
32.960000
 30
0.0
  0
SPLINE
  5
161
100
AcDbEntity
  8
0
 62
7
100
AcDbSpline
 70
8
 71
3
 72
8
 73
4
 74
0
 40
0
 40
0
 40
0
 40
0
 40
1
 40
1
 40
1
 40
1
 10
136.240000
 20
32.960000
 30
0.0
 10
135.200000
 20
31.680000
 30
0.0
 10
135.920000
 20
29.600000
 30
0.0
 10
134.960000
 20
28.320000
 30
0.0
  0
SPLINE
  5
162
100
AcDbEntity
  8
0
 62
7
100
AcDbSpline
 70
8
 71
3
 72
8
 73
4
 74
0
 40
0
 40
0
 40
0
 40
0
 40
1
 40
1
 40
1
 40
1
 10
134.960000
 20
28.320000
 30
0.0
 10
134.720000
 20
27.920000
 30
0.0
 10
134.240000
 20
27.600000
 30
0.0
 10
133.760000
 20
27.360000
 30
0.0
  0
SPLINE
  5
163
100
AcDbEntity
  8
0
 62
7
100
AcDbSpline
 70
8
 71
3
 72
8
 73
4
 74
0
 40
0
 40
0
 40
0
 40
0
 40
1
 40
1
 40
1
 40
1
 10
133.760000
 20
27.360000
 30
0.0
 10
133.200000
 20
27.600000
 30
0.0
 10
132.640000
 20
27.840000
 30
0.0
 10
132.080000
 20
28.080000
 30
0.0
  0
SPLINE
  5
164
100
AcDbEntity
  8
0
 62
7
100
AcDbSpline
 70
8
 71
3
 72
8
 73
4
 74
0
 40
0
 40
0
 40
0
 40
0
 40
1
 40
1
 40
1
 40
1
 10
132.080000
 20
28.080000
 30
0.0
 10
132.320000
 20
28.640000
 30
0.0
 10
132.560000
 20
29.200000
 30
0.0
 10
132.640000
 20
29.840000
 30
0.0
  0
SPLINE
  5
165
100
AcDbEntity
  8
0
 62
7
100
AcDbSpline
 70
8
 71
3
 72
8
 73
4
 74
0
 40
0
 40
0
 40
0
 40
0
 40
1
 40
1
 40
1
 40
1
 10
132.640000
 20
29.840000
 30
0.0
 10
132.720000
 20
31.360000
 30
0.0
 10
131.280000
 20
33.200000
 30
0.0
 10
131.360000
 20
34.720000
 30
0.0
  0
SPLINE
  5
166
100
AcDbEntity
  8
0
 62
7
100
AcDbSpline
 70
8
 71
3
 72
8
 73
4
 74
0
 40
0
 40
0
 40
0
 40
0
 40
1
 40
1
 40
1
 40
1
 10
131.360000
 20
34.720000
 30
0.0
 10
131.440000
 20
36.080000
 30
0.0
 10
133.120000
 20
36.800000
 30
0.0
 10
133.200000
 20
38.240000
 30
0.0
  0
SPLINE
  5
167
100
AcDbEntity
  8
0
 62
7
100
AcDbSpline
 70
8
 71
3
 72
8
 73
4
 74
0
 40
0
 40
0
 40
0
 40
0
 40
1
 40
1
 40
1
 40
1
 10
133.200000
 20
38.240000
 30
0.0
 10
133.360000
 20
39.600000
 30
0.0
 10
132.000000
 20
41.600000
 30
0.0
 10
132.080000
 20
43.040000
 30
0.0
  0
SPLINE
  5
168
100
AcDbEntity
  8
0
 62
7
100
AcDbSpline
 70
8
 71
3
 72
8
 73
4
 74
0
 40
0
 40
0
 40
0
 40
0
 40
1
 40
1
 40
1
 40
1
 10
132.080000
 20
43.040000
 30
0.0
 10
132.080000
 20
44.000000
 30
0.0
 10
133.440000
 20
44.960000
 30
0.0
 10
133.520000
 20
45.840000
 30
0.0
  0
SPLINE
  5
169
100
AcDbEntity
  8
0
 62
7
100
AcDbSpline
 70
8
 71
3
 72
8
 73
4
 74
0
 40
0
 40
0
 40
0
 40
0
 40
1
 40
1
 40
1
 40
1
 10
133.520000
 20
45.840000
 30
0.0
 10
133.600000
 20
47.200000
 30
0.0
 10
132.640000
 20
48.960000
 30
0.0
 10
132.720000
 20
50.240000
 30
0.0
  0
SPLINE
  5
16a
100
AcDbEntity
  8
0
 62
7
100
AcDbSpline
 70
8
 71
3
 72
8
 73
4
 74
0
 40
0
 40
0
 40
0
 40
0
 40
1
 40
1
 40
1
 40
1
 10
132.720000
 20
50.240000
 30
0.0
 10
132.800000
 20
51.280000
 30
0.0
 10
134.560000
 20
52.880000
 30
0.0
 10
134.640000
 20
53.920000
 30
0.0
  0
SPLINE
  5
16b
100
AcDbEntity
  8
0
 62
7
100
AcDbSpline
 70
8
 71
3
 72
8
 73
4
 74
0
 40
0
 40
0
 40
0
 40
0
 40
1
 40
1
 40
1
 40
1
 10
134.640000
 20
53.920000
 30
0.0
 10
134.720000
 20
55.520000
 30
0.0
 10
133.120000
 20
57.680000
 30
0.0
 10
133.200000
 20
58.640000
 30
0.0
  0
SPLINE
  5
16c
100
AcDbEntity
  8
0
 62
7
100
AcDbSpline
 70
8
 71
3
 72
8
 73
4
 74
0
 40
0
 40
0
 40
0
 40
0
 40
1
 40
1
 40
1
 40
1
 10
133.200000
 20
58.640000
 30
0.0
 10
133.440000
 20
60.160000
 30
0.0
 10
134.640000
 20
61.200000
 30
0.0
 10
134.720000
 20
62.720000
 30
0.0
  0
SPLINE
  5
16d
100
AcDbEntity
  8
0
 62
7
100
AcDbSpline
 70
8
 71
3
 72
8
 73
4
 74
0
 40
0
 40
0
 40
0
 40
0
 40
1
 40
1
 40
1
 40
1
 10
134.720000
 20
62.720000
 30
0.0
 10
134.800000
 20
64.160000
 30
0.0
 10
133.040000
 20
65.840000
 30
0.0
 10
133.120000
 20
67.280000
 30
0.0
  0
SPLINE
  5
16e
100
AcDbEntity
  8
0
 62
7
100
AcDbSpline
 70
8
 71
3
 72
8
 73
4
 74
0
 40
0
 40
0
 40
0
 40
0
 40
1
 40
1
 40
1
 40
1
 10
133.120000
 20
67.280000
 30
0.0
 10
133.280000
 20
69.120000
 30
0.0
 10
134.640000
 20
69.360000
 30
0.0
 10
134.640000
 20
71.200000
 30
0.0
  0
SPLINE
  5
16f
100
AcDbEntity
  8
0
 62
7
100
AcDbSpline
 70
8
 71
3
 72
8
 73
4
 74
0
 40
0
 40
0
 40
0
 40
0
 40
1
 40
1
 40
1
 40
1
 10
134.640000
 20
71.200000
 30
0.0
 10
134.800000
 20
74.240000
 30
0.0
 10
132.800000
 20
75.280000
 30
0.0
 10
132.800000
 20
78.320000
 30
0.0
  0
SPLINE
  5
170
100
AcDbEntity
  8
0
 62
7
100
AcDbSpline
 70
8
 71
3
 72
8
 73
4
 74
0
 40
0
 40
0
 40
0
 40
0
 40
1
 40
1
 40
1
 40
1
 10
132.800000
 20
78.320000
 30
0.0
 10
132.000000
 20
75.360000
 30
0.0
 10
133.200000
 20
74.480000
 30
0.0
 10
132.400000
 20
71.600000
 30
0.0
  0
SPLINE
  5
171
100
AcDbEntity
  8
0
 62
7
100
AcDbSpline
 70
8
 71
3
 72
8
 73
4
 74
0
 40
0
 40
0
 40
0
 40
0
 40
1
 40
1
 40
1
 40
1
 10
132.400000
 20
71.600000
 30
0.0
 10
131.920000
 20
69.760000
 30
0.0
 10
130.160000
 20
69.520000
 30
0.0
 10
129.680000
 20
67.680000
 30
0.0
  0
SPLINE
  5
172
100
AcDbEntity
  8
0
 62
7
100
AcDbSpline
 70
8
 71
3
 72
8
 73
4
 74
0
 40
0
 40
0
 40
0
 40
0
 40
1
 40
1
 40
1
 40
1
 10
129.680000
 20
67.680000
 30
0.0
 10
129.280000
 20
66.400000
 30
0.0
 10
130.800000
 20
64.720000
 30
0.0
 10
130.400000
 20
63.360000
 30
0.0
  0
SPLINE
  5
173
100
AcDbEntity
  8
0
 62
7
100
AcDbSpline
 70
8
 71
3
 72
8
 73
4
 74
0
 40
0
 40
0
 40
0
 40
0
 40
1
 40
1
 40
1
 40
1
 10
130.400000
 20
63.360000
 30
0.0
 10
130.080000
 20
61.920000
 30
0.0
 10
128.400000
 20
60.960000
 30
0.0
 10
128.000000
 20
59.520000
 30
0.0
  0
SPLINE
  5
174
100
AcDbEntity
  8
0
 62
7
100
AcDbSpline
 70
8
 71
3
 72
8
 73
4
 74
0
 40
0
 40
0
 40
0
 40
0
 40
1
 40
1
 40
1
 40
1
 10
128.000000
 20
59.520000
 30
0.0
 10
127.600000
 20
58.160000
 30
0.0
 10
128.720000
 20
56.240000
 30
0.0
 10
128.400000
 20
54.880000
 30
0.0
  0
SPLINE
  5
175
100
AcDbEntity
  8
0
 62
7
100
AcDbSpline
 70
8
 71
3
 72
8
 73
4
 74
0
 40
0
 40
0
 40
0
 40
0
 40
1
 40
1
 40
1
 40
1
 10
128.400000
 20
54.880000
 30
0.0
 10
128.080000
 20
53.840000
 30
0.0
 10
126.160000
 20
52.320000
 30
0.0
 10
125.920000
 20
51.280000
 30
0.0
  0
SPLINE
  5
176
100
AcDbEntity
  8
0
 62
7
100
AcDbSpline
 70
8
 71
3
 72
8
 73
4
 74
0
 40
0
 40
0
 40
0
 40
0
 40
1
 40
1
 40
1
 40
1
 10
125.920000
 20
51.280000
 30
0.0
 10
125.520000
 20
50.080000
 30
0.0
 10
126.320000
 20
48.080000
 30
0.0
 10
126.080000
 20
46.960000
 30
0.0
  0
SPLINE
  5
177
100
AcDbEntity
  8
0
 62
7
100
AcDbSpline
 70
8
 71
3
 72
8
 73
4
 74
0
 40
0
 40
0
 40
0
 40
0
 40
1
 40
1
 40
1
 40
1
 10
126.080000
 20
46.960000
 30
0.0
 10
125.760000
 20
45.840000
 30
0.0
 10
124.160000
 20
45.280000
 30
0.0
 10
123.840000
 20
44.320000
 30
0.0
  0
SPLINE
  5
178
100
AcDbEntity
  8
0
 62
7
100
AcDbSpline
 70
8
 71
3
 72
8
 73
4
 74
0
 40
0
 40
0
 40
0
 40
0
 40
1
 40
1
 40
1
 40
1
 10
123.840000
 20
44.320000
 30
0.0
 10
123.520000
 20
42.960000
 30
0.0
 10
124.560000
 20
40.960000
 30
0.0
 10
124.240000
 20
39.680000
 30
0.0
  0
SPLINE
  5
179
100
AcDbEntity
  8
0
 62
7
100
AcDbSpline
 70
8
 71
3
 72
8
 73
4
 74
0
 40
0
 40
0
 40
0
 40
0
 40
1
 40
1
 40
1
 40
1
 10
124.240000
 20
39.680000
 30
0.0
 10
123.920000
 20
38.480000
 30
0.0
 10
122.240000
 20
37.680000
 30
0.0
 10
121.920000
 20
36.480000
 30
0.0
  0
SPLINE
  5
17a
100
AcDbEntity
  8
0
 62
7
100
AcDbSpline
 70
8
 71
3
 72
8
 73
4
 74
0
 40
0
 40
0
 40
0
 40
0
 40
1
 40
1
 40
1
 40
1
 10
121.920000
 20
36.480000
 30
0.0
 10
121.520000
 20
34.880000
 30
0.0
 10
122.960000
 20
33.280000
 30
0.0
 10
122.480000
 20
31.680000
 30
0.0
  0
SPLINE
  5
17b
100
AcDbEntity
  8
0
 62
7
100
AcDbSpline
 70
8
 71
3
 72
8
 73
4
 74
0
 40
0
 40
0
 40
0
 40
0
 40
1
 40
1
 40
1
 40
1
 10
122.480000
 20
31.680000
 30
0.0
 10
122.400000
 20
31.200000
 30
0.0
 10
122.080000
 20
30.800000
 30
0.0
 10
121.760000
 20
30.320000
 30
0.0
  0
SPLINE
  5
17c
100
AcDbEntity
  8
0
 62
7
100
AcDbSpline
 70
8
 71
3
 72
8
 73
4
 74
0
 40
0
 40
0
 40
0
 40
0
 40
1
 40
1
 40
1
 40
1
 10
121.760000
 20
30.320000
 30
0.0
 10
121.200000
 20
30.320000
 30
0.0
 10
120.640000
 20
30.400000
 30
0.0
 10
120.080000
 20
30.400000
 30
0.0
  0
SPLINE
  5
17d
100
AcDbEntity
  8
0
 62
7
100
AcDbSpline
 70
8
 71
3
 72
8
 73
4
 74
0
 40
0
 40
0
 40
0
 40
0
 40
1
 40
1
 40
1
 40
1
 10
120.080000
 20
30.400000
 30
0.0
 10
119.840000
 20
30.400000
 30
0.0
 10
119.520000
 20
30.400000
 30
0.0
 10
119.280000
 20
30.400000
 30
0.0
  0
SPLINE
  5
17e
100
AcDbEntity
  8
0
 62
7
100
AcDbSpline
 70
8
 71
3
 72
8
 73
4
 74
0
 40
0
 40
0
 40
0
 40
0
 40
1
 40
1
 40
1
 40
1
 10
119.280000
 20
30.400000
 30
0.0
 10
119.280000
 20
31.040000
 30
0.0
 10
119.280000
 20
31.680000
 30
0.0
 10
119.040000
 20
32.240000
 30
0.0
  0
SPLINE
  5
17f
100
AcDbEntity
  8
0
 62
7
100
AcDbSpline
 70
8
 71
3
 72
8
 73
4
 74
0
 40
0
 40
0
 40
0
 40
0
 40
1
 40
1
 40
1
 40
1
 10
119.040000
 20
32.240000
 30
0.0
 10
118.560000
 20
33.680000
 30
0.0
 10
116.400000
 20
34.800000
 30
0.0
 10
115.920000
 20
36.240000
 30
0.0
  0
SPLINE
  5
180
100
AcDbEntity
  8
0
 62
7
100
AcDbSpline
 70
8
 71
3
 72
8
 73
4
 74
0
 40
0
 40
0
 40
0
 40
0
 40
1
 40
1
 40
1
 40
1
 10
115.920000
 20
36.240000
 30
0.0
 10
115.440000
 20
37.520000
 30
0.0
 10
116.640000
 20
38.880000
 30
0.0
 10
116.160000
 20
40.160000
 30
0.0
  0
SPLINE
  5
181
100
AcDbEntity
  8
0
 62
7
100
AcDbSpline
 70
8
 71
3
 72
8
 73
4
 74
0
 40
0
 40
0
 40
0
 40
0
 40
1
 40
1
 40
1
 40
1
 10
116.160000
 20
40.160000
 30
0.0
 10
115.760000
 20
41.520000
 30
0.0
 10
113.680000
 20
42.800000
 30
0.0
 10
113.200000
 20
44.240000
 30
0.0
  0
SPLINE
  5
182
100
AcDbEntity
  8
0
 62
7
100
AcDbSpline
 70
8
 71
3
 72
8
 73
4
 74
0
 40
0
 40
0
 40
0
 40
0
 40
1
 40
1
 40
1
 40
1
 10
113.200000
 20
44.240000
 30
0.0
 10
112.880000
 20
45.200000
 30
0.0
 10
113.760000
 20
46.560000
 30
0.0
 10
113.440000
 20
47.440000
 30
0.0
  0
SPLINE
  5
183
100
AcDbEntity
  8
0
 62
7
100
AcDbSpline
 70
8
 71
3
 72
8
 73
4
 74
0
 40
0
 40
0
 40
0
 40
0
 40
1
 40
1
 40
1
 40
1
 10
113.440000
 20
47.440000
 30
0.0
 10
113.040000
 20
48.640000
 30
0.0
 10
111.440000
 20
49.920000
 30
0.0
 10
110.960000
 20
51.120000
 30
0.0
  0
SPLINE
  5
184
100
AcDbEntity
  8
0
 62
7
100
AcDbSpline
 70
8
 71
3
 72
8
 73
4
 74
0
 40
0
 40
0
 40
0
 40
0
 40
1
 40
1
 40
1
 40
1
 10
110.960000
 20
51.120000
 30
0.0
 10
110.640000
 20
52.160000
 30
0.0
 10
111.520000
 20
54.320000
 30
0.0
 10
111.200000
 20
55.280000
 30
0.0
  0
SPLINE
  5
185
100
AcDbEntity
  8
0
 62
7
100
AcDbSpline
 70
8
 71
3
 72
8
 73
4
 74
0
 40
0
 40
0
 40
0
 40
0
 40
1
 40
1
 40
1
 40
1
 10
111.200000
 20
55.280000
 30
0.0
 10
110.640000
 20
56.720000
 30
0.0
 10
108.320000
 20
58.080000
 30
0.0
 10
108.000000
 20
59.040000
 30
0.0
  0
SPLINE
  5
186
100
AcDbEntity
  8
0
 62
7
100
AcDbSpline
 70
8
 71
3
 72
8
 73
4
 74
0
 40
0
 40
0
 40
0
 40
0
 40
1
 40
1
 40
1
 40
1
 10
108.000000
 20
59.040000
 30
0.0
 10
107.600000
 20
60.480000
 30
0.0
 10
108.320000
 20
61.920000
 30
0.0
 10
107.760000
 20
63.280000
 30
0.0
  0
SPLINE
  5
187
100
AcDbEntity
  8
0
 62
7
100
AcDbSpline
 70
8
 71
3
 72
8
 73
4
 74
0
 40
0
 40
0
 40
0
 40
0
 40
1
 40
1
 40
1
 40
1
 10
107.760000
 20
63.280000
 30
0.0
 10
107.280000
 20
64.640000
 30
0.0
 10
105.040000
 20
65.520000
 30
0.0
 10
104.480000
 20
66.800000
 30
0.0
  0
SPLINE
  5
188
100
AcDbEntity
  8
0
 62
7
100
AcDbSpline
 70
8
 71
3
 72
8
 73
4
 74
0
 40
0
 40
0
 40
0
 40
0
 40
1
 40
1
 40
1
 40
1
 10
104.480000
 20
66.800000
 30
0.0
 10
103.920000
 20
68.480000
 30
0.0
 10
104.960000
 20
69.360000
 30
0.0
 10
104.320000
 20
70.960000
 30
0.0
  0
SPLINE
  5
189
100
AcDbEntity
  8
0
 62
7
100
AcDbSpline
 70
8
 71
3
 72
8
 73
4
 74
0
 40
0
 40
0
 40
0
 40
0
 40
1
 40
1
 40
1
 40
1
 10
104.320000
 20
70.960000
 30
0.0
 10
103.200000
 20
73.760000
 30
0.0
 10
100.960000
 20
73.920000
 30
0.0
 10
99.840000
 20
76.720000
 30
0.0
  0
SPLINE
  5
18a
100
AcDbEntity
  8
0
 62
7
100
AcDbSpline
 70
8
 71
3
 72
8
 73
4
 74
0
 40
0
 40
0
 40
0
 40
0
 40
1
 40
1
 40
1
 40
1
 10
99.840000
 20
76.720000
 30
0.0
 10
100.240000
 20
73.680000
 30
0.0
 10
101.760000
 20
73.360000
 30
0.0
 10
102.160000
 20
70.320000
 30
0.0
  0
SPLINE
  5
18b
100
AcDbEntity
  8
0
 62
7
100
AcDbSpline
 70
8
 71
3
 72
8
 73
4
 74
0
 40
0
 40
0
 40
0
 40
0
 40
1
 40
1
 40
1
 40
1
 10
102.160000
 20
70.320000
 30
0.0
 10
102.480000
 20
68.480000
 30
0.0
 10
100.960000
 20
67.520000
 30
0.0
 10
101.280000
 20
65.680000
 30
0.0
  0
SPLINE
  5
18c
100
AcDbEntity
  8
0
 62
7
100
AcDbSpline
 70
8
 71
3
 72
8
 73
4
 74
0
 40
0
 40
0
 40
0
 40
0
 40
1
 40
1
 40
1
 40
1
 10
101.280000
 20
65.680000
 30
0.0
 10
101.440000
 20
64.320000
 30
0.0
 10
103.440000
 20
63.360000
 30
0.0
 10
103.680000
 20
62.000000
 30
0.0
  0
SPLINE
  5
18d
100
AcDbEntity
  8
0
 62
7
100
AcDbSpline
 70
8
 71
3
 72
8
 73
4
 74
0
 40
0
 40
0
 40
0
 40
0
 40
1
 40
1
 40
1
 40
1
 10
103.680000
 20
62.000000
 30
0.0
 10
103.920000
 20
60.560000
 30
0.0
 10
102.720000
 20
59.040000
 30
0.0
 10
102.960000
 20
57.520000
 30
0.0
  0
SPLINE
  5
18e
100
AcDbEntity
  8
0
 62
7
100
AcDbSpline
 70
8
 71
3
 72
8
 73
4
 74
0
 40
0
 40
0
 40
0
 40
0
 40
1
 40
1
 40
1
 40
1
 10
102.960000
 20
57.520000
 30
0.0
 10
103.200000
 20
56.160000
 30
0.0
 10
104.960000
 20
54.880000
 30
0.0
 10
105.200000
 20
53.360000
 30
0.0
  0
SPLINE
  5
18f
100
AcDbEntity
  8
0
 62
7
100
AcDbSpline
 70
8
 71
3
 72
8
 73
4
 74
0
 40
0
 40
0
 40
0
 40
0
 40
1
 40
1
 40
1
 40
1
 10
105.200000
 20
53.360000
 30
0.0
 10
105.280000
 20
52.320000
 30
0.0
 10
104.160000
 20
50.080000
 30
0.0
 10
104.320000
 20
49.120000
 30
0.0
  0
SPLINE
  5
190
100
AcDbEntity
  8
0
 62
7
100
AcDbSpline
 70
8
 71
3
 72
8
 73
4
 74
0
 40
0
 40
0
 40
0
 40
0
 40
1
 40
1
 40
1
 40
1
 10
104.320000
 20
49.120000
 30
0.0
 10
104.560000
 20
47.920000
 30
0.0
 10
106.080000
 20
46.400000
 30
0.0
 10
106.240000
 20
45.200000
 30
0.0
  0
SPLINE
  5
191
100
AcDbEntity
  8
0
 62
7
100
AcDbSpline
 70
8
 71
3
 72
8
 73
4
 74
0
 40
0
 40
0
 40
0
 40
0
 40
1
 40
1
 40
1
 40
1
 10
106.240000
 20
45.200000
 30
0.0
 10
106.480000
 20
44.080000
 30
0.0
 10
105.120000
 20
42.880000
 30
0.0
 10
105.280000
 20
41.840000
 30
0.0
  0
SPLINE
  5
192
100
AcDbEntity
  8
0
 62
7
100
AcDbSpline
 70
8
 71
3
 72
8
 73
4
 74
0
 40
0
 40
0
 40
0
 40
0
 40
1
 40
1
 40
1
 40
1
 10
105.280000
 20
41.840000
 30
0.0
 10
105.520000
 20
40.480000
 30
0.0
 10
107.200000
 20
39.120000
 30
0.0
 10
107.440000
 20
37.680000
 30
0.0
  0
SPLINE
  5
193
100
AcDbEntity
  8
0
 62
7
100
AcDbSpline
 70
8
 71
3
 72
8
 73
4
 74
0
 40
0
 40
0
 40
0
 40
0
 40
1
 40
1
 40
1
 40
1
 10
107.440000
 20
37.680000
 30
0.0
 10
107.600000
 20
36.480000
 30
0.0
 10
106.320000
 20
35.040000
 30
0.0
 10
106.560000
 20
33.840000
 30
0.0
  0
SPLINE
  5
194
100
AcDbEntity
  8
0
 62
7
100
AcDbSpline
 70
8
 71
3
 72
8
 73
4
 74
0
 40
0
 40
0
 40
0
 40
0
 40
1
 40
1
 40
1
 40
1
 10
106.560000
 20
33.840000
 30
0.0
 10
106.800000
 20
32.240000
 30
0.0
 10
108.720000
 20
31.280000
 30
0.0
 10
108.960000
 20
29.760000
 30
0.0
  0
SPLINE
  5
195
100
AcDbEntity
  8
0
 62
7
100
AcDbSpline
 70
8
 71
3
 72
8
 73
4
 74
0
 40
0
 40
0
 40
0
 40
0
 40
1
 40
1
 40
1
 40
1
 10
108.960000
 20
29.760000
 30
0.0
 10
109.040000
 20
29.280000
 30
0.0
 10
108.960000
 20
28.800000
 30
0.0
 10
108.800000
 20
28.240000
 30
0.0
  0
SPLINE
  5
196
100
AcDbEntity
  8
0
 62
7
100
AcDbSpline
 70
8
 71
3
 72
8
 73
4
 74
0
 40
0
 40
0
 40
0
 40
0
 40
1
 40
1
 40
1
 40
1
 10
108.800000
 20
28.240000
 30
0.0
 10
108.240000
 20
28.000000
 30
0.0
 10
107.600000
 20
27.760000
 30
0.0
 10
107.040000
 20
27.520000
 30
0.0
  0
SPLINE
  5
197
100
AcDbEntity
  8
0
 62
7
100
AcDbSpline
 70
8
 71
3
 72
8
 73
4
 74
0
 40
0
 40
0
 40
0
 40
0
 40
1
 40
1
 40
1
 40
1
 10
107.040000
 20
27.520000
 30
0.0
 10
106.800000
 20
28.080000
 30
0.0
 10
106.560000
 20
28.640000
 30
0.0
 10
106.160000
 20
29.120000
 30
0.0
  0
SPLINE
  5
198
100
AcDbEntity
  8
0
 62
7
100
AcDbSpline
 70
8
 71
3
 72
8
 73
4
 74
0
 40
0
 40
0
 40
0
 40
0
 40
1
 40
1
 40
1
 40
1
 10
106.160000
 20
29.120000
 30
0.0
 10
105.120000
 20
30.240000
 30
0.0
 10
102.800000
 20
30.400000
 30
0.0
 10
101.760000
 20
31.600000
 30
0.0
  0
SPLINE
  5
199
100
AcDbEntity
  8
0
 62
7
100
AcDbSpline
 70
8
 71
3
 72
8
 73
4
 74
0
 40
0
 40
0
 40
0
 40
0
 40
1
 40
1
 40
1
 40
1
 10
101.760000
 20
31.600000
 30
0.0
 10
100.800000
 20
32.640000
 30
0.0
 10
101.440000
 20
34.320000
 30
0.0
 10
100.560000
 20
35.360000
 30
0.0
  0
SPLINE
  5
19a
100
AcDbEntity
  8
0
 62
7
100
AcDbSpline
 70
8
 71
3
 72
8
 73
4
 74
0
 40
0
 40
0
 40
0
 40
0
 40
1
 40
1
 40
1
 40
1
 10
100.560000
 20
35.360000
 30
0.0
 10
99.520000
 20
36.480000
 30
0.0
 10
97.200000
 20
36.880000
 30
0.0
 10
96.240000
 20
38.000000
 30
0.0
  0
SPLINE
  5
19b
100
AcDbEntity
  8
0
 62
7
100
AcDbSpline
 70
8
 71
3
 72
8
 73
4
 74
0
 40
0
 40
0
 40
0
 40
0
 40
1
 40
1
 40
1
 40
1
 10
96.240000
 20
38.000000
 30
0.0
 10
95.600000
 20
38.720000
 30
0.0
 10
95.840000
 20
40.320000
 30
0.0
 10
95.200000
 20
41.040000
 30
0.0
  0
SPLINE
  5
19c
100
AcDbEntity
  8
0
 62
7
100
AcDbSpline
 70
8
 71
3
 72
8
 73
4
 74
0
 40
0
 40
0
 40
0
 40
0
 40
1
 40
1
 40
1
 40
1
 10
95.200000
 20
41.040000
 30
0.0
 10
94.320000
 20
42.000000
 30
0.0
 10
92.400000
 20
42.480000
 30
0.0
 10
91.520000
 20
43.520000
 30
0.0
  0
SPLINE
  5
19d
100
AcDbEntity
  8
0
 62
7
100
AcDbSpline
 70
8
 71
3
 72
8
 73
4
 74
0
 40
0
 40
0
 40
0
 40
0
 40
1
 40
1
 40
1
 40
1
 10
91.520000
 20
43.520000
 30
0.0
 10
90.800000
 20
44.240000
 30
0.0
 10
90.800000
 20
46.640000
 30
0.0
 10
90.160000
 20
47.440000
 30
0.0
  0
SPLINE
  5
19e
100
AcDbEntity
  8
0
 62
7
100
AcDbSpline
 70
8
 71
3
 72
8
 73
4
 74
0
 40
0
 40
0
 40
0
 40
0
 40
1
 40
1
 40
1
 40
1
 10
90.160000
 20
47.440000
 30
0.0
 10
89.040000
 20
48.560000
 30
0.0
 10
86.400000
 20
48.960000
 30
0.0
 10
85.840000
 20
49.680000
 30
0.0
  0
SPLINE
  5
19f
100
AcDbEntity
  8
0
 62
7
100
AcDbSpline
 70
8
 71
3
 72
8
 73
4
 74
0
 40
0
 40
0
 40
0
 40
0
 40
1
 40
1
 40
1
 40
1
 10
85.840000
 20
49.680000
 30
0.0
 10
84.800000
 20
50.800000
 30
0.0
 10
84.960000
 20
52.480000
 30
0.0
 10
83.920000
 20
53.600000
 30
0.0
  0
SPLINE
  5
1a0
100
AcDbEntity
  8
0
 62
7
100
AcDbSpline
 70
8
 71
3
 72
8
 73
4
 74
0
 40
0
 40
0
 40
0
 40
0
 40
1
 40
1
 40
1
 40
1
 10
83.920000
 20
53.600000
 30
0.0
 10
82.960000
 20
54.720000
 30
0.0
 10
80.480000
 20
54.640000
 30
0.0
 10
79.600000
 20
55.600000
 30
0.0
  0
SPLINE
  5
1a1
100
AcDbEntity
  8
0
 62
7
100
AcDbSpline
 70
8
 71
3
 72
8
 73
4
 74
0
 40
0
 40
0
 40
0
 40
0
 40
1
 40
1
 40
1
 40
1
 10
79.600000
 20
55.600000
 30
0.0
 10
78.400000
 20
56.880000
 30
0.0
 10
79.120000
 20
58.160000
 30
0.0
 10
77.840000
 20
59.440000
 30
0.0
  0
SPLINE
  5
1a2
100
AcDbEntity
  8
0
 62
7
100
AcDbSpline
 70
8
 71
3
 72
8
 73
4
 74
0
 40
0
 40
0
 40
0
 40
0
 40
1
 40
1
 40
1
 40
1
 10
77.840000
 20
59.440000
 30
0.0
 10
75.760000
 20
61.600000
 30
0.0
 10
73.600000
 20
60.880000
 30
0.0
 10
71.440000
 20
63.040000
 30
0.0
  0
SPLINE
  5
1a3
100
AcDbEntity
  8
0
 62
7
100
AcDbSpline
 70
8
 71
3
 72
8
 73
4
 74
0
 40
0
 40
0
 40
0
 40
0
 40
1
 40
1
 40
1
 40
1
 10
71.440000
 20
63.040000
 30
0.0
 10
72.960000
 20
60.400000
 30
0.0
 10
74.400000
 20
60.640000
 30
0.0
 10
76.000000
 20
58.080000
 30
0.0
  0
SPLINE
  5
1a4
100
AcDbEntity
  8
0
 62
7
100
AcDbSpline
 70
8
 71
3
 72
8
 73
4
 74
0
 40
0
 40
0
 40
0
 40
0
 40
1
 40
1
 40
1
 40
1
 10
76.000000
 20
58.080000
 30
0.0
 10
76.960000
 20
56.480000
 30
0.0
 10
76.000000
 20
55.040000
 30
0.0
 10
76.960000
 20
53.520000
 30
0.0
  0
SPLINE
  5
1a5
100
AcDbEntity
  8
0
 62
7
100
AcDbSpline
 70
8
 71
3
 72
8
 73
4
 74
0
 40
0
 40
0
 40
0
 40
0
 40
1
 40
1
 40
1
 40
1
 10
76.960000
 20
53.520000
 30
0.0
 10
77.680000
 20
52.320000
 30
0.0
 10
79.840000
 20
52.240000
 30
0.0
 10
80.560000
 20
50.960000
 30
0.0
  0
SPLINE
  5
1a6
100
AcDbEntity
  8
0
 62
7
100
AcDbSpline
 70
8
 71
3
 72
8
 73
4
 74
0
 40
0
 40
0
 40
0
 40
0
 40
1
 40
1
 40
1
 40
1
 10
80.560000
 20
50.960000
 30
0.0
 10
81.280000
 20
49.680000
 30
0.0
 10
80.960000
 20
47.840000
 30
0.0
 10
81.680000
 20
46.560000
 30
0.0
  0
SPLINE
  5
1a7
100
AcDbEntity
  8
0
 62
7
100
AcDbSpline
 70
8
 71
3
 72
8
 73
4
 74
0
 40
0
 40
0
 40
0
 40
0
 40
1
 40
1
 40
1
 40
1
 10
81.680000
 20
46.560000
 30
0.0
 10
82.400000
 20
45.360000
 30
0.0
 10
84.560000
 20
44.800000
 30
0.0
 10
85.280000
 20
43.600000
 30
0.0
  0
SPLINE
  5
1a8
100
AcDbEntity
  8
0
 62
7
100
AcDbSpline
 70
8
 71
3
 72
8
 73
4
 74
0
 40
0
 40
0
 40
0
 40
0
 40
1
 40
1
 40
1
 40
1
 10
85.280000
 20
43.600000
 30
0.0
 10
85.760000
 20
42.640000
 30
0.0
 10
85.600000
 20
40.240000
 30
0.0
 10
86.160000
 20
39.360000
 30
0.0
  0
SPLINE
  5
1a9
100
AcDbEntity
  8
0
 62
7
100
AcDbSpline
 70
8
 71
3
 72
8
 73
4
 74
0
 40
0
 40
0
 40
0
 40
0
 40
1
 40
1
 40
1
 40
1
 10
86.160000
 20
39.360000
 30
0.0
 10
86.800000
 20
38.320000
 30
0.0
 10
88.800000
 20
37.520000
 30
0.0
 10
89.440000
 20
36.400000
 30
0.0
  0
SPLINE
  5
1aa
100
AcDbEntity
  8
0
 62
7
100
AcDbSpline
 70
8
 71
3
 72
8
 73
4
 74
0
 40
0
 40
0
 40
0
 40
0
 40
1
 40
1
 40
1
 40
1
 10
89.440000
 20
36.400000
 30
0.0
 10
89.920000
 20
35.520000
 30
0.0
 10
89.200000
 20
33.920000
 30
0.0
 10
89.840000
 20
33.040000
 30
0.0
  0
SPLINE
  5
1ab
100
AcDbEntity
  8
0
 62
7
100
AcDbSpline
 70
8
 71
3
 72
8
 73
4
 74
0
 40
0
 40
0
 40
0
 40
0
 40
1
 40
1
 40
1
 40
1
 10
89.840000
 20
33.040000
 30
0.0
 10
90.560000
 20
31.840000
 30
0.0
 10
92.640000
 20
31.200000
 30
0.0
 10
93.360000
 20
30.080000
 30
0.0
  0
SPLINE
  5
1ac
100
AcDbEntity
  8
0
 62
7
100
AcDbSpline
 70
8
 71
3
 72
8
 73
4
 74
0
 40
0
 40
0
 40
0
 40
0
 40
1
 40
1
 40
1
 40
1
 10
93.360000
 20
30.080000
 30
0.0
 10
94.000000
 20
28.960000
 30
0.0
 10
93.360000
 20
27.200000
 30
0.0
 10
94.000000
 20
26.160000
 30
0.0
  0
SPLINE
  5
1ad
100
AcDbEntity
  8
0
 62
7
100
AcDbSpline
 70
8
 71
3
 72
8
 73
4
 74
0
 40
0
 40
0
 40
0
 40
0
 40
1
 40
1
 40
1
 40
1
 10
94.000000
 20
26.160000
 30
0.0
 10
94.880000
 20
24.800000
 30
0.0
 10
97.040000
 20
24.640000
 30
0.0
 10
97.840000
 20
23.280000
 30
0.0
  0
SPLINE
  5
1ae
100
AcDbEntity
  8
0
 62
7
100
AcDbSpline
 70
8
 71
3
 72
8
 73
4
 74
0
 40
0
 40
0
 40
0
 40
0
 40
1
 40
1
 40
1
 40
1
 10
97.840000
 20
23.280000
 30
0.0
 10
98.080000
 20
22.880000
 30
0.0
 10
98.240000
 20
22.320000
 30
0.0
 10
98.320000
 20
21.840000
 30
0.0
  0
SPLINE
  5
1af
100
AcDbEntity
  8
0
 62
7
100
AcDbSpline
 70
8
 71
3
 72
8
 73
4
 74
0
 40
0
 40
0
 40
0
 40
0
 40
1
 40
1
 40
1
 40
1
 10
98.320000
 20
21.840000
 30
0.0
 10
97.840000
 20
21.440000
 30
0.0
 10
97.440000
 20
20.960000
 30
0.0
 10
96.960000
 20
20.480000
 30
0.0
  0
SPLINE
  5
1b0
100
AcDbEntity
  8
0
 62
7
100
AcDbSpline
 70
8
 71
3
 72
8
 73
4
 74
0
 40
0
 40
0
 40
0
 40
0
 40
1
 40
1
 40
1
 40
1
 10
96.960000
 20
20.480000
 30
0.0
 10
96.560000
 20
20.960000
 30
0.0
 10
96.080000
 20
21.360000
 30
0.0
 10
95.520000
 20
21.600000
 30
0.0
  0
SPLINE
  5
1b1
100
AcDbEntity
  8
0
 62
7
100
AcDbSpline
 70
8
 71
3
 72
8
 73
4
 74
0
 40
0
 40
0
 40
0
 40
0
 40
1
 40
1
 40
1
 40
1
 10
95.520000
 20
21.600000
 30
0.0
 10
94.160000
 20
22.240000
 30
0.0
 10
91.920000
 20
21.600000
 30
0.0
 10
90.480000
 20
22.240000
 30
0.0
  0
SPLINE
  5
1b2
100
AcDbEntity
  8
0
 62
7
100
AcDbSpline
 70
8
 71
3
 72
8
 73
4
 74
0
 40
0
 40
0
 40
0
 40
0
 40
1
 40
1
 40
1
 40
1
 10
90.480000
 20
22.240000
 30
0.0
 10
89.200000
 20
22.800000
 30
0.0
 10
89.120000
 20
24.640000
 30
0.0
 10
87.840000
 20
25.200000
 30
0.0
  0
SPLINE
  5
1b3
100
AcDbEntity
  8
0
 62
7
100
AcDbSpline
 70
8
 71
3
 72
8
 73
4
 74
0
 40
0
 40
0
 40
0
 40
0
 40
1
 40
1
 40
1
 40
1
 10
87.840000
 20
25.200000
 30
0.0
 10
86.560000
 20
25.760000
 30
0.0
 10
84.160000
 20
25.360000
 30
0.0
 10
82.800000
 20
25.920000
 30
0.0
  0
SPLINE
  5
1b4
100
AcDbEntity
  8
0
 62
7
100
AcDbSpline
 70
8
 71
3
 72
8
 73
4
 74
0
 40
0
 40
0
 40
0
 40
0
 40
1
 40
1
 40
1
 40
1
 10
82.800000
 20
25.920000
 30
0.0
 10
81.920000
 20
26.320000
 30
0.0
 10
81.680000
 20
27.920000
 30
0.0
 10
80.720000
 20
28.400000
 30
0.0
  0
SPLINE
  5
1b5
100
AcDbEntity
  8
0
 62
7
100
AcDbSpline
 70
8
 71
3
 72
8
 73
4
 74
0
 40
0
 40
0
 40
0
 40
0
 40
1
 40
1
 40
1
 40
1
 10
80.720000
 20
28.400000
 30
0.0
 10
79.600000
 20
28.960000
 30
0.0
 10
77.520000
 20
28.720000
 30
0.0
 10
76.400000
 20
29.280000
 30
0.0
  0
SPLINE
  5
1b6
100
AcDbEntity
  8
0
 62
7
100
AcDbSpline
 70
8
 71
3
 72
8
 73
4
 74
0
 40
0
 40
0
 40
0
 40
0
 40
1
 40
1
 40
1
 40
1
 10
76.400000
 20
29.280000
 30
0.0
 10
75.440000
 20
29.760000
 30
0.0
 10
74.560000
 20
31.920000
 30
0.0
 10
73.600000
 20
32.400000
 30
0.0
  0
SPLINE
  5
1b7
100
AcDbEntity
  8
0
 62
7
100
AcDbSpline
 70
8
 71
3
 72
8
 73
4
 74
0
 40
0
 40
0
 40
0
 40
0
 40
1
 40
1
 40
1
 40
1
 10
73.600000
 20
32.400000
 30
0.0
 10
72.240000
 20
33.040000
 30
0.0
 10
69.520000
 20
32.320000
 30
0.0
 10
68.720000
 20
32.800000
 30
0.0
  0
SPLINE
  5
1b8
100
AcDbEntity
  8
0
 62
7
100
AcDbSpline
 70
8
 71
3
 72
8
 73
4
 74
0
 40
0
 40
0
 40
0
 40
0
 40
1
 40
1
 40
1
 40
1
 10
68.720000
 20
32.800000
 30
0.0
 10
67.440000
 20
33.440000
 30
0.0
 10
66.880000
 20
35.040000
 30
0.0
 10
65.520000
 20
35.680000
 30
0.0
  0
SPLINE
  5
1b9
100
AcDbEntity
  8
0
 62
7
100
AcDbSpline
 70
8
 71
3
 72
8
 73
4
 74
0
 40
0
 40
0
 40
0
 40
0
 40
1
 40
1
 40
1
 40
1
 10
65.520000
 20
35.680000
 30
0.0
 10
64.240000
 20
36.240000
 30
0.0
 10
62.000000
 20
35.360000
 30
0.0
 10
60.640000
 20
35.920000
 30
0.0
  0
SPLINE
  5
1ba
100
AcDbEntity
  8
0
 62
7
100
AcDbSpline
 70
8
 71
3
 72
8
 73
4
 74
0
 40
0
 40
0
 40
0
 40
0
 40
1
 40
1
 40
1
 40
1
 10
60.640000
 20
35.920000
 30
0.0
 10
59.040000
 20
36.640000
 30
0.0
 10
59.280000
 20
38.000000
 30
0.0
 10
57.600000
 20
38.720000
 30
0.0
  0
SPLINE
  5
1bb
100
AcDbEntity
  8
0
 62
7
100
AcDbSpline
 70
8
 71
3
 72
8
 73
4
 74
0
 40
0
 40
0
 40
0
 40
0
 40
1
 40
1
 40
1
 40
1
 10
57.600000
 20
38.720000
 30
0.0
 10
54.800000
 20
39.920000
 30
0.0
 10
53.120000
 20
38.480000
 30
0.0
 10
50.320000
 20
39.600000
 30
0.0
  0
SPLINE
  5
1bc
100
AcDbEntity
  8
0
 62
7
100
AcDbSpline
 70
8
 71
3
 72
8
 73
4
 74
0
 40
0
 40
0
 40
0
 40
0
 40
1
 40
1
 40
1
 40
1
 10
50.320000
 20
39.600000
 30
0.0
 10
52.720000
 20
37.840000
 30
0.0
 10
54.000000
 20
38.560000
 30
0.0
 10
56.400000
 20
36.800000
 30
0.0
  0
SPLINE
  5
1bd
100
AcDbEntity
  8
0
 62
7
100
AcDbSpline
 70
8
 71
3
 72
8
 73
4
 74
0
 40
0
 40
0
 40
0
 40
0
 40
1
 40
1
 40
1
 40
1
 10
56.400000
 20
36.800000
 30
0.0
 10
57.840000
 20
35.680000
 30
0.0
 10
57.600000
 20
34.000000
 30
0.0
 10
59.040000
 20
32.880000
 30
0.0
  0
SPLINE
  5
1be
100
AcDbEntity
  8
0
 62
7
100
AcDbSpline
 70
8
 71
3
 72
8
 73
4
 74
0
 40
0
 40
0
 40
0
 40
0
 40
1
 40
1
 40
1
 40
1
 10
59.040000
 20
32.880000
 30
0.0
 10
60.160000
 20
32.080000
 30
0.0
 10
62.240000
 20
32.800000
 30
0.0
 10
63.360000
 20
32.000000
 30
0.0
  0
SPLINE
  5
1bf
100
AcDbEntity
  8
0
 62
7
100
AcDbSpline
 70
8
 71
3
 72
8
 73
4
 74
0
 40
0
 40
0
 40
0
 40
0
 40
1
 40
1
 40
1
 40
1
 10
63.360000
 20
32.000000
 30
0.0
 10
64.560000
 20
31.040000
 30
0.0
 10
64.880000
 20
29.200000
 30
0.0
 10
66.080000
 20
28.320000
 30
0.0
  0
SPLINE
  5
1c0
100
AcDbEntity
  8
0
 62
7
100
AcDbSpline
 70
8
 71
3
 72
8
 73
4
 74
0
 40
0
 40
0
 40
0
 40
0
 40
1
 40
1
 40
1
 40
1
 10
66.080000
 20
28.320000
 30
0.0
 10
67.200000
 20
27.440000
 30
0.0
 10
69.440000
 20
27.840000
 30
0.0
 10
70.560000
 20
26.960000
 30
0.0
  0
SPLINE
  5
1c1
100
AcDbEntity
  8
0
 62
7
100
AcDbSpline
 70
8
 71
3
 72
8
 73
4
 74
0
 40
0
 40
0
 40
0
 40
0
 40
1
 40
1
 40
1
 40
1
 10
70.560000
 20
26.960000
 30
0.0
 10
71.360000
 20
26.320000
 30
0.0
 10
72.160000
 20
23.920000
 30
0.0
 10
72.960000
 20
23.360000
 30
0.0
  0
SPLINE
  5
1c2
100
AcDbEntity
  8
0
 62
7
100
AcDbSpline
 70
8
 71
3
 72
8
 73
4
 74
0
 40
0
 40
0
 40
0
 40
0
 40
1
 40
1
 40
1
 40
1
 10
72.960000
 20
23.360000
 30
0.0
 10
74.000000
 20
22.640000
 30
0.0
 10
76.160000
 20
22.640000
 30
0.0
 10
77.120000
 20
21.920000
 30
0.0
  0
SPLINE
  5
1c3
100
AcDbEntity
  8
0
 62
7
100
AcDbSpline
 70
8
 71
3
 72
8
 73
4
 74
0
 40
0
 40
0
 40
0
 40
0
 40
1
 40
1
 40
1
 40
1
 10
77.120000
 20
21.920000
 30
0.0
 10
78.000000
 20
21.280000
 30
0.0
 10
77.920000
 20
19.520000
 30
0.0
 10
78.800000
 20
18.880000
 30
0.0
  0
SPLINE
  5
1c4
100
AcDbEntity
  8
0
 62
7
100
AcDbSpline
 70
8
 71
3
 72
8
 73
4
 74
0
 40
0
 40
0
 40
0
 40
0
 40
1
 40
1
 40
1
 40
1
 10
78.800000
 20
18.880000
 30
0.0
 10
80.000000
 20
18.000000
 30
0.0
 10
82.160000
 20
18.320000
 30
0.0
 10
83.200000
 20
17.440000
 30
0.0
  0
SPLINE
  5
1c5
100
AcDbEntity
  8
0
 62
7
100
AcDbSpline
 70
8
 71
3
 72
8
 73
4
 74
0
 40
0
 40
0
 40
0
 40
0
 40
1
 40
1
 40
1
 40
1
 10
83.200000
 20
17.440000
 30
0.0
 10
84.240000
 20
16.720000
 30
0.0
 10
84.320000
 20
14.800000
 30
0.0
 10
85.280000
 20
14.160000
 30
0.0
  0
SPLINE
  5
1c6
100
AcDbEntity
  8
0
 62
7
100
AcDbSpline
 70
8
 71
3
 72
8
 73
4
 74
0
 40
0
 40
0
 40
0
 40
0
 40
1
 40
1
 40
1
 40
1
 10
85.280000
 20
14.160000
 30
0.0
 10
86.560000
 20
13.200000
 30
0.0
 10
88.720000
 20
13.920000
 30
0.0
 10
90.000000
 20
12.960000
 30
0.0
  0
SPLINE
  5
1c7
100
AcDbEntity
  8
0
 62
7
100
AcDbSpline
 70
8
 71
3
 72
8
 73
4
 74
0
 40
0
 40
0
 40
0
 40
0
 40
1
 40
1
 40
1
 40
1
 10
90.000000
 20
12.960000
 30
0.0
 10
90.400000
 20
12.720000
 30
0.0
 10
90.720000
 20
12.240000
 30
0.0
 10
90.960000
 20
11.760000
 30
0.0
  0
SPLINE
  5
1c8
100
AcDbEntity
  8
0
 62
7
100
AcDbSpline
 70
8
 71
3
 72
8
 73
4
 74
0
 40
0
 40
0
 40
0
 40
0
 40
1
 40
1
 40
1
 40
1
 10
90.960000
 20
11.760000
 30
0.0
 10
90.720000
 20
11.200000
 30
0.0
 10
90.480000
 20
10.640000
 30
0.0
 10
90.240000
 20
10.000000
 30
0.0
  0
SPLINE
  5
1c9
100
AcDbEntity
  8
0
 62
7
100
AcDbSpline
 70
8
 71
3
 72
8
 73
4
 74
0
 40
0
 40
0
 40
0
 40
0
 40
1
 40
1
 40
1
 40
1
 10
90.240000
 20
10.000000
 30
0.0
 10
89.680000
 20
10.240000
 30
0.0
 10
89.040000
 20
10.480000
 30
0.0
 10
88.480000
 20
10.480000
 30
0.0
  0
SPLINE
  5
1ca
100
AcDbEntity
  8
0
 62
7
100
AcDbSpline
 70
8
 71
3
 72
8
 73
4
 74
0
 40
0
 40
0
 40
0
 40
0
 40
1
 40
1
 40
1
 40
1
 10
88.480000
 20
10.480000
 30
0.0
 10
86.880000
 20
10.560000
 30
0.0
 10
85.120000
 20
9.120000
 30
0.0
 10
83.520000
 20
9.120000
 30
0.0
  0
SPLINE
  5
1cb
100
AcDbEntity
  8
0
 62
7
100
AcDbSpline
 70
8
 71
3
 72
8
 73
4
 74
0
 40
0
 40
0
 40
0
 40
0
 40
1
 40
1
 40
1
 40
1
 10
83.520000
 20
9.120000
 30
0.0
 10
82.160000
 20
9.200000
 30
0.0
 10
81.360000
 20
10.880000
 30
0.0
 10
80.000000
 20
10.960000
 30
0.0
  0
SPLINE
  5
1cc
100
AcDbEntity
  8
0
 62
7
100
AcDbSpline
 70
8
 71
3
 72
8
 73
4
 74
0
 40
0
 40
0
 40
0
 40
0
 40
1
 40
1
 40
1
 40
1
 10
80.000000
 20
10.960000
 30
0.0
 10
78.560000
 20
11.040000
 30
0.0
 10
76.560000
 20
9.760000
 30
0.0
 10
75.120000
 20
9.760000
 30
0.0
  0
SPLINE
  5
1cd
100
AcDbEntity
  8
0
 62
7
100
AcDbSpline
 70
8
 71
3
 72
8
 73
4
 74
0
 40
0
 40
0
 40
0
 40
0
 40
1
 40
1
 40
1
 40
1
 10
75.120000
 20
9.760000
 30
0.0
 10
74.080000
 20
9.840000
 30
0.0
 10
73.200000
 20
11.200000
 30
0.0
 10
72.240000
 20
11.200000
 30
0.0
  0
SPLINE
  5
1ce
100
AcDbEntity
  8
0
 62
7
100
AcDbSpline
 70
8
 71
3
 72
8
 73
4
 74
0
 40
0
 40
0
 40
0
 40
0
 40
1
 40
1
 40
1
 40
1
 10
72.240000
 20
11.200000
 30
0.0
 10
70.960000
 20
11.280000
 30
0.0
 10
69.200000
 20
10.320000
 30
0.0
 10
67.920000
 20
10.320000
 30
0.0
  0
SPLINE
  5
1cf
100
AcDbEntity
  8
0
 62
7
100
AcDbSpline
 70
8
 71
3
 72
8
 73
4
 74
0
 40
0
 40
0
 40
0
 40
0
 40
1
 40
1
 40
1
 40
1
 10
67.920000
 20
10.320000
 30
0.0
 10
66.880000
 20
10.400000
 30
0.0
 10
65.200000
 20
12.080000
 30
0.0
 10
64.160000
 20
12.160000
 30
0.0
  0
SPLINE
  5
1d0
100
AcDbEntity
  8
0
 62
7
100
AcDbSpline
 70
8
 71
3
 72
8
 73
4
 74
0
 40
0
 40
0
 40
0
 40
0
 40
1
 40
1
 40
1
 40
1
 10
64.160000
 20
12.160000
 30
0.0
 10
62.560000
 20
12.320000
 30
0.0
 10
60.400000
 20
10.640000
 30
0.0
 10
59.440000
 20
10.720000
 30
0.0
  0
SPLINE
  5
1d1
100
AcDbEntity
  8
0
 62
7
100
AcDbSpline
 70
8
 71
3
 72
8
 73
4
 74
0
 40
0
 40
0
 40
0
 40
0
 40
1
 40
1
 40
1
 40
1
 10
59.440000
 20
10.720000
 30
0.0
 10
58.000000
 20
10.880000
 30
0.0
 10
56.880000
 20
12.080000
 30
0.0
 10
55.360000
 20
12.160000
 30
0.0
  0
SPLINE
  5
1d2
100
AcDbEntity
  8
0
 62
7
100
AcDbSpline
 70
8
 71
3
 72
8
 73
4
 74
0
 40
0
 40
0
 40
0
 40
0
 40
1
 40
1
 40
1
 40
1
 10
55.360000
 20
12.160000
 30
0.0
 10
54.000000
 20
12.240000
 30
0.0
 10
52.240000
 20
10.480000
 30
0.0
 10
50.880000
 20
10.560000
 30
0.0
  0
SPLINE
  5
1d3
100
AcDbEntity
  8
0
 62
7
100
AcDbSpline
 70
8
 71
3
 72
8
 73
4
 74
0
 40
0
 40
0
 40
0
 40
0
 40
1
 40
1
 40
1
 40
1
 10
50.880000
 20
10.560000
 30
0.0
 10
49.040000
 20
10.640000
 30
0.0
 10
48.720000
 20
12.000000
 30
0.0
 10
46.960000
 20
12.000000
 30
0.0
  0
SPLINE
  5
1d4
100
AcDbEntity
  8
0
 62
7
100
AcDbSpline
 70
8
 71
3
 72
8
 73
4
 74
0
 40
0
 40
0
 40
0
 40
0
 40
1
 40
1
 40
1
 40
1
 10
46.960000
 20
12.000000
 30
0.0
 10
43.920000
 20
12.080000
 30
0.0
 10
42.880000
 20
10.080000
 30
0.0
 10
39.840000
 20
10.080000
 30
0.0
  0
SPLINE
  5
1d5
100
AcDbEntity
  8
0
 62
7
100
AcDbSpline
 70
8
 71
3
 72
8
 73
4
 74
0
 40
0
 40
0
 40
0
 40
0
 40
1
 40
1
 40
1
 40
1
 10
39.840000
 20
10.080000
 30
0.0
 10
42.800000
 20
9.360000
 30
0.0
 10
43.680000
 20
10.480000
 30
0.0
 10
46.560000
 20
9.760000
 30
0.0
  0
SPLINE
  5
1d6
100
AcDbEntity
  8
0
 62
7
100
AcDbSpline
 70
8
 71
3
 72
8
 73
4
 74
0
 40
0
 40
0
 40
0
 40
0
 40
1
 40
1
 40
1
 40
1
 10
46.560000
 20
9.760000
 30
0.0
 10
48.400000
 20
9.360000
 30
0.0
 10
48.720000
 20
7.600000
 30
0.0
 10
50.480000
 20
7.120000
 30
0.0
  0
SPLINE
  5
1d7
100
AcDbEntity
  8
0
 62
7
100
AcDbSpline
 70
8
 71
3
 72
8
 73
4
 74
0
 40
0
 40
0
 40
0
 40
0
 40
1
 40
1
 40
1
 40
1
 10
50.480000
 20
7.120000
 30
0.0
 10
51.840000
 20
6.800000
 30
0.0
 10
53.440000
 20
8.240000
 30
0.0
 10
54.800000
 20
7.920000
 30
0.0
  0
SPLINE
  5
1d8
100
AcDbEntity
  8
0
 62
7
100
AcDbSpline
 70
8
 71
3
 72
8
 73
4
 74
0
 40
0
 40
0
 40
0
 40
0
 40
1
 40
1
 40
1
 40
1
 10
54.800000
 20
7.920000
 30
0.0
 10
56.240000
 20
7.520000
 30
0.0
 10
57.280000
 20
6.000000
 30
0.0
 10
58.720000
 20
5.520000
 30
0.0
  0
SPLINE
  5
1d9
100
AcDbEntity
  8
0
 62
7
100
AcDbSpline
 70
8
 71
3
 72
8
 73
4
 74
0
 40
0
 40
0
 40
0
 40
0
 40
1
 40
1
 40
1
 40
1
 10
58.720000
 20
5.520000
 30
0.0
 10
60.080000
 20
5.120000
 30
0.0
 10
62.000000
 20
6.320000
 30
0.0
 10
63.360000
 20
5.920000
 30
0.0
  0
SPLINE
  5
1da
100
AcDbEntity
  8
0
 62
7
100
AcDbSpline
 70
8
 71
3
 72
8
 73
4
 74
0
 40
0
 40
0
 40
0
 40
0
 40
1
 40
1
 40
1
 40
1
 10
63.360000
 20
5.920000
 30
0.0
 10
64.400000
 20
5.680000
 30
0.0
 10
66.000000
 20
3.760000
 30
0.0
 10
67.040000
 20
3.520000
 30
0.0
  0
SPLINE
  5
1db
100
AcDbEntity
  8
0
 62
7
100
AcDbSpline
 70
8
 71
3
 72
8
 73
4
 74
0
 40
0
 40
0
 40
0
 40
0
 40
1
 40
1
 40
1
 40
1
 10
67.040000
 20
3.520000
 30
0.0
 10
68.160000
 20
3.200000
 30
0.0
 10
70.160000
 20
4.000000
 30
0.0
 10
71.360000
 20
3.760000
 30
0.0
  0
SPLINE
  5
1dc
100
AcDbEntity
  8
0
 62
7
100
AcDbSpline
 70
8
 71
3
 72
8
 73
4
 74
0
 40
0
 40
0
 40
0
 40
0
 40
1
 40
1
 40
1
 40
1
 10
71.360000
 20
3.760000
 30
0.0
 10
72.400000
 20
3.440000
 30
0.0
 10
72.960000
 20
1.920000
 30
0.0
 10
74.080000
 20
1.600000
 30
0.0
  0
SPLINE
  5
1dd
100
AcDbEntity
  8
0
 62
7
100
AcDbSpline
 70
8
 71
3
 72
8
 73
4
 74
0
 40
0
 40
0
 40
0
 40
0
 40
1
 40
1
 40
1
 40
1
 10
74.080000
 20
1.600000
 30
0.0
 10
75.440000
 20
1.280000
 30
0.0
 10
77.360000
 20
2.320000
 30
0.0
 10
78.720000
 20
1.920000
 30
0.0
  0
SPLINE
  5
1de
100
AcDbEntity
  8
0
 62
7
100
AcDbSpline
 70
8
 71
3
 72
8
 73
4
 74
0
 40
0
 40
0
 40
0
 40
0
 40
1
 40
1
 40
1
 40
1
 10
78.720000
 20
1.920000
 30
0.0
 10
79.920000
 20
1.600000
 30
0.0
 10
80.720000
 20
-0.000000
 30
0.0
 10
81.920000
 20
-0.320000
 30
0.0
  0
SPLINE
  5
1df
100
AcDbEntity
  8
0
 62
7
100
AcDbSpline
 70
8
 71
3
 72
8
 73
4
 74
0
 40
0
 40
0
 40
0
 40
0
 40
1
 40
1
 40
1
 40
1
 10
81.920000
 20
-0.320000
 30
0.0
 10
83.520000
 20
-0.720000
 30
0.0
 10
85.120000
 20
0.720000
 30
0.0
 10
86.720000
 20
0.320000
 30
0.0
  0
SPLINE
  5
1e0
100
AcDbEntity
  8
0
 62
7
100
AcDbSpline
 70
8
 71
3
 72
8
 73
4
 74
0
 40
0
 40
0
 40
0
 40
0
 40
1
 40
1
 40
1
 40
1
 10
86.720000
 20
0.320000
 30
0.0
 10
87.200000
 20
0.240000
 30
0.0
 10
87.680000
 20
-0.160000
 30
0.0
 10
88.160000
 20
-0.480000
 30
0.0
  0
SPLINE
  5
1e1
100
AcDbEntity
  8
0
 62
7
100
AcDbSpline
 70
8
 71
3
 72
8
 73
4
 74
0
 40
0
 40
0
 40
0
 40
0
 40
1
 40
1
 40
1
 40
1
 10
88.160000
 20
-0.480000
 30
0.0
 10
88.160000
 20
-0.720000
 30
0.0
 10
88.160000
 20
-1.040000
 30
0.0
 10
88.160000
 20
-1.280000
 30
0.0
  0
SPLINE
  5
1e2
100
AcDbEntity
  8
0
 62
7
100
AcDbSpline
 70
8
 71
3
 72
8
 73
4
 74
0
 40
0
 40
0
 40
0
 40
0
 40
1
 40
1
 40
1
 40
1
 10
88.160000
 20
-1.280000
 30
0.0
 10
88.160000
 20
-1.600000
 30
0.0
 10
88.160000
 20
-1.920000
 30
0.0
 10
88.160000
 20
-2.240000
 30
0.0
  0
SPLINE
  5
1e3
100
AcDbEntity
  8
0
 62
7
100
AcDbSpline
 70
8
 71
3
 72
8
 73
4
 74
0
 40
0
 40
0
 40
0
 40
0
 40
1
 40
1
 40
1
 40
1
 10
88.160000
 20
-2.240000
 30
0.0
 10
87.520000
 20
-2.240000
 30
0.0
 10
86.800000
 20
-2.240000
 30
0.0
 10
86.160000
 20
-2.480000
 30
0.0
  0
SPLINE
  5
1e4
100
AcDbEntity
  8
0
 62
7
100
AcDbSpline
 70
8
 71
3
 72
8
 73
4
 74
0
 40
0
 40
0
 40
0
 40
0
 40
1
 40
1
 40
1
 40
1
 10
86.160000
 20
-2.480000
 30
0.0
 10
84.720000
 20
-2.960000
 30
0.0
 10
83.600000
 20
-5.040000
 30
0.0
 10
82.160000
 20
-5.600000
 30
0.0
  0
SPLINE
  5
1e5
100
AcDbEntity
  8
0
 62
7
100
AcDbSpline
 70
8
 71
3
 72
8
 73
4
 74
0
 40
0
 40
0
 40
0
 40
0
 40
1
 40
1
 40
1
 40
1
 10
82.160000
 20
-5.600000
 30
0.0
 10
80.880000
 20
-6.080000
 30
0.0
 10
79.440000
 20
-4.800000
 30
0.0
 10
78.160000
 20
-5.280000
 30
0.0
  0
SPLINE
  5
1e6
100
AcDbEntity
  8
0
 62
7
100
AcDbSpline
 70
8
 71
3
 72
8
 73
4
 74
0
 40
0
 40
0
 40
0
 40
0
 40
1
 40
1
 40
1
 40
1
 10
78.160000
 20
-5.280000
 30
0.0
 10
76.880000
 20
-5.760000
 30
0.0
 10
75.440000
 20
-7.760000
 30
0.0
 10
74.160000
 20
-8.240000
 30
0.0
  0
SPLINE
  5
1e7
100
AcDbEntity
  8
0
 62
7
100
AcDbSpline
 70
8
 71
3
 72
8
 73
4
 74
0
 40
0
 40
0
 40
0
 40
0
 40
1
 40
1
 40
1
 40
1
 10
74.160000
 20
-8.240000
 30
0.0
 10
73.200000
 20
-8.640000
 30
0.0
 10
71.840000
 20
-7.680000
 30
0.0
 10
70.880000
 20
-8.000000
 30
0.0
  0
SPLINE
  5
1e8
100
AcDbEntity
  8
0
 62
7
100
AcDbSpline
 70
8
 71
3
 72
8
 73
4
 74
0
 40
0
 40
0
 40
0
 40
0
 40
1
 40
1
 40
1
 40
1
 10
70.880000
 20
-8.000000
 30
0.0
 10
69.680000
 20
-8.400000
 30
0.0
 10
68.400000
 20
-10.000000
 30
0.0
 10
67.200000
 20
-10.480000
 30
0.0
  0
SPLINE
  5
1e9
100
AcDbEntity
  8
0
 62
7
100
AcDbSpline
 70
8
 71
3
 72
8
 73
4
 74
0
 40
0
 40
0
 40
0
 40
0
 40
1
 40
1
 40
1
 40
1
 10
67.200000
 20
-10.480000
 30
0.0
 10
66.240000
 20
-10.880000
 30
0.0
 10
64.080000
 20
-9.920000
 30
0.0
 10
63.040000
 20
-10.240000
 30
0.0
  0
SPLINE
  5
1ea
100
AcDbEntity
  8
0
 62
7
100
AcDbSpline
 70
8
 71
3
 72
8
 73
4
 74
0
 40
0
 40
0
 40
0
 40
0
 40
1
 40
1
 40
1
 40
1
 10
63.040000
 20
-10.240000
 30
0.0
 10
61.520000
 20
-10.720000
 30
0.0
 10
60.160000
 20
-13.040000
 30
0.0
 10
59.280000
 20
-13.360000
 30
0.0
  0
SPLINE
  5
1eb
100
AcDbEntity
  8
0
 62
7
100
AcDbSpline
 70
8
 71
3
 72
8
 73
4
 74
0
 40
0
 40
0
 40
0
 40
0
 40
1
 40
1
 40
1
 40
1
 10
59.280000
 20
-13.360000
 30
0.0
 10
57.840000
 20
-13.760000
 30
0.0
 10
56.400000
 20
-13.040000
 30
0.0
 10
54.960000
 20
-13.600000
 30
0.0
  0
SPLINE
  5
1ec
100
AcDbEntity
  8
0
 62
7
100
AcDbSpline
 70
8
 71
3
 72
8
 73
4
 74
0
 40
0
 40
0
 40
0
 40
0
 40
1
 40
1
 40
1
 40
1
 10
54.960000
 20
-13.600000
 30
0.0
 10
53.680000
 20
-14.000000
 30
0.0
 10
52.720000
 20
-16.320000
 30
0.0
 10
51.440000
 20
-16.800000
 30
0.0
  0
SPLINE
  5
1ed
100
AcDbEntity
  8
0
 62
7
100
AcDbSpline
 70
8
 71
3
 72
8
 73
4
 74
0
 40
0
 40
0
 40
0
 40
0
 40
1
 40
1
 40
1
 40
1
 10
51.440000
 20
-16.800000
 30
0.0
 10
49.760000
 20
-17.440000
 30
0.0
 10
48.880000
 20
-16.320000
 30
0.0
 10
47.200000
 20
-16.960000
 30
0.0
  0
SPLINE
  5
1ee
100
AcDbEntity
  8
0
 62
7
100
AcDbSpline
 70
8
 71
3
 72
8
 73
4
 74
0
 40
0
 40
0
 40
0
 40
0
 40
1
 40
1
 40
1
 40
1
 10
47.200000
 20
-16.960000
 30
0.0
 10
44.400000
 20
-18.080000
 30
0.0
 10
44.240000
 20
-20.320000
 30
0.0
 10
41.360000
 20
-21.440000
 30
0.0
  0
SPLINE
  5
1ef
100
AcDbEntity
  8
0
 62
7
100
AcDbSpline
 70
8
 71
3
 72
8
 73
4
 74
0
 40
0
 40
0
 40
0
 40
0
 40
1
 40
1
 40
1
 40
1
 10
41.360000
 20
-21.440000
 30
0.0
 10
44.400000
 20
-21.040000
 30
0.0
 10
44.800000
 20
-19.600000
 30
0.0
 10
47.760000
 20
-19.200000
 30
0.0
  0
SPLINE
  5
1f0
100
AcDbEntity
  8
0
 62
7
100
AcDbSpline
 70
8
 71
3
 72
8
 73
4
 74
0
 40
0
 40
0
 40
0
 40
0
 40
1
 40
1
 40
1
 40
1
 10
47.760000
 20
-19.200000
 30
0.0
 10
49.600000
 20
-18.880000
 30
0.0
 10
50.480000
 20
-20.320000
 30
0.0
 10
52.320000
 20
-20.080000
 30
0.0
  0
SPLINE
  5
1f1
100
AcDbEntity
  8
0
 62
7
100
AcDbSpline
 70
8
 71
3
 72
8
 73
4
 74
0
 40
0
 40
0
 40
0
 40
0
 40
1
 40
1
 40
1
 40
1
 10
52.320000
 20
-20.080000
 30
0.0
 10
53.760000
 20
-19.840000
 30
0.0
 10
54.720000
 20
-17.920000
 30
0.0
 10
56.080000
 20
-17.680000
 30
0.0
  0
SPLINE
  5
1f2
100
AcDbEntity
  8
0
 62
7
100
AcDbSpline
 70
8
 71
3
 72
8
 73
4
 74
0
 40
0
 40
0
 40
0
 40
0
 40
1
 40
1
 40
1
 40
1
 10
56.080000
 20
-17.680000
 30
0.0
 10
57.520000
 20
-17.440000
 30
0.0
 10
59.040000
 20
-18.640000
 30
0.0
 10
60.560000
 20
-18.400000
 30
0.0
  0
SPLINE
  5
1f3
100
AcDbEntity
  8
0
 62
7
100
AcDbSpline
 70
8
 71
3
 72
8
 73
4
 74
0
 40
0
 40
0
 40
0
 40
0
 40
1
 40
1
 40
1
 40
1
 10
60.560000
 20
-18.400000
 30
0.0
 10
61.920000
 20
-18.240000
 30
0.0
 10
63.280000
 20
-16.400000
 30
0.0
 10
64.720000
 20
-16.240000
 30
0.0
  0
SPLINE
  5
1f4
100
AcDbEntity
  8
0
 62
7
100
AcDbSpline
 70
8
 71
3
 72
8
 73
4
 74
0
 40
0
 40
0
 40
0
 40
0
 40
1
 40
1
 40
1
 40
1
 10
64.720000
 20
-16.240000
 30
0.0
 10
65.760000
 20
-16.080000
 30
0.0
 10
68.000000
 20
-17.280000
 30
0.0
 10
69.040000
 20
-17.120000
 30
0.0
  0
SPLINE
  5
1f5
100
AcDbEntity
  8
0
 62
7
100
AcDbSpline
 70
8
 71
3
 72
8
 73
4
 74
0
 40
0
 40
0
 40
0
 40
0
 40
1
 40
1
 40
1
 40
1
 10
69.040000
 20
-17.120000
 30
0.0
 10
70.240000
 20
-16.880000
 30
0.0
 10
71.760000
 20
-15.360000
 30
0.0
 10
73.040000
 20
-15.280000
 30
0.0
  0
SPLINE
  5
1f6
100
AcDbEntity
  8
0
 62
7
100
AcDbSpline
 70
8
 71
3
 72
8
 73
4
 74
0
 40
0
 40
0
 40
0
 40
0
 40
1
 40
1
 40
1
 40
1
 10
73.040000
 20
-15.280000
 30
0.0
 10
74.080000
 20
-15.040000
 30
0.0
 10
75.280000
 20
-16.400000
 30
0.0
 10
76.400000
 20
-16.240000
 30
0.0
  0
SPLINE
  5
1f7
100
AcDbEntity
  8
0
 62
7
100
AcDbSpline
 70
8
 71
3
 72
8
 73
4
 74
0
 40
0
 40
0
 40
0
 40
0
 40
1
 40
1
 40
1
 40
1
 10
76.400000
 20
-16.240000
 30
0.0
 10
77.680000
 20
-16.000000
 30
0.0
 10
79.120000
 20
-14.320000
 30
0.0
 10
80.480000
 20
-14.160000
 30
0.0
  0
SPLINE
  5
1f8
100
AcDbEntity
  8
0
 62
7
100
AcDbSpline
 70
8
 71
3
 72
8
 73
4
 74
0
 40
0
 40
0
 40
0
 40
0
 40
1
 40
1
 40
1
 40
1
 10
80.480000
 20
-14.160000
 30
0.0
 10
81.680000
 20
-13.920000
 30
0.0
 10
83.200000
 20
-15.280000
 30
0.0
 10
84.400000
 20
-15.040000
 30
0.0
  0
SPLINE
  5
1f9
100
AcDbEntity
  8
0
 62
7
100
AcDbSpline
 70
8
 71
3
 72
8
 73
4
 74
0
 40
0
 40
0
 40
0
 40
0
 40
1
 40
1
 40
1
 40
1
 10
84.400000
 20
-15.040000
 30
0.0
 10
86.000000
 20
-14.800000
 30
0.0
 10
86.960000
 20
-12.880000
 30
0.0
 10
88.560000
 20
-12.560000
 30
0.0
  0
SPLINE
  5
1fa
100
AcDbEntity
  8
0
 62
7
100
AcDbSpline
 70
8
 71
3
 72
8
 73
4
 74
0
 40
0
 40
0
 40
0
 40
0
 40
1
 40
1
 40
1
 40
1
 10
88.560000
 20
-12.560000
 30
0.0
 10
89.120000
 20
-12.480000
 30
0.0
 10
89.680000
 20
-12.640000
 30
0.0
 10
90.320000
 20
-12.800000
 30
0.0
  0
SPLINE
  5
1fb
100
AcDbEntity
  8
0
 62
7
100
AcDbSpline
 70
8
 71
3
 72
8
 73
4
 74
0
 40
0
 40
0
 40
0
 40
0
 40
1
 40
1
 40
1
 40
1
 10
90.320000
 20
-12.800000
 30
0.0
 10
90.560000
 20
-13.360000
 30
0.0
 10
90.720000
 20
-13.840000
 30
0.0
 10
90.960000
 20
-14.400000
 30
0.0
  0
SPLINE
  5
1fc
100
AcDbEntity
  8
0
 62
7
100
AcDbSpline
 70
8
 71
3
 72
8
 73
4
 74
0
 40
0
 40
0
 40
0
 40
0
 40
1
 40
1
 40
1
 40
1
 10
90.960000
 20
-14.400000
 30
0.0
 10
90.320000
 20
-14.640000
 30
0.0
 10
89.680000
 20
-14.880000
 30
0.0
 10
89.200000
 20
-15.360000
 30
0.0
  0
SPLINE
  5
1fd
100
AcDbEntity
  8
0
 62
7
100
AcDbSpline
 70
8
 71
3
 72
8
 73
4
 74
0
 40
0
 40
0
 40
0
 40
0
 40
1
 40
1
 40
1
 40
1
 10
89.200000
 20
-15.360000
 30
0.0
 10
88.080000
 20
-16.400000
 30
0.0
 10
87.840000
 20
-18.720000
 30
0.0
 10
86.640000
 20
-19.760000
 30
0.0
  0
SPLINE
  5
1fe
100
AcDbEntity
  8
0
 62
7
100
AcDbSpline
 70
8
 71
3
 72
8
 73
4
 74
0
 40
0
 40
0
 40
0
 40
0
 40
1
 40
1
 40
1
 40
1
 10
86.640000
 20
-19.760000
 30
0.0
 10
85.600000
 20
-20.720000
 30
0.0
 10
83.920000
 20
-20.080000
 30
0.0
 10
82.880000
 20
-20.960000
 30
0.0
  0
SPLINE
  5
1ff
100
AcDbEntity
  8
0
 62
7
100
AcDbSpline
 70
8
 71
3
 72
8
 73
4
 74
0
 40
0
 40
0
 40
0
 40
0
 40
1
 40
1
 40
1
 40
1
 10
82.880000
 20
-20.960000
 30
0.0
 10
81.760000
 20
-21.920000
 30
0.0
 10
81.360000
 20
-24.320000
 30
0.0
 10
80.240000
 20
-25.200000
 30
0.0
  0
SPLINE
  5
200
100
AcDbEntity
  8
0
 62
7
100
AcDbSpline
 70
8
 71
3
 72
8
 73
4
 74
0
 40
0
 40
0
 40
0
 40
0
 40
1
 40
1
 40
1
 40
1
 10
80.240000
 20
-25.200000
 30
0.0
 10
79.520000
 20
-25.840000
 30
0.0
 10
77.920000
 20
-25.520000
 30
0.0
 10
77.200000
 20
-26.240000
 30
0.0
  0
SPLINE
  5
201
100
AcDbEntity
  8
0
 62
7
100
AcDbSpline
 70
8
 71
3
 72
8
 73
4
 74
0
 40
0
 40
0
 40
0
 40
0
 40
1
 40
1
 40
1
 40
1
 10
77.200000
 20
-26.240000
 30
0.0
 10
76.160000
 20
-27.120000
 30
0.0
 10
75.680000
 20
-29.040000
 30
0.0
 10
74.720000
 20
-29.920000
 30
0.0
  0
SPLINE
  5
202
100
AcDbEntity
  8
0
 62
7
100
AcDbSpline
 70
8
 71
3
 72
8
 73
4
 74
0
 40
0
 40
0
 40
0
 40
0
 40
1
 40
1
 40
1
 40
1
 10
74.720000
 20
-29.920000
 30
0.0
 10
73.920000
 20
-30.640000
 30
0.0
 10
71.520000
 20
-30.560000
 30
0.0
 10
70.720000
 20
-31.280000
 30
0.0
  0
SPLINE
  5
203
100
AcDbEntity
  8
0
 62
7
100
AcDbSpline
 70
8
 71
3
 72
8
 73
4
 74
0
 40
0
 40
0
 40
0
 40
0
 40
1
 40
1
 40
1
 40
1
 10
70.720000
 20
-31.280000
 30
0.0
 10
69.520000
 20
-32.400000
 30
0.0
 10
69.200000
 20
-35.040000
 30
0.0
 10
68.480000
 20
-35.600000
 30
0.0
  0
SPLINE
  5
204
100
AcDbEntity
  8
0
 62
7
100
AcDbSpline
 70
8
 71
3
 72
8
 73
4
 74
0
 40
0
 40
0
 40
0
 40
0
 40
1
 40
1
 40
1
 40
1
 10
68.480000
 20
-35.600000
 30
0.0
 10
67.280000
 20
-36.560000
 30
0.0
 10
65.680000
 20
-36.400000
 30
0.0
 10
64.560000
 20
-37.440000
 30
0.0
  0
SPLINE
  5
205
100
AcDbEntity
  8
0
 62
7
100
AcDbSpline
 70
8
 71
3
 72
8
 73
4
 74
0
 40
0
 40
0
 40
0
 40
0
 40
1
 40
1
 40
1
 40
1
 10
64.560000
 20
-37.440000
 30
0.0
 10
63.440000
 20
-38.480000
 30
0.0
 10
63.520000
 20
-40.800000
 30
0.0
 10
62.480000
 20
-41.760000
 30
0.0
  0
SPLINE
  5
206
100
AcDbEntity
  8
0
 62
7
100
AcDbSpline
 70
8
 71
3
 72
8
 73
4
 74
0
 40
0
 40
0
 40
0
 40
0
 40
1
 40
1
 40
1
 40
1
 10
62.480000
 20
-41.760000
 30
0.0
 10
61.200000
 20
-42.960000
 30
0.0
 10
59.920000
 20
-42.240000
 30
0.0
 10
58.720000
 20
-43.520000
 30
0.0
  0
SPLINE
  5
207
100
AcDbEntity
  8
0
 62
7
100
AcDbSpline
 70
8
 71
3
 72
8
 73
4
 74
0
 40
0
 40
0
 40
0
 40
0
 40
1
 40
1
 40
1
 40
1
 10
58.720000
 20
-43.520000
 30
0.0
 10
56.560000
 20
-45.600000
 30
0.0
 10
57.200000
 20
-47.680000
 30
0.0
 10
55.040000
 20
-49.840000
 30
0.0
  0
SPLINE
  5
208
100
AcDbEntity
  8
0
 62
7
100
AcDbSpline
 70
8
 71
3
 72
8
 73
4
 74
0
 40
0
 40
0
 40
0
 40
0
 40
1
 40
1
 40
1
 40
1
 10
55.040000
 20
-49.840000
 30
0.0
 10
57.680000
 20
-48.320000
 30
0.0
 10
57.520000
 20
-46.880000
 30
0.0
 10
60.080000
 20
-45.280000
 30
0.0
  0
SPLINE
  5
209
100
AcDbEntity
  8
0
 62
7
100
AcDbSpline
 70
8
 71
3
 72
8
 73
4
 74
0
 40
0
 40
0
 40
0
 40
0
 40
1
 40
1
 40
1
 40
1
 10
60.080000
 20
-45.280000
 30
0.0
 10
61.680000
 20
-44.320000
 30
0.0
 10
63.120000
 20
-45.280000
 30
0.0
 10
64.720000
 20
-44.400000
 30
0.0
  0
SPLINE
  5
20a
100
AcDbEntity
  8
0
 62
7
100
AcDbSpline
 70
8
 71
3
 72
8
 73
4
 74
0
 40
0
 40
0
 40
0
 40
0
 40
1
 40
1
 40
1
 40
1
 10
64.720000
 20
-44.400000
 30
0.0
 10
65.920000
 20
-43.680000
 30
0.0
 10
66.000000
 20
-41.520000
 30
0.0
 10
67.280000
 20
-40.800000
 30
0.0
  0
SPLINE
  5
20b
100
AcDbEntity
  8
0
 62
7
100
AcDbSpline
 70
8
 71
3
 72
8
 73
4
 74
0
 40
0
 40
0
 40
0
 40
0
 40
1
 40
1
 40
1
 40
1
 10
67.280000
 20
-40.800000
 30
0.0
 10
68.480000
 20
-40.000000
 30
0.0
 10
70.400000
 20
-40.400000
 30
0.0
 10
71.680000
 20
-39.680000
 30
0.0
  0
SPLINE
  5
20c
100
AcDbEntity
  8
0
 62
7
100
AcDbSpline
 70
8
 71
3
 72
8
 73
4
 74
0
 40
0
 40
0
 40
0
 40
0
 40
1
 40
1
 40
1
 40
1
 10
71.680000
 20
-39.680000
 30
0.0
 10
72.880000
 20
-38.960000
 30
0.0
 10
73.440000
 20
-36.800000
 30
0.0
 10
74.640000
 20
-36.080000
 30
0.0
  0
SPLINE
  5
20d
100
AcDbEntity
  8
0
 62
7
100
AcDbSpline
 70
8
 71
3
 72
8
 73
4
 74
0
 40
0
 40
0
 40
0
 40
0
 40
1
 40
1
 40
1
 40
1
 10
74.640000
 20
-36.080000
 30
0.0
 10
75.520000
 20
-35.600000
 30
0.0
 10
78.080000
 20
-35.760000
 30
0.0
 10
78.960000
 20
-35.280000
 30
0.0
  0
SPLINE
  5
20e
100
AcDbEntity
  8
0
 62
7
100
AcDbSpline
 70
8
 71
3
 72
8
 73
4
 74
0
 40
0
 40
0
 40
0
 40
0
 40
1
 40
1
 40
1
 40
1
 10
78.960000
 20
-35.280000
 30
0.0
 10
80.080000
 20
-34.640000
 30
0.0
 10
80.880000
 20
-32.720000
 30
0.0
 10
81.920000
 20
-32.000000
 30
0.0
  0
SPLINE
  5
20f
100
AcDbEntity
  8
0
 62
7
100
AcDbSpline
 70
8
 71
3
 72
8
 73
4
 74
0
 40
0
 40
0
 40
0
 40
0
 40
1
 40
1
 40
1
 40
1
 10
81.920000
 20
-32.000000
 30
0.0
 10
82.880000
 20
-31.440000
 30
0.0
 10
84.480000
 20
-32.240000
 30
0.0
 10
85.360000
 20
-31.680000
 30
0.0
  0
SPLINE
  5
210
100
AcDbEntity
  8
0
 62
7
100
AcDbSpline
 70
8
 71
3
 72
8
 73
4
 74
0
 40
0
 40
0
 40
0
 40
0
 40
1
 40
1
 40
1
 40
1
 10
85.360000
 20
-31.680000
 30
0.0
 10
86.560000
 20
-30.960000
 30
0.0
 10
87.200000
 20
-28.880000
 30
0.0
 10
88.400000
 20
-28.160000
 30
0.0
  0
SPLINE
  5
211
100
AcDbEntity
  8
0
 62
7
100
AcDbSpline
 70
8
 71
3
 72
8
 73
4
 74
0
 40
0
 40
0
 40
0
 40
0
 40
1
 40
1
 40
1
 40
1
 10
88.400000
 20
-28.160000
 30
0.0
 10
89.440000
 20
-27.520000
 30
0.0
 10
91.200000
 20
-28.160000
 30
0.0
 10
92.320000
 20
-27.520000
 30
0.0
  0
SPLINE
  5
212
100
AcDbEntity
  8
0
 62
7
100
AcDbSpline
 70
8
 71
3
 72
8
 73
4
 74
0
 40
0
 40
0
 40
0
 40
0
 40
1
 40
1
 40
1
 40
1
 10
92.320000
 20
-27.520000
 30
0.0
 10
93.680000
 20
-26.640000
 30
0.0
 10
93.760000
 20
-24.560000
 30
0.0
 10
95.120000
 20
-23.680000
 30
0.0
  0
SPLINE
  5
213
100
AcDbEntity
  8
0
 62
7
100
AcDbSpline
 70
8
 71
3
 72
8
 73
4
 74
0
 40
0
 40
0
 40
0
 40
0
 40
1
 40
1
 40
1
 40
1
 10
95.120000
 20
-23.680000
 30
0.0
 10
95.680000
 20
-23.360000
 30
0.0
 10
96.320000
 20
-23.280000
 30
0.0
 10
97.040000
 20
-23.200000
 30
0.0
  0
SPLINE
  5
214
100
AcDbEntity
  8
0
 62
7
100
AcDbSpline
 70
8
 71
3
 72
8
 73
4
 74
0
 40
0
 40
0
 40
0
 40
0
 40
1
 40
1
 40
1
 40
1
 10
97.040000
 20
-23.200000
 30
0.0
 10
97.440000
 20
-23.600000
 30
0.0
 10
97.840000
 20
-24.000000
 30
0.0
 10
98.240000
 20
-24.400000
 30
0.0
  0
SPLINE
  5
215
100
AcDbEntity
  8
0
 62
7
100
AcDbSpline
 70
8
 71
3
 72
8
 73
4
 74
0
 40
0
 40
0
 40
0
 40
0
 40
1
 40
1
 40
1
 40
1
 10
98.240000
 20
-24.400000
 30
0.0
 10
97.680000
 20
-24.880000
 30
0.0
 10
97.120000
 20
-25.360000
 30
0.0
 10
96.800000
 20
-26.000000
 30
0.0
  0
SPLINE
  5
216
100
AcDbEntity
  8
0
 62
7
100
AcDbSpline
 70
8
 71
3
 72
8
 73
4
 74
0
 40
0
 40
0
 40
0
 40
0
 40
1
 40
1
 40
1
 40
1
 10
96.800000
 20
-26.000000
 30
0.0
 10
96.160000
 20
-27.360000
 30
0.0
 10
96.880000
 20
-29.600000
 30
0.0
 10
96.240000
 20
-31.040000
 30
0.0
  0
SPLINE
  5
217
100
AcDbEntity
  8
0
 62
7
100
AcDbSpline
 70
8
 71
3
 72
8
 73
4
 74
0
 40
0
 40
0
 40
0
 40
0
 40
1
 40
1
 40
1
 40
1
 10
96.240000
 20
-31.040000
 30
0.0
 10
95.680000
 20
-32.240000
 30
0.0
 10
93.760000
 20
-32.320000
 30
0.0
 10
93.200000
 20
-33.600000
 30
0.0
  0
SPLINE
  5
218
100
AcDbEntity
  8
0
 62
7
100
AcDbSpline
 70
8
 71
3
 72
8
 73
4
 74
0
 40
0
 40
0
 40
0
 40
0
 40
1
 40
1
 40
1
 40
1
 10
93.200000
 20
-33.600000
 30
0.0
 10
92.640000
 20
-34.880000
 30
0.0
 10
93.040000
 20
-37.280000
 30
0.0
 10
92.480000
 20
-38.560000
 30
0.0
  0
SPLINE
  5
219
100
AcDbEntity
  8
0
 62
7
100
AcDbSpline
 70
8
 71
3
 72
8
 73
4
 74
0
 40
0
 40
0
 40
0
 40
0
 40
1
 40
1
 40
1
 40
1
 10
92.480000
 20
-38.560000
 30
0.0
 10
92.080000
 20
-39.440000
 30
0.0
 10
90.400000
 20
-39.680000
 30
0.0
 10
90.000000
 20
-40.640000
 30
0.0
  0
SPLINE
  5
21a
100
AcDbEntity
  8
0
 62
7
100
AcDbSpline
 70
8
 71
3
 72
8
 73
4
 74
0
 40
0
 40
0
 40
0
 40
0
 40
1
 40
1
 40
1
 40
1
 10
90.000000
 20
-40.640000
 30
0.0
 10
89.440000
 20
-41.760000
 30
0.0
 10
89.600000
 20
-43.840000
 30
0.0
 10
89.120000
 20
-44.960000
 30
0.0
  0
SPLINE
  5
21b
100
AcDbEntity
  8
0
 62
7
100
AcDbSpline
 70
8
 71
3
 72
8
 73
4
 74
0
 40
0
 40
0
 40
0
 40
0
 40
1
 40
1
 40
1
 40
1
 10
89.120000
 20
-44.960000
 30
0.0
 10
88.720000
 20
-45.920000
 30
0.0
 10
86.480000
 20
-46.800000
 30
0.0
 10
86.000000
 20
-47.680000
 30
0.0
  0
SPLINE
  5
21c
100
AcDbEntity
  8
0
 62
7
100
AcDbSpline
 70
8
 71
3
 72
8
 73
4
 74
0
 40
0
 40
0
 40
0
 40
0
 40
1
 40
1
 40
1
 40
1
 10
86.000000
 20
-47.680000
 30
0.0
 10
85.280000
 20
-49.120000
 30
0.0
 10
86.000000
 20
-51.760000
 30
0.0
 10
85.520000
 20
-52.560000
 30
0.0
  0
SPLINE
  5
21d
100
AcDbEntity
  8
0
 62
7
100
AcDbSpline
 70
8
 71
3
 72
8
 73
4
 74
0
 40
0
 40
0
 40
0
 40
0
 40
1
 40
1
 40
1
 40
1
 10
85.520000
 20
-52.560000
 30
0.0
 10
84.800000
 20
-53.840000
 30
0.0
 10
83.280000
 20
-54.400000
 30
0.0
 10
82.640000
 20
-55.760000
 30
0.0
  0
SPLINE
  5
21e
100
AcDbEntity
  8
0
 62
7
100
AcDbSpline
 70
8
 71
3
 72
8
 73
4
 74
0
 40
0
 40
0
 40
0
 40
0
 40
1
 40
1
 40
1
 40
1
 10
82.640000
 20
-55.760000
 30
0.0
 10
82.080000
 20
-57.040000
 30
0.0
 10
83.040000
 20
-59.200000
 30
0.0
 10
82.400000
 20
-60.560000
 30
0.0
  0
SPLINE
  5
21f
100
AcDbEntity
  8
0
 62
7
100
AcDbSpline
 70
8
 71
3
 72
8
 73
4
 74
0
 40
0
 40
0
 40
0
 40
0
 40
1
 40
1
 40
1
 40
1
 10
82.400000
 20
-60.560000
 30
0.0
 10
81.600000
 20
-62.240000
 30
0.0
 10
80.240000
 20
-62.000000
 30
0.0
 10
79.520000
 20
-63.600000
 30
0.0
  0
SPLINE
  5
220
100
AcDbEntity
  8
0
 62
7
100
AcDbSpline
 70
8
 71
3
 72
8
 73
4
 74
0
 40
0
 40
0
 40
0
 40
0
 40
1
 40
1
 40
1
 40
1
 10
79.520000
 20
-63.600000
 30
0.0
 10
78.320000
 20
-66.400000
 30
0.0
 10
79.760000
 20
-68.080000
 30
0.0
 10
78.560000
 20
-70.880000
 30
0.0
  0
SPLINE
  5
221
100
AcDbEntity
  8
0
 62
7
100
AcDbSpline
 70
8
 71
3
 72
8
 73
4
 74
0
 40
0
 40
0
 40
0
 40
0
 40
1
 40
1
 40
1
 40
1
 10
78.560000
 20
-70.880000
 30
0.0
 10
80.400000
 20
-68.400000
 30
0.0
 10
79.680000
 20
-67.200000
 30
0.0
 10
81.440000
 20
-64.720000
 30
0.0
  0
SPLINE
  5
222
100
AcDbEntity
  8
0
 62
7
100
AcDbSpline
 70
8
 71
3
 72
8
 73
4
 74
0
 40
0
 40
0
 40
0
 40
0
 40
1
 40
1
 40
1
 40
1
 10
81.440000
 20
-64.720000
 30
0.0
 10
82.560000
 20
-63.280000
 30
0.0
 10
84.240000
 20
-63.600000
 30
0.0
 10
85.360000
 20
-62.160000
 30
0.0
  0
SPLINE
  5
223
100
AcDbEntity
  8
0
 62
7
100
AcDbSpline
 70
8
 71
3
 72
8
 73
4
 74
0
 40
0
 40
0
 40
0
 40
0
 40
1
 40
1
 40
1
 40
1
 10
85.360000
 20
-62.160000
 30
0.0
 10
86.160000
 20
-61.040000
 30
0.0
 10
85.440000
 20
-58.960000
 30
0.0
 10
86.320000
 20
-57.920000
 30
0.0
  0
SPLINE
  5
224
100
AcDbEntity
  8
0
 62
7
100
AcDbSpline
 70
8
 71
3
 72
8
 73
4
 74
0
 40
0
 40
0
 40
0
 40
0
 40
1
 40
1
 40
1
 40
1
 10
86.320000
 20
-57.920000
 30
0.0
 10
87.200000
 20
-56.720000
 30
0.0
 10
89.040000
 20
-56.400000
 30
0.0
 10
90.000000
 20
-55.280000
 30
0.0
  0
SPLINE
  5
225
100
AcDbEntity
  8
0
 62
7
100
AcDbSpline
 70
8
 71
3
 72
8
 73
4
 74
0
 40
0
 40
0
 40
0
 40
0
 40
1
 40
1
 40
1
 40
1
 10
90.000000
 20
-55.280000
 30
0.0
 10
90.880000
 20
-54.160000
 30
0.0
 10
90.480000
 20
-51.920000
 30
0.0
 10
91.360000
 20
-50.880000
 30
0.0
  0
SPLINE
  5
226
100
AcDbEntity
  8
0
 62
7
100
AcDbSpline
 70
8
 71
3
 72
8
 73
4
 74
0
 40
0
 40
0
 40
0
 40
0
 40
1
 40
1
 40
1
 40
1
 10
91.360000
 20
-50.880000
 30
0.0
 10
92.000000
 20
-50.000000
 30
0.0
 10
94.400000
 20
-49.200000
 30
0.0
 10
95.040000
 20
-48.400000
 30
0.0
  0
SPLINE
  5
227
100
AcDbEntity
  8
0
 62
7
100
AcDbSpline
 70
8
 71
3
 72
8
 73
4
 74
0
 40
0
 40
0
 40
0
 40
0
 40
1
 40
1
 40
1
 40
1
 10
95.040000
 20
-48.400000
 30
0.0
 10
95.760000
 20
-47.360000
 30
0.0
 10
95.760000
 20
-45.280000
 30
0.0
 10
96.480000
 20
-44.320000
 30
0.0
  0
SPLINE
  5
228
100
AcDbEntity
  8
0
 62
7
100
AcDbSpline
 70
8
 71
3
 72
8
 73
4
 74
0
 40
0
 40
0
 40
0
 40
0
 40
1
 40
1
 40
1
 40
1
 10
96.480000
 20
-44.320000
 30
0.0
 10
97.120000
 20
-43.440000
 30
0.0
 10
98.880000
 20
-43.520000
 30
0.0
 10
99.520000
 20
-42.640000
 30
0.0
  0
SPLINE
  5
229
100
AcDbEntity
  8
0
 62
7
100
AcDbSpline
 70
8
 71
3
 72
8
 73
4
 74
0
 40
0
 40
0
 40
0
 40
0
 40
1
 40
1
 40
1
 40
1
 10
99.520000
 20
-42.640000
 30
0.0
 10
100.320000
 20
-41.520000
 30
0.0
 10
100.080000
 20
-39.360000
 30
0.0
 10
100.880000
 20
-38.240000
 30
0.0
  0
SPLINE
  5
22a
100
AcDbEntity
  8
0
 62
7
100
AcDbSpline
 70
8
 71
3
 72
8
 73
4
 74
0
 40
0
 40
0
 40
0
 40
0
 40
1
 40
1
 40
1
 40
1
 10
100.880000
 20
-38.240000
 30
0.0
 10
101.600000
 20
-37.280000
 30
0.0
 10
103.600000
 20
-37.120000
 30
0.0
 10
104.320000
 20
-36.240000
 30
0.0
  0
SPLINE
  5
22b
100
AcDbEntity
  8
0
 62
7
100
AcDbSpline
 70
8
 71
3
 72
8
 73
4
 74
0
 40
0
 40
0
 40
0
 40
0
 40
1
 40
1
 40
1
 40
1
 10
104.320000
 20
-36.240000
 30
0.0
 10
105.280000
 20
-34.960000
 30
0.0
 10
104.560000
 20
-32.880000
 30
0.0
 10
105.520000
 20
-31.520000
 30
0.0
  0
SPLINE
  5
22c
100
AcDbEntity
  8
0
 62
7
100
AcDbSpline
 70
8
 71
3
 72
8
 73
4
 74
0
 40
0
 40
0
 40
0
 40
0
 40
1
 40
1
 40
1
 40
1
 10
105.520000
 20
-31.520000
 30
0.0
 10
105.920000
 20
-31.040000
 30
0.0
 10
106.480000
 20
-30.720000
 30
0.0
 10
107.120000
 20
-30.320000
 30
0.0
  0
SPLINE
  5
22d
100
AcDbEntity
  8
0
 62
7
100
AcDbSpline
 70
8
 71
3
 72
8
 73
4
 74
0
 40
0
 40
0
 40
0
 40
0
 40
1
 40
1
 40
1
 40
1
 10
107.120000
 20
-30.320000
 30
0.0
 10
107.600000
 20
-30.560000
 30
0.0
 10
108.160000
 20
-30.720000
 30
0.0
 10
108.640000
 20
-30.960000
 30
0.0
  0
SPLINE
  5
22e
100
AcDbEntity
  8
0
 62
7
100
AcDbSpline
 70
8
 71
3
 72
8
 73
4
 74
0
 40
0
 40
0
 40
0
 40
0
 40
1
 40
1
 40
1
 40
1
 10
108.640000
 20
-30.960000
 30
0.0
 10
108.320000
 20
-31.600000
 30
0.0
 10
108.000000
 20
-32.320000
 30
0.0
 10
108.000000
 20
-33.040000
 30
0.0
  0
SPLINE
  5
22f
100
AcDbEntity
  8
0
 62
7
100
AcDbSpline
 70
8
 71
3
 72
8
 73
4
 74
0
 40
0
 40
0
 40
0
 40
0
 40
1
 40
1
 40
1
 40
1
 10
108.000000
 20
-33.040000
 30
0.0
 10
107.920000
 20
-34.640000
 30
0.0
 10
109.360000
 20
-36.400000
 30
0.0
 10
109.280000
 20
-37.920000
 30
0.0
  0
SPLINE
  5
230
100
AcDbEntity
  8
0
 62
7
100
AcDbSpline
 70
8
 71
3
 72
8
 73
4
 74
0
 40
0
 40
0
 40
0
 40
0
 40
1
 40
1
 40
1
 40
1
 10
109.280000
 20
-37.920000
 30
0.0
 10
109.280000
 20
-39.280000
 30
0.0
 10
107.520000
 20
-40.080000
 30
0.0
 10
107.440000
 20
-41.440000
 30
0.0
  0
SPLINE
  5
231
100
AcDbEntity
  8
0
 62
7
100
AcDbSpline
 70
8
 71
3
 72
8
 73
4
 74
0
 40
0
 40
0
 40
0
 40
0
 40
1
 40
1
 40
1
 40
1
 10
107.440000
 20
-41.440000
 30
0.0
 10
107.440000
 20
-42.880000
 30
0.0
 10
108.720000
 20
-44.800000
 30
0.0
 10
108.640000
 20
-46.320000
 30
0.0
  0
SPLINE
  5
232
100
AcDbEntity
  8
0
 62
7
100
AcDbSpline
 70
8
 71
3
 72
8
 73
4
 74
0
 40
0
 40
0
 40
0
 40
0
 40
1
 40
1
 40
1
 40
1
 10
108.640000
 20
-46.320000
 30
0.0
 10
108.560000
 20
-47.360000
 30
0.0
 10
107.200000
 20
-48.160000
 30
0.0
 10
107.200000
 20
-49.200000
 30
0.0
  0
SPLINE
  5
233
100
AcDbEntity
  8
0
 62
7
100
AcDbSpline
 70
8
 71
3
 72
8
 73
4
 74
0
 40
0
 40
0
 40
0
 40
0
 40
1
 40
1
 40
1
 40
1
 10
107.200000
 20
-49.200000
 30
0.0
 10
107.120000
 20
-50.480000
 30
0.0
 10
108.080000
 20
-52.240000
 30
0.0
 10
108.080000
 20
-53.520000
 30
0.0
  0
SPLINE
  5
234
100
AcDbEntity
  8
0
 62
7
100
AcDbSpline
 70
8
 71
3
 72
8
 73
4
 74
0
 40
0
 40
0
 40
0
 40
0
 40
1
 40
1
 40
1
 40
1
 10
108.080000
 20
-53.520000
 30
0.0
 10
108.000000
 20
-54.640000
 30
0.0
 10
106.240000
 20
-56.160000
 30
0.0
 10
106.160000
 20
-57.280000
 30
0.0
  0
SPLINE
  5
235
100
AcDbEntity
  8
0
 62
7
100
AcDbSpline
 70
8
 71
3
 72
8
 73
4
 74
0
 40
0
 40
0
 40
0
 40
0
 40
1
 40
1
 40
1
 40
1
 10
106.160000
 20
-57.280000
 30
0.0
 10
106.080000
 20
-58.880000
 30
0.0
 10
107.760000
 20
-61.040000
 30
0.0
 10
107.600000
 20
-62.000000
 30
0.0
  0
SPLINE
  5
236
100
AcDbEntity
  8
0
 62
7
100
AcDbSpline
 70
8
 71
3
 72
8
 73
4
 74
0
 40
0
 40
0
 40
0
 40
0
 40
1
 40
1
 40
1
 40
1
 10
107.600000
 20
-62.000000
 30
0.0
 10
107.440000
 20
-63.440000
 30
0.0
 10
106.240000
 20
-64.560000
 30
0.0
 10
106.160000
 20
-66.080000
 30
0.0
  0
SPLINE
  5
237
100
AcDbEntity
  8
0
 62
7
100
AcDbSpline
 70
8
 71
3
 72
8
 73
4
 74
0
 40
0
 40
0
 40
0
 40
0
 40
1
 40
1
 40
1
 40
1
 10
106.160000
 20
-66.080000
 30
0.0
 10
106.080000
 20
-67.440000
 30
0.0
 10
107.840000
 20
-69.200000
 30
0.0
 10
107.760000
 20
-70.560000
 30
0.0
  0
SPLINE
  5
238
100
AcDbEntity
  8
0
 62
7
100
AcDbSpline
 70
8
 71
3
 72
8
 73
4
 74
0
 40
0
 40
0
 40
0
 40
0
 40
1
 40
1
 40
1
 40
1
 10
107.760000
 20
-70.560000
 30
0.0
 10
107.680000
 20
-72.400000
 30
0.0
 10
106.320000
 20
-72.720000
 30
0.0
 10
106.320000
 20
-74.480000
 30
0.0
  0
SPLINE
  5
239
100
AcDbEntity
  8
0
 62
7
100
AcDbSpline
 70
8
 71
3
 72
8
 73
4
 74
0
 40
0
 40
0
 40
0
 40
0
 40
1
 40
1
 40
1
 40
1
 10
106.320000
 20
-74.480000
 30
0.0
 10
106.240000
 20
-77.520000
 30
0.0
 10
108.240000
 20
-78.560000
 30
0.0
 10
108.240000
 20
-81.520000
 30
0.0
  0
SPLINE
  5
23a
100
AcDbEntity
  8
0
 62
7
100
AcDbSpline
 70
8
 71
3
 72
8
 73
4
 74
0
 40
0
 40
0
 40
0
 40
0
 40
1
 40
1
 40
1
 40
1
 10
108.240000
 20
-81.520000
 30
0.0
 10
108.960000
 20
-78.640000
 30
0.0
 10
107.840000
 20
-77.680000
 30
0.0
 10
108.640000
 20
-74.800000
 30
0.0
  0
SPLINE
  5
23b
100
AcDbEntity
  8
0
 62
7
100
AcDbSpline
 70
8
 71
3
 72
8
 73
4
 74
0
 40
0
 40
0
 40
0
 40
0
 40
1
 40
1
 40
1
 40
1
 10
108.640000
 20
-74.800000
 30
0.0
 10
109.040000
 20
-72.960000
 30
0.0
 10
110.720000
 20
-72.720000
 30
0.0
 10
111.280000
 20
-70.880000
 30
0.0
  0
SPLINE
  5
23c
100
AcDbEntity
  8
0
 62
7
100
AcDbSpline
 70
8
 71
3
 72
8
 73
4
 74
0
 40
0
 40
0
 40
0
 40
0
 40
1
 40
1
 40
1
 40
1
 10
111.280000
 20
-70.880000
 30
0.0
 10
111.600000
 20
-69.520000
 30
0.0
 10
110.080000
 20
-67.920000
 30
0.0
 10
110.480000
 20
-66.560000
 30
0.0
  0
SPLINE
  5
23d
100
AcDbEntity
  8
0
 62
7
100
AcDbSpline
 70
8
 71
3
 72
8
 73
4
 74
0
 40
0
 40
0
 40
0
 40
0
 40
1
 40
1
 40
1
 40
1
 10
110.480000
 20
-66.560000
 30
0.0
 10
110.880000
 20
-65.120000
 30
0.0
 10
112.480000
 20
-64.080000
 30
0.0
 10
112.880000
 20
-62.640000
 30
0.0
  0
SPLINE
  5
23e
100
AcDbEntity
  8
0
 62
7
100
AcDbSpline
 70
8
 71
3
 72
8
 73
4
 74
0
 40
0
 40
0
 40
0
 40
0
 40
1
 40
1
 40
1
 40
1
 10
112.880000
 20
-62.640000
 30
0.0
 10
113.200000
 20
-61.360000
 30
0.0
 10
112.080000
 20
-59.360000
 30
0.0
 10
112.480000
 20
-58.000000
 30
0.0
  0
SPLINE
  5
23f
100
AcDbEntity
  8
0
 62
7
100
AcDbSpline
 70
8
 71
3
 72
8
 73
4
 74
0
 40
0
 40
0
 40
0
 40
0
 40
1
 40
1
 40
1
 40
1
 10
112.480000
 20
-58.000000
 30
0.0
 10
112.800000
 20
-56.960000
 30
0.0
 10
114.720000
 20
-55.360000
 30
0.0
 10
114.960000
 20
-54.400000
 30
0.0
  0
SPLINE
  5
240
100
AcDbEntity
  8
0
 62
7
100
AcDbSpline
 70
8
 71
3
 72
8
 73
4
 74
0
 40
0
 40
0
 40
0
 40
0
 40
1
 40
1
 40
1
 40
1
 10
114.960000
 20
-54.400000
 30
0.0
 10
115.280000
 20
-53.280000
 30
0.0
 10
114.480000
 20
-51.200000
 30
0.0
 10
114.720000
 20
-50.080000
 30
0.0
  0
SPLINE
  5
241
100
AcDbEntity
  8
0
 62
7
100
AcDbSpline
 70
8
 71
3
 72
8
 73
4
 74
0
 40
0
 40
0
 40
0
 40
0
 40
1
 40
1
 40
1
 40
1
 10
114.720000
 20
-50.080000
 30
0.0
 10
115.040000
 20
-48.960000
 30
0.0
 10
116.640000
 20
-48.400000
 30
0.0
 10
116.880000
 20
-47.440000
 30
0.0
  0
SPLINE
  5
242
100
AcDbEntity
  8
0
 62
7
100
AcDbSpline
 70
8
 71
3
 72
8
 73
4
 74
0
 40
0
 40
0
 40
0
 40
0
 40
1
 40
1
 40
1
 40
1
 10
116.880000
 20
-47.440000
 30
0.0
 10
117.280000
 20
-46.080000
 30
0.0
 10
116.160000
 20
-44.080000
 30
0.0
 10
116.480000
 20
-42.800000
 30
0.0
  0
SPLINE
  5
243
100
AcDbEntity
  8
0
 62
7
100
AcDbSpline
 70
8
 71
3
 72
8
 73
4
 74
0
 40
0
 40
0
 40
0
 40
0
 40
1
 40
1
 40
1
 40
1
 10
116.480000
 20
-42.800000
 30
0.0
 10
116.800000
 20
-41.680000
 30
0.0
 10
118.480000
 20
-40.800000
 30
0.0
 10
118.800000
 20
-39.600000
 30
0.0
  0
SPLINE
  5
244
100
AcDbEntity
  8
0
 62
7
100
AcDbSpline
 70
8
 71
3
 72
8
 73
4
 74
0
 40
0
 40
0
 40
0
 40
0
 40
1
 40
1
 40
1
 40
1
 10
118.800000
 20
-39.600000
 30
0.0
 10
119.200000
 20
-38.000000
 30
0.0
 10
117.680000
 20
-36.400000
 30
0.0
 10
118.160000
 20
-34.800000
 30
0.0
  0
SPLINE
  5
245
100
AcDbEntity
  8
0
 62
7
100
AcDbSpline
 70
8
 71
3
 72
8
 73
4
 74
0
 40
0
 40
0
 40
0
 40
0
 40
1
 40
1
 40
1
 40
1
 10
118.160000
 20
-34.800000
 30
0.0
 10
118.320000
 20
-34.160000
 30
0.0
 10
118.720000
 20
-33.600000
 30
0.0
 10
119.200000
 20
-33.040000
 30
0.0
  0
SPLINE
  5
246
100
AcDbEntity
  8
0
 62
7
100
AcDbSpline
 70
8
 71
3
 72
8
 73
4
 74
0
 40
0
 40
0
 40
0
 40
0
 40
1
 40
1
 40
1
 40
1
 10
119.200000
 20
-33.040000
 30
0.0
 10
119.520000
 20
-33.040000
 30
0.0
 10
119.840000
 20
-33.040000
 30
0.0
 10
120.160000
 20
-33.040000
 30
0.0
  0
SPLINE
  5
247
100
AcDbEntity
  8
0
 62
7
100
AcDbSpline
 70
8
 71
3
 72
8
 73
4
 74
0
 40
0
 40
0
 40
0
 40
0
 40
1
 40
1
 40
1
 40
1
 10
120.160000
 20
-33.040000
 30
0.0
 10
120.400000
 20
-33.040000
 30
0.0
 10
120.640000
 20
-33.040000
 30
0.0
 10
120.880000
 20
-33.040000
 30
0.0
  0
SPLINE
  5
248
100
AcDbEntity
  8
0
 62
7
100
AcDbSpline
 70
8
 71
3
 72
8
 73
4
 74
0
 40
0
 40
0
 40
0
 40
0
 40
1
 40
1
 40
1
 40
1
 10
120.880000
 20
-33.040000
 30
0.0
 10
120.800000
 20
-33.760000
 30
0.0
 10
120.800000
 20
-34.560000
 30
0.0
 10
121.040000
 20
-35.200000
 30
0.0
  0
SPLINE
  5
249
100
AcDbEntity
  8
0
 62
7
100
AcDbSpline
 70
8
 71
3
 72
8
 73
4
 74
0
 40
0
 40
0
 40
0
 40
0
 40
1
 40
1
 40
1
 40
1
 10
121.040000
 20
-35.200000
 30
0.0
 10
121.520000
 20
-36.720000
 30
0.0
 10
123.600000
 20
-37.840000
 30
0.0
 10
124.160000
 20
-39.280000
 30
0.0
  0
SPLINE
  5
24a
100
AcDbEntity
  8
0
 62
7
100
AcDbSpline
 70
8
 71
3
 72
8
 73
4
 74
0
 40
0
 40
0
 40
0
 40
0
 40
1
 40
1
 40
1
 40
1
 10
124.160000
 20
-39.280000
 30
0.0
 10
124.560000
 20
-40.560000
 30
0.0
 10
123.360000
 20
-41.920000
 30
0.0
 10
123.760000
 20
-43.280000
 30
0.0
  0
SPLINE
  5
24b
100
AcDbEntity
  8
0
 62
7
100
AcDbSpline
 70
8
 71
3
 72
8
 73
4
 74
0
 40
0
 40
0
 40
0
 40
0
 40
1
 40
1
 40
1
 40
1
 10
123.760000
 20
-43.280000
 30
0.0
 10
124.240000
 20
-44.560000
 30
0.0
 10
126.240000
 20
-45.920000
 30
0.0
 10
126.720000
 20
-47.280000
 30
0.0
  0
SPLINE
  5
24c
100
AcDbEntity
  8
0
 62
7
100
AcDbSpline
 70
8
 71
3
 72
8
 73
4
 74
0
 40
0
 40
0
 40
0
 40
0
 40
1
 40
1
 40
1
 40
1
 10
126.720000
 20
-47.280000
 30
0.0
 10
127.040000
 20
-48.240000
 30
0.0
 10
126.160000
 20
-49.600000
 30
0.0
 10
126.480000
 20
-50.560000
 30
0.0
  0
SPLINE
  5
24d
100
AcDbEntity
  8
0
 62
7
100
AcDbSpline
 70
8
 71
3
 72
8
 73
4
 74
0
 40
0
 40
0
 40
0
 40
0
 40
1
 40
1
 40
1
 40
1
 10
126.480000
 20
-50.560000
 30
0.0
 10
126.880000
 20
-51.760000
 30
0.0
 10
128.400000
 20
-53.040000
 30
0.0
 10
128.960000
 20
-54.240000
 30
0.0
  0
SPLINE
  5
24e
100
AcDbEntity
  8
0
 62
7
100
AcDbSpline
 70
8
 71
3
 72
8
 73
4
 74
0
 40
0
 40
0
 40
0
 40
0
 40
1
 40
1
 40
1
 40
1
 10
128.960000
 20
-54.240000
 30
0.0
 10
129.360000
 20
-55.280000
 30
0.0
 10
128.320000
 20
-57.440000
 30
0.0
 10
128.640000
 20
-58.400000
 30
0.0
  0
SPLINE
  5
24f
100
AcDbEntity
  8
0
 62
7
100
AcDbSpline
 70
8
 71
3
 72
8
 73
4
 74
0
 40
0
 40
0
 40
0
 40
0
 40
1
 40
1
 40
1
 40
1
 10
128.640000
 20
-58.400000
 30
0.0
 10
129.120000
 20
-59.840000
 30
0.0
 10
131.440000
 20
-61.200000
 30
0.0
 10
131.760000
 20
-62.160000
 30
0.0
  0
SPLINE
  5
250
100
AcDbEntity
  8
0
 62
7
100
AcDbSpline
 70
8
 71
3
 72
8
 73
4
 74
0
 40
0
 40
0
 40
0
 40
0
 40
1
 40
1
 40
1
 40
1
 10
131.760000
 20
-62.160000
 30
0.0
 10
132.160000
 20
-63.600000
 30
0.0
 10
131.440000
 20
-65.040000
 30
0.0
 10
132.000000
 20
-66.400000
 30
0.0
  0
SPLINE
  5
251
100
AcDbEntity
  8
0
 62
7
100
AcDbSpline
 70
8
 71
3
 72
8
 73
4
 74
0
 40
0
 40
0
 40
0
 40
0
 40
1
 40
1
 40
1
 40
1
 10
132.000000
 20
-66.400000
 30
0.0
 10
132.400000
 20
-67.760000
 30
0.0
 10
134.720000
 20
-68.720000
 30
0.0
 10
135.200000
 20
-70.000000
 30
0.0
  0
SPLINE
  5
252
100
AcDbEntity
  8
0
 62
7
100
AcDbSpline
 70
8
 71
3
 72
8
 73
4
 74
0
 40
0
 40
0
 40
0
 40
0
 40
1
 40
1
 40
1
 40
1
 10
135.200000
 20
-70.000000
 30
0.0
 10
135.840000
 20
-71.680000
 30
0.0
 10
134.720000
 20
-72.560000
 30
0.0
 10
135.360000
 20
-74.160000
 30
0.0
  0
SPLINE
  5
253
100
AcDbEntity
  8
0
 62
7
100
AcDbSpline
 70
8
 71
3
 72
8
 73
4
 74
0
 40
0
 40
0
 40
0
 40
0
 40
1
 40
1
 40
1
 40
1
 10
135.360000
 20
-74.160000
 30
0.0
 10
136.480000
 20
-76.960000
 30
0.0
 10
138.720000
 20
-77.120000
 30
0.0
 10
139.840000
 20
-79.920000
 30
0.0
  0
SPLINE
  5
254
100
AcDbEntity
  8
0
 62
7
100
AcDbSpline
 70
8
 71
3
 72
8
 73
4
 74
0
 40
0
 40
0
 40
0
 40
0
 40
1
 40
1
 40
1
 40
1
 10
139.840000
 20
-79.920000
 30
0.0
 10
139.440000
 20
-76.960000
 30
0.0
 10
137.920000
 20
-76.560000
 30
0.0
 10
137.520000
 20
-73.520000
 30
0.0
  0
SPLINE
  5
255
100
AcDbEntity
  8
0
 62
7
100
AcDbSpline
 70
8
 71
3
 72
8
 73
4
 74
0
 40
0
 40
0
 40
0
 40
0
 40
1
 40
1
 40
1
 40
1
 10
137.520000
 20
-73.520000
 30
0.0
 10
137.280000
 20
-71.680000
 30
0.0
 10
138.720000
 20
-70.800000
 30
0.0
 10
138.480000
 20
-68.880000
 30
0.0
  0
SPLINE
  5
256
100
AcDbEntity
  8
0
 62
7
100
AcDbSpline
 70
8
 71
3
 72
8
 73
4
 74
0
 40
0
 40
0
 40
0
 40
0
 40
1
 40
1
 40
1
 40
1
 10
138.480000
 20
-68.880000
 30
0.0
 10
138.240000
 20
-67.520000
 30
0.0
 10
136.320000
 20
-66.560000
 30
0.0
 10
136.080000
 20
-65.200000
 30
0.0
  0
SPLINE
  5
257
100
AcDbEntity
  8
0
 62
7
100
AcDbSpline
 70
8
 71
3
 72
8
 73
4
 74
0
 40
0
 40
0
 40
0
 40
0
 40
1
 40
1
 40
1
 40
1
 10
136.080000
 20
-65.200000
 30
0.0
 10
135.920000
 20
-63.760000
 30
0.0
 10
137.040000
 20
-62.160000
 30
0.0
 10
136.800000
 20
-60.720000
 30
0.0
  0
SPLINE
  5
258
100
AcDbEntity
  8
0
 62
7
100
AcDbSpline
 70
8
 71
3
 72
8
 73
4
 74
0
 40
0
 40
0
 40
0
 40
0
 40
1
 40
1
 40
1
 40
1
 10
136.800000
 20
-60.720000
 30
0.0
 10
136.640000
 20
-59.360000
 30
0.0
 10
134.880000
 20
-58.000000
 30
0.0
 10
134.720000
 20
-56.640000
 30
0.0
  0
SPLINE
  5
259
100
AcDbEntity
  8
0
 62
7
100
AcDbSpline
 70
8
 71
3
 72
8
 73
4
 74
0
 40
0
 40
0
 40
0
 40
0
 40
1
 40
1
 40
1
 40
1
 10
134.720000
 20
-56.640000
 30
0.0
 10
134.560000
 20
-55.600000
 30
0.0
 10
135.760000
 20
-53.360000
 30
0.0
 10
135.600000
 20
-52.320000
 30
0.0
  0
SPLINE
  5
25a
100
AcDbEntity
  8
0
 62
7
100
AcDbSpline
 70
8
 71
3
 72
8
 73
4
 74
0
 40
0
 40
0
 40
0
 40
0
 40
1
 40
1
 40
1
 40
1
 10
135.600000
 20
-52.320000
 30
0.0
 10
135.360000
 20
-51.200000
 30
0.0
 10
133.840000
 20
-49.680000
 30
0.0
 10
133.680000
 20
-48.400000
 30
0.0
  0
SPLINE
  5
25b
100
AcDbEntity
  8
0
 62
7
100
AcDbSpline
 70
8
 71
3
 72
8
 73
4
 74
0
 40
0
 40
0
 40
0
 40
0
 40
1
 40
1
 40
1
 40
1
 10
133.680000
 20
-48.400000
 30
0.0
 10
133.520000
 20
-47.280000
 30
0.0
 10
134.880000
 20
-46.160000
 30
0.0
 10
134.720000
 20
-45.040000
 30
0.0
  0
SPLINE
  5
25c
100
AcDbEntity
  8
0
 62
7
100
AcDbSpline
 70
8
 71
3
 72
8
 73
4
 74
0
 40
0
 40
0
 40
0
 40
0
 40
1
 40
1
 40
1
 40
1
 10
134.720000
 20
-45.040000
 30
0.0
 10
134.480000
 20
-43.680000
 30
0.0
 10
132.720000
 20
-42.320000
 30
0.0
 10
132.560000
 20
-40.960000
 30
0.0
  0
SPLINE
  5
25d
100
AcDbEntity
  8
0
 62
7
100
AcDbSpline
 70
8
 71
3
 72
8
 73
4
 74
0
 40
0
 40
0
 40
0
 40
0
 40
1
 40
1
 40
1
 40
1
 10
132.560000
 20
-40.960000
 30
0.0
 10
132.400000
 20
-39.760000
 30
0.0
 10
133.680000
 20
-38.400000
 30
0.0
 10
133.520000
 20
-37.120000
 30
0.0
  0
SPLINE
  5
25e
100
AcDbEntity
  8
0
 62
7
100
AcDbSpline
 70
8
 71
3
 72
8
 73
4
 74
0
 40
0
 40
0
 40
0
 40
0
 40
1
 40
1
 40
1
 40
1
 10
133.520000
 20
-37.120000
 30
0.0
 10
133.280000
 20
-35.520000
 30
0.0
 10
131.360000
 20
-34.560000
 30
0.0
 10
131.120000
 20
-32.960000
 30
0.0
  0
SPLINE
  5
25f
100
AcDbEntity
  8
0
 62
7
100
AcDbSpline
 70
8
 71
3
 72
8
 73
4
 74
0
 40
0
 40
0
 40
0
 40
0
 40
1
 40
1
 40
1
 40
1
 10
131.120000
 20
-32.960000
 30
0.0
 10
131.040000
 20
-32.320000
 30
0.0
 10
131.200000
 20
-31.600000
 30
0.0
 10
131.440000
 20
-30.960000
 30
0.0
  0
SPLINE
  5
260
100
AcDbEntity
  8
0
 62
7
100
AcDbSpline
 70
8
 71
3
 72
8
 73
4
 74
0
 40
0
 40
0
 40
0
 40
0
 40
1
 40
1
 40
1
 40
1
 10
131.440000
 20
-30.960000
 30
0.0
 10
131.920000
 20
-30.800000
 30
0.0
 10
132.400000
 20
-30.560000
 30
0.0
 10
132.880000
 20
-30.400000
 30
0.0
  0
SPLINE
  5
261
100
AcDbEntity
  8
0
 62
7
100
AcDbSpline
 70
8
 71
3
 72
8
 73
4
 74
0
 40
0
 40
0
 40
0
 40
0
 40
1
 40
1
 40
1
 40
1
 10
132.880000
 20
-30.400000
 30
0.0
 10
133.120000
 20
-31.120000
 30
0.0
 10
133.360000
 20
-31.840000
 30
0.0
 10
133.920000
 20
-32.400000
 30
0.0
  0
SPLINE
  5
262
100
AcDbEntity
  8
0
 62
7
100
AcDbSpline
 70
8
 71
3
 72
8
 73
4
 74
0
 40
0
 40
0
 40
0
 40
0
 40
1
 40
1
 40
1
 40
1
 10
133.920000
 20
-32.400000
 30
0.0
 10
134.960000
 20
-33.520000
 30
0.0
 10
137.280000
 20
-33.760000
 30
0.0
 10
138.320000
 20
-34.960000
 30
0.0
  0
SPLINE
  5
263
100
AcDbEntity
  8
0
 62
7
100
AcDbSpline
 70
8
 71
3
 72
8
 73
4
 74
0
 40
0
 40
0
 40
0
 40
0
 40
1
 40
1
 40
1
 40
1
 10
138.320000
 20
-34.960000
 30
0.0
 10
139.280000
 20
-36.000000
 30
0.0
 10
138.640000
 20
-37.680000
 30
0.0
 10
139.520000
 20
-38.720000
 30
0.0
  0
SPLINE
  5
264
100
AcDbEntity
  8
0
 62
7
100
AcDbSpline
 70
8
 71
3
 72
8
 73
4
 74
0
 40
0
 40
0
 40
0
 40
0
 40
1
 40
1
 40
1
 40
1
 10
139.520000
 20
-38.720000
 30
0.0
 10
140.480000
 20
-39.840000
 30
0.0
 10
142.880000
 20
-40.320000
 30
0.0
 10
143.760000
 20
-41.360000
 30
0.0
  0
SPLINE
  5
265
100
AcDbEntity
  8
0
 62
7
100
AcDbSpline
 70
8
 71
3
 72
8
 73
4
 74
0
 40
0
 40
0
 40
0
 40
0
 40
1
 40
1
 40
1
 40
1
 10
143.760000
 20
-41.360000
 30
0.0
 10
144.400000
 20
-42.080000
 30
0.0
 10
144.080000
 20
-43.760000
 30
0.0
 10
144.720000
 20
-44.480000
 30
0.0
  0
SPLINE
  5
266
100
AcDbEntity
  8
0
 62
7
100
AcDbSpline
 70
8
 71
3
 72
8
 73
4
 74
0
 40
0
 40
0
 40
0
 40
0
 40
1
 40
1
 40
1
 40
1
 10
144.720000
 20
-44.480000
 30
0.0
 10
145.680000
 20
-45.440000
 30
0.0
 10
147.520000
 20
-45.920000
 30
0.0
 10
148.400000
 20
-46.960000
 30
0.0
  0
SPLINE
  5
267
100
AcDbEntity
  8
0
 62
7
100
AcDbSpline
 70
8
 71
3
 72
8
 73
4
 74
0
 40
0
 40
0
 40
0
 40
0
 40
1
 40
1
 40
1
 40
1
 10
148.400000
 20
-46.960000
 30
0.0
 10
149.120000
 20
-47.760000
 30
0.0
 10
149.040000
 20
-50.080000
 30
0.0
 10
149.760000
 20
-50.880000
 30
0.0
  0
SPLINE
  5
268
100
AcDbEntity
  8
0
 62
7
100
AcDbSpline
 70
8
 71
3
 72
8
 73
4
 74
0
 40
0
 40
0
 40
0
 40
0
 40
1
 40
1
 40
1
 40
1
 10
149.760000
 20
-50.880000
 30
0.0
 10
150.880000
 20
-52.080000
 30
0.0
 10
153.520000
 20
-52.480000
 30
0.0
 10
154.080000
 20
-53.200000
 30
0.0
  0
SPLINE
  5
269
100
AcDbEntity
  8
0
 62
7
100
AcDbSpline
 70
8
 71
3
 72
8
 73
4
 74
0
 40
0
 40
0
 40
0
 40
0
 40
1
 40
1
 40
1
 40
1
 10
154.080000
 20
-53.200000
 30
0.0
 10
155.040000
 20
-54.320000
 30
0.0
 10
154.880000
 20
-56.000000
 30
0.0
 10
155.920000
 20
-57.120000
 30
0.0
  0
SPLINE
  5
26a
100
AcDbEntity
  8
0
 62
7
100
AcDbSpline
 70
8
 71
3
 72
8
 73
4
 74
0
 40
0
 40
0
 40
0
 40
0
 40
1
 40
1
 40
1
 40
1
 10
155.920000
 20
-57.120000
 30
0.0
 10
156.880000
 20
-58.240000
 30
0.0
 10
159.360000
 20
-58.240000
 30
0.0
 10
160.240000
 20
-59.200000
 30
0.0
  0
SPLINE
  5
26b
100
AcDbEntity
  8
0
 62
7
100
AcDbSpline
 70
8
 71
3
 72
8
 73
4
 74
0
 40
0
 40
0
 40
0
 40
0
 40
1
 40
1
 40
1
 40
1
 10
160.240000
 20
-59.200000
 30
0.0
 10
161.360000
 20
-60.480000
 30
0.0
 10
160.640000
 20
-61.760000
 30
0.0
 10
161.920000
 20
-63.040000
 30
0.0
  0
SPLINE
  5
26c
100
AcDbEntity
  8
0
 62
7
100
AcDbSpline
 70
8
 71
3
 72
8
 73
4
 74
0
 40
0
 40
0
 40
0
 40
0
 40
1
 40
1
 40
1
 40
1
 10
161.920000
 20
-63.040000
 30
0.0
 10
164.080000
 20
-65.200000
 30
0.0
 10
166.240000
 20
-64.560000
 30
0.0
 10
168.320000
 20
-66.640000
 30
0.0
  0
SPLINE
  5
26d
100
AcDbEntity
  8
0
 62
7
100
AcDbSpline
 70
8
 71
3
 72
8
 73
4
 74
0
 40
0
 40
0
 40
0
 40
0
 40
1
 40
1
 40
1
 40
1
 10
168.320000
 20
-66.640000
 30
0.0
 10
166.800000
 20
-64.080000
 30
0.0
 10
165.360000
 20
-64.240000
 30
0.0
 10
163.840000
 20
-61.680000
 30
0.0
  0
SPLINE
  5
26e
100
AcDbEntity
  8
0
 62
7
100
AcDbSpline
 70
8
 71
3
 72
8
 73
4
 74
0
 40
0
 40
0
 40
0
 40
0
 40
1
 40
1
 40
1
 40
1
 10
163.840000
 20
-61.680000
 30
0.0
 10
162.880000
 20
-60.080000
 30
0.0
 10
163.840000
 20
-58.640000
 30
0.0
 10
162.880000
 20
-57.120000
 30
0.0
  0
SPLINE
  5
26f
100
AcDbEntity
  8
0
 62
7
100
AcDbSpline
 70
8
 71
3
 72
8
 73
4
 74
0
 40
0
 40
0
 40
0
 40
0
 40
1
 40
1
 40
1
 40
1
 10
162.880000
 20
-57.120000
 30
0.0
 10
162.160000
 20
-55.920000
 30
0.0
 10
160.000000
 20
-55.760000
 30
0.0
 10
159.360000
 20
-54.560000
 30
0.0
  0
SPLINE
  5
270
100
AcDbEntity
  8
0
 62
7
100
AcDbSpline
 70
8
 71
3
 72
8
 73
4
 74
0
 40
0
 40
0
 40
0
 40
0
 40
1
 40
1
 40
1
 40
1
 10
159.360000
 20
-54.560000
 30
0.0
 10
158.560000
 20
-53.280000
 30
0.0
 10
158.960000
 20
-51.360000
 30
0.0
 10
158.240000
 20
-50.080000
 30
0.0
  0
SPLINE
  5
271
100
AcDbEntity
  8
0
 62
7
100
AcDbSpline
 70
8
 71
3
 72
8
 73
4
 74
0
 40
0
 40
0
 40
0
 40
0
 40
1
 40
1
 40
1
 40
1
 10
158.240000
 20
-50.080000
 30
0.0
 10
157.600000
 20
-48.960000
 30
0.0
 10
155.360000
 20
-48.320000
 30
0.0
 10
154.720000
 20
-47.120000
 30
0.0
  0
SPLINE
  5
272
100
AcDbEntity
  8
0
 62
7
100
AcDbSpline
 70
8
 71
3
 72
8
 73
4
 74
0
 40
0
 40
0
 40
0
 40
0
 40
1
 40
1
 40
1
 40
1
 10
154.720000
 20
-47.120000
 30
0.0
 10
154.240000
 20
-46.160000
 30
0.0
 10
154.400000
 20
-43.760000
 30
0.0
 10
153.840000
 20
-42.800000
 30
0.0
  0
SPLINE
  5
273
100
AcDbEntity
  8
0
 62
7
100
AcDbSpline
 70
8
 71
3
 72
8
 73
4
 74
0
 40
0
 40
0
 40
0
 40
0
 40
1
 40
1
 40
1
 40
1
 10
153.840000
 20
-42.800000
 30
0.0
 10
153.200000
 20
-41.760000
 30
0.0
 10
151.200000
 20
-40.960000
 30
0.0
 10
150.640000
 20
-39.920000
 30
0.0
  0
SPLINE
  5
274
100
AcDbEntity
  8
0
 62
7
100
AcDbSpline
 70
8
 71
3
 72
8
 73
4
 74
0
 40
0
 40
0
 40
0
 40
0
 40
1
 40
1
 40
1
 40
1
 10
150.640000
 20
-39.920000
 30
0.0
 10
150.080000
 20
-38.960000
 30
0.0
 10
150.800000
 20
-37.360000
 30
0.0
 10
150.240000
 20
-36.480000
 30
0.0
  0
SPLINE
  5
275
100
AcDbEntity
  8
0
 62
7
100
AcDbSpline
 70
8
 71
3
 72
8
 73
4
 74
0
 40
0
 40
0
 40
0
 40
0
 40
1
 40
1
 40
1
 40
1
 10
150.240000
 20
-36.480000
 30
0.0
 10
149.520000
 20
-35.360000
 30
0.0
 10
147.440000
 20
-34.640000
 30
0.0
 10
146.720000
 20
-33.520000
 30
0.0
  0
SPLINE
  5
276
100
AcDbEntity
  8
0
 62
7
100
AcDbSpline
 70
8
 71
3
 72
8
 73
4
 74
0
 40
0
 40
0
 40
0
 40
0
 40
1
 40
1
 40
1
 40
1
 10
146.720000
 20
-33.520000
 30
0.0
 10
146.080000
 20
-32.480000
 30
0.0
 10
146.720000
 20
-30.640000
 30
0.0
 10
146.080000
 20
-29.600000
 30
0.0
  0
SPLINE
  5
277
100
AcDbEntity
  8
0
 62
7
100
AcDbSpline
 70
8
 71
3
 72
8
 73
4
 74
0
 40
0
 40
0
 40
0
 40
0
 40
1
 40
1
 40
1
 40
1
 10
146.080000
 20
-29.600000
 30
0.0
 10
145.280000
 20
-28.240000
 30
0.0
 10
143.120000
 20
-28.080000
 30
0.0
 10
142.320000
 20
-26.720000
 30
0.0
  0
SPLINE
  5
278
100
AcDbEntity
  8
0
 62
7
100
AcDbSpline
 70
8
 71
3
 72
8
 73
4
 74
0
 40
0
 40
0
 40
0
 40
0
 40
1
 40
1
 40
1
 40
1
 10
142.320000
 20
-26.720000
 30
0.0
 10
142.000000
 20
-26.160000
 30
0.0
 10
141.840000
 20
-25.440000
 30
0.0
 10
141.840000
 20
-24.720000
 30
0.0
  0
SPLINE
  5
279
100
AcDbEntity
  8
0
 62
7
100
AcDbSpline
 70
8
 71
3
 72
8
 73
4
 74
0
 40
0
 40
0
 40
0
 40
0
 40
1
 40
1
 40
1
 40
1
 10
141.840000
 20
-24.720000
 30
0.0
 10
142.240000
 20
-24.320000
 30
0.0
 10
142.560000
 20
-24.000000
 30
0.0
 10
142.960000
 20
-23.600000
 30
0.0
  0
SPLINE
  5
27a
100
AcDbEntity
  8
0
 62
7
100
AcDbSpline
 70
8
 71
3
 72
8
 73
4
 74
0
 40
0
 40
0
 40
0
 40
0
 40
1
 40
1
 40
1
 40
1
 10
142.960000
 20
-23.600000
 30
0.0
 10
143.440000
 20
-24.160000
 30
0.0
 10
144.000000
 20
-24.720000
 30
0.0
 10
144.640000
 20
-25.040000
 30
0.0
  0
SPLINE
  5
27b
100
AcDbEntity
  8
0
 62
7
100
AcDbSpline
 70
8
 71
3
 72
8
 73
4
 74
0
 40
0
 40
0
 40
0
 40
0
 40
1
 40
1
 40
1
 40
1
 10
144.640000
 20
-25.040000
 30
0.0
 10
146.000000
 20
-25.680000
 30
0.0
 10
148.240000
 20
-25.040000
 30
0.0
 10
149.680000
 20
-25.680000
 30
0.0
  0
SPLINE
  5
27c
100
AcDbEntity
  8
0
 62
7
100
AcDbSpline
 70
8
 71
3
 72
8
 73
4
 74
0
 40
0
 40
0
 40
0
 40
0
 40
1
 40
1
 40
1
 40
1
 10
149.680000
 20
-25.680000
 30
0.0
 10
150.960000
 20
-26.240000
 30
0.0
 10
151.040000
 20
-28.160000
 30
0.0
 10
152.320000
 20
-28.720000
 30
0.0
  0
SPLINE
  5
27d
100
AcDbEntity
  8
0
 62
7
100
AcDbSpline
 70
8
 71
3
 72
8
 73
4
 74
0
 40
0
 40
0
 40
0
 40
0
 40
1
 40
1
 40
1
 40
1
 10
152.320000
 20
-28.720000
 30
0.0
 10
153.600000
 20
-29.280000
 30
0.0
 10
155.920000
 20
-28.880000
 30
0.0
 10
157.280000
 20
-29.520000
 30
0.0
  0
SPLINE
  5
27e
100
AcDbEntity
  8
0
 62
7
100
AcDbSpline
 70
8
 71
3
 72
8
 73
4
 74
0
 40
0
 40
0
 40
0
 40
0
 40
1
 40
1
 40
1
 40
1
 10
157.280000
 20
-29.520000
 30
0.0
 10
158.240000
 20
-29.920000
 30
0.0
 10
158.480000
 20
-31.520000
 30
0.0
 10
159.360000
 20
-32.000000
 30
0.0
  0
SPLINE
  5
27f
100
AcDbEntity
  8
0
 62
7
100
AcDbSpline
 70
8
 71
3
 72
8
 73
4
 74
0
 40
0
 40
0
 40
0
 40
0
 40
1
 40
1
 40
1
 40
1
 10
159.360000
 20
-32.000000
 30
0.0
 10
160.560000
 20
-32.480000
 30
0.0
 10
162.560000
 20
-32.320000
 30
0.0
 10
163.680000
 20
-32.880000
 30
0.0
  0
SPLINE
  5
280
100
AcDbEntity
  8
0
 62
7
100
AcDbSpline
 70
8
 71
3
 72
8
 73
4
 74
0
 40
0
 40
0
 40
0
 40
0
 40
1
 40
1
 40
1
 40
1
 10
163.680000
 20
-32.880000
 30
0.0
 10
164.640000
 20
-33.280000
 30
0.0
 10
165.520000
 20
-35.520000
 30
0.0
 10
166.400000
 20
-36.000000
 30
0.0
  0
SPLINE
  5
281
100
AcDbEntity
  8
0
 62
7
100
AcDbSpline
 70
8
 71
3
 72
8
 73
4
 74
0
 40
0
 40
0
 40
0
 40
0
 40
1
 40
1
 40
1
 40
1
 10
166.400000
 20
-36.000000
 30
0.0
 10
167.840000
 20
-36.720000
 30
0.0
 10
170.480000
 20
-36.000000
 30
0.0
 10
171.360000
 20
-36.480000
 30
0.0
  0
SPLINE
  5
282
100
AcDbEntity
  8
0
 62
7
100
AcDbSpline
 70
8
 71
3
 72
8
 73
4
 74
0
 40
0
 40
0
 40
0
 40
0
 40
1
 40
1
 40
1
 40
1
 10
171.360000
 20
-36.480000
 30
0.0
 10
172.640000
 20
-37.200000
 30
0.0
 10
173.200000
 20
-38.720000
 30
0.0
 10
174.560000
 20
-39.360000
 30
0.0
  0
SPLINE
  5
283
100
AcDbEntity
  8
0
 62
7
100
AcDbSpline
 70
8
 71
3
 72
8
 73
4
 74
0
 40
0
 40
0
 40
0
 40
0
 40
1
 40
1
 40
1
 40
1
 10
174.560000
 20
-39.360000
 30
0.0
 10
175.760000
 20
-40.000000
 30
0.0
 10
178.080000
 20
-39.040000
 30
0.0
 10
179.360000
 20
-39.680000
 30
0.0
  0
SPLINE
  5
284
100
AcDbEntity
  8
0
 62
7
100
AcDbSpline
 70
8
 71
3
 72
8
 73
4
 74
0
 40
0
 40
0
 40
0
 40
0
 40
1
 40
1
 40
1
 40
1
 10
179.360000
 20
-39.680000
 30
0.0
 10
180.960000
 20
-40.400000
 30
0.0
 10
180.720000
 20
-41.840000
 30
0.0
 10
182.400000
 20
-42.560000
 30
0.0
  0
SPLINE
  5
285
100
AcDbEntity
  8
0
 62
7
100
AcDbSpline
 70
8
 71
3
 72
8
 73
4
 74
0
 40
0
 40
0
 40
0
 40
0
 40
1
 40
1
 40
1
 40
1
 10
182.400000
 20
-42.560000
 30
0.0
 10
185.120000
 20
-43.680000
 30
0.0
 10
186.800000
 20
-42.320000
 30
0.0
 10
189.680000
 20
-43.520000
 30
0.0
  0
SPLINE
  5
286
100
AcDbEntity
  8
0
 62
7
100
AcDbSpline
 70
8
 71
3
 72
8
 73
4
 74
0
 40
0
 40
0
 40
0
 40
0
 40
1
 40
1
 40
1
 40
1
 10
189.680000
 20
-43.520000
 30
0.0
 10
187.280000
 20
-41.680000
 30
0.0
 10
186.000000
 20
-42.400000
 30
0.0
 10
183.600000
 20
-40.640000
 30
0.0
  0
SPLINE
  5
287
100
AcDbEntity
  8
0
 62
7
100
AcDbSpline
 70
8
 71
3
 72
8
 73
4
 74
0
 40
0
 40
0
 40
0
 40
0
 40
1
 40
1
 40
1
 40
1
 10
183.600000
 20
-40.640000
 30
0.0
 10
182.160000
 20
-39.520000
 30
0.0
 10
182.400000
 20
-37.840000
 30
0.0
 10
180.960000
 20
-36.720000
 30
0.0
  0
SPLINE
  5
288
100
AcDbEntity
  8
0
 62
7
100
AcDbSpline
 70
8
 71
3
 72
8
 73
4
 74
0
 40
0
 40
0
 40
0
 40
0
 40
1
 40
1
 40
1
 40
1
 10
180.960000
 20
-36.720000
 30
0.0
 10
179.840000
 20
-35.840000
 30
0.0
 10
177.760000
 20
-36.560000
 30
0.0
 10
176.640000
 20
-35.680000
 30
0.0
  0
SPLINE
  5
289
100
AcDbEntity
  8
0
 62
7
100
AcDbSpline
 70
8
 71
3
 72
8
 73
4
 74
0
 40
0
 40
0
 40
0
 40
0
 40
1
 40
1
 40
1
 40
1
 10
176.640000
 20
-35.680000
 30
0.0
 10
175.520000
 20
-34.800000
 30
0.0
 10
175.120000
 20
-32.960000
 30
0.0
 10
173.920000
 20
-32.000000
 30
0.0
  0
SPLINE
  5
28a
100
AcDbEntity
  8
0
 62
7
100
AcDbSpline
 70
8
 71
3
 72
8
 73
4
 74
0
 40
0
 40
0
 40
0
 40
0
 40
1
 40
1
 40
1
 40
1
 10
173.920000
 20
-32.000000
 30
0.0
 10
172.800000
 20
-31.120000
 30
0.0
 10
170.560000
 20
-31.520000
 30
0.0
 10
169.520000
 20
-30.640000
 30
0.0
  0
SPLINE
  5
28b
100
AcDbEntity
  8
0
 62
7
100
AcDbSpline
 70
8
 71
3
 72
8
 73
4
 74
0
 40
0
 40
0
 40
0
 40
0
 40
1
 40
1
 40
1
 40
1
 10
169.520000
 20
-30.640000
 30
0.0
 10
168.640000
 20
-30.000000
 30
0.0
 10
167.920000
 20
-27.600000
 30
0.0
 10
167.040000
 20
-26.960000
 30
0.0
  0
SPLINE
  5
28c
100
AcDbEntity
  8
0
 62
7
100
AcDbSpline
 70
8
 71
3
 72
8
 73
4
 74
0
 40
0
 40
0
 40
0
 40
0
 40
1
 40
1
 40
1
 40
1
 10
167.040000
 20
-26.960000
 30
0.0
 10
166.080000
 20
-26.240000
 30
0.0
 10
163.920000
 20
-26.240000
 30
0.0
 10
162.960000
 20
-25.520000
 30
0.0
  0
SPLINE
  5
28d
100
AcDbEntity
  8
0
 62
7
100
AcDbSpline
 70
8
 71
3
 72
8
 73
4
 74
0
 40
0
 40
0
 40
0
 40
0
 40
1
 40
1
 40
1
 40
1
 10
162.960000
 20
-25.520000
 30
0.0
 10
162.080000
 20
-24.880000
 30
0.0
 10
162.160000
 20
-23.120000
 30
0.0
 10
161.280000
 20
-22.480000
 30
0.0
  0
SPLINE
  5
28e
100
AcDbEntity
  8
0
 62
7
100
AcDbSpline
 70
8
 71
3
 72
8
 73
4
 74
0
 40
0
 40
0
 40
0
 40
0
 40
1
 40
1
 40
1
 40
1
 10
161.280000
 20
-22.480000
 30
0.0
 10
160.160000
 20
-21.600000
 30
0.0
 10
158.000000
 20
-21.840000
 30
0.0
 10
156.880000
 20
-21.040000
 30
0.0
  0
SPLINE
  5
28f
100
AcDbEntity
  8
0
 62
7
100
AcDbSpline
 70
8
 71
3
 72
8
 73
4
 74
0
 40
0
 40
0
 40
0
 40
0
 40
1
 40
1
 40
1
 40
1
 10
156.880000
 20
-21.040000
 30
0.0
 10
155.920000
 20
-20.320000
 30
0.0
 10
155.760000
 20
-18.400000
 30
0.0
 10
154.880000
 20
-17.680000
 30
0.0
  0
SPLINE
  5
290
100
AcDbEntity
  8
0
 62
7
100
AcDbSpline
 70
8
 71
3
 72
8
 73
4
 74
0
 40
0
 40
0
 40
0
 40
0
 40
1
 40
1
 40
1
 40
1
 10
154.880000
 20
-17.680000
 30
0.0
 10
153.600000
 20
-16.720000
 30
0.0
 10
151.440000
 20
-17.440000
 30
0.0
 10
150.240000
 20
-16.480000
 30
0.0
  0
SPLINE
  5
291
100
AcDbEntity
  8
0
 62
7
100
AcDbSpline
 70
8
 71
3
 72
8
 73
4
 74
0
 40
0
 40
0
 40
0
 40
0
 40
1
 40
1
 40
1
 40
1
 10
150.240000
 20
-16.480000
 30
0.0
 10
149.760000
 20
-16.080000
 30
0.0
 10
149.360000
 20
-15.520000
 30
0.0
 10
149.040000
 20
-14.880000
 30
0.0
  0
SPLINE
  5
292
100
AcDbEntity
  8
0
 62
7
100
AcDbSpline
 70
8
 71
3
 72
8
 73
4
 74
0
 40
0
 40
0
 40
0
 40
0
 40
1
 40
1
 40
1
 40
1
 10
149.040000
 20
-14.880000
 30
0.0
 10
149.280000
 20
-14.400000
 30
0.0
 10
149.440000
 20
-13.920000
 30
0.0
 10
149.680000
 20
-13.440000
 30
0.0
  0
SPLINE
  5
293
100
AcDbEntity
  8
0
 62
7
100
AcDbSpline
 70
8
 71
3
 72
8
 73
4
 74
0
 40
0
 40
0
 40
0
 40
0
 40
1
 40
1
 40
1
 40
1
 10
149.680000
 20
-13.440000
 30
0.0
 10
150.240000
 20
-13.360000
 30
0.0
 10
150.880000
 20
-13.680000
 30
0.0
 10
151.600000
 20
-13.680000
 30
0.0
  0
ENDSEC
  0
SECTION
  2
OBJECTS
  0
DICTIONARY
  5
C
330
0
100
AcDbDictionary
  3
ACAD_GROUP
350
D
  3
ACAD_MLINESTYLE
350
17
  0
DICTIONARY
  5
D
330
C
100
AcDbDictionary
  0
DICTIONARY
  5
1A
330
C
100
AcDbDictionary
  0
DICTIONARY
  5
17
330
C
100
AcDbDictionary
  3
STANDARD
350
18
  0
DICTIONARY
  5
19
330
C
100
AcDbDictionary
  0
ENDSEC
  0
EOF
